<?xml version="1.0" encoding="utf-8"?>
<!-- Generator: Adobe Illustrator 16.0.0, SVG Export Plug-In . SVG Version: 6.00 Build 0)  -->
<!DOCTYPE svg PUBLIC "-//W3C//DTD SVG 1.1//EN" "http://www.w3.org/Graphics/SVG/1.1/DTD/svg11.dtd">
<svg version="1.1" id="Layer_1" xmlns="http://www.w3.org/2000/svg" xmlns:xlink="http://www.w3.org/1999/xlink" x="0px" y="0px"
	 width="707.955px" height="725.931px" viewBox="0 0 707.955 725.931" enable-background="new 0 0 707.955 725.931"
	 xml:space="preserve">
<circle fill="#036564" cx="121.049" cy="234.049" r="28.049"/>
<circle fill="#0E706D" cx="119.438" cy="231.848" r="25.532"/>
<circle fill="#658CB4" cx="391.791" cy="247.734" r="9.488"/>
<circle fill="#6F98BC" cx="390.608" cy="246.352" r="7.998"/>
<ellipse fill="#537FA0" cx="384.822" cy="247.596" rx="2.109" ry="3.861"/>
<circle fill="#658CB4" cx="365.506" cy="354.604" r="15.316"/>
<circle fill="#6F98BC" cx="363.596" cy="352.371" r="12.912"/>
<ellipse fill="#537FA0" cx="354.255" cy="354.38" rx="3.404" ry="6.233"/>
<circle fill="#658CB4" cx="16.784" cy="16.783" r="16.784"/>
<circle fill="#6F98BC" cx="14.691" cy="14.338" r="14.148"/>
<ellipse fill="#537FA0" cx="4.455" cy="16.539" rx="3.73" ry="6.83"/>
<circle fill="#036564" cx="53.166" cy="706.765" r="19.166"/>
<circle fill="#137772" cx="52.065" cy="705.262" r="17.446"/>
<circle fill="#036564" cx="177.496" cy="497.613" r="10.416"/>
<circle fill="#137772" cx="176.897" cy="496.797" r="9.481"/>
<circle fill="#658CB4" cx="357.187" cy="695.923" r="15.187"/>
<circle fill="#6F98BC" cx="355.292" cy="693.709" r="12.802"/>
<ellipse fill="#537FA0" cx="346.031" cy="695.701" rx="3.375" ry="6.181"/>
<circle fill="#658CB4" cx="506.283" cy="557.283" r="13.283"/>
<circle fill="#6F98BC" cx="504.627" cy="555.347" r="11.197"/>
<ellipse fill="#537FA0" cx="496.526" cy="557.09" rx="2.952" ry="5.405"/>
<circle fill="#658CB4" cx="691.478" cy="680.478" r="16.478"/>
<circle fill="#6F98BC" cx="689.423" cy="678.075" r="13.891"/>
<ellipse fill="#537FA0" cx="679.374" cy="680.237" rx="3.662" ry="6.705"/>
<circle fill="#658CB4" cx="663.015" cy="321.015" r="8.015"/>
<circle fill="#6F98BC" cx="662.016" cy="319.847" r="6.757"/>
<ellipse fill="#537FA0" cx="657.127" cy="320.898" rx="1.782" ry="3.262"/>
<circle fill="#E3DED2" cx="232.293" cy="79.073" r="5.488"/>
<circle fill="#E3DED2" cx="248.176" cy="101.956" r="3.371"/>
<circle fill="#E3DED2" cx="72.409" cy="217.67" r="3.53"/>
<circle fill="#E3DED2" cx="119.471" cy="286.193" r="3.371"/>
<circle fill="#E3DED2" cx="101.505" cy="297.284" r="2.699"/>
<circle fill="#E3DED2" cx="166.495" cy="321.274" r="1.69"/>
<circle fill="#E3DED2" cx="159.764" cy="422.335" r="3.75"/>
<circle fill="#E3DED2" cx="170.617" cy="437.971" r="2.303"/>
<circle fill="#E3DED2" cx="602.17" cy="488.95" r="2.365"/>
<circle fill="#E3DED2" cx="534.176" cy="556.956" r="3.371"/>
<circle fill="#E3DED2" cx="530.091" cy="442.87" r="2.286"/>
<circle fill="#E3DED2" cx="404.905" cy="324.12" r="1.606"/>
<circle fill="#E3DED2" cx="513.341" cy="425.12" r="3.536"/>
<circle fill="#E3DED2" cx="425.285" cy="398.545" r="1.622"/>
<circle fill="#E3DED2" cx="531.088" cy="402.055" r="3.535"/>
<circle fill="#E3DED2" cx="334.583" cy="300.354" r="1.778"/>
<circle fill="#E3DED2" cx="219.24" cy="444.913" r="1.73"/>
<circle fill="#E3DED2" cx="228.495" cy="423.274" r="1.69"/>
<circle fill="#E3DED2" cx="240.119" cy="142.898" r="1.314"/>
<circle fill="#E3DED2" cx="396.293" cy="212.073" r="5.488"/>
<circle fill="#E3DED2" cx="412.176" cy="234.956" r="3.371"/>
</svg>
