<?xml version="1.0" encoding="utf-8"?>
<!-- Generator: Adobe Illustrator 16.0.0, SVG Export Plug-In . SVG Version: 6.00 Build 0)  -->
<!DOCTYPE svg PUBLIC "-//W3C//DTD SVG 1.1//EN" "http://www.w3.org/Graphics/SVG/1.1/DTD/svg11.dtd">
<svg version="1.1" id="Layer_1" xmlns="http://www.w3.org/2000/svg" xmlns:xlink="http://www.w3.org/1999/xlink" x="0px" y="0px"
	 width="353.754px" height="353.659px" viewBox="0 0 353.754 353.659" enable-background="new 0 0 353.754 353.659"
	 xml:space="preserve">
<circle fill="#036564" cx="176.925" cy="176.83" r="176.829"/>
<path fill="#157C77" d="M306.865,153.385c0,81.398-65.986,147.385-147.385,147.385S1.02,263.431,0.554,164.099
	C0.179,84.195,83.334-9.138,193.401,0.77C274.473,8.068,306.865,71.987,306.865,153.385z"/>
<ellipse fill="#03514F" cx="92.334" cy="137.195" rx="29" ry="28.333"/>
<ellipse fill="#036564" cx="96.783" cy="141.657" rx="24.217" ry="23.661"/>
<ellipse fill="#03514F" cx="176.667" cy="87.843" rx="15.333" ry="14.981"/>
<ellipse fill="#036564" cx="179.421" cy="90.594" rx="12.403" ry="12.119"/>
<ellipse fill="#03514F" cx="156.182" cy="171.484" rx="9.848" ry="9.621"/>
<ellipse fill="#036564" cx="157.25" cy="172.566" rx="8.666" ry="8.468"/>
<path opacity="0.6" fill="#03514F" d="M59,53.863c0,0,51.333-37.333,79.333-26C159,35.196,211.666,39.055,231,39.792
	c11.334-1.263,38.667,13.069,48,26.071c8,10.332,39.905,1.69,33.334,3.333c-14.667,3.666-34.001,6.333-34.001,6.333
	S253.361,64.576,247,57.863c-9.333-6.667-13.332-9.143-36.666-8.571s-48.6-7.725-61.75-10.096
	C139.333,37.528,139.667,13.863,59,53.863z"/>
<path opacity="0.6" fill="#03514F" d="M38,78.475c0,0,23.566-21.28,58.783-23.28c20.217,4,66.049,6,69.133,0
	C181,56.195,215,54.475,228,66.835s69.428,22.289,85.219,21.008S334,96.453,334,102.824S218,87.843,218,87.843
	s-45.332-15.352-71.666,0s-45.666,4.15-54,2.751S38,78.475,38,78.475z"/>
<path opacity="0.6" fill="#03514F" d="M13,119.475c0,0,7.783-26.881,43-28.881c20.217,4,83.25,22.601,86.334,16.601
	c15.084,1,47.666-11.72,60.666,0.64s71.209,2.308,87,1.027s56.383,10.954,56.383,17.325S193,128.843,193,128.843
	s-45.332-15.352-71.666,0s-45.666,4.15-54,2.751S13,119.475,13,119.475z"/>
<path opacity="0.6" fill="#03514F" d="M0,165.475c0,0,0.096-35.848,13-39.28c20.217,4,113.25,33,116.334,27
	c15.084,1,49.49-23.897,62.49-11.538s81.385,1.281,97.176,0s57.383,24.539,57.383,30.91s-166.691,38.628-166.691,38.628
	s-42.357-15.352-68.691,0s-64.666-11.601-73-13S0,165.475,0,165.475z"/>
<path opacity="0.6" fill="#03514F" d="M111,225.195c0,0,36.383-15,62.191,0c19.809,3,39.809-6.667,39.809-6.667
	S171,260.195,111,225.195z"/>
<path opacity="0.6" fill="#03514F" d="M269.492,232.671c0,0-48,41.532-76.856,32.603c-21.211-5.562-74.015-4.963-93.342-4.067
	c-11.187,2.216-39.632-9.759-50.029-21.927c-8.843-9.62-39.906,1.684-33.497-0.508c14.306-4.891,33.346-9.18,33.346-9.18
	s25.807,8.807,32.712,14.959c9.862,5.855,14.056,7.984,37.259,5.446c23.202-2.538,49.078,3.597,62.382,4.849
	C190.824,255.727,192.489,279.336,269.492,232.671z"/>
<path opacity="0.6" fill="#03514F" d="M325.815,266.205c0,0-19.097,19.923-50.594,25.415c-18.591-1.043-60.038,2.353-62.218,7.58
	c-13.674,0.839-44.103,5.968-57.029-2.677c-12.926-8.646-64.696-10.55-78.78-7.773c-14.084,2.775-19.558-4.736-20.19-9.927
	c-0.632-5.192,105.884-0.514,105.884-0.514s42.324,7.537,64.499-7.858c22.176-15.396,40.687-8.389,48.325-8.162
	C283.352,262.514,325.815,266.205,325.815,266.205z"/>
<path opacity="0.6" fill="#03514F" d="M121,334.86c0,0,80.191-25.331,106-10.331c19.809,3,50.2-2.046,50.2-2.046
	S181,369.86,121,334.86z"/>
</svg>
