<?xml version="1.0" encoding="utf-8"?>
<!-- Generator: Adobe Illustrator 16.0.0, SVG Export Plug-In . SVG Version: 6.00 Build 0)  -->
<!DOCTYPE svg PUBLIC "-//W3C//DTD SVG 1.1//EN" "http://www.w3.org/Graphics/SVG/1.1/DTD/svg11.dtd">
<svg version="1.1" id="Layer_1" xmlns="http://www.w3.org/2000/svg" xmlns:xlink="http://www.w3.org/1999/xlink" x="0px" y="0px"
	 width="503.468px" height="353.659px" viewBox="0 0 503.468 353.659" enable-background="new 0 0 503.468 353.659"
	 xml:space="preserve">
<circle fill="#EB5B5B" cx="240.78" cy="176.83" r="176.829"/>
<path fill="#EA7575" d="M370.721,153.385c0,81.398-65.986,147.385-147.385,147.385S64.875,263.431,64.409,164.099
	C64.034,84.195,147.189-9.138,257.257,0.77C338.328,8.068,370.721,71.987,370.721,153.385z"/>
<ellipse fill="#D34646" cx="156.189" cy="137.195" rx="29" ry="28.333"/>
<ellipse fill="#EB5B5B" cx="160.639" cy="141.657" rx="24.217" ry="23.661"/>
<ellipse fill="#D34646" cx="240.523" cy="87.843" rx="15.333" ry="14.981"/>
<ellipse fill="#EB5B5B" cx="243.276" cy="90.594" rx="12.403" ry="12.119"/>
<ellipse fill="#D34646" cx="220.037" cy="171.484" rx="9.848" ry="9.621"/>
<ellipse fill="#EB5B5B" cx="221.105" cy="172.566" rx="8.666" ry="8.468"/>
<path fill="#EB5B5B" d="M54.928,165.529c0,0-147.561,207.078,328.049-23.872C319.562,181.438-159.706,428.887,54.928,165.529z"/>
<path fill="#D34646" d="M390.647,72.734c0,0,249.545,48.81-254.536,208.32C209.504,266.31,727.591,116.259,390.647,72.734z"/>
</svg>
