<svg version="1.1" xmlns="http://www.w3.org/2000/svg" xmlns:xlink="http://www.w3.org/1999/xlink" x="100px" y="100px"
     width="353.658px" height="353.659px">
  <g class="danone-planet">
    <circle fill="#3F5E8E" cx="176.829" cy="176.83" r="176.829"></circle>

    <path fill-rule="evenodd" clip-rule="evenodd" fill="#36547F" d="M285.454,267.532c-6.51-9.478-7.661-5.437-13.735-14.633
	c-4.252-6.439-2.365-15.317,4.791-22.546c0,2.6,0,4.68,0,6.759c0.377,0.264,0.756,0.528,1.133,0.791
	c2.203-2.388,4.407-4.773,6.607-7.163c13.101-14.208,25.682-28.913,31.772-47.616c2.604-7.998,3.422-16.675,4.278-25.122
	c1.045-10.325-4.38-17.705-12.318-23.645c-1.55-1.159-3.301-2.841-3.728-4.584c-6.587-26.875-26.896-37.951-51.132-43.922
	c-10.952-2.697-22.323-3.696-33.505-5.465c-0.195,0.487-0.392,0.974-0.587,1.461c4.006,2.833,8.009,5.666,13.057,9.236
	c-11.975,0-22.604,0-33.232,0c-0.102,0.532-0.202,1.063-0.305,1.594c3.495,1.375,6.993,2.751,11.9,4.683
	c-16.13,3.846-31.001,7.426-41.448,21.171c3.258,0.267,5.583,0.457,8.562,0.7c-1.655,3.335-3.513,6.051-4.383,9.054
	c-1.519,5.231-3.263,10.616-3.384,15.973c-0.16,7.06-3.037,12.04-8.504,15.814c-3.754,2.594-7.783,4.788-11.658,7.209
	c-4.64,2.898-5.519,5.704-1.864,9.683c3.18,3.461,3.539,6.372,0.907,9.949c-3.333,4.532,0.802,6.347,3.608,9.131
	c-4.615,2.271-3.884,4.754-1.74,8.878c1.554,2.989,0.604,7.779-0.353,11.476c-2.464,9.505-1.347,12.284,8.137,15.235
	c3.978,1.239,8.176,1.801,12.299,2.535c6.457,1.154,11.596,4.354,13.899,10.539c2.436,6.539,4.812,13.279,5.807,20.137
	c1.047,7.208-2.153,11.125-9.138,13.951c-3.521,1.428-7.129,2.659-10.742,3.837c-19.896,6.479-34.925,18.257-42.23,38.529
	c-0.256,0.711-0.629,1.388-1.007,2.046c-0.179,0.316-0.494,0.555-0.752,0.824C71.93,310.624,17.085,257.574,9.542,185.725
	C0.858,103.014,52.488,35.252,121.773,13.604c80.071-25.019,162.689,18.491,188.845,89.256
	C335.964,171.432,330.525,223.237,285.454,267.532z M92.909,145.862c0.335-0.125,0.669-0.251,1.003-0.375
	c-1.086-9.374-2.069-18.762-3.319-28.113c-0.387-2.893,0.152-4.512,3.067-5.687c4.844-1.95,9.483-4.408,15.297-7.169
	c-5.154-1.943-8.927-3.974-12.94-4.736c-6.286-1.195-7.093-4.835-6.204-10.199c1.065-6.423,1.735-12.911,2.576-19.371
	c-5.824,5.596-10.52,11.492-14.875,17.628c-2.016,2.84-3.714,3.709-6.964,1.75c-3.399-2.05-7.206-3.422-12.168-5.705
	c2.395,4.913,3.632,8.628,5.81,11.671c4.437,6.205,3.328,11.698-0.43,17.731c-3.308,5.313-5.774,11.148-8.611,16.754
	c0.294,0.178,0.588,0.356,0.883,0.535c5.888-3.753,11.777-7.504,17.899-11.406C80.436,128.318,86.672,137.089,92.909,145.862z"></path>


    <path fill-rule="evenodd" clip-rule="evenodd" fill="#4D6E96" d="M283.668,276.576c-6.51-9.477-12.875-18.48-18.949-27.676
	c-4.252-6.439-2.365-15.318,4.791-22.547c0,2.6,0,4.68,0,6.76c0.377,0.264,0.756,0.527,1.133,0.791
	c2.203-2.389,4.406-4.773,6.607-7.164c13.1-14.207,25.682-28.913,31.771-47.616c2.605-7.998,3.422-16.676,4.279-25.122
	c1.045-10.325-4.381-17.705-12.318-23.645c-1.551-1.159-3.301-2.841-3.729-4.585c-6.586-26.875-26.896-37.951-51.131-43.922
	c-10.953-2.697-22.324-3.696-33.506-5.465c-0.195,0.487-0.391,0.974-0.586,1.461c4.006,2.833,8.008,5.666,13.057,9.236
	c-11.975,0-22.604,0-33.232,0c-0.102,0.531-0.201,1.062-0.305,1.594c3.496,1.375,6.994,2.751,11.9,4.683
	c-16.129,3.847-31,7.426-41.448,21.171c3.258,0.268,5.583,0.457,8.563,0.7c-1.656,3.335-3.514,6.052-4.384,9.054
	c-1.519,5.231-3.263,10.617-3.384,15.973c-0.16,7.061-3.037,12.041-8.504,15.814c-3.754,2.595-7.783,4.788-11.658,7.209
	c-4.64,2.898-5.52,5.705-1.863,9.684c3.18,3.461,3.538,6.371,0.906,9.948c-3.332,4.532,0.802,6.347,3.608,9.132
	c-4.615,2.271-3.884,4.754-1.74,8.878c1.554,2.989,0.604,7.778-0.353,11.476c-2.465,9.506-1.348,12.283,8.137,15.234
	c3.978,1.24,8.176,1.801,12.299,2.535c6.457,1.154,11.596,4.355,13.9,10.539c2.436,6.539,4.811,13.279,5.807,20.137
	c1.047,7.209-2.154,11.125-9.139,13.951c-3.521,1.428-7.129,2.66-10.742,3.838c-19.896,6.479-34.926,18.256-42.23,38.529
	c-0.256,0.711-0.629,1.387-1.007,2.045c-0.179,0.316-0.494,0.555-0.752,0.824C64.93,306.625,10.085,253.574,2.542,181.725
	C-6.142,99.014,45.488,31.252,114.773,9.604c80.071-25.019,159.975,13.062,195.315,79.719
	C344.984,155.144,328.74,232.281,283.668,276.576z M85.909,141.862c0.335-0.126,0.669-0.252,1.003-0.375
	c-1.086-9.374-2.069-18.762-3.319-28.113c-0.387-2.893,0.152-4.512,3.067-5.686c4.844-1.95,9.483-4.408,15.297-7.17
	c-5.154-1.943-8.927-3.973-12.94-4.735c-6.286-1.194-7.093-4.835-6.204-10.199c1.065-6.423,1.735-12.911,2.576-19.371
	c-5.824,5.596-10.52,11.492-14.875,17.628c-2.016,2.84-3.714,3.71-6.964,1.75c-3.399-2.051-7.206-3.422-12.168-5.705
	c2.395,4.912,3.632,8.628,5.81,11.672c4.437,6.204,3.328,11.697-0.43,17.73c-3.308,5.314-5.774,11.148-8.611,16.755
	c0.294,0.178,0.588,0.356,0.883,0.535c5.888-3.753,11.777-7.505,17.899-11.406C73.436,124.318,79.672,133.089,85.909,141.862z"></path>
  </g>
</svg>
