<svg version="1.1" xmlns="http://www.w3.org/2000/svg" xmlns:xlink="http://www.w3.org/1999/xlink" x="0" y="0"
     width="112.777px" height="49.665px">
  <path id="corps" fill="#E3DED2 " d="M112.777,23.012c-8.295,8.516-46.473,15.733-67.87,10.946c-2.46-4.229-0.622-17.358-0.622-17.358
            S80.885,1.717,112.777,23.012"></path>
  <path id="feu_1_" fill="#EB5B5B " d="M13.014,44.271c7.349,0.671,24.5-7.594,18.782-12.645c-5.718-5.051,8.482-5.207,8.482-5.207
            S9.189,9.574,0.613,22.44c7.601-0.339,15.177,3.893,15.177,3.893S-5.539,24.362,1.381,35.95"></path>
  <path id="rouge" fill="#FF9381 " d="M81.491,12.072c0,0,7.674-0.332,16.252,3.389c-2.022,1.332-1.424,16.31,1.888,14.281
            c-3.263,2-16.011,4.177-22.002,4.441C75.042,29.698,74.96,11.529,81.491,12.072z"></path>
  <path id="trait" fill="#E3DED2 " d="M83.338,12.1c-1.868,2.049-6.061,16.02-0.555,21.603c0.939,0.002,1.215-0.161,1.215-0.161
            s-5.166-9.562,0.625-21.357L83.338,12.1z"></path>
  <path id="aileron-2" fill="#FF9381 " d="M70.983,36.324c0,0-8.647,14.377-23.865,13.281c2.567-1.92,5.873-10.565,2.887-13.475
            C53.31,36.56,66.729,37.403,70.983,36.324z"></path>
  <path id="aileron" fill="#FF9381 " d="M69.588,10.44c0,0-10.499-13.086-25.432-9.956c2.803,1.558,7.239,9.681,4.669,12.964
            C52.044,12.58,65.229,9.941,69.588,10.44z"></path>
</svg>
