<svg version="1.1" xmlns="http://www.w3.org/2000/svg" xmlns:xlink="http://www.w3.org/1999/xlink" x="0px" y="0px"
     width="95.763px" height="41.571px">
  <path fill="#E3DED2" d="M0,11.475c8.253-5.596,40.84-5.079,57.61,2.468c5.126,9.524-2.42,14.368-2.42,14.368S22.606,34.358,0,11.475
	z"></path>
  <path fill="#EB5B5B" d="M62.431,20.29c0,0,28.183-9.245,33.332,2.657c-6.222-1.416-13.109,0.94-13.109,0.94
	s17.898,1.567,10.45,10.098c-3.873-4.402-8.171-3.609-8.171-3.609s-7.574,1.1-2.675,8.732c-6.169-0.548-19.083-9.939-13.607-13.25
	C74.127,22.544,62.431,20.29,62.431,20.29z"></path>
  <path fill="#FF9381" d="M36.585,7.595c0,0,9.535-10.354,21.853-6.883c-2.435,1.143-6.609,7.688-4.649,10.582
	C51.146,10.383,40.264,7.426,36.585,7.595z"></path>
  <path fill="#FF9381" d="M33.362,29.097c0,0,6.415,12.526,19.213,12.474c-2.039-1.753-4.312-9.177-1.646-11.44
	C48.138,30.301,36.859,30.245,33.362,29.097z"></path>
  <path fill="#FF9381" d="M0,11.475c2.396-1.623,6.842-2.734,12.356-3.307c5.78-0.6,2.865,14.804-3.43,10.644
	C5.85,16.777,2.844,14.356,0,11.475z"></path>
  <path fill="#FF9381" d="M26.826,13.971c1.164,2.16,0.355,4.854-1.806,6.018c-2.163,1.163-4.856,0.353-6.018-1.807
	c-1.162-2.164-0.354-4.855,1.807-6.017C22.969,11.002,25.665,11.812,26.826,13.971z"></path>
</svg>
