<?xml version="1.0" encoding="utf-8"?>
<!-- Generator: Adobe Illustrator 16.0.0, SVG Export Plug-In . SVG Version: 6.00 Build 0)  -->
<!DOCTYPE svg PUBLIC "-//W3C//DTD SVG 1.1//EN" "http://www.w3.org/Graphics/SVG/1.1/DTD/svg11.dtd">
<svg version="1.1" id="Layer_1" xmlns="http://www.w3.org/2000/svg" xmlns:xlink="http://www.w3.org/1999/xlink" x="0px" y="0px"
	 width="717.623px" height="454.655px" viewBox="0 0 717.623 454.655" enable-background="new 0 0 717.623 454.655"
	 xml:space="preserve">
<g>
	<path fill="#E3DED2" d="M185.913,56.988l-0.035,3.586v1.617c0,0.633-0.211,1.143-0.633,1.529s-0.896,0.58-1.424,0.58
		s-0.973-0.17-1.336-0.51c-0.364-0.34-0.545-0.756-0.545-1.248l0.352-13.922c0-1.406-0.229-3.486-0.686-6.24
		c-0.457-2.754-0.686-4.969-0.686-6.645c0-1.675-0.287-3.714-0.861-6.117c-0.575-2.402-1.213-4.564-1.916-6.486
		c-1.852-5.015-2.777-9.316-2.777-12.902c0-0.773,0.761-1.16,2.285-1.16c0.352,0,0.715,0.141,1.09,0.422
		c0.375,0.281,0.574,0.598,0.598,0.949c0.469,5.532,1.664,11.403,3.586,17.613c0.093-0.422,0.205-1.424,0.334-3.006
		c0.128-1.582,0.281-3.205,0.457-4.869c0.176-1.664,0.404-3.352,0.686-5.062c0.633-3.867,1.587-5.801,2.865-5.801
		c1.277,0,1.916,0.258,1.916,0.773c0,2.695-0.575,6.715-1.723,12.059c-1.148,5.344-1.723,9.399-1.723,12.164l0.211,2.496v1.09
		L185.913,56.988z"/>
	<path fill="#E3DED2" d="M211.893,44.051c0,13.805-2.825,20.707-8.473,20.707c-5.203,0-8.121-6.539-8.754-19.617
		c-0.047-1.242-0.07-2.484-0.07-3.727l-0.035-4.395v-1.406c0-10.148,1.488-16.418,4.465-18.809c0.726-0.585,1.535-0.902,2.426-0.949
		c0.68,0.234,1.512,0.452,2.496,0.65c0.984,0.199,1.71,0.404,2.18,0.615c0.867,0.399,1.805,1.436,2.812,3.111
		c1.007,1.676,1.752,3.915,2.232,6.715c0.48,2.801,0.721,5.607,0.721,8.42V44.051z M198.534,27.105l0.105,4.219l-0.035,6.891
		c0,0.586,0.012,1.278,0.035,2.074c0.023,0.797,0.053,1.846,0.088,3.146s0.105,2.59,0.211,3.867
		c0.105,1.278,0.229,2.625,0.369,4.043c0.141,1.418,0.328,2.73,0.562,3.938c0.234,1.208,0.492,2.303,0.773,3.287
		c0.633,2.133,1.464,3.199,2.496,3.199c1.383,0,2.438-1.301,3.164-3.902c1.078-3.867,1.617-8.625,1.617-14.273l0.105-7.418
		c0-5.203-0.229-8.707-0.686-10.512c-0.457-1.805-0.885-3.164-1.283-4.078c-0.797-1.851-2.004-2.777-3.621-2.777
		c-0.047,0-0.094,0-0.141,0C199.787,18.809,198.534,21.574,198.534,27.105z"/>
	<path fill="#E3DED2" d="M235.799,31.324l0.07,1.23c-0.352,1.688-0.58,4.588-0.686,8.701s-0.311,7.43-0.615,9.949
		c-0.305,2.52-0.715,4.734-1.23,6.645c-0.516,1.911-1.342,3.498-2.479,4.764c-1.137,1.266-2.403,1.898-3.797,1.898
		c-1.395,0-2.537-0.252-3.428-0.756c-0.891-0.504-1.617-1.23-2.18-2.18s-1.032-1.969-1.406-3.059
		c-0.375-1.09-0.656-2.35-0.844-3.779c-0.329-2.508-0.492-5.156-0.492-7.945l0.387-18.984c0-4.148-0.293-7.582-0.879-10.301v-1.723
		c1.148,0,2.057,0.445,2.725,1.336c0.668,0.891,1.002,1.887,1.002,2.988v34.84c0,1.852,0.462,3.545,1.389,5.08
		c0.926,1.535,2.291,2.303,4.096,2.303c2.039,0,3.398-5.929,4.078-17.789v-0.316l0.035-0.457
		c0.609-10.828,0.914-19.594,0.914-26.297l-0.035-1.195c0-0.562,0.128-0.984,0.387-1.266c0.258-0.281,0.75-0.422,1.477-0.422
		c0.726,0,1.266,0.199,1.617,0.598c0.352,0.399,0.557,0.803,0.615,1.213c0.058,0.41,0.088,0.967,0.088,1.67l-0.492,7.242
		L235.799,31.324z"/>
	<path fill="#E3DED2" d="M251.866,11.215l-0.141,0.492c0,1.102-0.299,2.414-0.896,3.938c-0.598,1.524-1.424,2.877-2.479,4.061
		c-1.055,1.184-2.098,1.775-3.129,1.775h-2.145v-2.496c0.188-0.188,0.656-0.585,1.406-1.195c1.57-1.242,2.438-2.308,2.602-3.199
		c-1.383-1.007-2.074-2.074-2.074-3.199s0.369-1.98,1.107-2.566c0.738-0.585,1.547-0.879,2.426-0.879s1.564,0.27,2.057,0.809
		c0.492,0.54,0.914,1.289,1.266,2.25V11.215z"/>
	<path fill="#E3DED2" d="M276.651,14.977c1.102,0,1.652,0.316,1.652,0.949c0,2.695-0.575,6.088-1.723,10.178
		c-1.148,4.09-1.846,6.891-2.092,8.402s-0.51,3.732-0.791,6.662c-0.281,2.93-0.51,4.963-0.686,6.1
		c-0.176,1.137-0.492,2.555-0.949,4.254c-0.457,1.7-0.738,2.848-0.844,3.445s-0.188,1.348-0.246,2.25
		c-0.059,0.902-0.135,1.705-0.229,2.408c-0.094,0.703-0.246,1.43-0.457,2.18c-0.492,1.64-1.477,2.461-2.953,2.461l-1.617-1.09
		c0-5.836-0.557-11.789-1.67-17.859c-1.113-6.07-2.203-11.167-3.27-15.293c-1.067-4.125-1.788-6.738-2.162-7.84
		c-0.844-2.602-1.266-4.219-1.266-4.852s0.181-1.113,0.545-1.441c0.363-0.328,0.785-0.492,1.266-0.492
		c0.48,0,0.919,0.199,1.318,0.598c0.398,0.399,0.715,0.961,0.949,1.688c0.234,0.727,0.422,1.401,0.562,2.021
		c0.141,0.621,0.275,1.336,0.404,2.145c0.128,0.809,0.216,1.318,0.264,1.529c2.438,11.109,4.359,21.563,5.766,31.359
		c0.375-1.898,0.814-5.015,1.318-9.352c0.504-4.336,1.441-10.084,2.812-17.244c1.371-7.16,2.197-11.549,2.479-13.166H276.651z"/>
	<path fill="#E3DED2" d="M291.206,60.715l2.848-0.176c1.828,0,2.742,0.586,2.742,1.758c0,0.727-0.316,1.253-0.949,1.582
		c-0.633,0.328-1.348,0.492-2.145,0.492h-6.785c-0.61,0-1.131-0.211-1.564-0.633c-0.434-0.422-0.668-0.961-0.703-1.617
		c-0.035-0.656,0.012-1.477,0.141-2.461c0.128-0.984,0.193-1.77,0.193-2.355l-0.352-9.211l0.492-21.023l-0.387-6.082
		c0-3.398,1.007-5.098,3.023-5.098c0.562,0,1.09,0.176,1.582,0.527c0.188,0.023,0.638,0.065,1.354,0.123
		c0.715,0.059,1.341,0.135,1.881,0.229c0.539,0.094,1.125,0.223,1.758,0.387c1.359,0.375,2.039,1.02,2.039,1.934
		c0,0.984-0.703,1.735-2.109,2.25c-2.203-0.75-4.02-1.207-5.449-1.371c0.07,1.032,0.105,2.062,0.105,3.094l-0.316,10.336
		c0,0.047,0.07,0.422,0.211,1.125l2.566-0.105c2.32,0,3.48,0.656,3.48,1.969c0,0.703-0.206,1.324-0.615,1.863
		c-0.41,0.54-0.99,0.809-1.74,0.809c-0.75,0-1.406-0.211-1.969-0.633h-1.828c0.141,1.828,0.211,3.563,0.211,5.203l-0.316,13.043
		C288.604,59.367,289.471,60.715,291.206,60.715z"/>
	<path fill="#E3DED2" d="M323.69,45.176l-1.266,0.035c-0.68,0-1.219-0.111-1.617-0.334c-0.399-0.223-0.598-0.668-0.598-1.336
		s0.216-1.178,0.65-1.529c0.434-0.352,0.967-0.527,1.6-0.527v0.035c4.688,0,7.031,0.738,7.031,2.215l-0.773,5.238l0.352,7.629
		c0,1.383-0.105,2.566-0.316,3.551c-2.79,2.555-5.262,3.832-7.418,3.832c-1.148,0-2.203-0.311-3.164-0.932
		c-0.961-0.621-1.898-1.682-2.812-3.182c-0.914-1.5-1.711-4.354-2.391-8.561c-0.68-4.207-1.02-7.131-1.02-8.771
		c0-1.64,0.035-3,0.105-4.078c0.07-1.078,0.176-2.303,0.316-3.674s0.223-2.262,0.246-2.672c0.023-0.41,0.064-0.996,0.123-1.758
		c0.058-0.761,0.117-1.488,0.176-2.18c0.058-0.691,0.188-1.664,0.387-2.918c0.199-1.253,0.416-2.244,0.65-2.971
		c0.234-0.726,0.574-1.552,1.02-2.479c0.445-0.926,0.961-1.646,1.547-2.162c1.429-1.218,3.088-1.828,4.975-1.828
		c1.886,0,2.83,0.61,2.83,1.828c0,0.562-0.206,1.025-0.615,1.389c-0.41,0.364-0.885,0.545-1.424,0.545l-1.301-0.176
		c-1.406,0-2.473,1.641-3.199,4.922c-0.703,3.188-1.113,6.059-1.23,8.613c-0.211,3.915-0.316,6.521-0.316,7.822
		s0.005,2.309,0.018,3.023c0.012,0.715,0.035,1.605,0.07,2.672c0.035,1.067,0.093,2.01,0.176,2.83
		c0.082,0.821,0.193,1.729,0.334,2.725c0.141,0.997,0.311,1.863,0.51,2.602c0.199,0.738,0.445,1.477,0.738,2.215
		c0.293,0.738,0.627,1.342,1.002,1.811c0.844,1.055,1.851,1.582,3.023,1.582c2.086,0,3.105-4.043,3.059-12.129v-2.637
		C324.862,45.27,324.37,45.176,323.69,45.176z"/>
	<path fill="#E3DED2" d="M352.448,44.051c0,13.805-2.824,20.707-8.473,20.707c-5.203,0-8.122-6.539-8.754-19.617
		c-0.047-1.242-0.07-2.484-0.07-3.727l-0.035-4.395v-1.406c0-10.148,1.488-16.418,4.465-18.809c0.727-0.585,1.535-0.902,2.426-0.949
		c0.68,0.234,1.512,0.452,2.496,0.65c0.984,0.199,1.711,0.404,2.18,0.615c0.867,0.399,1.805,1.436,2.812,3.111
		c1.008,1.676,1.752,3.915,2.232,6.715c0.48,2.801,0.721,5.607,0.721,8.42V44.051z M339.089,27.105l0.105,4.219l-0.035,6.891
		c0,0.586,0.012,1.278,0.035,2.074c0.023,0.797,0.053,1.846,0.088,3.146s0.105,2.59,0.211,3.867
		c0.105,1.278,0.229,2.625,0.369,4.043c0.141,1.418,0.328,2.73,0.562,3.938c0.234,1.208,0.492,2.303,0.773,3.287
		c0.633,2.133,1.465,3.199,2.496,3.199c1.383,0,2.438-1.301,3.164-3.902c1.078-3.867,1.617-8.625,1.617-14.273l0.105-7.418
		c0-5.203-0.229-8.707-0.686-10.512c-0.457-1.805-0.885-3.164-1.283-4.078c-0.797-1.851-2.004-2.777-3.621-2.777
		c-0.047,0-0.094,0-0.141,0C340.343,18.809,339.089,21.574,339.089,27.105z"/>
	<path fill="#E3DED2" d="M365.737,56.742l0.141-2.461c-0.188-0.609-0.574-6.029-1.16-16.26s-0.902-16.471-0.949-18.721
		c-2.766-0.07-4.477-0.322-5.133-0.756c-0.656-0.434-0.984-0.884-0.984-1.354c0-0.469,0.258-0.849,0.773-1.143
		c0.516-0.293,1.02-0.439,1.512-0.439l9.773,0.668l1.16-0.035c1.5,0,2.25,0.575,2.25,1.723c0,0.586-0.246,1.061-0.738,1.424
		c-0.492,0.364-1.043,0.545-1.652,0.545l-3.305-0.492l-0.141,0.738c0,4.547,0.398,11.355,1.195,20.426s1.195,15.891,1.195,20.461
		c0,0.586-0.217,1.09-0.65,1.512s-0.943,0.633-1.529,0.633h-1.617L365.737,56.742z"/>
	<path fill="#E3DED2" d="M395.339,56.742l0.141-2.461c-0.188-0.609-0.574-6.029-1.16-16.26s-0.902-16.471-0.949-18.721
		c-2.766-0.07-4.477-0.322-5.133-0.756c-0.656-0.434-0.984-0.884-0.984-1.354c0-0.469,0.258-0.849,0.773-1.143
		c0.516-0.293,1.02-0.439,1.512-0.439l9.773,0.668l1.16-0.035c1.5,0,2.25,0.575,2.25,1.723c0,0.586-0.246,1.061-0.738,1.424
		c-0.492,0.364-1.043,0.545-1.652,0.545l-3.305-0.492l-0.141,0.738c0,4.547,0.398,11.355,1.195,20.426s1.195,15.891,1.195,20.461
		c0,0.586-0.217,1.09-0.65,1.512s-0.943,0.633-1.529,0.633h-1.617L395.339,56.742z"/>
	<path fill="#E3DED2" d="M425.046,51.785l-0.387,1.441c0,0.586,0.211,2.016,0.633,4.289c0.422,2.273,0.633,3.762,0.633,4.465v0.07
		c0,1.078-0.363,1.758-1.09,2.039c-1.008,0-1.793-0.164-2.355-0.492s-0.844-1.154-0.844-2.479c0-1.324-0.352-4.048-1.055-8.174
		l-2.215-0.211h-2.391c-0.539-0.234-1.488-0.352-2.848-0.352c0,0.047-0.029,0.357-0.088,0.932c-0.059,0.575-0.105,1.037-0.141,1.389
		s-0.094,0.874-0.176,1.564c-0.082,0.691-0.17,1.278-0.264,1.758c-0.094,0.48-0.211,1.043-0.352,1.688
		c-0.141,0.645-0.299,1.184-0.475,1.617c-0.176,0.434-0.369,0.85-0.58,1.248c-0.422,0.821-0.938,1.23-1.547,1.23
		s-1.154-0.182-1.635-0.545s-0.721-0.826-0.721-1.389c1.266-4.852,2.35-9.937,3.252-15.258c0.902-5.32,1.441-8.478,1.617-9.475
		c0.176-0.996,0.586-2.918,1.23-5.766s1.031-4.751,1.16-5.713c0.129-0.961,0.252-2.203,0.369-3.727
		c0.211-3.328,0.645-5.472,1.301-6.434h2.426c1.641,0,2.461,0.492,2.461,1.477c0,9.258,0.902,18.457,2.707,27.598
		c0.094,0.54,0.27,1.289,0.527,2.25C424.765,48.915,425.046,50.567,425.046,51.785z M420.124,50.238
		c-0.141-0.703-0.211-1.84-0.211-3.41c0-1.57-0.1-3.475-0.299-5.713c-0.199-2.238-0.486-4.834-0.861-7.787s-0.633-5.085-0.773-6.398
		c-0.281,1.359-0.832,3.633-1.652,6.82c-1.664,6.633-2.52,11.742-2.566,15.328C414.581,49.618,416.702,50.004,420.124,50.238z"/>
	<path fill="#E3DED2" d="M436.331,23.062l0.211,17.297c-0.281,0.68-0.422,1.981-0.422,3.902l-0.281,11.461
		c0,3.305,0.809,4.957,2.426,4.957l2.988-0.105c2.578,0,3.867,0.703,3.867,2.109c0,0.516-0.223,0.943-0.668,1.283
		c-0.445,0.339-0.949,0.545-1.512,0.615c-1.758-0.562-3.902-0.844-6.434-0.844c-0.773,0.445-1.518,0.668-2.232,0.668
		s-1.271-0.246-1.67-0.738s-0.598-1.031-0.598-1.617l0.703-32.168v-0.527c-0.141-1.5-0.211-3.75-0.211-6.75
		c0-4.547,0.832-6.82,2.496-6.82c0.492,0,0.92,0.176,1.283,0.527s0.545,0.773,0.545,1.266L436.331,23.062z"/>
	<path fill="#E3DED2" d="M457.144,60.715l2.848-0.176c1.828,0,2.742,0.586,2.742,1.758c0,0.727-0.316,1.253-0.949,1.582
		c-0.633,0.328-1.348,0.492-2.145,0.492h-6.785c-0.609,0-1.131-0.211-1.564-0.633s-0.668-0.961-0.703-1.617
		c-0.035-0.656,0.012-1.477,0.141-2.461s0.193-1.77,0.193-2.355l-0.352-9.211l0.492-21.023l-0.387-6.082
		c0-3.398,1.008-5.098,3.023-5.098c0.562,0,1.09,0.176,1.582,0.527c0.188,0.023,0.639,0.065,1.354,0.123
		c0.715,0.059,1.342,0.135,1.881,0.229c0.539,0.094,1.125,0.223,1.758,0.387c1.359,0.375,2.039,1.02,2.039,1.934
		c0,0.984-0.703,1.735-2.109,2.25c-2.203-0.75-4.02-1.207-5.449-1.371c0.07,1.032,0.105,2.062,0.105,3.094l-0.316,10.336
		c0,0.047,0.07,0.422,0.211,1.125l2.566-0.105c2.32,0,3.48,0.656,3.48,1.969c0,0.703-0.205,1.324-0.615,1.863
		c-0.41,0.54-0.99,0.809-1.74,0.809s-1.406-0.211-1.969-0.633h-1.828c0.141,1.828,0.211,3.563,0.211,5.203l-0.316,13.043
		C454.542,59.367,455.409,60.715,457.144,60.715z"/>
	<path fill="#E3DED2" d="M472.577,35.016l0.422,18.633v8.156c0,0.633-0.164,1.166-0.492,1.6s-0.785,0.65-1.371,0.65
		c-1.57,0-2.355-1.464-2.355-4.395l-0.141-25.383l0.422-13.43c0-3.234,0.879-4.852,2.637-4.852c1.055,0,1.816,0.809,2.285,2.426
		c0.656,3.094,1.799,7.541,3.428,13.342s2.748,10.213,3.357,13.236c0.445,1.477,1.02,3.662,1.723,6.557
		c0.703,2.895,1.254,5.068,1.652,6.521c0.188-10.406,0.281-23.015,0.281-37.828l-0.105-1.934c0-0.656,0.123-1.178,0.369-1.564
		s0.662-0.58,1.248-0.58s1.066,0.141,1.441,0.422c0.75,0.562,1.125,1.359,1.125,2.391c0,6.586-0.188,15.047-0.562,25.383
		s-0.938,16.793-1.688,19.371c-0.094,0.023-0.293,0.088-0.598,0.193s-0.527,0.17-0.668,0.193c-1.336,0.304-2.18,0.246-2.531-0.176
		s-0.604-0.984-0.756-1.688s-0.328-1.389-0.527-2.057s-0.943-3.861-2.232-9.58c-3.445-15.117-5.566-23.906-6.363-26.367V35.016z"/>
	<path fill="#E3DED2" d="M502.003,56.742l0.141-2.461c-0.188-0.609-0.574-6.029-1.16-16.26s-0.902-16.471-0.949-18.721
		c-2.766-0.07-4.477-0.322-5.133-0.756c-0.656-0.434-0.984-0.884-0.984-1.354c0-0.469,0.258-0.849,0.773-1.143
		c0.516-0.293,1.02-0.439,1.512-0.439l9.773,0.668l1.16-0.035c1.5,0,2.25,0.575,2.25,1.723c0,0.586-0.246,1.061-0.738,1.424
		c-0.492,0.364-1.043,0.545-1.652,0.545l-3.305-0.492l-0.141,0.738c0,4.547,0.398,11.355,1.195,20.426s1.195,15.891,1.195,20.461
		c0,0.586-0.217,1.09-0.65,1.512s-0.943,0.633-1.529,0.633h-1.617L502.003,56.742z"/>
	<path fill="#E3DED2" d="M514.237,60.398l3.797,0.527c0.914,0,1.711-0.398,2.391-1.195c0.68-0.796,1.184-1.793,1.512-2.988
		c0.633-2.297,0.949-4.33,0.949-6.1c0-1.77-0.293-3.521-0.879-5.256c-0.586-1.734-1.301-3.345-2.145-4.834
		c-0.844-1.488-1.699-3.006-2.566-4.553c-2.016-3.633-3.023-7.219-3.023-10.758c0-2.156,0.363-4.066,1.09-5.73
		c1.359-3.094,3.164-4.641,5.414-4.641c0.844,0,1.646,0.27,2.408,0.809c0.762,0.54,1.143,1.125,1.143,1.758
		c0,1.102-0.586,1.652-1.758,1.652c-0.516,0-1.02-0.141-1.512-0.422c-1.523,0.07-2.555,1.77-3.094,5.098
		c-0.117,0.727-0.176,1.577-0.176,2.549c0,0.973,0.211,2.174,0.633,3.604c0.422,1.43,0.955,2.702,1.6,3.814
		c0.645,1.113,1.336,2.344,2.074,3.691c0.738,1.348,1.436,2.654,2.092,3.92c1.477,2.93,2.215,6.281,2.215,10.055
		c0,3-0.598,5.778-1.793,8.332c-0.633,1.313-1.529,2.385-2.689,3.217s-2.502,1.26-4.025,1.283v0.176
		c-0.891-0.118-1.699-0.417-2.426-0.896s-1.137-1.107-1.23-1.881V60.398z"/>
	<path fill="#E3DED2" d="M540.851,60.223l-0.105,0.492c0,1.102-0.305,2.414-0.914,3.938s-1.441,2.883-2.496,4.078
		s-2.098,1.793-3.129,1.793h-2.145v-2.531c0.188-0.188,0.656-0.586,1.406-1.195c1.57-1.266,2.438-2.344,2.602-3.234
		c-1.383-1.007-2.074-2.068-2.074-3.182c0-1.113,0.369-1.963,1.107-2.549c0.738-0.585,1.547-0.879,2.426-0.879
		s1.564,0.264,2.057,0.791s0.914,1.271,1.266,2.232V60.223z"/>
	<path fill="#E3DED2" d="M53.655,138.185l-0.387,1.441c0,0.586,0.211,2.016,0.633,4.289c0.422,2.273,0.633,3.762,0.633,4.465v0.07
		c0,1.078-0.364,1.758-1.09,2.039c-1.008,0-1.793-0.164-2.355-0.492s-0.844-1.154-0.844-2.479c0-1.324-0.352-4.048-1.055-8.174
		l-2.215-0.211h-2.391c-0.54-0.234-1.489-0.352-2.848-0.352c0,0.047-0.03,0.357-0.088,0.932c-0.059,0.575-0.105,1.037-0.141,1.389
		s-0.094,0.874-0.176,1.564c-0.083,0.691-0.17,1.278-0.264,1.758c-0.094,0.48-0.211,1.043-0.352,1.688
		c-0.141,0.645-0.299,1.184-0.475,1.617c-0.176,0.434-0.369,0.85-0.58,1.248c-0.422,0.821-0.938,1.23-1.547,1.23
		c-0.61,0-1.155-0.182-1.635-0.545c-0.48-0.363-0.721-0.826-0.721-1.389c1.266-4.852,2.35-9.937,3.252-15.258
		c0.902-5.32,1.441-8.478,1.617-9.475c0.176-0.996,0.585-2.918,1.23-5.766c0.645-2.848,1.031-4.751,1.16-5.713
		c0.128-0.961,0.251-2.203,0.369-3.727c0.211-3.328,0.645-5.472,1.301-6.434h2.426c1.64,0,2.461,0.492,2.461,1.477
		c0,9.258,0.902,18.457,2.707,27.598c0.093,0.54,0.269,1.289,0.527,2.25C53.374,135.314,53.655,136.967,53.655,138.185z
		 M48.733,136.638c-0.141-0.703-0.211-1.84-0.211-3.41c0-1.57-0.1-3.475-0.299-5.713c-0.199-2.238-0.487-4.834-0.861-7.787
		c-0.375-2.953-0.633-5.085-0.773-6.398c-0.281,1.359-0.832,3.633-1.652,6.82c-1.665,6.633-2.52,11.742-2.566,15.328
		C43.19,136.018,45.311,136.404,48.733,136.638z"/>
	<path fill="#E3DED2" d="M64.659,121.416l0.422,18.633v8.156c0,0.633-0.164,1.166-0.492,1.6c-0.329,0.434-0.786,0.65-1.371,0.65
		c-1.57,0-2.355-1.464-2.355-4.395l-0.141-25.383l0.422-13.43c0-3.234,0.879-4.852,2.637-4.852c1.055,0,1.816,0.809,2.285,2.426
		c0.656,3.094,1.798,7.541,3.428,13.342c1.629,5.801,2.748,10.213,3.357,13.236c0.445,1.477,1.02,3.662,1.723,6.557
		c0.703,2.895,1.253,5.068,1.652,6.521c0.188-10.406,0.281-23.015,0.281-37.828l-0.105-1.934c0-0.656,0.123-1.178,0.369-1.564
		s0.662-0.58,1.248-0.58c0.585,0,1.066,0.141,1.441,0.422c0.75,0.562,1.125,1.359,1.125,2.391c0,6.586-0.188,15.047-0.562,25.383
		c-0.375,10.336-0.938,16.793-1.688,19.371c-0.094,0.023-0.293,0.088-0.598,0.193c-0.305,0.105-0.527,0.17-0.668,0.193
		c-1.336,0.304-2.18,0.246-2.531-0.176s-0.604-0.984-0.756-1.688c-0.153-0.703-0.329-1.389-0.527-2.057
		c-0.199-0.668-0.944-3.861-2.232-9.58c-3.445-15.117-5.567-23.906-6.363-26.367V121.416z"/>
	<path fill="#E3DED2" d="M103.647,121.416l-0.141,3.621v3.938c0,4.758-0.211,7.969-0.633,9.633c-0.422,1.665-0.85,3.036-1.283,4.113
		c-0.434,1.078-0.955,2.039-1.564,2.883c-1.406,1.898-3.188,3.445-5.344,4.641H89.76c-1.219,0-1.828-3.141-1.828-9.422l0.211-22.676
		c0-4.195-0.083-8.133-0.246-11.812c-0.399-0.469-0.598-1.025-0.598-1.67c0-0.645,0.269-1.207,0.809-1.688
		c0.539-0.48,1.189-0.721,1.951-0.721c0.761,0,1.412,0.422,1.951,1.266c0.352,0.141,0.873,0.27,1.564,0.387
		c0.691,0.118,1.201,0.258,1.529,0.422c2.672,1.243,4.764,3.44,6.275,6.592C102.891,114.074,103.647,117.572,103.647,121.416z
		 M91.87,113.083l0.809,31.781v1.723h1.301c2.508-3.046,4.125-5.836,4.852-8.367c0.68-2.367,1.02-5.672,1.02-9.914
		c0-14.484-2.484-22.055-7.453-22.711C92.045,107.494,91.87,109.99,91.87,113.083z"/>
	<path fill="#E3DED2" d="M130.471,145.99c0,2.344-0.316,3.809-0.949,4.395c-0.329,0.281-0.838,0.422-1.529,0.422
		c-0.691,0-1.271-0.527-1.74-1.582c0.539-1.055,0.809-5.121,0.809-12.199c0-1.336-0.094-3.217-0.281-5.643
		c-0.188-2.426-0.293-4.061-0.316-4.904c-0.938-1.617-2.385-5.338-4.342-11.162c-1.957-5.824-2.936-9.416-2.936-10.775v-0.387
		l1.617-1.195c1.477,0.047,3.234,3.762,5.273,11.145c0.891,3.234,1.336,4.864,1.336,4.887c0.188-0.515,0.562-2.308,1.125-5.379
		c1.429-7.781,2.93-11.672,4.5-11.672c0.445,0,0.849,0.141,1.213,0.422c0.363,0.281,0.545,0.645,0.545,1.09
		c0,2.953-0.721,6.404-2.162,10.354c-1.441,3.95-2.162,7.448-2.162,10.494V145.99z"/>
	<path fill="#E3DED2" d="M157.577,130.451c0,13.805-2.825,20.707-8.473,20.707c-5.203,0-8.121-6.539-8.754-19.617
		c-0.047-1.242-0.07-2.484-0.07-3.727l-0.035-4.395v-1.406c0-10.148,1.488-16.418,4.465-18.809c0.726-0.585,1.535-0.902,2.426-0.949
		c0.68,0.234,1.512,0.452,2.496,0.65c0.984,0.199,1.71,0.404,2.18,0.615c0.867,0.399,1.805,1.436,2.812,3.111
		c1.007,1.676,1.752,3.915,2.232,6.715c0.48,2.801,0.721,5.607,0.721,8.42V130.451z M144.217,113.505l0.105,4.219l-0.035,6.891
		c0,0.586,0.012,1.278,0.035,2.074c0.023,0.797,0.053,1.846,0.088,3.146s0.105,2.59,0.211,3.867
		c0.105,1.278,0.229,2.625,0.369,4.043c0.141,1.418,0.328,2.73,0.562,3.938c0.234,1.208,0.492,2.303,0.773,3.287
		c0.633,2.133,1.464,3.199,2.496,3.199c1.383,0,2.438-1.301,3.164-3.902c1.078-3.867,1.617-8.625,1.617-14.273l0.105-7.418
		c0-5.203-0.229-8.707-0.686-10.512c-0.457-1.805-0.885-3.164-1.283-4.078c-0.797-1.851-2.004-2.777-3.621-2.777
		c-0.047,0-0.094,0-0.141,0C145.471,105.208,144.217,107.974,144.217,113.505z"/>
	<path fill="#E3DED2" d="M181.483,117.724l0.07,1.23c-0.352,1.688-0.58,4.588-0.686,8.701s-0.311,7.43-0.615,9.949
		c-0.305,2.52-0.715,4.734-1.23,6.645c-0.516,1.911-1.342,3.498-2.479,4.764c-1.137,1.266-2.403,1.898-3.797,1.898
		c-1.395,0-2.537-0.252-3.428-0.756c-0.891-0.504-1.617-1.23-2.18-2.18s-1.032-1.969-1.406-3.059
		c-0.375-1.09-0.656-2.35-0.844-3.779c-0.329-2.508-0.492-5.156-0.492-7.945l0.387-18.984c0-4.148-0.293-7.582-0.879-10.301v-1.723
		c1.148,0,2.057,0.445,2.725,1.336c0.668,0.891,1.002,1.887,1.002,2.988v34.84c0,1.852,0.462,3.545,1.389,5.08
		c0.926,1.535,2.291,2.303,4.096,2.303c2.039,0,3.398-5.929,4.078-17.789v-0.316l0.035-0.457
		c0.609-10.828,0.914-19.594,0.914-26.297l-0.035-1.195c0-0.562,0.128-0.984,0.387-1.266c0.258-0.281,0.75-0.422,1.477-0.422
		c0.726,0,1.266,0.199,1.617,0.598c0.352,0.399,0.557,0.803,0.615,1.213c0.058,0.41,0.088,0.967,0.088,1.67l-0.492,7.242
		L181.483,117.724z"/>
	<path fill="#E3DED2" d="M221.667,107.88c-0.352,2.32-0.551,4.043-0.598,5.168v5.273c0,9.821-0.621,17.661-1.863,23.52
		c-0.234,1.102-0.352,2.133-0.352,3.094c0,4.875-0.879,7.312-2.637,7.312c-0.867,0-1.43-0.621-1.688-1.863
		c-0.094-0.445-0.141-1.218-0.141-2.32c0-1.102-0.293-3.316-0.879-6.645c-0.234-1.429-0.434-2.883-0.598-4.359
		c-0.164-1.477-0.422-4.605-0.773-9.387s-0.703-8.438-1.055-10.969c-0.141,1.594-0.211,3.493-0.211,5.695
		c0,2.203-0.457,6.211-1.371,12.023c-0.422,2.812-0.68,4.576-0.773,5.291c-0.094,0.715-0.193,1.799-0.299,3.252
		c-0.105,1.454-0.381,3.152-0.826,5.098c-0.469,2.18-1.219,3.27-2.25,3.27c-1.43,0-2.414-2.051-2.953-6.152
		c-0.234-1.828-0.417-3.609-0.545-5.344c-0.129-1.734-0.223-3.463-0.281-5.186c-0.059-1.723-0.129-2.912-0.211-3.568
		c-0.083-0.656-0.329-2.314-0.738-4.975c-0.41-2.66-0.656-4.547-0.738-5.66c-0.083-1.113-0.158-2.537-0.229-4.271
		c-0.07-1.734-0.17-3.639-0.299-5.713c-0.129-2.074-0.639-4.107-1.529-6.1c0.398-0.844,1.09-1.266,2.074-1.266
		c1.547,0,2.32,1.74,2.32,5.221s0.504,8.789,1.512,15.926c1.007,7.137,1.57,12.346,1.688,15.627c0.07-0.469,0.234-1.559,0.492-3.27
		c0.258-1.71,0.434-2.888,0.527-3.533c0.093-0.645,0.234-1.705,0.422-3.182c0.188-1.477,0.316-2.666,0.387-3.568
		c0.07-0.902,0.141-1.963,0.211-3.182c0.07-1.218,0.105-2.479,0.105-3.779s0.141-3.416,0.422-6.346
		c0.281-2.93,0.445-4.839,0.492-5.73h1.934c0.539,0,0.996,0.153,1.371,0.457c0.375,0.305,0.562,0.738,0.562,1.301v0.598
		c1.195,4.547,2.156,11.238,2.883,20.074c0.328,4.031,0.633,7.137,0.914,9.316c0.796-6.703,1.195-14.637,1.195-23.801
		c0-1.218,0.181-3.023,0.545-5.414c0.363-2.391,0.545-4.195,0.545-5.414c-0.164-0.422-0.246-0.832-0.246-1.23
		c0-1.172,0.673-1.758,2.021-1.758c1.348,0,2.021,0.562,2.021,1.688C222.206,103.966,222.018,105.56,221.667,107.88z"/>
	<path fill="#E3DED2" d="M245.467,138.185l-0.387,1.441c0,0.586,0.211,2.016,0.633,4.289c0.422,2.273,0.633,3.762,0.633,4.465v0.07
		c0,1.078-0.364,1.758-1.09,2.039c-1.008,0-1.793-0.164-2.355-0.492s-0.844-1.154-0.844-2.479c0-1.324-0.352-4.048-1.055-8.174
		l-2.215-0.211h-2.391c-0.54-0.234-1.489-0.352-2.848-0.352c0,0.047-0.03,0.357-0.088,0.932c-0.059,0.575-0.105,1.037-0.141,1.389
		s-0.094,0.874-0.176,1.564c-0.083,0.691-0.17,1.278-0.264,1.758c-0.094,0.48-0.211,1.043-0.352,1.688
		c-0.141,0.645-0.299,1.184-0.475,1.617c-0.176,0.434-0.369,0.85-0.58,1.248c-0.422,0.821-0.938,1.23-1.547,1.23
		c-0.61,0-1.155-0.182-1.635-0.545c-0.48-0.363-0.721-0.826-0.721-1.389c1.266-4.852,2.35-9.937,3.252-15.258
		c0.902-5.32,1.441-8.478,1.617-9.475c0.176-0.996,0.585-2.918,1.23-5.766c0.645-2.848,1.031-4.751,1.16-5.713
		c0.128-0.961,0.251-2.203,0.369-3.727c0.211-3.328,0.645-5.472,1.301-6.434h2.426c1.64,0,2.461,0.492,2.461,1.477
		c0,9.258,0.902,18.457,2.707,27.598c0.093,0.54,0.269,1.289,0.527,2.25C245.186,135.314,245.467,136.967,245.467,138.185z
		 M240.545,136.638c-0.141-0.703-0.211-1.84-0.211-3.41c0-1.57-0.1-3.475-0.299-5.713c-0.199-2.238-0.487-4.834-0.861-7.787
		c-0.375-2.953-0.633-5.085-0.773-6.398c-0.281,1.359-0.832,3.633-1.652,6.82c-1.665,6.633-2.52,11.742-2.566,15.328
		C235.002,136.018,237.123,136.404,240.545,136.638z"/>
	<path fill="#E3DED2" d="M256.471,121.416l0.422,18.633v8.156c0,0.633-0.164,1.166-0.492,1.6c-0.329,0.434-0.786,0.65-1.371,0.65
		c-1.57,0-2.355-1.464-2.355-4.395l-0.141-25.383l0.422-13.43c0-3.234,0.879-4.852,2.637-4.852c1.055,0,1.816,0.809,2.285,2.426
		c0.656,3.094,1.798,7.541,3.428,13.342c1.629,5.801,2.748,10.213,3.357,13.236c0.445,1.477,1.02,3.662,1.723,6.557
		c0.703,2.895,1.253,5.068,1.652,6.521c0.188-10.406,0.281-23.015,0.281-37.828l-0.105-1.934c0-0.656,0.123-1.178,0.369-1.564
		s0.662-0.58,1.248-0.58c0.585,0,1.066,0.141,1.441,0.422c0.75,0.562,1.125,1.359,1.125,2.391c0,6.586-0.188,15.047-0.562,25.383
		c-0.375,10.336-0.938,16.793-1.688,19.371c-0.094,0.023-0.293,0.088-0.598,0.193c-0.305,0.105-0.527,0.17-0.668,0.193
		c-1.336,0.304-2.18,0.246-2.531-0.176s-0.604-0.984-0.756-1.688c-0.153-0.703-0.329-1.389-0.527-2.057
		c-0.199-0.668-0.944-3.861-2.232-9.58c-3.445-15.117-5.567-23.906-6.363-26.367V121.416z"/>
	<path fill="#E3DED2" d="M285.897,143.142l0.141-2.461c-0.188-0.609-0.575-6.029-1.16-16.26c-0.586-10.23-0.902-16.471-0.949-18.721
		c-2.766-0.07-4.477-0.322-5.133-0.756c-0.656-0.434-0.984-0.884-0.984-1.354c0-0.469,0.258-0.849,0.773-1.143
		c0.515-0.293,1.02-0.439,1.512-0.439l9.773,0.668l1.16-0.035c1.5,0,2.25,0.575,2.25,1.723c0,0.586-0.246,1.061-0.738,1.424
		c-0.492,0.364-1.043,0.545-1.652,0.545l-3.305-0.492l-0.141,0.738c0,4.547,0.398,11.355,1.195,20.426
		c0.796,9.07,1.195,15.891,1.195,20.461c0,0.586-0.217,1.09-0.65,1.512c-0.434,0.422-0.944,0.633-1.529,0.633h-1.617
		L285.897,143.142z"/>
	<path fill="#E3DED2" d="M315.499,143.142l0.141-2.461c-0.188-0.609-0.575-6.029-1.16-16.26c-0.586-10.23-0.902-16.471-0.949-18.721
		c-2.766-0.07-4.477-0.322-5.133-0.756c-0.656-0.434-0.984-0.884-0.984-1.354c0-0.469,0.258-0.849,0.773-1.143
		c0.515-0.293,1.02-0.439,1.512-0.439l9.773,0.668l1.16-0.035c1.5,0,2.25,0.575,2.25,1.723c0,0.586-0.246,1.061-0.738,1.424
		c-0.492,0.364-1.043,0.545-1.652,0.545l-3.305-0.492l-0.141,0.738c0,4.547,0.398,11.355,1.195,20.426
		c0.796,9.07,1.195,15.891,1.195,20.461c0,0.586-0.217,1.09-0.65,1.512c-0.434,0.422-0.944,0.633-1.529,0.633h-1.617
		L315.499,143.142z"/>
	<path fill="#E3DED2" d="M345.136,130.451c0,13.805-2.824,20.707-8.473,20.707c-5.203,0-8.121-6.539-8.754-19.617
		c-0.047-1.242-0.07-2.484-0.07-3.727l-0.035-4.395v-1.406c0-10.148,1.488-16.418,4.465-18.809c0.726-0.585,1.535-0.902,2.426-0.949
		c0.68,0.234,1.512,0.452,2.497,0.65c0.984,0.199,1.711,0.404,2.18,0.615c0.867,0.399,1.805,1.436,2.812,3.111
		c1.008,1.676,1.752,3.915,2.232,6.715c0.48,2.801,0.721,5.607,0.721,8.42V130.451z M331.776,113.505l0.105,4.219l-0.035,6.891
		c0,0.586,0.012,1.278,0.035,2.074c0.023,0.797,0.053,1.846,0.088,3.146s0.105,2.59,0.211,3.867
		c0.105,1.278,0.229,2.625,0.369,4.043c0.141,1.418,0.328,2.73,0.562,3.938c0.234,1.208,0.492,2.303,0.773,3.287
		c0.633,2.133,1.464,3.199,2.496,3.199c1.383,0,2.438-1.301,3.165-3.902c1.078-3.867,1.617-8.625,1.617-14.273l0.105-7.418
		c0-5.203-0.229-8.707-0.686-10.512c-0.457-1.805-0.885-3.164-1.283-4.078c-0.797-1.851-2.004-2.777-3.622-2.777
		c-0.047,0-0.094,0-0.141,0C333.029,105.208,331.776,107.974,331.776,113.505z"/>
	<path fill="#E3DED2" d="M361.448,146.798l3.797,0.527c0.914,0,1.711-0.398,2.391-1.195c0.68-0.796,1.184-1.793,1.512-2.988
		c0.633-2.297,0.949-4.33,0.949-6.1c0-1.77-0.293-3.521-0.879-5.256c-0.586-1.734-1.301-3.345-2.145-4.834
		c-0.844-1.488-1.699-3.006-2.566-4.553c-2.016-3.633-3.023-7.219-3.023-10.758c0-2.156,0.363-4.066,1.09-5.73
		c1.359-3.094,3.164-4.641,5.414-4.641c0.844,0,1.646,0.27,2.408,0.809c0.762,0.54,1.143,1.125,1.143,1.758
		c0,1.102-0.586,1.652-1.758,1.652c-0.516,0-1.02-0.141-1.512-0.422c-1.523,0.07-2.555,1.77-3.094,5.098
		c-0.117,0.727-0.176,1.577-0.176,2.549c0,0.973,0.211,2.174,0.633,3.604c0.422,1.43,0.955,2.702,1.6,3.814
		c0.645,1.113,1.336,2.344,2.074,3.691c0.738,1.348,1.436,2.654,2.092,3.92c1.477,2.93,2.215,6.281,2.215,10.055
		c0,3-0.598,5.778-1.793,8.332c-0.633,1.313-1.529,2.385-2.689,3.217s-2.502,1.26-4.025,1.283v0.176
		c-0.891-0.118-1.699-0.417-2.426-0.896s-1.137-1.107-1.23-1.881V146.798z"/>
	<path fill="#E3DED2" d="M384.089,106.474l-0.281,17.965c0.844,0.234,2.109,0.352,3.797,0.352h2.742v-1.512
		c0-2.203-0.164-5.514-0.492-9.932c-0.328-4.417-0.492-7.729-0.492-9.932c0-0.539,0.205-0.99,0.615-1.354
		c0.41-0.363,0.773-0.545,1.09-0.545s0.592-0.018,0.826-0.053s0.428-0.047,0.58-0.035c0.152,0.012,0.322,0.065,0.51,0.158
		c0.352,0.164,0.527,0.703,0.527,1.617c0,5.04,0.223,12.586,0.668,22.641s0.668,17.602,0.668,22.641c0,0.422-0.182,0.75-0.545,0.984
		c-0.363,0.234-0.826,0.352-1.389,0.352s-1.09-0.146-1.582-0.439c-0.492-0.293-0.75-0.686-0.773-1.178
		c-0.258-4.781-0.387-10.664-0.387-17.648v-0.281l-0.035-2.074l-0.035-0.668v-0.07c-0.375,0.094-0.914,0.141-1.617,0.141
		l-4.465-0.668l-0.211,7.945v0.316l0.598,11.848c0,0.703-0.17,1.313-0.51,1.828c-0.34,0.516-0.838,0.773-1.494,0.773
		c-0.961,0-1.623-0.873-1.986-2.619c-0.363-1.746-0.545-4.131-0.545-7.154l0.211-10.969l0.035-4.113l0.141-4.219l-0.492-16.242
		c0-0.562,0.199-1.06,0.598-1.494c0.398-0.434,0.879-0.65,1.441-0.65C383.327,102.185,384.089,103.615,384.089,106.474z"/>
	<path fill="#E3DED2" d="M418.542,138.185l-0.387,1.441c0,0.586,0.211,2.016,0.633,4.289c0.422,2.273,0.633,3.762,0.633,4.465v0.07
		c0,1.078-0.363,1.758-1.09,2.039c-1.008,0-1.793-0.164-2.355-0.492s-0.844-1.154-0.844-2.479c0-1.324-0.352-4.048-1.055-8.174
		l-2.215-0.211h-2.391c-0.539-0.234-1.488-0.352-2.848-0.352c0,0.047-0.029,0.357-0.088,0.932c-0.059,0.575-0.105,1.037-0.141,1.389
		s-0.094,0.874-0.176,1.564c-0.082,0.691-0.17,1.278-0.264,1.758c-0.094,0.48-0.211,1.043-0.352,1.688
		c-0.141,0.645-0.299,1.184-0.475,1.617c-0.176,0.434-0.369,0.85-0.58,1.248c-0.422,0.821-0.938,1.23-1.547,1.23
		s-1.154-0.182-1.635-0.545s-0.721-0.826-0.721-1.389c1.266-4.852,2.35-9.937,3.252-15.258c0.902-5.32,1.441-8.478,1.617-9.475
		c0.176-0.996,0.586-2.918,1.23-5.766s1.031-4.751,1.16-5.713c0.129-0.961,0.252-2.203,0.369-3.727
		c0.211-3.328,0.645-5.472,1.301-6.434h2.426c1.641,0,2.461,0.492,2.461,1.477c0,9.258,0.902,18.457,2.707,27.598
		c0.094,0.54,0.27,1.289,0.527,2.25C418.261,135.314,418.542,136.967,418.542,138.185z M413.62,136.638
		c-0.141-0.703-0.211-1.84-0.211-3.41c0-1.57-0.1-3.475-0.299-5.713c-0.199-2.238-0.486-4.834-0.861-7.787s-0.633-5.085-0.773-6.398
		c-0.281,1.359-0.832,3.633-1.652,6.82c-1.664,6.633-2.52,11.742-2.566,15.328C408.077,136.018,410.198,136.404,413.62,136.638z"/>
	<path fill="#E3DED2" d="M429.194,128.517c-0.328,1.336-0.492,2.572-0.492,3.709c0,1.137,0.146,3.563,0.439,7.277
		c0.293,3.715,0.439,6.112,0.439,7.189c0,1.078-0.193,1.898-0.58,2.461s-0.826,0.844-1.318,0.844c-0.703,0-1.148-0.48-1.336-1.441
		c0.047-1.781,0.07-3.967,0.07-6.557c0-2.589-0.205-8.279-0.615-17.068s-0.615-15.351-0.615-19.688c0-2.273,0.797-3.41,2.391-3.41
		c2.508,0,4.617,0.656,6.328,1.969c1.711,1.313,2.566,3.188,2.566,5.625c0,3.282-0.258,5.836-0.773,7.664s-1.488,4.113-2.918,6.855
		c0.258,1.148,0.715,3.445,1.371,6.891c1.383,7.453,2.941,12.832,4.676,16.137c0.492,0.938,0.738,1.67,0.738,2.197
		s-0.146,0.972-0.439,1.336c-0.293,0.363-0.686,0.545-1.178,0.545c-1.57,0-3.012-2.613-4.324-7.84
		c-0.562-2.273-1.066-4.57-1.512-6.891c-1.266-6.351-2.074-9.926-2.426-10.723C429.687,126.209,429.522,127.181,429.194,128.517z
		 M429.089,104.505l-0.246,1.02c0,1.969,0.047,4.811,0.141,8.525c0.094,3.715,0.141,6.416,0.141,8.104
		c1.125-0.585,2.033-2.115,2.725-4.588c0.691-2.473,1.037-4.365,1.037-5.678c0-1.312-0.035-2.279-0.105-2.9
		c-0.07-0.621-0.223-1.306-0.457-2.057C431.878,105.361,430.8,104.553,429.089,104.505z"/>
	<path fill="#E3DED2" d="M451.87,147.115l2.848-0.176c1.828,0,2.742,0.586,2.742,1.758c0,0.727-0.316,1.253-0.949,1.582
		c-0.633,0.328-1.348,0.492-2.145,0.492h-6.785c-0.609,0-1.131-0.211-1.564-0.633s-0.668-0.961-0.703-1.617
		c-0.035-0.656,0.012-1.477,0.141-2.461s0.193-1.77,0.193-2.355l-0.352-9.211l0.492-21.023l-0.387-6.082
		c0-3.398,1.008-5.098,3.023-5.098c0.562,0,1.09,0.176,1.582,0.527c0.188,0.023,0.639,0.065,1.354,0.123
		c0.715,0.059,1.342,0.135,1.881,0.229c0.539,0.094,1.125,0.223,1.758,0.387c1.359,0.375,2.039,1.02,2.039,1.934
		c0,0.984-0.703,1.735-2.109,2.25c-2.203-0.75-4.02-1.207-5.449-1.371c0.07,1.032,0.105,2.062,0.105,3.094l-0.316,10.336
		c0,0.047,0.07,0.422,0.211,1.125l2.566-0.105c2.32,0,3.48,0.656,3.48,1.969c0,0.703-0.205,1.324-0.615,1.863
		c-0.41,0.54-0.99,0.809-1.74,0.809s-1.406-0.211-1.969-0.633h-1.828c0.141,1.828,0.211,3.563,0.211,5.203l-0.316,13.043
		C449.269,145.767,450.136,147.115,451.87,147.115z"/>
	<path fill="#E3DED2" d="M482.632,149.013l-2.707,0.035l-3.129,0.141c-1.336,0-2.227-0.434-2.672-1.301
		c0-0.703,0.088-1.248,0.264-1.635s0.545-0.58,1.107-0.58h2.039l0.141-0.949l-0.492-15.293l0.387-16.031
		c0-2.695-0.117-5.25-0.352-7.664c-1.008,0-1.939,0-2.795,0s-1.482-0.135-1.881-0.404c-0.398-0.269-0.598-0.779-0.598-1.529
		c0-1.125,1.301-1.675,3.902-1.652h0.246c6.164,0,9.246,0.821,9.246,2.461c0,0.258-0.141,0.703-0.422,1.336h-3.691
		c0.188,1.758,0.281,3.82,0.281,6.188l-0.387,13.746l0.527,15.293v2.145c0,0.422-0.082,1.067-0.246,1.934h3.059
		c1.969,0,2.953,0.598,2.953,1.793c0,0.54-0.17,0.997-0.51,1.371c-0.34,0.375-0.721,0.562-1.143,0.562L482.632,149.013z"/>
	<path fill="#E3DED2" d="M499.261,143.142l0.141-2.461c-0.188-0.609-0.574-6.029-1.16-16.26s-0.902-16.471-0.949-18.721
		c-2.766-0.07-4.477-0.322-5.133-0.756c-0.656-0.434-0.984-0.884-0.984-1.354c0-0.469,0.258-0.849,0.773-1.143
		c0.516-0.293,1.02-0.439,1.512-0.439l9.773,0.668l1.16-0.035c1.5,0,2.25,0.575,2.25,1.723c0,0.586-0.246,1.061-0.738,1.424
		c-0.492,0.364-1.043,0.545-1.652,0.545l-3.305-0.492l-0.141,0.738c0,4.547,0.398,11.355,1.195,20.426s1.195,15.891,1.195,20.461
		c0,0.586-0.217,1.09-0.65,1.512s-0.943,0.633-1.529,0.633h-1.617L499.261,143.142z"/>
	<path fill="#E3DED2" d="M544.929,107.88c-0.352,2.32-0.551,4.043-0.598,5.168v5.273c0,9.821-0.621,17.661-1.863,23.52
		c-0.234,1.102-0.352,2.133-0.352,3.094c0,4.875-0.879,7.312-2.637,7.312c-0.867,0-1.43-0.621-1.688-1.863
		c-0.094-0.445-0.141-1.218-0.141-2.32c0-1.102-0.293-3.316-0.879-6.645c-0.234-1.429-0.434-2.883-0.598-4.359
		s-0.422-4.605-0.773-9.387s-0.703-8.438-1.055-10.969c-0.141,1.594-0.211,3.493-0.211,5.695c0,2.203-0.457,6.211-1.371,12.023
		c-0.422,2.812-0.68,4.576-0.773,5.291c-0.094,0.715-0.193,1.799-0.299,3.252c-0.105,1.454-0.381,3.152-0.826,5.098
		c-0.469,2.18-1.219,3.27-2.25,3.27c-1.43,0-2.414-2.051-2.953-6.152c-0.234-1.828-0.416-3.609-0.545-5.344
		c-0.129-1.734-0.223-3.463-0.281-5.186s-0.129-2.912-0.211-3.568c-0.082-0.656-0.328-2.314-0.738-4.975
		c-0.41-2.66-0.656-4.547-0.738-5.66c-0.082-1.113-0.158-2.537-0.229-4.271c-0.07-1.734-0.17-3.639-0.299-5.713
		s-0.639-4.107-1.529-6.1c0.398-0.844,1.09-1.266,2.074-1.266c1.547,0,2.32,1.74,2.32,5.221s0.504,8.789,1.512,15.926
		s1.57,12.346,1.688,15.627c0.07-0.469,0.234-1.559,0.492-3.27c0.258-1.71,0.434-2.888,0.527-3.533
		c0.094-0.645,0.234-1.705,0.422-3.182s0.316-2.666,0.387-3.568c0.07-0.902,0.141-1.963,0.211-3.182
		c0.07-1.218,0.105-2.479,0.105-3.779s0.141-3.416,0.422-6.346c0.281-2.93,0.445-4.839,0.492-5.73h1.934
		c0.539,0,0.996,0.153,1.371,0.457c0.375,0.305,0.562,0.738,0.562,1.301v0.598c1.195,4.547,2.156,11.238,2.883,20.074
		c0.328,4.031,0.633,7.137,0.914,9.316c0.797-6.703,1.195-14.637,1.195-23.801c0-1.218,0.182-3.023,0.545-5.414
		s0.545-4.195,0.545-5.414c-0.164-0.422-0.246-0.832-0.246-1.23c0-1.172,0.674-1.758,2.021-1.758s2.021,0.562,2.021,1.688
		C545.468,103.966,545.28,105.56,544.929,107.88z"/>
	<path fill="#E3DED2" d="M561.171,149.013l-2.707,0.035l-3.129,0.141c-1.336,0-2.227-0.434-2.672-1.301
		c0-0.703,0.088-1.248,0.264-1.635s0.545-0.58,1.107-0.58h2.039l0.141-0.949l-0.492-15.293l0.387-16.031
		c0-2.695-0.117-5.25-0.352-7.664c-1.008,0-1.939,0-2.795,0s-1.482-0.135-1.881-0.404c-0.398-0.269-0.598-0.779-0.598-1.529
		c0-1.125,1.301-1.675,3.902-1.652h0.246c6.164,0,9.246,0.821,9.246,2.461c0,0.258-0.141,0.703-0.422,1.336h-3.691
		c0.188,1.758,0.281,3.82,0.281,6.188l-0.387,13.746l0.527,15.293v2.145c0,0.422-0.082,1.067-0.246,1.934h3.059
		c1.969,0,2.953,0.598,2.953,1.793c0,0.54-0.17,0.997-0.51,1.371c-0.34,0.375-0.721,0.562-1.143,0.562L561.171,149.013z"/>
	<path fill="#E3DED2" d="M577.8,143.142l0.141-2.461c-0.188-0.609-0.574-6.029-1.16-16.26s-0.902-16.471-0.949-18.721
		c-2.766-0.07-4.477-0.322-5.133-0.756c-0.656-0.434-0.984-0.884-0.984-1.354c0-0.469,0.258-0.849,0.773-1.143
		c0.516-0.293,1.02-0.439,1.512-0.439l9.773,0.668l1.16-0.035c1.5,0,2.25,0.575,2.25,1.723c0,0.586-0.246,1.061-0.738,1.424
		c-0.492,0.364-1.043,0.545-1.652,0.545l-3.305-0.492l-0.141,0.738c0,4.547,0.398,11.355,1.195,20.426s1.195,15.891,1.195,20.461
		c0,0.586-0.217,1.09-0.65,1.512s-0.943,0.633-1.529,0.633h-1.617L577.8,143.142z"/>
	<path fill="#E3DED2" d="M595.097,106.474l-0.281,17.965c0.844,0.234,2.109,0.352,3.797,0.352h2.742v-1.512
		c0-2.203-0.164-5.514-0.492-9.932c-0.328-4.417-0.492-7.729-0.492-9.932c0-0.539,0.205-0.99,0.615-1.354
		c0.41-0.363,0.773-0.545,1.09-0.545s0.592-0.018,0.826-0.053s0.428-0.047,0.58-0.035c0.152,0.012,0.322,0.065,0.51,0.158
		c0.352,0.164,0.527,0.703,0.527,1.617c0,5.04,0.223,12.586,0.668,22.641s0.668,17.602,0.668,22.641c0,0.422-0.182,0.75-0.545,0.984
		c-0.363,0.234-0.826,0.352-1.389,0.352s-1.09-0.146-1.582-0.439c-0.492-0.293-0.75-0.686-0.773-1.178
		c-0.258-4.781-0.387-10.664-0.387-17.648v-0.281l-0.035-2.074l-0.035-0.668v-0.07c-0.375,0.094-0.914,0.141-1.617,0.141
		l-4.465-0.668l-0.211,7.945v0.316l0.598,11.848c0,0.703-0.17,1.313-0.51,1.828c-0.34,0.516-0.838,0.773-1.494,0.773
		c-0.961,0-1.623-0.873-1.986-2.619c-0.363-1.746-0.545-4.131-0.545-7.154l0.211-10.969l0.035-4.113l0.141-4.219l-0.492-16.242
		c0-0.562,0.199-1.06,0.598-1.494c0.398-0.434,0.879-0.65,1.441-0.65C594.335,102.185,595.097,103.615,595.097,106.474z"/>
	<path fill="#E3DED2" d="M640.062,117.724l0.07,1.23c-0.352,1.688-0.58,4.588-0.686,8.701s-0.311,7.43-0.615,9.949
		c-0.305,2.52-0.715,4.734-1.23,6.645c-0.516,1.911-1.342,3.498-2.479,4.764s-2.402,1.898-3.797,1.898s-2.537-0.252-3.428-0.756
		s-1.617-1.23-2.18-2.18s-1.031-1.969-1.406-3.059s-0.656-2.35-0.844-3.779c-0.328-2.508-0.492-5.156-0.492-7.945l0.387-18.984
		c0-4.148-0.293-7.582-0.879-10.301v-1.723c1.148,0,2.057,0.445,2.725,1.336c0.668,0.891,1.002,1.887,1.002,2.988v34.84
		c0,1.852,0.463,3.545,1.389,5.08c0.926,1.535,2.291,2.303,4.096,2.303c2.039,0,3.398-5.929,4.078-17.789v-0.316l0.035-0.457
		c0.609-10.828,0.914-19.594,0.914-26.297l-0.035-1.195c0-0.562,0.129-0.984,0.387-1.266s0.75-0.422,1.477-0.422
		s1.266,0.199,1.617,0.598c0.352,0.399,0.557,0.803,0.615,1.213c0.059,0.41,0.088,0.967,0.088,1.67l-0.492,7.242L640.062,117.724z"
		/>
	<path fill="#E3DED2" d="M646.812,146.798l3.797,0.527c0.914,0,1.711-0.398,2.391-1.195c0.68-0.796,1.184-1.793,1.512-2.988
		c0.633-2.297,0.949-4.33,0.949-6.1c0-1.77-0.293-3.521-0.879-5.256c-0.586-1.734-1.301-3.345-2.145-4.834
		c-0.844-1.488-1.699-3.006-2.566-4.553c-2.016-3.633-3.023-7.219-3.023-10.758c0-2.156,0.363-4.066,1.09-5.73
		c1.359-3.094,3.164-4.641,5.414-4.641c0.844,0,1.646,0.27,2.408,0.809c0.762,0.54,1.143,1.125,1.143,1.758
		c0,1.102-0.586,1.652-1.758,1.652c-0.516,0-1.02-0.141-1.512-0.422c-1.523,0.07-2.555,1.77-3.094,5.098
		c-0.117,0.727-0.176,1.577-0.176,2.549c0,0.973,0.211,2.174,0.633,3.604c0.422,1.43,0.955,2.702,1.6,3.814
		c0.645,1.113,1.336,2.344,2.074,3.691c0.738,1.348,1.436,2.654,2.092,3.92c1.477,2.93,2.215,6.281,2.215,10.055
		c0,3-0.598,5.778-1.793,8.332c-0.633,1.313-1.529,2.385-2.689,3.217s-2.502,1.26-4.025,1.283v0.176
		c-0.891-0.118-1.699-0.417-2.426-0.896s-1.137-1.107-1.23-1.881V146.798z"/>
	<path fill="#E3DED2" d="M677.151,151.158c-1.172-0.305-2.086-1.137-2.742-2.496c0-0.82,0.293-1.564,0.879-2.232
		s1.312-1.002,2.18-1.002s1.564,0.34,2.092,1.02c0.527,0.68,0.791,1.5,0.791,2.461c0,1.688-1.066,2.602-3.199,2.742V151.158z
		 M679.085,130.732l-0.141,3.973c0,2.977-0.375,4.465-1.125,4.465s-1.125-2.097-1.125-6.293l-0.035-11.918l-0.598-23.625
		c0-0.75,0.316-1.4,0.949-1.951c0.633-0.55,1.266-0.826,1.898-0.826s1.119,0.17,1.459,0.51c0.34,0.34,0.51,0.756,0.51,1.248
		c0,3.844-0.299,9.586-0.896,17.227C679.384,121.182,679.085,126.912,679.085,130.732z"/>
</g>
<path fill="#E3DED2" d="M566.084,354.924c0,0.001,56.234-42.057,63.811-86.628c-10.926,3.44-47.842,16.833-86.013,64.335
	C545.914,344.866,554.394,353.704,566.084,354.924z"/>
<path fill="#FF9381" d="M590.246,333.423c-3.287-3.287,3.31,23.833-15.072,38.461c1.168-4.649-3.009-17.036-9.09-16.96
	C570.252,351.945,586.382,338.954,590.246,333.423z"/>
<path fill="#FF9381" d="M566.049,309.232c-8.105,3.082-20.427-10.287-39.412,14.797c4.625-1.288,17.158,2.541,17.245,8.603
	C546.759,328.399,560.613,313.235,566.049,309.232z"/>
<path fill="#FF9381" d="M629.895,268.296c-0.477,5.058-5.227,19.238-10.591,27.832c-5.618,9.009-31.166-9.837-18.558-15.016
	C606.909,278.579,622.848,269.673,629.895,268.296z"/>
<path fill="#FF9381" d="M592.471,313.015c-4.206-0.382-6.938-4.15-6.102-8.422c0.838-4.272,4.924-7.421,9.127-7.039
	c4.208,0.382,6.938,4.154,6.101,8.423C600.76,310.249,596.673,313.401,592.471,313.015z"/>
<path fill="#FF9381" d="M541.352,349.924c0,0-65.854,49.853-103.659,44.975c29.269,12.195,7.318,37.804,9.757,41.463
	c8.536-6.097,34.146-29.269,18.292,18.293c10.976-7.317,37.806-56.097,41.464-24.39c8.536-24.391,36.715-74.391,42.138-74.391
	C548.668,354.655,541.352,349.924,541.352,349.924z"/>
</svg>
