<?xml version="1.0" encoding="utf-8"?>
<!-- Generator: Adobe Illustrator 16.0.0, SVG Export Plug-In . SVG Version: 6.00 Build 0)  -->
<!DOCTYPE svg PUBLIC "-//W3C//DTD SVG 1.1//EN" "http://www.w3.org/Graphics/SVG/1.1/DTD/svg11.dtd">
<svg version="1.1" id="Layer_1" xmlns="http://www.w3.org/2000/svg" xmlns:xlink="http://www.w3.org/1999/xlink" x="0px" y="0px"
	 width="623px" height="738.877px" viewBox="0 0 623 738.877" enable-background="new 0 0 623 738.877" xml:space="preserve">
<circle fill="#EAE7E1" stroke="#D8D5D0" stroke-miterlimit="10" cx="275.378" cy="729.237" r="9.141"/>
<circle fill="#C6BEAF" stroke="#C4BCAD" stroke-miterlimit="10" cx="339.378" cy="728.237" r="9.141"/>
<g>
	<g>
		<path fill="#FF9381" d="M238.594,240.436c0.033,6.611,0.75,13.252,0.422,19.858c-0.336,6.747-4.074,11.01-9.656,14.434
			c-14.926,9.154-32.906,8.346-49.762,7.43c-14.732-0.801-29.928-2.694-44.509,0.497c-14.128,3.091-23.425,13.599-29.784,26.021
			c-0.879,1.718,1.709,3.236,2.591,1.515c3.969-7.753,8.884-14.943,16.24-19.825c6.049-4.014,13.332-5.486,20.449-6.097
			c16.676-1.431,33.47,1.339,50.157,1.373c14.628,0.029,30.354-2.195,41.65-12.372c8.819-7.944,5.254-22.479,5.202-32.833
			C241.584,238.502,238.584,238.501,238.594,240.436L238.594,240.436z"/>
	</g>
</g>
<g>
	<g>
		<path fill="#FF9381" d="M291.091,234.437c2.106,37.898,1.252,75.865,1.076,113.798c-0.085,18.478,0.274,36.945,0.455,55.421
			c0.147,15.012,1.333,30.758,9.173,43.943c0.987,1.662,3.582,0.154,2.591-1.514c-8.13-13.678-8.694-30.041-8.788-45.537
			c-0.107-18.102-0.505-36.193-0.421-54.301c0.173-37.273,0.984-74.573-1.085-111.812
			C293.984,232.513,290.982,232.503,291.091,234.437L291.091,234.437z"/>
	</g>
</g>
<path fill="none" stroke="#E3DED2" stroke-width="3" stroke-linecap="round" stroke-linejoin="round" stroke-miterlimit="10" d="
	M302.84,450.883"/>
<path fill="none" stroke="#E3DED2" stroke-width="3" stroke-linecap="round" stroke-linejoin="round" stroke-miterlimit="10" d="
	M466.5,686.844"/>
<path fill="#E3DED2" d="M279.602,412.733c0,0,3.392,70.141,36.092,101.357c3.263-10.979,12.818-49.068-5.193-107.285"/>
<path fill="#FF9381" d="M279.602,412.733c0.138,5.123,1.879,25.76,4.301,32.059c4.562-0.887-21.605-10.594-23.443-34.014"/>
<path fill="#FF9381" d="M310.5,406.807c1.898,4.754,6.715,24.721,6.99,31.465c1.982-8.441,19.957-11.174,9.789-40.943"/>
<path fill="#FF9381" d="M315.693,514.092c-3.926-3.225-13.021-15.098-17.143-24.35c-4.322-9.697,25.594-20.326,22.829-6.98
	C320.032,489.288,318.494,507.481,315.693,514.092z"/>
<path fill="#FF9381" d="M299.57,458.053c2.671-3.271,7.32-3.428,10.395-0.344c3.072,3.084,3.396,8.234,0.727,11.502
	c-2.67,3.273-7.325,3.426-10.395,0.344C297.225,466.471,296.9,461.321,299.57,458.053z"/>
<path fill="#78A5CE" d="M412,192.391c0,22.527-6.801,22.453-15.09,22.453H188.011c-8.29,0-15.011,0.074-15.011-22.453v-39.423
	c0-22.527,6.721-22.124,15.011-22.124H396.91c8.289,0,15.09-0.403,15.09,22.124V192.391z"/>
<g>
	<path fill="#E3DED2" d="M228.227,167.306h-4.898v-9.41l-4.418,5.449h-0.387l-4.431-5.449v9.41h-4.758v-16.242h4.44l4.992,6.094
		l5.017-6.094h4.44v16.242H228.227z"/>
	<path fill="#E3DED2" d="M250.163,167.306h-5.017l-1.323-3.293h-7.056l-1.348,3.293h-5.016l7.184-16.242h5.414L250.163,167.306z
		 M242.698,161.189l-2.38-5.93l-2.401,5.93H242.698z"/>
	<path fill="#E3DED2" d="M265.491,155.013h-5.953v12.293h-4.888v-12.293h-5.952v-3.949h16.793V155.013z"/>
	<path fill="#E3DED2" d="M281.521,166.087c-0.672,0.352-1.358,0.633-2.062,0.844c-0.703,0.211-1.412,0.361-2.127,0.451
		c-0.715,0.09-1.455,0.135-2.222,0.135c-1.414,0-2.682-0.195-3.803-0.586s-2.094-0.967-2.918-1.729
		c-0.824-0.762-1.44-1.652-1.852-2.672c-0.411-1.021-0.615-2.139-0.615-3.357c0-1.398,0.242-2.623,0.727-3.674
		c0.485-1.051,1.162-1.924,2.033-2.619c0.871-0.695,1.863-1.209,2.978-1.541s2.286-0.498,3.521-0.498c1.844,0,3.934,0.41,6.271,1.23
		v4.312c-0.806-0.5-1.601-0.916-2.386-1.248s-1.709-0.498-2.771-0.498c-0.944,0-1.828,0.188-2.647,0.562
		c-0.82,0.374-1.48,0.91-1.98,1.604c-0.5,0.695-0.75,1.508-0.75,2.438c0,0.82,0.219,1.572,0.656,2.256
		c0.437,0.684,1.045,1.227,1.822,1.629c0.776,0.402,1.653,0.604,2.631,0.604c0.789,0,1.535-0.096,2.238-0.287
		c0.702-0.191,1.295-0.404,1.774-0.639c0.479-0.235,0.976-0.512,1.481-0.832V166.087L281.521,166.087z"/>
	<path fill="#E3DED2" d="M301.973,167.306h-4.888v-6.34h-7.371v6.34h-4.897v-16.242h4.897v5.965h7.371v-5.965h4.888V167.306z"/>
	<path fill="#E3DED2" d="M339.482,151.064l-7.03,16.453h-2.836l-4.22-9.574l-4.323,9.574h-2.859l-6.891-16.453h5.073l3.375,9
		l3.867-9h3.504l3.797,9l3.527-9H339.482z"/>
	<path fill="#E3DED2" d="M346.654,167.306h-4.897v-16.242h4.897V167.306z"/>
	<path fill="#E3DED2" d="M366.331,155.013h-5.953v12.293h-4.887v-12.293h-5.953v-3.949h16.793V155.013z"/>
	<path fill="#E3DED2" d="M386.348,167.306h-4.888v-6.34h-7.371v6.34h-4.897v-16.242h4.897v5.965h7.371v-5.965h4.888V167.306z"/>
	<path fill="#E3DED2" d="M241.396,188.278c0,1.664-0.303,3-0.907,4.008c-0.605,1.008-1.318,1.824-2.14,2.449
		c-1.164,0.914-2.793,1.371-4.887,1.371h-8.766v-16.242h6.75c1.016,0,1.885,0.053,2.607,0.158c0.721,0.105,1.372,0.254,1.95,0.445
		c0.578,0.191,1.07,0.406,1.478,0.645c0.406,0.239,0.77,0.494,1.09,0.768c0.555,0.453,1.041,0.988,1.459,1.605
		c0.418,0.617,0.75,1.332,0.996,2.145S241.396,187.325,241.396,188.278z M236.417,188.067c0-1.32-0.252-2.35-0.756-3.088
		s-1.109-1.232-1.815-1.482c-0.707-0.25-1.429-0.375-2.162-0.375h-2.086v9.621h2.086c1.28,0,2.391-0.305,3.328-0.914
		C235.948,191.22,236.417,189.966,236.417,188.067z"/>
	<path fill="#E3DED2" d="M261.227,196.106h-5.017l-1.323-3.293h-7.056l-1.349,3.293h-5.016l7.184-16.242h5.414L261.227,196.106z
		 M253.761,189.989l-2.379-5.93l-2.401,5.93H253.761z"/>
	<path fill="#E3DED2" d="M281.02,196.106h-4.359l-8.426-9.047v9.047h-4.853v-16.242h4.349l8.401,9v-9h4.888V196.106z"/>
	<path fill="#E3DED2" d="M302.477,187.974c0,1.516-0.351,2.91-1.05,4.184c-0.698,1.274-1.739,2.285-3.122,3.035
		c-1.384,0.75-3.066,1.125-5.052,1.125c-2.008,0-3.707-0.391-5.098-1.172c-1.392-0.781-2.425-1.809-3.101-3.082
		s-1.014-2.637-1.014-4.09c0-1.461,0.336-2.826,1.008-4.096s1.705-2.293,3.1-3.07c1.396-0.777,3.097-1.166,5.104-1.166
		c1.5,0,2.838,0.223,4.015,0.668c1.176,0.445,2.143,1.049,2.899,1.811c0.757,0.762,1.332,1.648,1.724,2.66
		C302.281,185.793,302.477,186.856,302.477,187.974z M297.482,187.974c0-0.609-0.09-1.166-0.27-1.67
		c-0.18-0.504-0.451-0.941-0.814-1.312c-0.362-0.371-0.807-0.66-1.33-0.867c-0.522-0.207-1.129-0.311-1.815-0.311
		c-1.312,0-2.344,0.383-3.094,1.148s-1.125,1.77-1.125,3.012c0,1.242,0.377,2.248,1.131,3.018s1.783,1.154,3.088,1.154
		c0.897,0,1.664-0.178,2.297-0.533c0.634-0.355,1.113-0.848,1.441-1.477C297.318,189.507,297.482,188.786,297.482,187.974z"/>
	<path fill="#E3DED2" d="M322.818,196.106h-4.358l-8.426-9.047v9.047h-4.853v-16.242h4.348l8.402,9v-9h4.887V196.106z"/>
	<path fill="#E3DED2" d="M339.145,196.106h-12.246v-16.242h12.047v3.258h-7.148v2.977h6.82v3.27h-6.82v3.469h7.348V196.106
		L339.145,196.106z"/>
	<path fill="#E3DED2" d="M358.15,196.106h-5.262l-1.277-2.883c-0.469-1.055-0.891-1.826-1.266-2.314
		c-0.375-0.488-0.74-0.801-1.096-0.938c-0.355-0.137-0.814-0.205-1.377-0.205h-0.551v6.34h-4.898v-16.242h8.332
		c1.344,0,2.445,0.273,3.305,0.82c0.86,0.547,1.479,1.211,1.857,1.992c0.378,0.781,0.568,1.523,0.568,2.227
		c0,0.82-0.158,1.514-0.476,2.08s-0.649,0.979-1.002,1.236c-0.353,0.257-0.746,0.504-1.184,0.738
		c0.522,0.305,0.954,0.666,1.295,1.084c0.34,0.418,0.803,1.264,1.389,2.537L358.15,196.106z M351.495,184.997
		c0-0.75-0.246-1.273-0.738-1.57c-0.491-0.297-1.293-0.445-2.401-0.445h-1.031v3.914h1.055c1.195,0,2.014-0.131,2.455-0.393
		C351.275,186.241,351.495,185.739,351.495,184.997z"/>
	<path fill="#E3DED2" d="M371.732,191.384c0,1.016-0.26,1.895-0.778,2.637s-1.244,1.311-2.175,1.705
		c-0.93,0.394-1.995,0.592-3.198,0.592c-0.336,0-0.748-0.021-1.235-0.064c-0.488-0.043-1.138-0.162-1.945-0.357
		c-0.809-0.195-1.65-0.484-2.525-0.867v-3.984c0.82,0.508,1.627,0.93,2.42,1.266s1.643,0.504,2.549,0.504
		c0.836,0,1.377-0.139,1.623-0.416s0.369-0.537,0.369-0.779c0-0.438-0.211-0.807-0.633-1.107c-0.422-0.3-1.035-0.611-1.84-0.932
		c-0.891-0.375-1.672-0.783-2.344-1.225s-1.222-0.994-1.646-1.658c-0.425-0.664-0.639-1.449-0.639-2.355
		c0-0.875,0.215-1.666,0.645-2.373c0.43-0.707,1.086-1.271,1.969-1.693c0.883-0.422,1.961-0.633,3.234-0.633
		c0.906,0,1.744,0.088,2.514,0.264c0.771,0.176,1.404,0.373,1.904,0.592c0.5,0.219,0.844,0.391,1.031,0.516v3.809
		c-0.664-0.477-1.404-0.902-2.221-1.277c-0.817-0.375-1.689-0.562-2.619-0.562c-0.609,0-1.051,0.117-1.324,0.352
		c-0.273,0.235-0.41,0.523-0.41,0.867c0,0.32,0.137,0.598,0.41,0.832s0.762,0.52,1.465,0.855c1.25,0.586,2.25,1.113,3,1.582
		c0.75,0.469,1.338,1.01,1.764,1.623C371.521,189.711,371.732,190.47,371.732,191.384z"/>
</g>
<path fill="#FF9381" d="M191,461.844c0,12-5.373,12-12,12H12c-6.627,0-12,0-12-12v-21c0-12,5.373-12,12-12h167c6.627,0,12,0,12,12
	V461.844z"/>
<g>
	<path fill="#E3DED2" d="M46.395,450.596c0,1.664-0.303,3-0.908,4.008s-1.318,1.824-2.139,2.449
		c-1.164,0.914-2.793,1.371-4.887,1.371h-8.766v-16.242h6.75c1.016,0,1.885,0.053,2.607,0.158c0.722,0.105,1.373,0.254,1.951,0.445
		c0.578,0.189,1.07,0.406,1.477,0.645c0.407,0.238,0.77,0.494,1.09,0.768c0.555,0.453,1.041,0.988,1.459,1.605
		s0.75,1.332,0.996,2.145S46.395,449.643,46.395,450.596z M41.415,450.385c0-1.32-0.252-2.35-0.756-3.088
		c-0.504-0.738-1.109-1.232-1.816-1.482c-0.707-0.25-1.428-0.375-2.162-0.375h-2.086v9.621h2.086c1.281,0,2.391-0.305,3.328-0.914
		S41.415,452.284,41.415,450.385z"/>
	<path fill="#E3DED2" d="M54.34,458.424h-4.898v-16.242h4.898V458.424z"/>
	<path fill="#E3DED2" d="M69.797,453.702c0,1.016-0.26,1.895-0.779,2.637s-1.244,1.311-2.174,1.705
		c-0.93,0.393-1.996,0.592-3.199,0.592c-0.336,0-0.748-0.021-1.236-0.064c-0.488-0.043-1.137-0.162-1.945-0.357
		s-1.65-0.482-2.525-0.867v-3.982c0.82,0.508,1.627,0.93,2.42,1.266s1.643,0.504,2.549,0.504c0.836,0,1.377-0.139,1.623-0.416
		c0.246-0.277,0.369-0.537,0.369-0.779c0-0.438-0.211-0.807-0.633-1.107c-0.422-0.299-1.035-0.611-1.84-0.932
		c-0.891-0.375-1.672-0.783-2.344-1.225s-1.221-0.994-1.646-1.658s-0.639-1.449-0.639-2.355c0-0.875,0.215-1.666,0.645-2.373
		c0.43-0.707,1.086-1.271,1.969-1.693c0.883-0.422,1.961-0.633,3.234-0.633c0.906,0,1.744,0.088,2.514,0.264
		c0.77,0.178,1.404,0.373,1.904,0.594c0.5,0.219,0.844,0.391,1.031,0.516v3.809c-0.664-0.477-1.404-0.902-2.221-1.277
		s-1.689-0.562-2.619-0.562c-0.609,0-1.051,0.117-1.324,0.354c-0.273,0.234-0.41,0.521-0.41,0.867c0,0.318,0.137,0.598,0.41,0.832
		c0.273,0.232,0.762,0.52,1.465,0.854c1.25,0.586,2.25,1.113,3,1.582s1.338,1.01,1.764,1.623
		C69.586,452.028,69.797,452.788,69.797,453.702z"/>
	<path fill="#E3DED2" d="M87.668,457.206c-0.672,0.352-1.359,0.633-2.062,0.844s-1.412,0.361-2.127,0.451s-1.455,0.135-2.221,0.135
		c-1.414,0-2.682-0.195-3.803-0.586s-2.094-0.967-2.918-1.729c-0.824-0.764-1.441-1.652-1.852-2.672
		c-0.411-1.021-0.615-2.141-0.615-3.357c0-1.398,0.242-2.623,0.727-3.674c0.485-1.051,1.162-1.924,2.033-2.619
		s1.863-1.209,2.977-1.541c1.114-0.332,2.287-0.498,3.521-0.498c1.844,0,3.934,0.41,6.27,1.23v4.311
		c-0.805-0.5-1.6-0.916-2.385-1.248c-0.785-0.332-1.709-0.498-2.771-0.498c-0.945,0-1.828,0.189-2.648,0.562
		c-0.82,0.375-1.48,0.91-1.98,1.605s-0.75,1.508-0.75,2.438c0,0.82,0.219,1.572,0.656,2.256s1.045,1.227,1.822,1.629
		s1.654,0.604,2.631,0.604c0.789,0,1.535-0.096,2.238-0.285c0.703-0.191,1.295-0.404,1.775-0.641
		c0.48-0.234,0.975-0.512,1.482-0.832V457.206z"/>
	<path fill="#E3DED2" d="M108,450.292c0,1.516-0.35,2.91-1.049,4.184c-0.699,1.273-1.74,2.285-3.123,3.035
		c-1.383,0.75-3.066,1.125-5.051,1.125c-2.008,0-3.707-0.391-5.098-1.172c-1.391-0.781-2.424-1.809-3.1-3.082
		c-0.676-1.273-1.014-2.637-1.014-4.09c0-1.461,0.336-2.826,1.008-4.096c0.672-1.271,1.705-2.293,3.1-3.07s3.096-1.166,5.104-1.166
		c1.5,0,2.838,0.223,4.014,0.668s2.143,1.049,2.9,1.811c0.757,0.762,1.332,1.648,1.723,2.66S108,449.174,108,450.292z
		 M103.008,450.292c0-0.609-0.09-1.166-0.27-1.67c-0.18-0.504-0.451-0.941-0.814-1.312c-0.363-0.371-0.807-0.66-1.33-0.867
		c-0.523-0.207-1.129-0.311-1.816-0.311c-1.312,0-2.344,0.383-3.094,1.148c-0.75,0.764-1.125,1.77-1.125,3.012
		s0.377,2.248,1.131,3.018s1.783,1.154,3.088,1.154c0.898,0,1.664-0.178,2.297-0.533c0.633-0.355,1.113-0.848,1.441-1.477
		C102.844,451.825,103.008,451.104,103.008,450.292z"/>
	<path fill="#E3DED2" d="M126.575,442.182l-7.324,16.453h-3.234l-7.184-16.453h5.098l3.715,9.375l3.82-9.375H126.575z"/>
	<path fill="#E3DED2" d="M141.047,458.424h-12.246v-16.242h12.047v3.258H133.7v2.977h6.82v3.27h-6.82v3.471h7.348L141.047,458.424
		L141.047,458.424z"/>
	<path fill="#E3DED2" d="M160.055,458.424h-5.262l-1.277-2.883c-0.469-1.055-0.891-1.826-1.266-2.314s-0.74-0.801-1.096-0.938
		c-0.356-0.137-0.814-0.205-1.377-0.205h-0.551v6.34h-4.898v-16.242h8.332c1.344,0,2.445,0.273,3.305,0.82
		c0.86,0.547,1.479,1.211,1.857,1.992c0.378,0.781,0.568,1.521,0.568,2.227c0,0.82-0.158,1.514-0.476,2.08s-0.649,0.979-1.002,1.236
		c-0.353,0.256-0.746,0.504-1.185,0.738c0.523,0.305,0.955,0.666,1.295,1.084s0.804,1.264,1.39,2.537L160.055,458.424z
		 M153.398,447.315c0-0.75-0.246-1.273-0.737-1.57c-0.492-0.297-1.293-0.445-2.402-0.445h-1.03v3.914h1.055
		c1.195,0,2.014-0.131,2.455-0.393C153.18,448.557,153.398,448.057,153.398,447.315z"/>
</g>
<path fill="#FF9381" d="M404,576.844c0,12-5.373,12-12,12H225c-6.627,0-12,0-12-12v-21c0-12,5.373-12,12-12h167c6.627,0,12,0,12,12
	V576.844z"/>
<g>
	<path fill="#E3DED2" d="M274.395,565.596c0,1.664-0.303,3-0.908,4.008c-0.604,1.008-1.317,1.824-2.139,2.449
		c-1.164,0.914-2.793,1.371-4.887,1.371h-8.766v-16.242h6.75c1.016,0,1.885,0.053,2.606,0.158s1.373,0.254,1.951,0.445
		c0.578,0.189,1.07,0.406,1.478,0.645c0.406,0.238,0.77,0.494,1.09,0.768c0.555,0.453,1.041,0.988,1.459,1.605
		s0.75,1.332,0.996,2.145S274.395,564.643,274.395,565.596z M269.415,565.385c0-1.32-0.252-2.35-0.756-3.088
		c-0.505-0.738-1.109-1.232-1.816-1.482s-1.428-0.375-2.161-0.375h-2.086v9.621h2.086c1.28,0,2.391-0.305,3.327-0.914
		S269.415,567.284,269.415,565.385z"/>
	<path fill="#E3DED2" d="M282.34,573.424h-4.898v-16.242h4.898V573.424z"/>
	<path fill="#E3DED2" d="M297.797,568.702c0,1.016-0.26,1.895-0.779,2.637c-0.519,0.742-1.244,1.311-2.174,1.705
		s-1.996,0.592-3.199,0.592c-0.336,0-0.748-0.021-1.235-0.064c-0.488-0.043-1.138-0.162-1.945-0.357s-1.649-0.482-2.524-0.867
		v-3.982c0.819,0.508,1.627,0.93,2.42,1.266s1.643,0.504,2.549,0.504c0.836,0,1.377-0.139,1.623-0.416s0.369-0.537,0.369-0.779
		c0-0.438-0.211-0.807-0.633-1.107c-0.422-0.299-1.035-0.611-1.841-0.932c-0.891-0.375-1.672-0.783-2.344-1.225
		s-1.222-0.994-1.646-1.658c-0.426-0.664-0.64-1.449-0.64-2.355c0-0.875,0.216-1.666,0.646-2.373s1.086-1.271,1.969-1.693
		s1.961-0.633,3.234-0.633c0.905,0,1.744,0.088,2.514,0.264c0.77,0.178,1.404,0.373,1.904,0.594c0.5,0.219,0.844,0.391,1.031,0.516
		v3.809c-0.664-0.477-1.404-0.902-2.222-1.277s-1.688-0.562-2.619-0.562c-0.608,0-1.051,0.117-1.323,0.354
		c-0.273,0.234-0.41,0.521-0.41,0.867c0,0.318,0.137,0.598,0.41,0.832c0.272,0.232,0.762,0.52,1.465,0.854
		c1.25,0.586,2.25,1.113,3,1.582s1.338,1.01,1.764,1.623S297.797,567.788,297.797,568.702z"/>
	<path fill="#E3DED2" d="M315.668,572.206c-0.672,0.352-1.359,0.633-2.062,0.844s-1.412,0.361-2.127,0.451s-1.455,0.135-2.221,0.135
		c-1.414,0-2.682-0.195-3.803-0.586s-2.094-0.967-2.918-1.729c-0.824-0.764-1.441-1.652-1.852-2.672
		c-0.412-1.021-0.615-2.141-0.615-3.357c0-1.398,0.242-2.623,0.727-3.674s1.162-1.924,2.033-2.619s1.863-1.209,2.977-1.541
		c1.114-0.332,2.287-0.498,3.521-0.498c1.844,0,3.934,0.41,6.27,1.23v4.311c-0.805-0.5-1.6-0.916-2.385-1.248
		s-1.709-0.498-2.771-0.498c-0.944,0-1.828,0.189-2.647,0.562c-0.819,0.375-1.479,0.91-1.979,1.605s-0.75,1.508-0.75,2.438
		c0,0.82,0.219,1.572,0.655,2.256s1.046,1.227,1.822,1.629s1.653,0.604,2.631,0.604c0.789,0,1.535-0.096,2.238-0.285
		c0.702-0.191,1.295-0.404,1.774-0.641c0.48-0.234,0.976-0.512,1.482-0.832V572.206L315.668,572.206z"/>
	<path fill="#E3DED2" d="M335.883,566.147c0,1.391-0.26,2.574-0.779,3.557c-0.519,0.98-1.207,1.756-2.062,2.326
		c-0.854,0.568-1.776,0.979-2.767,1.229c-0.988,0.25-1.975,0.375-2.959,0.375c-1.375,0-2.713-0.232-4.014-0.703
		c-1.301-0.469-2.389-1.266-3.264-2.391s-1.312-2.59-1.312-4.395v-8.965h4.887v7.699c0,1.07,0.154,1.955,0.463,2.654
		c0.309,0.697,0.738,1.211,1.289,1.535c0.551,0.322,1.201,0.484,1.951,0.484c0.719,0,1.354-0.16,1.91-0.479
		c0.555-0.32,0.985-0.828,1.295-1.523c0.309-0.695,0.463-1.578,0.463-2.648v-7.723h4.897L335.883,566.147L335.883,566.147z"/>
	<path fill="#E3DED2" d="M351.082,568.702c0,1.016-0.26,1.895-0.779,2.637c-0.519,0.742-1.244,1.311-2.174,1.705
		s-1.996,0.592-3.199,0.592c-0.336,0-0.748-0.021-1.236-0.064c-0.487-0.043-1.137-0.162-1.944-0.357s-1.649-0.482-2.524-0.867
		v-3.982c0.819,0.508,1.627,0.93,2.42,1.266s1.643,0.504,2.549,0.504c0.836,0,1.377-0.139,1.623-0.416s0.369-0.537,0.369-0.779
		c0-0.438-0.211-0.807-0.634-1.107c-0.422-0.299-1.034-0.611-1.84-0.932c-0.892-0.375-1.672-0.783-2.344-1.225
		c-0.673-0.441-1.222-0.994-1.646-1.658c-0.426-0.664-0.64-1.449-0.64-2.355c0-0.875,0.215-1.666,0.646-2.373
		c0.43-0.707,1.086-1.271,1.969-1.693s1.961-0.633,3.234-0.633c0.905,0,1.743,0.088,2.514,0.264c0.77,0.178,1.404,0.373,1.904,0.594
		c0.5,0.219,0.844,0.391,1.03,0.516v3.809c-0.664-0.477-1.403-0.902-2.221-1.277s-1.688-0.562-2.619-0.562
		c-0.608,0-1.051,0.117-1.324,0.354c-0.272,0.234-0.409,0.521-0.409,0.867c0,0.318,0.137,0.598,0.409,0.832
		c0.273,0.232,0.763,0.52,1.466,0.854c1.25,0.586,2.25,1.113,3,1.582s1.338,1.01,1.764,1.623S351.082,567.788,351.082,568.702z"/>
	<path fill="#E3DED2" d="M365.766,568.702c0,1.016-0.26,1.895-0.779,2.637c-0.519,0.742-1.243,1.311-2.174,1.705
		c-0.93,0.395-1.996,0.592-3.199,0.592c-0.336,0-0.747-0.021-1.235-0.064c-0.487-0.043-1.137-0.162-1.944-0.357
		c-0.809-0.195-1.65-0.482-2.525-0.867v-3.982c0.82,0.508,1.627,0.93,2.42,1.266s1.643,0.504,2.549,0.504
		c0.836,0,1.377-0.139,1.623-0.416s0.369-0.537,0.369-0.779c0-0.438-0.211-0.807-0.633-1.107c-0.422-0.299-1.035-0.611-1.84-0.932
		c-0.892-0.375-1.672-0.783-2.345-1.225c-0.672-0.441-1.221-0.994-1.646-1.658c-0.426-0.664-0.639-1.449-0.639-2.355
		c0-0.875,0.215-1.666,0.645-2.373s1.086-1.271,1.969-1.693s1.961-0.633,3.234-0.633c0.906,0,1.744,0.088,2.514,0.264
		c0.77,0.178,1.404,0.373,1.904,0.594c0.5,0.219,0.844,0.391,1.031,0.516v3.809c-0.664-0.477-1.404-0.902-2.222-1.277
		s-1.688-0.562-2.618-0.562c-0.609,0-1.052,0.117-1.324,0.354c-0.273,0.234-0.41,0.521-0.41,0.867c0,0.318,0.137,0.598,0.41,0.832
		c0.272,0.232,0.762,0.52,1.465,0.854c1.25,0.586,2.25,1.113,3,1.582s1.338,1.01,1.764,1.623S365.766,567.788,365.766,568.702z"/>
</g>
<path fill="#FF9381" d="M623,453.975c0,12.41-4.908,11.869-11.729,11.869H439.354c-6.821,0-12.354,0.541-12.354-11.869v-21.717
	c0-12.41,5.531-12.414,12.354-12.414h171.918c6.82,0,11.729,0.004,11.729,12.414V453.975z"/>
<g>
	<g>
		<path fill="#E3DED2" d="M468.377,439.944h-5.953v12.293h-4.887v-12.293h-5.953v-3.949h16.793V439.944z"/>
		<path fill="#E3DED2" d="M487.01,452.237h-5.016l-1.324-3.293h-7.055l-1.349,3.293h-5.016l7.185-16.242h5.413L487.01,452.237z
			 M479.545,446.12l-2.379-5.93l-2.402,5.93H479.545z"/>
		<path fill="#E3DED2" d="M506.252,452.237h-5.977l-6.211-7.605v7.605h-4.898v-16.242h4.898v7.266l5.883-7.266h5.319l-6.047,7.604
			L506.252,452.237z"/>
		<path fill="#E3DED2" d="M520.631,452.237h-12.246v-16.242h12.047v3.258h-7.147v2.977h6.819v3.27h-6.819v3.469h7.348
			L520.631,452.237L520.631,452.237z"/>
		<path fill="#E3DED2" d="M548.416,444.104c0,1.516-0.35,2.91-1.049,4.184s-1.74,2.285-3.123,3.035s-3.066,1.125-5.051,1.125
			c-2.009,0-3.707-0.391-5.099-1.172c-1.391-0.781-2.424-1.809-3.1-3.082s-1.014-2.637-1.014-4.09c0-1.461,0.336-2.826,1.008-4.096
			s1.705-2.293,3.1-3.07c1.396-0.777,3.096-1.166,5.104-1.166c1.5,0,2.838,0.223,4.014,0.668s2.143,1.049,2.9,1.811
			c0.757,0.762,1.332,1.648,1.723,2.66S548.416,442.987,548.416,444.104z M543.424,444.104c0-0.609-0.09-1.166-0.27-1.67
			c-0.181-0.504-0.451-0.941-0.814-1.312s-0.807-0.66-1.33-0.867c-0.522-0.207-1.129-0.311-1.815-0.311
			c-1.312,0-2.345,0.383-3.095,1.148s-1.125,1.77-1.125,3.012s0.377,2.248,1.131,3.018c0.755,0.77,1.783,1.154,3.089,1.154
			c0.897,0,1.664-0.178,2.297-0.533s1.112-0.848,1.44-1.477S543.424,444.917,543.424,444.104z"/>
		<path fill="#E3DED2" d="M563.1,445.663h-6.737v6.574h-4.898v-16.242H563.1v3.258h-6.737v3.141h6.737V445.663z"/>
		<path fill="#E3DED2" d="M578.029,445.663h-6.738v6.574h-4.898v-16.242h11.638v3.258h-6.738v3.141h6.738L578.029,445.663
			L578.029,445.663z"/>
		<path fill="#E3DED2" d="M585.424,439.37c0,0.617-0.084,1.387-0.252,2.309s-0.381,1.832-0.639,2.73
			c-0.258,0.896-0.48,1.531-0.668,1.896c-0.109,0.211-0.228,0.359-0.353,0.445s-0.319,0.129-0.586,0.129
			c-0.258,0-0.446-0.041-0.567-0.123s-0.244-0.23-0.369-0.451c-0.211-0.422-0.443-1.062-0.697-1.928
			c-0.254-0.863-0.469-1.752-0.645-2.666c-0.177-0.914-0.265-1.695-0.265-2.344c0-1.234,0.267-2.143,0.797-2.725
			c0.531-0.582,1.113-0.873,1.746-0.873s1.207,0.289,1.724,0.867C585.166,437.215,585.424,438.127,585.424,439.37z M585.424,449.928
			c0,0.703-0.24,1.299-0.721,1.787c-0.481,0.488-1.072,0.732-1.775,0.732c-0.43,0-0.844-0.111-1.242-0.334
			c-0.397-0.225-0.715-0.531-0.948-0.928c-0.234-0.395-0.353-0.812-0.353-1.26c0-0.453,0.115-0.873,0.347-1.26
			c0.23-0.387,0.541-0.693,0.932-0.92s0.812-0.34,1.266-0.34c0.438,0,0.854,0.113,1.248,0.34c0.395,0.227,0.701,0.531,0.92,0.914
			C585.316,449.043,585.424,449.467,585.424,449.928z"/>
	</g>
</g>
<g>
	<path fill="#E3DED2" d="M196.848,71.484l-4.513,0.469c-2.657,0-3.983-1.132-3.983-3.398c0-1.953,2.479-3.223,7.44-3.809
		c0.976-0.117,2.06-0.176,3.252-0.176c1.19,0,2.216,0.625,3.076,1.875c0.858,1.25,1.289,2.92,1.289,5.01s0.399,5.499,1.2,10.225
		c0.801,4.727,1.201,7.91,1.201,9.551c0,2.93-0.996,4.395-2.987,4.395c-1.992,0-3.321-0.84-3.984-2.52v-0.117
		c-0.469,0.234-1.309,0.703-2.521,1.406c-2.383,1.328-4.502,1.992-6.356,1.992c-1.856,0-3.69-0.372-5.508-1.113
		c-1.815-0.743-3.379-1.69-4.688-2.842c-1.309-1.152-2.48-2.646-3.516-4.482c-1.036-1.835-1.895-3.652-2.578-5.449
		c-0.684-1.796-1.27-3.906-1.758-6.328c-0.489-2.421-0.85-4.589-1.084-6.504c-0.234-1.914-0.43-4.14-0.586-6.68
		c-0.196-3.125-0.293-6.933-0.293-11.426l-0.059-8.848c0-18.789,2.655-31.23,7.969-37.324C180.948,1.797,184.953,0,189.875,0
		c3.203,0,4.805,1.133,4.805,3.398c0,0.86-0.303,1.543-0.908,2.051c-0.605,0.508-1.317,0.762-2.139,0.762l-3.281-0.586
		c-2.891,0-5.176,1.816-6.854,5.449c-1.72,3.75-2.833,7.452-3.34,11.104c-0.509,3.653-0.88,6.573-1.113,8.76
		c-0.233,2.188-0.392,4.629-0.469,7.324c-0.157,3.79-0.234,7.579-0.234,11.367l-0.059,7.441c0,7.852,0.332,13.35,0.995,16.494
		c0.664,3.145,1.338,5.674,2.021,7.588c0.684,1.915,1.494,3.516,2.432,4.805c2.188,2.852,4.99,4.277,8.408,4.277
		s6.26-1.679,8.525-5.039C198.546,78.008,197.939,73.438,196.848,71.484z"/>
	<path fill="#E3DED2" d="M241.73,90.527c0,2.618-0.959,3.926-2.871,3.926c-1.485,0-2.93-1.075-4.336-3.223v-0.41
		c-0.196-3.203-1.183-7.597-2.959-13.184c-1.778-5.585-2.881-9.354-3.312-11.309c-0.43-1.953-1.124-5.634-2.08-11.045
		c-0.958-5.41-1.787-9.541-2.489-12.393v47.285c0,2.54-1.31,3.809-3.927,3.809c-0.938,0-1.739-0.322-2.401-0.967
		c-0.666-0.645-0.996-1.436-0.996-2.373v-0.938l0.82-70.371V4.57c0-0.938,0.194-1.601,0.586-1.992
		c0.389-0.39,1.522-0.586,3.397-0.586s3.789,0.615,5.741,1.846c1.953,1.23,3.517,2.823,4.688,4.775
		c2.421,4.024,3.634,8.458,3.634,13.301c0,3.907-0.978,8.379-2.931,13.418c-0.233,0.547-0.703,1.699-1.405,3.457
		c-0.703,1.758-1.113,2.793-1.23,3.105c0.039,3.125,0.557,7.022,1.553,11.689c0.996,4.668,1.923,8.438,2.783,11.309
		c0.859,2.871,2.294,7.354,4.307,13.447c2.012,6.094,3.154,9.571,3.428,10.43V90.527L241.73,90.527z M223.332,7.5l-0.645,24.492
		c0,2.461,0.039,4.297,0.117,5.508c1.327-1.289,2.616-2.832,3.866-4.629L228.43,22.5c0-4.14-0.548-7.617-1.642-10.43
		C225.693,9.258,224.542,7.734,223.332,7.5z"/>
	<path fill="#E3DED2" d="M274.309,3.633c1.562,11.211,3.203,25.801,4.922,43.77c1.718,17.969,2.578,31.875,2.578,41.719
		c0,2.695-1.31,4.043-3.927,4.043c-2.618,0-3.926-1.035-3.926-3.105V74.414c-1.133-0.781-3.155-1.445-6.063-1.992
		c-2.912-0.546-5.5-0.898-7.765-1.055c-0.978,1.641-1.729,4.991-2.256,10.049c-0.526,5.059-1.377,8.545-2.549,10.459
		c-3.867,0-5.997-0.8-6.388-2.402c1.797-2.617,5.449-19.296,10.957-50.039c2.148-12.148,3.438-19.199,3.867-21.152
		c2.148-10.312,4.473-15.469,6.973-15.469c1.484,0,2.676,0.352,3.574,1.055V3.633H274.309z M273.839,67.031
		c-0.116-1.445-0.508-5.761-1.172-12.949c-1.758-18.359-2.638-28.623-2.638-30.791s0.02-3.349,0.06-3.545
		c-0.469,0.547-1.592,6.211-3.368,16.992c-1.779,10.781-2.783,16.641-3.019,17.578s-0.606,2.227-1.113,3.867
		c-1.055,3.398-1.622,6.016-1.698,7.852c3.319,0.899,6.073,1.348,8.262,1.348C271.339,67.383,272.902,67.266,273.839,67.031z"/>
	<path fill="#E3DED2" d="M319.602,1.289h2.52c-0.547,5.196-1.973,16.543-4.277,34.043s-3.682,28.945-4.131,34.336
		s-0.684,9.063-0.703,11.016c-0.02,1.954-0.068,3.662-0.146,5.127s-0.233,2.959-0.469,4.482c-0.508,3.281-1.699,4.922-3.574,4.922
		c-1.133,0-2.07-0.43-2.812-1.289c-1.836-7.617-4.569-22.861-8.202-45.732c-3.634-22.871-6.193-37.607-7.677-44.209
		c0.47-1.562,1.642-2.344,3.517-2.344c0.897,0,1.513,0.205,1.846,0.615c0.332,0.41,0.576,0.732,0.732,0.967
		c0.155,0.234,0.293,0.577,0.409,1.025c0.117,0.45,0.205,0.801,0.265,1.055c0.059,0.254,0.117,0.635,0.176,1.143
		c0.059,0.508,0.283,1.944,0.674,4.307c0.391,2.364,1.27,8.135,2.637,17.314c2.891,19.922,5.391,35.02,7.5,45.293
		c0.508-4.531,1.484-11.738,2.93-21.621c2.931-20.508,4.396-36.523,4.396-48.047C316.456,2.09,317.921,1.289,319.602,1.289z"/>
	<path fill="#E3DED2" d="M343.859,86.484l2.461-0.059c3.24,0,4.863,0.665,4.863,1.992c0.312,1.329,0.164,2.276-0.439,2.842
		c-0.605,0.567-1.456,0.85-2.549,0.85h-15.059c-2.307,0-3.457-0.917-3.457-2.754c0-1.835,1.209-2.754,3.633-2.754l3.69,0.059
		c0.39,0,0.586-1.992,0.586-5.977s-0.372-12.138-1.112-24.463c-0.744-12.324-1.113-21.572-1.113-27.744l0.234-12.246
		c0-2.578-0.1-4.805-0.293-6.68c-1.056,0.352-1.992,0.527-2.812,0.527c-1.875,0-2.812-0.957-2.812-2.871
		c0-0.976,0.604-1.826,1.816-2.549c1.21-0.722,2.714-1.24,4.512-1.553c3.358-0.586,5.85-0.879,7.471-0.879s2.783,0.322,3.486,0.967
		s1.055,1.406,1.055,2.285s-0.264,1.641-0.791,2.285c-0.526,0.644-1.201,0.967-2.021,0.967L343.1,8.67
		c-0.783,0-1.358,0.167-1.729,0.498c-0.372,0.333-0.558,0.987-0.558,1.963c0,7.813,0.508,19.512,1.523,35.098
		s1.523,27.286,1.523,35.098V86.484z"/>
	<path fill="#E3DED2" d="M375.031,23.555l-0.234,15.469c0,7.305,0.624,13.438,1.875,18.398v0.059c-0.548,2.54-0.82,5.586-0.82,9.141
		l0.996,21.562c0,3.907-1.152,5.859-3.457,5.859c-1.328,0-2.306-0.625-2.93-1.875c-0.626-1.25-0.938-2.637-0.938-4.16l0.938-19.16
		c0-4.14-0.273-10.371-0.82-18.691c-0.548-8.32-0.82-14.55-0.82-18.691l0.177-10.488c0-5.742-0.372-9.472-1.113-11.191l-6.504,0.645
		c-1.017,0-1.925-0.302-2.726-0.908c-0.801-0.605-1.2-1.386-1.2-2.344c0-0.957,0.956-1.777,2.871-2.461
		c1.913-0.683,4.257-1.181,7.03-1.494c4.806-0.546,8.849-0.82,12.129-0.82c0.977,0,1.865,0.322,2.666,0.967s1.201,1.456,1.201,2.432
		c0,0.977-0.352,1.749-1.055,2.314c-0.703,0.567-1.562,0.85-2.578,0.85l-4.277-0.234c-0.547,0-0.957,0.02-1.229,0.059
		C374.757,13.399,375.031,18.321,375.031,23.555z"/>
	<path fill="#E3DED2" d="M407.199,82.5l-0.06,5.977v2.695c0,1.055-0.352,1.904-1.055,2.549s-1.494,0.967-2.373,0.967
		s-1.622-0.284-2.228-0.85c-0.605-0.567-0.907-1.26-0.907-2.08l0.586-23.203c0-2.344-0.381-5.81-1.144-10.4
		c-0.762-4.589-1.143-8.281-1.143-11.074c0-2.792-0.479-6.191-1.436-10.195c-0.959-4.003-2.021-7.607-3.193-10.811
		c-3.087-8.359-4.629-15.527-4.629-21.504c0-1.289,1.27-1.934,3.809-1.934c0.586,0,1.19,0.234,1.816,0.703
		c0.624,0.469,0.956,0.996,0.996,1.582c0.779,9.219,2.771,19.004,5.977,29.355c0.155-0.703,0.342-2.373,0.557-5.01
		c0.215-2.637,0.47-5.341,0.763-8.115c0.293-2.773,0.674-5.585,1.143-8.438c1.056-6.445,2.646-9.668,4.775-9.668
		c2.128,0,3.193,0.43,3.193,1.289c0,4.493-0.958,11.191-2.871,20.098c-1.915,8.906-2.871,15.665-2.871,20.273l0.352,4.16v1.816
		L407.199,82.5z"/>
</g>
<path fill="none" stroke="#E3DED2" stroke-width="3" stroke-linecap="round" stroke-linejoin="round" stroke-miterlimit="10" d="
	M512.142,345.079"/>
<path fill="#E3DED2" d="M485.405,309.292c0.001-0.001,9.997,69.505,45.498,97.5c2.211-11.238,8.13-50.061-15.296-106.315"/>
<path fill="#FF9381" d="M485.405,309.292c0.62,5.086,4.304,25.467,7.308,31.508c4.459-1.312-22.508-8.507-26.55-31.648"/>
<path fill="#FF9381" d="M515.607,300.476c2.339,4.554,9.019,23.976,9.928,30.664c1.178-8.592,18.812-13.007,5.882-41.684"/>
<path fill="#FF9381" d="M530.903,406.792c-4.212-2.84-14.388-13.801-19.362-22.623c-5.219-9.246,23.56-22.651,22.067-9.104
	C532.883,381.688,533.068,399.948,530.903,406.792z"/>
<path fill="#FF9381" d="M509.564,352.523c2.35-3.51,6.965-4.103,10.313-1.322c3.35,2.78,4.157,7.877,1.81,11.383
	c-2.35,3.511-6.97,4.102-10.314,1.322C508.021,361.126,507.214,356.029,509.564,352.523z"/>
<path fill="none" stroke="#E3DED2" stroke-width="3" stroke-linecap="round" stroke-linejoin="round" stroke-miterlimit="10" d="
	M102.075,346.857"/>
<path fill="#E3DED2" d="M94.011,302.919c0.001,0-21.909,66.716-2.53,107.564c6.972-9.09,29.515-41.244,33.506-102.052"/>
<path fill="#FF9381" d="M94.011,302.919c-1.703,4.834-7.454,24.73-7.445,31.478c4.579,0.803-16.389-17.617-9.734-40.146"/>
<path fill="#FF9381" d="M124.987,308.432c0.073,5.119-2.567,25.486-4.722,31.885c4.87-7.177,22.633-3.301,23.781-34.737"/>
<path fill="#FF9381" d="M93.48,410.483c-2.513-4.416-6.762-18.756-7.303-28.869c-0.569-10.602,31.168-9.832,23.816,1.643
	C106.4,388.87,98.459,405.311,93.48,410.483z"/>
<path fill="#FF9381" d="M96.459,352.384c3.663-2.101,8.062-0.583,9.83,3.396c1.766,3.979,0.227,8.903-3.434,11.002
	c-3.664,2.104-8.065,0.58-9.83-3.396C91.258,359.406,92.796,354.48,96.459,352.384z"/>
<g>
	<g>
		<path fill="#FF9381" d="M326.605,235.937c-0.707,14.258-0.201,30.375,8.102,42.624c5.867,8.655,15.357,12.798,25.436,14.151
			c12.244,1.644,24.935-0.507,36.969-2.721c13.803-2.539,27.456-5.844,41.328-8.01c12.06-1.882,24.775-3.036,36.768-0.134
			c11.9,2.88,20.688,10.781,25.718,21.83c0.801,1.758,3.386,0.232,2.59-1.515c-4.86-10.675-13.103-18.53-24.264-22.276
			c-11.579-3.886-24.434-3.073-36.349-1.546c-26.276,3.368-52.688,13.467-79.424,11.701c-9.975-0.659-19.697-4.202-25.806-12.464
			c-8.557-11.578-8.747-27.922-8.065-41.64C329.702,234.002,326.702,234.011,326.605,235.937L326.605,235.937z"/>
	</g>
</g>
<circle fill="#C6BEAF" stroke="#C4BCAD" stroke-miterlimit="10" cx="309.378" cy="729.237" r="9.141"/>
</svg>
