<?xml version="1.0" encoding="utf-8"?>
<!-- Generator: Adobe Illustrator 16.0.0, SVG Export Plug-In . SVG Version: 6.00 Build 0)  -->
<!DOCTYPE svg PUBLIC "-//W3C//DTD SVG 1.1//EN" "http://www.w3.org/Graphics/SVG/1.1/DTD/svg11.dtd">
<svg version="1.1" id="Layer_1" xmlns="http://www.w3.org/2000/svg" xmlns:xlink="http://www.w3.org/1999/xlink" x="0px" y="0px"
	 width="597.119px" height="704.707px" viewBox="25 0 597.119 704.707" enable-background="new 25 0 597.119 704.707"
	 xml:space="preserve">
<circle fill="#E8E2D9" stroke="#DBD7D1" stroke-miterlimit="10" cx="322.488" cy="694.566" r="9.141"/>
<path fill="#E3DED2" d="M150.156,49.041l-0.035,3.586v1.617c0,0.633-0.211,1.143-0.633,1.529c-0.422,0.386-0.896,0.58-1.424,0.58
	s-0.973-0.17-1.336-0.51c-0.364-0.34-0.545-0.756-0.545-1.248l0.352-13.922c0-1.406-0.229-3.486-0.686-6.24
	s-0.686-4.969-0.686-6.645c0-1.675-0.287-3.714-0.861-6.117c-0.575-2.402-1.213-4.564-1.916-6.486
	c-1.852-5.015-2.777-9.316-2.777-12.902c0-0.773,0.761-1.16,2.285-1.16c0.352,0,0.715,0.141,1.09,0.422
	c0.375,0.281,0.574,0.598,0.598,0.949c0.469,5.532,1.664,11.403,3.586,17.613c0.093-0.422,0.205-1.424,0.334-3.006
	c0.128-1.582,0.281-3.205,0.457-4.869c0.176-1.664,0.404-3.352,0.686-5.062c0.633-3.867,1.587-5.801,2.865-5.801
	c1.277,0,1.916,0.258,1.916,0.773c0,2.695-0.575,6.715-1.723,12.059c-1.148,5.344-1.723,9.399-1.723,12.164l0.211,2.496v1.09
	L150.156,49.041z"/>
<path fill="#E3DED2" d="M176.136,36.104c0,13.805-2.824,20.707-8.473,20.707c-5.203,0-8.121-6.539-8.754-19.617
	c-0.047-1.242-0.07-2.484-0.07-3.727l-0.035-4.395v-1.406c0-10.148,1.488-16.418,4.465-18.809c0.727-0.585,1.535-0.902,2.427-0.949
	c0.68,0.234,1.512,0.452,2.496,0.65c0.983,0.199,1.71,0.404,2.18,0.615c0.867,0.399,1.806,1.436,2.812,3.111
	c1.008,1.676,1.752,3.915,2.232,6.715c0.48,2.801,0.721,5.607,0.721,8.42L176.136,36.104L176.136,36.104z M162.777,19.158
	l0.104,4.219l-0.035,6.891c0,0.586,0.013,1.278,0.035,2.074c0.023,0.797,0.053,1.846,0.088,3.146c0.035,1.3,0.105,2.59,0.211,3.867
	c0.105,1.278,0.229,2.625,0.369,4.043c0.142,1.418,0.328,2.73,0.562,3.938c0.234,1.208,0.492,2.303,0.773,3.287
	c0.633,2.133,1.463,3.199,2.496,3.199c1.383,0,2.438-1.301,3.163-3.902c1.078-3.867,1.617-8.625,1.617-14.273l0.104-7.418
	c0-5.203-0.229-8.707-0.686-10.512c-0.457-1.805-0.885-3.164-1.283-4.078c-0.797-1.851-2.004-2.777-3.621-2.777
	c-0.047,0-0.094,0-0.141,0C164.03,10.862,162.777,13.627,162.777,19.158z"/>
<path fill="#E3DED2" d="M200.042,23.377l0.07,1.23c-0.352,1.688-0.58,4.588-0.686,8.701c-0.106,4.113-0.312,7.43-0.615,9.949
	c-0.305,2.52-0.715,4.734-1.23,6.645c-0.516,1.911-1.342,3.498-2.479,4.764s-2.403,1.898-3.797,1.898
	c-1.396,0-2.537-0.252-3.429-0.756c-0.891-0.504-1.616-1.23-2.18-2.18c-0.563-0.95-1.032-1.969-1.406-3.059
	c-0.375-1.09-0.655-2.35-0.844-3.779c-0.329-2.508-0.492-5.156-0.492-7.945l0.388-18.984c0-4.148-0.293-7.582-0.879-10.301V7.837
	c1.147,0,2.057,0.445,2.725,1.336c0.668,0.891,1.002,1.887,1.002,2.988v34.84c0,1.852,0.462,3.545,1.389,5.08
	c0.926,1.535,2.291,2.303,4.096,2.303c2.039,0,3.398-5.929,4.078-17.789v-0.316l0.035-0.457c0.609-10.828,0.914-19.594,0.914-26.297
	l-0.035-1.195c0-0.562,0.128-0.984,0.387-1.266c0.258-0.281,0.75-0.422,1.478-0.422c0.726,0,1.267,0.199,1.617,0.598
	c0.352,0.399,0.557,0.803,0.614,1.213c0.059,0.41,0.088,0.967,0.088,1.67l-0.491,7.242L200.042,23.377z"/>
<path fill="#E3DED2" d="M216.109,3.268l-0.142,0.492c0,1.102-0.299,2.414-0.896,3.938c-0.599,1.524-1.425,2.877-2.479,4.061
	c-1.054,1.184-2.098,1.775-3.129,1.775h-2.145v-2.496c0.188-0.188,0.656-0.585,1.406-1.195c1.569-1.242,2.438-2.308,2.602-3.199
	c-1.383-1.007-2.074-2.074-2.074-3.199s0.369-1.98,1.107-2.566C211.099,0.294,211.907,0,212.786,0s1.564,0.27,2.057,0.809
	c0.492,0.54,0.914,1.289,1.267,2.25L216.109,3.268L216.109,3.268z"/>
<path fill="#E3DED2" d="M240.894,7.03c1.103,0,1.652,0.316,1.652,0.949c0,2.695-0.574,6.088-1.723,10.178
	c-1.149,4.09-1.846,6.891-2.092,8.402c-0.246,1.511-0.51,3.732-0.791,6.662c-0.281,2.93-0.51,4.963-0.686,6.1
	c-0.177,1.137-0.492,2.555-0.949,4.254c-0.457,1.7-0.738,2.848-0.845,3.445c-0.106,0.597-0.188,1.348-0.245,2.25
	c-0.06,0.902-0.136,1.705-0.229,2.408c-0.095,0.703-0.246,1.43-0.457,2.18c-0.492,1.64-1.478,2.461-2.953,2.461l-1.617-1.09
	c0-5.836-0.557-11.789-1.67-17.859c-1.112-6.07-2.203-11.167-3.271-15.293c-1.066-4.125-1.787-6.738-2.161-7.84
	c-0.845-2.602-1.267-4.219-1.267-4.852c0-0.633,0.182-1.113,0.545-1.441c0.363-0.328,0.785-0.492,1.267-0.492
	c0.479,0,0.919,0.199,1.317,0.598c0.398,0.399,0.715,0.961,0.949,1.688s0.422,1.401,0.562,2.021
	c0.141,0.621,0.275,1.336,0.404,2.145c0.127,0.809,0.215,1.318,0.264,1.529c2.438,11.109,4.359,21.563,5.766,31.359
	c0.375-1.898,0.814-5.015,1.318-9.352c0.504-4.336,1.441-10.084,2.812-17.244c1.37-7.16,2.196-11.549,2.479-13.166H240.894z"/>
<path fill="#E3DED2" d="M255.449,52.768l2.849-0.176c1.827,0,2.741,0.586,2.741,1.758c0,0.727-0.315,1.253-0.948,1.582
	c-0.634,0.328-1.349,0.492-2.146,0.492h-6.785c-0.61,0-1.131-0.211-1.563-0.633c-0.435-0.422-0.668-0.961-0.703-1.617
	c-0.035-0.656,0.012-1.477,0.141-2.461c0.128-0.984,0.193-1.77,0.193-2.355l-0.353-9.211l0.492-21.023l-0.388-6.082
	c0-3.398,1.008-5.098,3.023-5.098c0.562,0,1.09,0.176,1.582,0.527c0.188,0.023,0.639,0.065,1.354,0.123
	c0.716,0.059,1.342,0.135,1.882,0.229c0.539,0.094,1.125,0.223,1.758,0.387c1.358,0.375,2.039,1.02,2.039,1.934
	c0,0.984-0.703,1.735-2.108,2.25c-2.203-0.75-4.021-1.207-5.449-1.371c0.07,1.032,0.104,2.062,0.104,3.094l-0.315,10.336
	c0,0.047,0.069,0.422,0.211,1.125l2.565-0.105c2.32,0,3.479,0.656,3.479,1.969c0,0.703-0.205,1.324-0.614,1.863
	c-0.41,0.54-0.99,0.809-1.74,0.809s-1.405-0.211-1.969-0.633h-1.828c0.142,1.828,0.211,3.563,0.211,5.203l-0.315,13.043
	C252.847,51.42,253.714,52.768,255.449,52.768z"/>
<path fill="#E3DED2" d="M287.933,37.229l-1.266,0.035c-0.68,0-1.219-0.111-1.617-0.334c-0.398-0.223-0.598-0.668-0.598-1.336
	c0-0.668,0.216-1.178,0.65-1.529c0.434-0.352,0.967-0.527,1.6-0.527v0.035c4.688,0,7.031,0.738,7.031,2.215l-0.773,5.238
	l0.352,7.629c0,1.383-0.104,2.566-0.315,3.551c-2.79,2.555-5.262,3.832-7.418,3.832c-1.147,0-2.203-0.311-3.164-0.932
	s-1.897-1.682-2.812-3.182s-1.711-4.354-2.392-8.561c-0.68-4.207-1.02-7.131-1.02-8.771c0-1.64,0.034-3,0.104-4.078
	c0.07-1.078,0.176-2.303,0.316-3.674c0.14-1.371,0.223-2.262,0.246-2.672s0.064-0.996,0.123-1.758
	c0.058-0.761,0.117-1.488,0.176-2.18c0.059-0.691,0.188-1.664,0.387-2.918c0.199-1.253,0.416-2.244,0.65-2.971
	c0.234-0.726,0.574-1.552,1.02-2.479c0.445-0.926,0.961-1.646,1.547-2.162c1.43-1.218,3.088-1.828,4.976-1.828
	c1.886,0,2.829,0.61,2.829,1.828c0,0.562-0.205,1.025-0.614,1.389c-0.41,0.364-0.886,0.545-1.424,0.545l-1.302-0.176
	c-1.405,0-2.473,1.641-3.198,4.922c-0.703,3.188-1.113,6.059-1.23,8.613c-0.211,3.915-0.315,6.521-0.315,7.822
	c0,1.301,0.005,2.309,0.018,3.023c0.012,0.715,0.035,1.605,0.07,2.672c0.035,1.067,0.093,2.01,0.176,2.83
	c0.082,0.821,0.193,1.729,0.334,2.725c0.141,0.997,0.311,1.863,0.51,2.603c0.199,0.738,0.445,1.477,0.738,2.215
	c0.293,0.738,0.627,1.342,1.002,1.811c0.844,1.055,1.852,1.582,3.023,1.582c2.086,0,3.104-4.043,3.059-12.129V37.51
	C289.104,37.323,288.613,37.229,287.933,37.229z"/>
<path fill="#E3DED2" d="M316.691,36.104c0,13.805-2.824,20.707-8.475,20.707c-5.203,0-8.121-6.539-8.754-19.617
	c-0.047-1.242-0.07-2.484-0.07-3.727l-0.034-4.395v-1.406c0-10.148,1.487-16.418,4.465-18.809c0.728-0.585,1.535-0.902,2.426-0.949
	c0.681,0.234,1.513,0.452,2.496,0.65c0.982,0.199,1.711,0.404,2.181,0.615c0.866,0.399,1.806,1.436,2.812,3.111
	c1.008,1.676,1.752,3.915,2.23,6.715c0.48,2.801,0.723,5.607,0.723,8.42L316.691,36.104L316.691,36.104z M303.332,19.158
	l0.104,4.219l-0.034,6.891c0,0.586,0.012,1.278,0.034,2.074c0.023,0.797,0.054,1.846,0.089,3.146c0.034,1.3,0.104,2.59,0.211,3.867
	c0.104,1.278,0.229,2.625,0.368,4.043c0.142,1.418,0.328,2.73,0.562,3.938s0.492,2.303,0.773,3.287
	c0.633,2.133,1.465,3.199,2.496,3.199c1.384,0,2.438-1.301,3.164-3.902c1.078-3.867,1.617-8.625,1.617-14.273l0.104-7.418
	c0-5.203-0.229-8.707-0.688-10.512c-0.457-1.805-0.885-3.164-1.283-4.078c-0.797-1.851-2.004-2.777-3.619-2.777
	c-0.049,0-0.096,0-0.143,0C304.586,10.862,303.332,13.627,303.332,19.158z"/>
<path fill="#E3DED2" d="M329.98,48.795l0.141-2.461c-0.188-0.609-0.574-6.029-1.16-16.26c-0.586-10.231-0.902-16.471-0.949-18.721
	c-2.766-0.07-4.477-0.322-5.132-0.756c-0.655-0.434-0.982-0.884-0.982-1.354c0-0.469,0.258-0.849,0.771-1.143
	c0.517-0.293,1.019-0.439,1.511-0.439l9.773,0.668l1.16-0.035c1.5,0,2.25,0.575,2.25,1.723c0,0.586-0.246,1.061-0.738,1.424
	c-0.492,0.364-1.043,0.545-1.652,0.545l-3.305-0.492l-0.141,0.738c0,4.547,0.398,11.355,1.195,20.426
	c0.797,9.071,1.193,15.891,1.193,20.461c0,0.586-0.217,1.09-0.648,1.512c-0.434,0.422-0.943,0.633-1.529,0.633h-1.617L329.98,48.795
	z"/>
<path fill="#E3DED2" d="M359.582,48.795l0.141-2.461c-0.188-0.609-0.572-6.029-1.16-16.26c-0.586-10.231-0.9-16.471-0.947-18.721
	c-2.768-0.07-4.479-0.322-5.133-0.756c-0.656-0.434-0.984-0.884-0.984-1.354c0-0.469,0.258-0.849,0.771-1.143
	c0.518-0.293,1.021-0.439,1.514-0.439l9.773,0.668l1.158-0.035c1.5,0,2.25,0.575,2.25,1.723c0,0.586-0.246,1.061-0.736,1.424
	c-0.492,0.364-1.043,0.545-1.652,0.545l-3.305-0.492l-0.143,0.738c0,4.547,0.398,11.355,1.195,20.426
	c0.797,9.071,1.195,15.891,1.195,20.461c0,0.586-0.219,1.09-0.65,1.512s-0.943,0.633-1.529,0.633h-1.617L359.582,48.795z"/>
<path fill="#E3DED2" d="M389.289,43.838l-0.387,1.441c0,0.586,0.211,2.016,0.633,4.289s0.633,3.762,0.633,4.465v0.07
	c0,1.078-0.361,1.758-1.09,2.039c-1.008,0-1.793-0.164-2.354-0.492c-0.562-0.328-0.846-1.154-0.846-2.479
	c0-1.324-0.352-4.048-1.055-8.174l-2.215-0.211h-2.393c-0.539-0.234-1.486-0.352-2.848-0.352c0,0.047-0.029,0.357-0.088,0.932
	c-0.059,0.575-0.105,1.037-0.141,1.389c-0.037,0.352-0.096,0.874-0.178,1.564c-0.082,0.691-0.17,1.278-0.264,1.758
	s-0.211,1.043-0.352,1.688c-0.143,0.645-0.301,1.184-0.477,1.617c-0.176,0.434-0.369,0.85-0.58,1.248
	c-0.422,0.821-0.938,1.23-1.547,1.23s-1.154-0.182-1.635-0.545s-0.721-0.826-0.721-1.389c1.266-4.852,2.35-9.937,3.252-15.258
	c0.9-5.32,1.439-8.478,1.615-9.475c0.178-0.996,0.588-2.918,1.23-5.766c0.643-2.848,1.031-4.751,1.16-5.713
	c0.129-0.961,0.252-2.203,0.369-3.727c0.211-3.328,0.645-5.472,1.301-6.434h2.426c1.643,0,2.461,0.492,2.461,1.478
	c0,9.258,0.902,18.457,2.707,27.598c0.094,0.54,0.271,1.289,0.527,2.25C389.007,40.968,389.289,42.62,389.289,43.838z
	 M384.367,42.291c-0.141-0.703-0.211-1.84-0.211-3.41c0-1.57-0.102-3.475-0.299-5.713c-0.199-2.238-0.486-4.834-0.861-7.787
	s-0.633-5.085-0.771-6.398c-0.281,1.359-0.832,3.633-1.652,6.82c-1.664,6.633-2.521,11.742-2.566,15.328
	C378.824,41.671,380.945,42.057,384.367,42.291z"/>
<path fill="#E3DED2" d="M400.574,15.115l0.211,17.297c-0.281,0.68-0.422,1.981-0.422,3.902l-0.281,11.461
	c0,3.305,0.811,4.957,2.426,4.957l2.988-0.105c2.578,0,3.867,0.703,3.867,2.109c0,0.516-0.225,0.943-0.668,1.283
	c-0.445,0.339-0.949,0.545-1.512,0.615c-1.76-0.562-3.902-0.844-6.436-0.844c-0.771,0.445-1.518,0.668-2.23,0.668
	s-1.271-0.246-1.672-0.738c-0.396-0.492-0.598-1.031-0.598-1.617l0.703-32.168v-0.527c-0.141-1.5-0.211-3.75-0.211-6.75
	c0-4.547,0.832-6.82,2.496-6.82c0.492,0,0.92,0.176,1.283,0.527c0.361,0.351,0.545,0.773,0.545,1.266L400.574,15.115z"/>
<path fill="#E3DED2" d="M421.388,52.768l2.848-0.176c1.828,0,2.742,0.586,2.742,1.758c0,0.727-0.316,1.253-0.949,1.582
	c-0.633,0.328-1.348,0.492-2.146,0.492h-6.783c-0.609,0-1.133-0.211-1.564-0.633c-0.434-0.422-0.668-0.961-0.703-1.617
	c-0.035-0.656,0.012-1.477,0.141-2.461c0.131-0.984,0.193-1.77,0.193-2.355l-0.352-9.211l0.492-21.023l-0.389-6.082
	c0-3.398,1.008-5.098,3.023-5.098c0.562,0,1.09,0.176,1.582,0.527c0.188,0.023,0.639,0.065,1.354,0.123
	c0.715,0.059,1.344,0.135,1.881,0.229c0.539,0.094,1.125,0.223,1.76,0.387c1.357,0.375,2.039,1.02,2.039,1.934
	c0,0.984-0.703,1.735-2.109,2.25c-2.203-0.75-4.021-1.207-5.449-1.371c0.07,1.032,0.105,2.062,0.105,3.094l-0.316,10.336
	c0,0.047,0.07,0.422,0.211,1.125l2.566-0.105c2.318,0,3.479,0.656,3.479,1.969c0,0.703-0.205,1.324-0.613,1.863
	c-0.41,0.54-0.99,0.809-1.74,0.809s-1.406-0.211-1.969-0.633h-1.828c0.141,1.828,0.211,3.563,0.211,5.203l-0.316,13.043
	C418.785,51.42,419.652,52.768,421.388,52.768z"/>
<path fill="#E3DED2" d="M436.82,27.069l0.422,18.633v8.156c0,0.633-0.164,1.166-0.492,1.6s-0.785,0.65-1.371,0.65
	c-1.568,0-2.354-1.464-2.354-4.395l-0.143-25.383l0.424-13.43c0-3.234,0.879-4.852,2.637-4.852c1.055,0,1.814,0.809,2.285,2.426
	c0.654,3.094,1.799,7.541,3.428,13.342c1.629,5.801,2.748,10.213,3.355,13.236c0.445,1.477,1.021,3.662,1.725,6.557
	s1.254,5.068,1.65,6.521c0.189-10.406,0.281-23.015,0.281-37.828l-0.104-1.934c0-0.656,0.123-1.178,0.369-1.564
	c0.244-0.386,0.66-0.58,1.246-0.58c0.588,0,1.066,0.141,1.441,0.422c0.75,0.562,1.125,1.359,1.125,2.391
	c0,6.586-0.188,15.047-0.562,25.383s-0.938,16.793-1.688,19.371c-0.094,0.022-0.293,0.088-0.598,0.193
	c-0.307,0.105-0.527,0.17-0.668,0.193c-1.336,0.304-2.182,0.246-2.531-0.176c-0.352-0.422-0.604-0.984-0.756-1.688
	s-0.328-1.389-0.527-2.057s-0.941-3.861-2.23-9.58c-3.445-15.117-5.566-23.906-6.363-26.367L436.82,27.069L436.82,27.069z"/>
<path fill="#E3DED2" d="M466.246,48.795l0.141-2.461c-0.188-0.609-0.572-6.029-1.158-16.26c-0.586-10.231-0.902-16.471-0.949-18.721
	c-2.768-0.07-4.479-0.322-5.133-0.756c-0.656-0.434-0.984-0.884-0.984-1.354c0-0.469,0.258-0.849,0.773-1.143
	c0.516-0.293,1.02-0.439,1.512-0.439l9.771,0.668l1.16-0.035c1.5,0,2.25,0.575,2.25,1.723c0,0.586-0.246,1.061-0.736,1.424
	c-0.492,0.364-1.043,0.545-1.652,0.545l-3.305-0.492l-0.143,0.738c0,4.547,0.398,11.355,1.195,20.426
	c0.797,9.071,1.195,15.891,1.195,20.461c0,0.586-0.219,1.09-0.65,1.512s-0.943,0.633-1.529,0.633h-1.615L466.246,48.795z"/>
<path fill="#E3DED2" d="M478.48,52.451l3.797,0.527c0.914,0,1.711-0.398,2.391-1.195c0.682-0.796,1.186-1.793,1.514-2.988
	c0.633-2.297,0.947-4.33,0.947-6.1s-0.293-3.521-0.879-5.256c-0.586-1.734-1.301-3.345-2.145-4.834
	c-0.846-1.488-1.699-3.006-2.566-4.553c-2.016-3.633-3.021-7.219-3.021-10.758c0-2.156,0.361-4.066,1.09-5.73
	c1.357-3.094,3.164-4.641,5.414-4.641c0.844,0,1.646,0.27,2.406,0.809c0.764,0.54,1.145,1.125,1.145,1.758
	c0,1.102-0.586,1.652-1.758,1.652c-0.518,0-1.021-0.141-1.514-0.422c-1.521,0.07-2.555,1.77-3.094,5.098
	c-0.117,0.727-0.176,1.577-0.176,2.549c0,0.973,0.211,2.174,0.633,3.604c0.422,1.43,0.955,2.702,1.6,3.814
	c0.646,1.113,1.338,2.344,2.074,3.691c0.738,1.348,1.438,2.654,2.092,3.92c1.479,2.93,2.217,6.281,2.217,10.055
	c0,3-0.6,5.778-1.793,8.332c-0.635,1.313-1.529,2.385-2.689,3.217s-2.502,1.26-4.025,1.283v0.176
	c-0.891-0.118-1.697-0.417-2.426-0.896c-0.727-0.479-1.137-1.107-1.229-1.881v-1.231H478.48z"/>
<path fill="#E3DED2" d="M505.093,52.276l-0.104,0.492c0,1.102-0.305,2.414-0.914,3.938s-1.441,2.883-2.496,4.078
	c-1.055,1.195-2.098,1.793-3.129,1.793h-2.145v-2.531c0.188-0.188,0.654-0.586,1.404-1.195c1.57-1.266,2.439-2.344,2.604-3.234
	c-1.383-1.007-2.074-2.068-2.074-3.182c0-1.113,0.369-1.963,1.107-2.549c0.736-0.585,1.547-0.879,2.426-0.879
	s1.562,0.264,2.057,0.791c0.494,0.527,0.914,1.271,1.266,2.232L505.093,52.276L505.093,52.276z"/>
<path fill="#E3DED2" d="M42.898,130.238l-0.387,1.441c0,0.586,0.211,2.016,0.633,4.289c0.422,2.273,0.633,3.762,0.633,4.465v0.07
	c0,1.078-0.364,1.758-1.09,2.039c-1.008,0-1.793-0.164-2.355-0.492c-0.562-0.328-0.844-1.154-0.844-2.479
	c0-1.324-0.352-4.048-1.055-8.174l-2.215-0.211h-2.391c-0.54-0.234-1.489-0.352-2.848-0.352c0,0.047-0.03,0.357-0.088,0.932
	c-0.059,0.575-0.105,1.037-0.141,1.389c-0.036,0.352-0.094,0.874-0.176,1.563c-0.083,0.691-0.17,1.278-0.264,1.758
	c-0.094,0.48-0.211,1.043-0.352,1.688s-0.299,1.184-0.475,1.617c-0.176,0.434-0.369,0.85-0.58,1.248
	c-0.422,0.821-0.938,1.229-1.547,1.229c-0.61,0-1.155-0.182-1.635-0.545c-0.48-0.363-0.721-0.826-0.721-1.389
	c1.266-4.852,2.35-9.937,3.252-15.258c0.902-5.32,1.441-8.478,1.617-9.475c0.176-0.996,0.585-2.918,1.23-5.766
	c0.645-2.848,1.031-4.751,1.16-5.713c0.128-0.961,0.251-2.203,0.369-3.727c0.211-3.328,0.645-5.472,1.301-6.434h2.426
	c1.64,0,2.461,0.492,2.461,1.477c0,9.258,0.902,18.457,2.707,27.598c0.093,0.54,0.269,1.289,0.527,2.25
	C42.617,127.367,42.898,129.02,42.898,130.238z M37.976,128.691c-0.141-0.703-0.211-1.84-0.211-3.41c0-1.57-0.1-3.475-0.299-5.713
	c-0.199-2.238-0.487-4.834-0.861-7.787c-0.375-2.953-0.633-5.085-0.773-6.398c-0.281,1.359-0.832,3.633-1.652,6.82
	c-1.665,6.633-2.52,11.742-2.566,15.328C32.433,128.071,34.554,128.457,37.976,128.691z"/>
<path fill="#E3DED2" d="M53.902,113.469l0.422,18.633v8.156c0,0.633-0.164,1.166-0.492,1.6c-0.329,0.434-0.786,0.65-1.371,0.65
	c-1.57,0-2.355-1.464-2.355-4.395l-0.141-25.383l0.422-13.43c0-3.234,0.879-4.852,2.637-4.852c1.055,0,1.816,0.809,2.285,2.426
	c0.656,3.094,1.798,7.541,3.428,13.342c1.629,5.801,2.748,10.213,3.357,13.236c0.445,1.477,1.02,3.662,1.723,6.557
	c0.703,2.896,1.253,5.068,1.652,6.521c0.188-10.406,0.281-23.015,0.281-37.828l-0.105-1.934c0-0.656,0.123-1.178,0.369-1.564
	c0.246-0.386,0.662-0.58,1.248-0.58c0.585,0,1.066,0.141,1.441,0.422c0.75,0.562,1.125,1.359,1.125,2.391
	c0,6.586-0.188,15.047-0.562,25.383c-0.375,10.336-0.938,16.793-1.688,19.371c-0.094,0.023-0.293,0.088-0.598,0.193
	c-0.305,0.105-0.527,0.17-0.668,0.193c-1.336,0.304-2.18,0.246-2.531-0.176c-0.351-0.422-0.604-0.984-0.756-1.688
	c-0.153-0.703-0.329-1.389-0.527-2.057c-0.199-0.668-0.944-3.861-2.232-9.58c-3.445-15.117-5.567-23.906-6.363-26.367
	L53.902,113.469L53.902,113.469z"/>
<path fill="#E3DED2" d="M92.89,113.469l-0.141,3.621v3.938c0,4.758-0.211,7.969-0.633,9.633c-0.422,1.665-0.85,3.036-1.283,4.113
	c-0.434,1.078-0.955,2.039-1.564,2.883c-1.406,1.898-3.188,3.445-5.344,4.641h-4.922c-1.219,0-1.828-3.141-1.828-9.422l0.211-22.676
	c0-4.195-0.083-8.133-0.246-11.812c-0.399-0.469-0.598-1.025-0.598-1.67c0-0.645,0.269-1.207,0.809-1.688
	c0.539-0.48,1.189-0.721,1.951-0.721c0.761,0,1.412,0.422,1.951,1.266c0.352,0.141,0.873,0.27,1.564,0.387
	c0.691,0.118,1.201,0.258,1.529,0.422c2.672,1.243,4.764,3.44,6.275,6.592C92.134,106.127,92.89,109.625,92.89,113.469z
	 M81.113,105.136l0.809,31.781v1.723h1.301c2.508-3.046,4.125-5.836,4.852-8.367c0.68-2.367,1.02-5.672,1.02-9.914
	c0-14.484-2.484-22.055-7.453-22.711C81.288,99.547,81.113,102.043,81.113,105.136z"/>
<path fill="#E3DED2" d="M119.714,138.043c0,2.344-0.316,3.809-0.949,4.395c-0.329,0.281-0.838,0.422-1.529,0.422
	s-1.271-0.527-1.74-1.582c0.539-1.055,0.809-5.121,0.809-12.199c0-1.336-0.094-3.217-0.281-5.643
	c-0.188-2.426-0.293-4.061-0.316-4.904c-0.938-1.617-2.385-5.338-4.342-11.162c-1.957-5.824-2.936-9.416-2.936-10.775v-0.387
	l1.617-1.195c1.477,0.047,3.234,3.762,5.273,11.145c0.891,3.234,1.336,4.864,1.336,4.887c0.188-0.515,0.562-2.308,1.125-5.379
	c1.429-7.781,2.93-11.672,4.5-11.672c0.445,0,0.849,0.141,1.213,0.422c0.363,0.281,0.545,0.645,0.545,1.09
	c0,2.953-0.721,6.404-2.162,10.354c-1.441,3.95-2.162,7.448-2.162,10.494L119.714,138.043L119.714,138.043z"/>
<path fill="#E3DED2" d="M146.82,122.504c0,13.805-2.825,20.707-8.473,20.707c-5.203,0-8.121-6.539-8.754-19.617
	c-0.047-1.242-0.07-2.484-0.07-3.727l-0.035-4.395v-1.406c0-10.148,1.488-16.418,4.465-18.809c0.726-0.585,1.535-0.902,2.426-0.949
	c0.68,0.234,1.512,0.452,2.496,0.65c0.984,0.199,1.71,0.404,2.18,0.615c0.867,0.399,1.805,1.436,2.812,3.111
	c1.007,1.676,1.752,3.915,2.232,6.715c0.48,2.801,0.721,5.607,0.721,8.42V122.504L146.82,122.504z M133.46,105.558l0.105,4.219
	l-0.035,6.891c0,0.586,0.012,1.278,0.035,2.074c0.023,0.797,0.053,1.846,0.088,3.146c0.035,1.3,0.105,2.59,0.211,3.867
	c0.105,1.278,0.229,2.625,0.369,4.043c0.141,1.418,0.328,2.73,0.562,3.938s0.492,2.303,0.773,3.287
	c0.633,2.133,1.464,3.199,2.496,3.199c1.383,0,2.438-1.301,3.164-3.902c1.078-3.867,1.617-8.625,1.617-14.273l0.105-7.418
	c0-5.203-0.229-8.707-0.686-10.512c-0.457-1.805-0.885-3.164-1.283-4.078c-0.797-1.851-2.004-2.777-3.621-2.777
	c-0.047,0-0.094,0-0.141,0C134.714,97.261,133.46,100.027,133.46,105.558z"/>
<path fill="#E3DED2" d="M170.726,109.777l0.07,1.23c-0.352,1.688-0.58,4.588-0.686,8.701c-0.106,4.113-0.311,7.43-0.615,9.949
	c-0.305,2.52-0.715,4.734-1.23,6.645c-0.516,1.911-1.342,3.498-2.479,4.764c-1.137,1.266-2.403,1.898-3.797,1.898
	c-1.395,0-2.537-0.252-3.428-0.756s-1.617-1.23-2.18-2.18c-0.563-0.95-1.032-1.969-1.406-3.059c-0.375-1.09-0.656-2.35-0.844-3.779
	c-0.329-2.508-0.492-5.156-0.492-7.945l0.387-18.984c0-4.148-0.293-7.582-0.879-10.301v-1.723c1.148,0,2.057,0.445,2.725,1.336
	c0.668,0.891,1.002,1.887,1.002,2.988v34.84c0,1.852,0.462,3.545,1.389,5.08c0.926,1.535,2.291,2.303,4.096,2.303
	c2.039,0,3.398-5.929,4.078-17.789v-0.316l0.035-0.457c0.609-10.828,0.914-19.594,0.914-26.297l-0.035-1.195
	c0-0.562,0.128-0.984,0.387-1.266c0.258-0.281,0.75-0.422,1.477-0.422c0.726,0,1.266,0.199,1.617,0.598
	c0.352,0.399,0.557,0.803,0.615,1.213c0.058,0.41,0.088,0.967,0.088,1.67l-0.492,7.242L170.726,109.777z"/>
<path fill="#E3DED2" d="M210.91,99.933c-0.353,2.32-0.551,4.043-0.599,5.168v5.273c0,9.821-0.62,17.661-1.862,23.52
	c-0.233,1.102-0.353,2.133-0.353,3.094c0,4.875-0.879,7.312-2.637,7.312c-0.867,0-1.43-0.621-1.688-1.863
	c-0.094-0.445-0.141-1.218-0.141-2.32c0-1.102-0.294-3.316-0.88-6.645c-0.233-1.429-0.434-2.883-0.598-4.359
	c-0.164-1.477-0.423-4.605-0.772-9.387c-0.352-4.782-0.703-8.438-1.056-10.969c-0.142,1.594-0.211,3.493-0.211,5.695
	c0,2.203-0.457,6.211-1.371,12.023c-0.422,2.812-0.681,4.576-0.772,5.291c-0.095,0.715-0.193,1.799-0.299,3.252
	c-0.105,1.454-0.382,3.152-0.826,5.098c-0.47,2.18-1.22,3.27-2.25,3.27c-1.431,0-2.414-2.051-2.953-6.152
	c-0.234-1.828-0.418-3.609-0.545-5.344c-0.129-1.734-0.224-3.463-0.281-5.186c-0.059-1.723-0.129-2.912-0.211-3.568
	c-0.084-0.656-0.329-2.313-0.738-4.975c-0.41-2.66-0.656-4.547-0.738-5.66c-0.082-1.113-0.158-2.537-0.229-4.271
	c-0.07-1.734-0.17-3.639-0.299-5.713c-0.129-2.074-0.64-4.107-1.529-6.1c0.398-0.844,1.09-1.266,2.074-1.266
	c1.547,0,2.32,1.74,2.32,5.221s0.504,8.789,1.512,15.926c1.007,7.137,1.57,12.346,1.688,15.627c0.07-0.469,0.234-1.559,0.492-3.27
	c0.258-1.71,0.434-2.888,0.527-3.533c0.093-0.645,0.233-1.705,0.422-3.182c0.188-1.477,0.316-2.666,0.387-3.568
	c0.07-0.902,0.141-1.963,0.211-3.182c0.07-1.218,0.105-2.479,0.105-3.779c0-1.3,0.141-3.416,0.422-6.346
	c0.281-2.93,0.445-4.839,0.492-5.73h1.934c0.539,0,0.996,0.153,1.371,0.457c0.375,0.305,0.562,0.738,0.562,1.301v0.598
	c1.194,4.547,2.155,11.238,2.883,20.074c0.328,4.031,0.633,7.137,0.914,9.316c0.795-6.703,1.194-14.637,1.194-23.801
	c0-1.218,0.181-3.023,0.545-5.414c0.363-2.391,0.546-4.195,0.546-5.414c-0.164-0.422-0.246-0.832-0.246-1.23
	c0-1.172,0.672-1.758,2.021-1.758c1.348,0,2.021,0.562,2.021,1.688C211.449,96.019,211.261,97.613,210.91,99.933z"/>
<path fill="#E3DED2" d="M234.71,130.238l-0.387,1.441c0,0.586,0.211,2.016,0.633,4.289c0.422,2.273,0.633,3.762,0.633,4.465v0.07
	c0,1.078-0.363,1.758-1.09,2.039c-1.008,0-1.793-0.164-2.355-0.492c-0.562-0.328-0.844-1.154-0.844-2.479
	c0-1.324-0.352-4.048-1.055-8.174l-2.215-0.211h-2.391c-0.541-0.234-1.489-0.352-2.849-0.352c0,0.047-0.03,0.357-0.088,0.932
	c-0.06,0.575-0.104,1.037-0.142,1.389c-0.035,0.352-0.094,0.874-0.176,1.563c-0.082,0.691-0.17,1.278-0.264,1.758
	c-0.094,0.48-0.211,1.043-0.352,1.688c-0.142,0.645-0.299,1.184-0.476,1.617c-0.176,0.434-0.368,0.85-0.579,1.248
	c-0.423,0.821-0.938,1.229-1.548,1.229s-1.155-0.182-1.635-0.545c-0.479-0.363-0.722-0.826-0.722-1.389
	c1.267-4.852,2.351-9.937,3.252-15.258c0.902-5.32,1.441-8.478,1.617-9.475c0.177-0.996,0.586-2.918,1.23-5.766
	c0.644-2.848,1.031-4.751,1.16-5.713c0.128-0.961,0.251-2.203,0.369-3.727c0.211-3.328,0.645-5.472,1.301-6.434h2.426
	c1.641,0,2.461,0.492,2.461,1.477c0,9.258,0.902,18.457,2.707,27.598c0.094,0.54,0.27,1.289,0.527,2.25
	C234.429,127.367,234.71,129.02,234.71,130.238z M229.788,128.691c-0.141-0.703-0.211-1.84-0.211-3.41c0-1.57-0.1-3.475-0.299-5.713
	c-0.199-2.238-0.487-4.834-0.861-7.787c-0.375-2.953-0.633-5.085-0.773-6.398c-0.28,1.359-0.832,3.633-1.651,6.82
	c-1.665,6.633-2.521,11.742-2.565,15.328C224.245,128.071,226.366,128.457,229.788,128.691z"/>
<path fill="#E3DED2" d="M245.714,113.469l0.422,18.633v8.156c0,0.633-0.164,1.166-0.492,1.6s-0.785,0.65-1.371,0.65
	c-1.569,0-2.354-1.464-2.354-4.395l-0.141-25.383L242.2,99.3c0-3.234,0.879-4.852,2.637-4.852c1.056,0,1.816,0.809,2.285,2.426
	c0.656,3.094,1.798,7.541,3.429,13.342c1.629,5.801,2.748,10.213,3.356,13.236c0.444,1.477,1.021,3.662,1.723,6.557
	c0.703,2.896,1.253,5.068,1.652,6.521c0.188-10.406,0.28-23.015,0.28-37.828l-0.104-1.934c0-0.656,0.123-1.178,0.369-1.564
	c0.246-0.386,0.662-0.58,1.248-0.58c0.585,0,1.065,0.141,1.44,0.422c0.75,0.562,1.125,1.359,1.125,2.391
	c0,6.586-0.188,15.047-0.562,25.383c-0.375,10.336-0.938,16.793-1.688,19.371c-0.094,0.023-0.293,0.088-0.598,0.193
	c-0.305,0.105-0.527,0.17-0.668,0.193c-1.336,0.304-2.18,0.246-2.531-0.176c-0.351-0.422-0.604-0.984-0.756-1.688
	c-0.152-0.703-0.328-1.389-0.527-2.057c-0.198-0.668-0.943-3.861-2.231-9.58c-3.444-15.117-5.567-23.906-6.362-26.367v10.76H245.714
	z"/>
<path fill="#E3DED2" d="M275.14,135.195l0.142-2.461c-0.188-0.609-0.575-6.029-1.16-16.26c-0.586-10.23-0.901-16.471-0.948-18.721
	c-2.767-0.07-4.478-0.322-5.134-0.756c-0.655-0.434-0.983-0.884-0.983-1.354c0-0.469,0.258-0.849,0.772-1.143
	c0.515-0.293,1.021-0.439,1.513-0.439l9.772,0.668l1.159-0.035c1.5,0,2.25,0.575,2.25,1.723c0,0.586-0.245,1.061-0.737,1.424
	c-0.492,0.364-1.043,0.545-1.651,0.545l-3.306-0.492l-0.142,0.738c0,4.547,0.398,11.355,1.195,20.426
	c0.797,9.07,1.195,15.891,1.195,20.461c0,0.586-0.217,1.09-0.65,1.512c-0.433,0.422-0.943,0.633-1.528,0.633h-1.617L275.14,135.195z
	"/>
<path fill="#E3DED2" d="M304.742,135.195l0.142-2.461c-0.188-0.609-0.576-6.029-1.16-16.26c-0.586-10.23-0.902-16.471-0.949-18.721
	c-2.766-0.07-4.477-0.322-5.133-0.756c-0.656-0.434-0.984-0.884-0.984-1.354c0-0.469,0.258-0.849,0.773-1.143
	c0.515-0.293,1.02-0.439,1.512-0.439l9.773,0.668l1.159-0.035c1.5,0,2.25,0.575,2.25,1.723c0,0.586-0.246,1.061-0.737,1.424
	c-0.492,0.364-1.043,0.545-1.652,0.545l-3.305-0.492l-0.142,0.738c0,4.547,0.397,11.355,1.195,20.426
	c0.796,9.07,1.194,15.891,1.194,20.461c0,0.586-0.217,1.09-0.649,1.512c-0.435,0.422-0.944,0.633-1.529,0.633h-1.616
	L304.742,135.195z"/>
<path fill="#E3DED2" d="M334.378,122.504c0,13.805-2.822,20.707-8.473,20.707c-5.203,0-8.121-6.539-8.754-19.617
	c-0.048-1.242-0.07-2.484-0.07-3.727l-0.034-4.395v-1.406c0-10.148,1.487-16.418,4.465-18.809c0.726-0.585,1.535-0.902,2.426-0.949
	c0.68,0.234,1.512,0.452,2.496,0.65c0.984,0.199,1.711,0.404,2.182,0.615c0.865,0.399,1.805,1.436,2.811,3.111
	c1.008,1.676,1.752,3.915,2.232,6.715c0.48,2.801,0.721,5.607,0.721,8.42L334.378,122.504L334.378,122.504z M321.019,105.558
	l0.105,4.219l-0.035,6.891c0,0.586,0.012,1.278,0.035,2.074c0.023,0.797,0.053,1.846,0.088,3.146c0.035,1.3,0.105,2.59,0.211,3.867
	c0.105,1.278,0.229,2.625,0.369,4.043c0.141,1.418,0.328,2.73,0.562,3.938s0.492,2.303,0.772,3.287
	c0.634,2.133,1.463,3.199,2.496,3.199c1.383,0,2.438-1.301,3.164-3.902c1.078-3.867,1.617-8.625,1.617-14.273l0.105-7.418
	c0-5.203-0.229-8.707-0.688-10.512c-0.457-1.805-0.885-3.164-1.283-4.078c-0.797-1.851-2.004-2.777-3.621-2.777
	c-0.047,0-0.094,0-0.142,0C322.272,97.261,321.019,100.027,321.019,105.558z"/>
<path fill="#E3DED2" d="M350.691,138.851l3.797,0.527c0.914,0,1.711-0.398,2.391-1.195c0.68-0.796,1.184-1.793,1.512-2.988
	c0.635-2.297,0.949-4.33,0.949-6.1c0-1.77-0.293-3.521-0.879-5.256c-0.586-1.734-1.301-3.345-2.145-4.834
	c-0.844-1.488-1.699-3.006-2.566-4.553c-2.016-3.633-3.023-7.219-3.023-10.758c0-2.156,0.363-4.066,1.092-5.73
	c1.357-3.094,3.164-4.641,5.414-4.641c0.844,0,1.645,0.27,2.406,0.809c0.764,0.54,1.145,1.125,1.145,1.758
	c0,1.102-0.586,1.652-1.758,1.652c-0.518,0-1.021-0.141-1.514-0.422c-1.521,0.07-2.555,1.77-3.094,5.098
	c-0.117,0.727-0.176,1.577-0.176,2.549c0,0.973,0.211,2.174,0.633,3.604c0.422,1.43,0.955,2.702,1.6,3.814
	c0.646,1.113,1.336,2.344,2.074,3.691c0.738,1.348,1.438,2.654,2.092,3.92c1.479,2.93,2.217,6.281,2.217,10.055
	c0,3-0.6,5.778-1.793,8.332c-0.635,1.313-1.529,2.385-2.689,3.217c-1.158,0.832-2.502,1.26-4.023,1.283v0.176
	c-0.893-0.118-1.699-0.417-2.426-0.896c-0.729-0.479-1.139-1.107-1.23-1.881v-1.231H350.691L350.691,138.851z"/>
<path fill="#E3DED2" d="M373.332,98.527l-0.281,17.965c0.844,0.234,2.109,0.352,3.797,0.352h2.742v-1.512
	c0-2.203-0.164-5.514-0.492-9.932c-0.328-4.417-0.49-7.729-0.49-9.932c0-0.539,0.203-0.99,0.613-1.354
	c0.41-0.363,0.773-0.545,1.09-0.545c0.318,0,0.594-0.018,0.826-0.053c0.234-0.035,0.43-0.047,0.58-0.035
	c0.152,0.012,0.322,0.065,0.51,0.158c0.354,0.164,0.527,0.703,0.527,1.617c0,5.04,0.223,12.586,0.668,22.641
	s0.668,17.602,0.668,22.641c0,0.422-0.182,0.75-0.545,0.984s-0.826,0.352-1.389,0.352s-1.09-0.146-1.582-0.439
	s-0.75-0.686-0.773-1.178c-0.258-4.781-0.387-10.664-0.387-17.648v-0.281l-0.035-2.074l-0.035-0.668v-0.07
	c-0.375,0.094-0.914,0.141-1.617,0.141l-4.465-0.668l-0.211,7.945v0.316l0.598,11.848c0,0.703-0.17,1.313-0.51,1.828
	c-0.34,0.516-0.838,0.773-1.494,0.773c-0.961,0-1.623-0.873-1.984-2.619c-0.363-1.746-0.545-4.131-0.545-7.154l0.211-10.969
	l0.035-4.113l0.141-4.219l-0.49-16.242c0-0.562,0.197-1.06,0.598-1.494c0.396-0.434,0.879-0.65,1.439-0.65
	C372.57,94.238,373.332,95.668,373.332,98.527z"/>
<path fill="#E3DED2" d="M407.785,130.238l-0.387,1.441c0,0.586,0.211,2.016,0.633,4.289c0.422,2.273,0.633,3.762,0.633,4.465v0.07
	c0,1.078-0.363,1.758-1.09,2.039c-1.008,0-1.793-0.164-2.355-0.492c-0.561-0.328-0.844-1.154-0.844-2.479
	c0-1.324-0.352-4.048-1.055-8.174l-2.215-0.211h-2.393c-0.539-0.234-1.486-0.352-2.848-0.352c0,0.047-0.029,0.357-0.088,0.932
	c-0.061,0.575-0.105,1.037-0.141,1.389c-0.037,0.352-0.096,0.874-0.178,1.563c-0.082,0.691-0.17,1.278-0.264,1.758
	s-0.211,1.043-0.354,1.688c-0.141,0.645-0.299,1.184-0.475,1.617c-0.176,0.434-0.369,0.85-0.58,1.248
	c-0.422,0.821-0.938,1.229-1.547,1.229s-1.154-0.182-1.635-0.545c-0.48-0.363-0.721-0.826-0.721-1.389
	c1.266-4.852,2.35-9.937,3.252-15.258c0.9-5.32,1.439-8.478,1.615-9.475c0.178-0.996,0.586-2.918,1.23-5.766
	c0.645-2.848,1.031-4.751,1.16-5.713c0.129-0.961,0.252-2.203,0.369-3.727c0.211-3.328,0.645-5.472,1.301-6.434h2.426
	c1.641,0,2.461,0.492,2.461,1.477c0,9.258,0.902,18.457,2.707,27.598c0.094,0.54,0.271,1.289,0.527,2.25
	C407.503,127.367,407.785,129.02,407.785,130.238z M402.863,128.691c-0.143-0.703-0.211-1.84-0.211-3.41
	c0-1.57-0.102-3.475-0.299-5.713c-0.199-2.238-0.486-4.834-0.861-7.787c-0.375-2.953-0.633-5.085-0.773-6.398
	c-0.279,1.359-0.832,3.633-1.65,6.82c-1.664,6.633-2.521,11.742-2.566,15.328C397.32,128.071,399.441,128.457,402.863,128.691z"/>
<path fill="#E3DED2" d="M418.437,120.57c-0.326,1.336-0.49,2.572-0.49,3.709c0,1.137,0.145,3.563,0.438,7.277
	c0.293,3.715,0.439,6.112,0.439,7.189c0,1.078-0.193,1.898-0.58,2.461s-0.826,0.844-1.318,0.844c-0.703,0-1.146-0.48-1.336-1.441
	c0.047-1.781,0.07-3.967,0.07-6.557c0-2.589-0.205-8.279-0.615-17.068s-0.615-15.351-0.615-19.688c0-2.273,0.797-3.41,2.393-3.41
	c2.508,0,4.617,0.656,6.328,1.969s2.564,3.188,2.564,5.625c0,3.282-0.258,5.836-0.771,7.664c-0.518,1.828-1.488,4.113-2.918,6.855
	c0.258,1.148,0.715,3.445,1.369,6.891c1.385,7.453,2.941,12.832,4.678,16.137c0.492,0.938,0.736,1.67,0.736,2.197
	s-0.145,0.972-0.438,1.336c-0.293,0.363-0.688,0.545-1.178,0.545c-1.57,0-3.014-2.613-4.324-7.84
	c-0.562-2.273-1.066-4.57-1.512-6.891c-1.268-6.351-2.074-9.926-2.428-10.723C418.931,118.262,418.765,119.234,418.437,120.57z
	 M418.332,96.558l-0.246,1.02c0,1.969,0.047,4.811,0.143,8.525c0.094,3.715,0.141,6.416,0.141,8.104
	c1.125-0.585,2.033-2.115,2.725-4.588c0.693-2.473,1.037-4.365,1.037-5.678c0-1.312-0.035-2.279-0.104-2.9
	c-0.07-0.621-0.225-1.306-0.457-2.057C421.121,97.414,420.042,96.605,418.332,96.558z"/>
<path fill="#E3DED2" d="M441.113,139.168l2.848-0.176c1.828,0,2.742,0.586,2.742,1.758c0,0.727-0.316,1.253-0.949,1.582
	c-0.633,0.328-1.348,0.492-2.145,0.492h-6.785c-0.609,0-1.131-0.211-1.564-0.633c-0.432-0.422-0.668-0.961-0.701-1.617
	c-0.035-0.656,0.012-1.477,0.141-2.461c0.129-0.984,0.193-1.771,0.193-2.355l-0.354-9.211l0.492-21.023l-0.387-6.082
	c0-3.398,1.008-5.098,3.021-5.098c0.562,0,1.09,0.176,1.582,0.527c0.188,0.023,0.639,0.065,1.354,0.123
	c0.717,0.059,1.344,0.135,1.883,0.229c0.539,0.094,1.125,0.223,1.758,0.387c1.357,0.375,2.039,1.02,2.039,1.934
	c0,0.984-0.703,1.735-2.109,2.25c-2.203-0.75-4.02-1.207-5.449-1.371c0.07,1.032,0.105,2.062,0.105,3.094l-0.316,10.336
	c0,0.047,0.07,0.422,0.211,1.125l2.566-0.105c2.32,0,3.479,0.656,3.479,1.969c0,0.703-0.203,1.324-0.613,1.863
	c-0.41,0.54-0.99,0.809-1.74,0.809s-1.406-0.211-1.969-0.633h-1.828c0.141,1.828,0.211,3.563,0.211,5.203l-0.316,13.043
	C438.513,137.82,439.378,139.168,441.113,139.168z"/>
<path fill="#E3DED2" d="M486.171,99.933c-0.352,2.32-0.551,4.043-0.598,5.168v5.273c0,9.821-0.621,17.661-1.863,23.52
	c-0.232,1.102-0.352,2.133-0.352,3.094c0,4.875-0.879,7.312-2.639,7.312c-0.865,0-1.43-0.621-1.688-1.863
	c-0.094-0.445-0.141-1.218-0.141-2.32c0-1.102-0.293-3.316-0.879-6.645c-0.234-1.429-0.436-2.883-0.6-4.359
	s-0.422-4.605-0.771-9.387c-0.352-4.782-0.703-8.438-1.057-10.969c-0.141,1.594-0.211,3.493-0.211,5.695
	c0,2.203-0.457,6.211-1.371,12.023c-0.422,2.812-0.68,4.576-0.771,5.291c-0.094,0.715-0.193,1.799-0.299,3.252
	c-0.105,1.454-0.383,3.152-0.826,5.098c-0.469,2.18-1.219,3.27-2.25,3.27c-1.432,0-2.414-2.051-2.953-6.152
	c-0.234-1.828-0.416-3.609-0.545-5.344c-0.129-1.734-0.225-3.463-0.281-5.186c-0.057-1.723-0.129-2.912-0.211-3.568
	c-0.082-0.656-0.328-2.313-0.738-4.975c-0.41-2.66-0.654-4.547-0.736-5.66c-0.082-1.113-0.158-2.537-0.229-4.271
	s-0.17-3.639-0.299-5.713c-0.129-2.074-0.641-4.107-1.529-6.1c0.398-0.844,1.09-1.266,2.074-1.266c1.547,0,2.318,1.74,2.318,5.221
	s0.506,8.789,1.514,15.926c1.008,7.137,1.568,12.346,1.688,15.627c0.07-0.469,0.234-1.559,0.492-3.27
	c0.258-1.71,0.434-2.888,0.527-3.533s0.232-1.705,0.422-3.182c0.188-1.477,0.314-2.666,0.387-3.568
	c0.07-0.902,0.143-1.963,0.211-3.182c0.07-1.218,0.105-2.479,0.105-3.779c0-1.3,0.141-3.416,0.422-6.346s0.445-4.839,0.492-5.73
	h1.934c0.539,0,0.996,0.153,1.371,0.457c0.375,0.305,0.561,0.738,0.561,1.301v0.598c1.195,4.547,2.156,11.238,2.885,20.074
	c0.328,4.031,0.633,7.137,0.914,9.316c0.797-6.703,1.193-14.637,1.193-23.801c0-1.218,0.184-3.023,0.545-5.414
	c0.363-2.391,0.545-4.195,0.545-5.414c-0.162-0.422-0.244-0.832-0.244-1.23c0-1.172,0.674-1.758,2.02-1.758
	c1.348,0,2.021,0.562,2.021,1.688C486.71,96.019,486.523,97.613,486.171,99.933z"/>
<path fill="#E3DED2" d="M502.414,141.066l-2.707,0.035l-3.129,0.141c-1.336,0-2.227-0.434-2.672-1.301
	c0-0.703,0.088-1.248,0.264-1.635c0.176-0.387,0.545-0.58,1.107-0.58h2.039l0.141-0.949l-0.492-15.293l0.389-16.031
	c0-2.695-0.117-5.25-0.354-7.664c-1.008,0-1.938,0-2.795,0c-0.855,0-1.48-0.135-1.881-0.404c-0.398-0.269-0.598-0.779-0.598-1.529
	c0-1.125,1.301-1.675,3.9-1.652h0.246c6.164,0,9.246,0.821,9.246,2.461c0,0.258-0.141,0.703-0.422,1.336h-3.691
	c0.189,1.758,0.281,3.82,0.281,6.188l-0.387,13.746l0.525,15.293v2.145c0,0.422-0.082,1.067-0.244,1.934h3.059
	c1.969,0,2.953,0.598,2.953,1.793c0,0.54-0.17,0.997-0.51,1.371c-0.342,0.375-0.723,0.562-1.145,0.562L502.414,141.066z"/>
<path fill="#E3DED2" d="M519.042,135.195l0.143-2.461c-0.188-0.609-0.574-6.029-1.16-16.26s-0.902-16.471-0.949-18.721
	c-2.766-0.07-4.477-0.322-5.133-0.756s-0.984-0.884-0.984-1.354c0-0.469,0.258-0.849,0.773-1.143
	c0.516-0.293,1.02-0.439,1.512-0.439l9.773,0.668l1.158-0.035c1.5,0,2.25,0.575,2.25,1.723c0,0.586-0.244,1.061-0.736,1.424
	c-0.492,0.364-1.043,0.545-1.652,0.545l-3.305-0.492l-0.143,0.738c0,4.547,0.398,11.355,1.195,20.426
	c0.797,9.071,1.195,15.891,1.195,20.461c0,0.586-0.217,1.09-0.65,1.512c-0.432,0.422-0.941,0.633-1.527,0.633h-1.617
	L519.042,135.195z"/>
<path fill="#E3DED2" d="M536.339,98.527l-0.279,17.965c0.844,0.234,2.107,0.352,3.797,0.352h2.742v-1.512
	c0-2.203-0.164-5.514-0.492-9.932c-0.328-4.417-0.492-7.729-0.492-9.932c0-0.539,0.205-0.99,0.615-1.354
	c0.408-0.363,0.771-0.545,1.09-0.545c0.316,0,0.592-0.018,0.826-0.053c0.232-0.035,0.428-0.047,0.58-0.035
	c0.15,0.012,0.32,0.065,0.51,0.158c0.352,0.164,0.525,0.703,0.525,1.617c0,5.04,0.225,12.586,0.67,22.641
	c0.443,10.055,0.668,17.602,0.668,22.641c0,0.422-0.184,0.75-0.545,0.984c-0.363,0.234-0.826,0.352-1.391,0.352
	c-0.562,0-1.09-0.146-1.582-0.439s-0.75-0.686-0.771-1.178c-0.258-4.781-0.389-10.664-0.389-17.648v-0.281l-0.033-2.074
	l-0.035-0.668v-0.07c-0.375,0.094-0.914,0.141-1.617,0.141l-4.465-0.668l-0.211,7.945v0.316l0.598,11.848
	c0,0.703-0.17,1.313-0.51,1.828c-0.34,0.516-0.838,0.773-1.494,0.773c-0.961,0-1.623-0.873-1.986-2.619
	c-0.361-1.746-0.545-4.131-0.545-7.154l0.211-10.969l0.035-4.113l0.141-4.219l-0.49-16.242c0-0.562,0.197-1.06,0.598-1.494
	c0.398-0.434,0.879-0.65,1.441-0.65C535.578,94.238,536.339,95.668,536.339,98.527z"/>
<path fill="#E3DED2" d="M581.306,109.777l0.068,1.23c-0.352,1.688-0.58,4.588-0.686,8.701c-0.105,4.113-0.312,7.43-0.615,9.949
	c-0.305,2.52-0.715,4.734-1.229,6.645c-0.518,1.911-1.344,3.498-2.479,4.764c-1.139,1.266-2.402,1.898-3.797,1.898
	c-1.396,0-2.537-0.252-3.43-0.756c-0.891-0.504-1.615-1.23-2.18-2.18c-0.562-0.95-1.031-1.969-1.406-3.059
	c-0.375-1.09-0.654-2.35-0.844-3.779c-0.328-2.508-0.492-5.156-0.492-7.945l0.389-18.984c0-4.148-0.295-7.582-0.881-10.301v-1.723
	c1.148,0,2.059,0.445,2.727,1.336c0.668,0.891,1.002,1.887,1.002,2.988v34.84c0,1.852,0.463,3.545,1.389,5.08
	s2.291,2.303,4.096,2.303c2.039,0,3.398-5.929,4.078-17.789v-0.316l0.035-0.457c0.609-10.828,0.914-19.594,0.914-26.297
	l-0.035-1.195c0-0.562,0.129-0.984,0.389-1.266c0.258-0.282,0.75-0.422,1.477-0.422c0.729,0,1.266,0.199,1.617,0.598
	s0.557,0.803,0.615,1.213s0.088,0.967,0.088,1.67l-0.492,7.242L581.306,109.777z"/>
<path fill="#E3DED2" d="M588.056,138.851l3.797,0.527c0.914,0,1.711-0.398,2.391-1.195c0.68-0.796,1.184-1.793,1.512-2.988
	c0.633-2.297,0.949-4.33,0.949-6.1c0-1.77-0.293-3.521-0.879-5.256c-0.586-1.734-1.301-3.345-2.146-4.834
	c-0.844-1.488-1.697-3.006-2.564-4.553c-2.016-3.633-3.023-7.219-3.023-10.758c0-2.156,0.363-4.066,1.09-5.73
	c1.359-3.094,3.164-4.641,5.414-4.641c0.846,0,1.646,0.27,2.408,0.809c0.764,0.54,1.145,1.125,1.145,1.758
	c0,1.102-0.586,1.652-1.76,1.652c-0.516,0-1.02-0.141-1.512-0.422c-1.521,0.07-2.555,1.77-3.094,5.098
	c-0.117,0.727-0.176,1.577-0.176,2.549c0,0.973,0.211,2.174,0.633,3.604c0.422,1.43,0.955,2.702,1.6,3.814
	c0.646,1.113,1.336,2.344,2.074,3.691c0.738,1.348,1.436,2.654,2.092,3.92c1.479,2.93,2.215,6.281,2.215,10.055
	c0,3-0.598,5.778-1.793,8.332c-0.633,1.313-1.527,2.385-2.688,3.217s-2.502,1.26-4.025,1.283v0.176
	c-0.891-0.118-1.699-0.417-2.426-0.896c-0.729-0.479-1.137-1.107-1.23-1.881L588.056,138.851L588.056,138.851z"/>
<path fill="#E3DED2" d="M618.394,143.211c-1.172-0.305-2.086-1.137-2.74-2.496c0-0.82,0.293-1.564,0.879-2.232
	s1.311-1.002,2.18-1.002c0.867,0,1.564,0.34,2.092,1.021c0.527,0.68,0.791,1.5,0.791,2.461c0,1.688-1.064,2.602-3.197,2.742
	L618.394,143.211L618.394,143.211z M620.328,122.785l-0.141,3.973c0,2.977-0.375,4.465-1.125,4.465s-1.125-2.097-1.125-6.293
	l-0.035-11.918l-0.6-23.625c0-0.75,0.316-1.4,0.949-1.951c0.633-0.55,1.268-0.826,1.898-0.826s1.119,0.17,1.459,0.51
	s0.51,0.756,0.51,1.248c0,3.844-0.299,9.586-0.896,17.227C620.626,113.235,620.328,118.965,620.328,122.785z"/>
<path fill="#E3DED2" d="M512.328,346.977c0,0.002,56.232-42.057,63.811-86.627c-10.926,3.439-47.842,16.832-86.014,64.334
	C492.158,336.92,500.636,345.758,512.328,346.977z"/>
<path fill="#FF9381" d="M536.49,325.477c-3.287-3.287,3.309,23.832-15.072,38.46c1.168-4.647-3.01-17.037-9.09-16.96
	C516.496,343.998,532.625,331.008,536.49,325.477z"/>
<path fill="#FF9381" d="M512.292,301.285c-8.105,3.082-20.428-10.287-39.412,14.797c4.625-1.287,17.158,2.541,17.244,8.604
	C493.001,320.453,506.857,305.289,512.292,301.285z"/>
<path fill="#FF9381" d="M576.138,260.35c-0.477,5.057-5.227,19.238-10.592,27.832c-5.617,9.008-31.166-9.838-18.557-15.018
	C553.152,270.633,569.091,261.727,576.138,260.35z"/>
<path fill="#FF9381" d="M538.714,305.068c-4.207-0.383-6.938-4.15-6.102-8.422c0.838-4.273,4.924-7.422,9.127-7.039
	c4.207,0.381,6.938,4.154,6.1,8.422C547.003,302.303,542.916,305.455,538.714,305.068z"/>
<path fill="#FF9381" d="M487.595,341.977c0,0-65.854,49.854-103.658,44.977c29.27,12.192,7.316,37.803,9.758,41.463
	c8.535-6.098,34.145-29.27,18.291,18.293c10.977-7.318,37.807-56.099,41.465-24.391c8.535-24.392,36.715-74.391,42.137-74.391
	C494.912,346.709,487.595,341.977,487.595,341.977z"/>
<circle fill="#C6BEAF" stroke="#C4BCAD" stroke-miterlimit="10" cx="288.125" cy="695.066" r="9.141"/>
<circle fill="#C6BEAF" stroke="#C4BCAD" stroke-miterlimit="10" cx="352.488" cy="695.066" r="9.141"/>
</svg>
