<?xml version="1.0" encoding="utf-8"?>
<!-- Generator: Adobe Illustrator 16.0.0, SVG Export Plug-In . SVG Version: 6.00 Build 0)  -->
<!DOCTYPE svg PUBLIC "-//W3C//DTD SVG 1.1//EN" "http://www.w3.org/Graphics/SVG/1.1/DTD/svg11.dtd">
<svg version="1.1" id="Layer_1" xmlns="http://www.w3.org/2000/svg" xmlns:xlink="http://www.w3.org/1999/xlink" x="0px" y="0px"
	 width="642.349px" height="635.148px" viewBox="0 0 642.349 635.148" enable-background="new 0 0 642.349 635.148"
	 xml:space="preserve">
<g>
	<path fill="#E3DED2" d="M65.436,460.674l-0.035,3.586v1.617c0,0.633-0.211,1.143-0.633,1.529s-0.896,0.58-1.424,0.58
		s-0.973-0.171-1.336-0.51c-0.364-0.34-0.545-0.756-0.545-1.248l0.352-13.922c0-1.406-0.229-3.485-0.686-6.24
		c-0.457-2.754-0.686-4.969-0.686-6.645c0-1.675-0.287-3.714-0.861-6.117c-0.575-2.402-1.213-4.564-1.916-6.486
		c-1.852-5.015-2.777-9.316-2.777-12.902c0-0.773,0.761-1.16,2.285-1.16c0.352,0,0.715,0.141,1.09,0.422
		c0.375,0.281,0.574,0.598,0.598,0.949c0.469,5.532,1.664,11.403,3.586,17.613c0.093-0.422,0.205-1.424,0.334-3.006
		c0.128-1.582,0.281-3.204,0.457-4.869c0.176-1.664,0.404-3.352,0.686-5.062c0.633-3.867,1.587-5.801,2.865-5.801
		c1.277,0,1.916,0.259,1.916,0.773c0,2.695-0.575,6.715-1.723,12.059c-1.148,5.344-1.723,9.399-1.723,12.164l0.211,2.496v1.09
		L65.436,460.674z"/>
	<path fill="#E3DED2" d="M91.417,447.737c0,13.805-2.825,20.707-8.473,20.707c-5.203,0-8.121-6.539-8.754-19.617
		c-0.047-1.242-0.07-2.483-0.07-3.727l-0.035-4.395v-1.406c0-10.147,1.488-16.418,4.465-18.809c0.726-0.585,1.535-0.901,2.426-0.949
		c0.68,0.234,1.512,0.452,2.496,0.65c0.984,0.199,1.71,0.404,2.18,0.615c0.867,0.399,1.805,1.437,2.812,3.111
		c1.007,1.676,1.752,3.915,2.232,6.715c0.48,2.801,0.721,5.607,0.721,8.42V447.737z M78.057,430.792l0.105,4.219l-0.035,6.891
		c0,0.586,0.012,1.278,0.035,2.074c0.023,0.797,0.053,1.846,0.088,3.146s0.105,2.59,0.211,3.867
		c0.105,1.278,0.229,2.625,0.369,4.043c0.141,1.419,0.328,2.73,0.562,3.938c0.234,1.208,0.492,2.303,0.773,3.287
		c0.633,2.133,1.464,3.199,2.496,3.199c1.383,0,2.438-1.301,3.164-3.902c1.078-3.867,1.617-8.625,1.617-14.273l0.105-7.418
		c0-5.203-0.229-8.706-0.686-10.512c-0.457-1.805-0.885-3.164-1.283-4.078c-0.797-1.851-2.004-2.777-3.621-2.777
		c-0.047,0-0.094,0-0.141,0C79.311,422.495,78.057,425.26,78.057,430.792z"/>
	<path fill="#E3DED2" d="M115.323,435.01l0.07,1.23c-0.352,1.688-0.58,4.588-0.686,8.701s-0.311,7.431-0.615,9.949
		c-0.305,2.52-0.715,4.734-1.23,6.645c-0.516,1.911-1.342,3.498-2.479,4.764c-1.137,1.266-2.403,1.898-3.797,1.898
		c-1.395,0-2.537-0.252-3.428-0.756c-0.891-0.504-1.617-1.23-2.18-2.18s-1.032-1.969-1.406-3.059
		c-0.375-1.09-0.656-2.35-0.844-3.779c-0.329-2.508-0.492-5.155-0.492-7.945l0.387-18.984c0-4.148-0.293-7.581-0.879-10.301v-1.723
		c1.148,0,2.057,0.445,2.725,1.336c0.668,0.892,1.002,1.887,1.002,2.988v34.84c0,1.852,0.462,3.546,1.389,5.08
		c0.926,1.535,2.291,2.303,4.096,2.303c2.039,0,3.398-5.929,4.078-17.789v-0.316l0.035-0.457
		c0.609-10.828,0.914-19.594,0.914-26.297l-0.035-1.195c0-0.562,0.128-0.984,0.387-1.266c0.258-0.281,0.75-0.422,1.477-0.422
		c0.726,0,1.266,0.199,1.617,0.598c0.352,0.399,0.557,0.804,0.615,1.213c0.058,0.41,0.088,0.967,0.088,1.67l-0.492,7.242
		L115.323,435.01z"/>
	<path fill="#E3DED2" d="M131.389,414.901l-0.141,0.492c0,1.103-0.299,2.414-0.896,3.938c-0.598,1.524-1.424,2.878-2.479,4.061
		c-1.055,1.184-2.098,1.775-3.129,1.775H122.6v-2.496c0.188-0.188,0.656-0.585,1.406-1.195c1.57-1.242,2.438-2.308,2.602-3.199
		c-1.383-1.007-2.074-2.074-2.074-3.199s0.369-1.98,1.107-2.566c0.738-0.585,1.547-0.879,2.426-0.879s1.564,0.27,2.057,0.809
		c0.492,0.54,0.914,1.289,1.266,2.25V414.901z"/>
	<path fill="#E3DED2" d="M156.174,418.663c1.102,0,1.652,0.316,1.652,0.949c0,2.695-0.575,6.088-1.723,10.178
		c-1.148,4.091-1.846,6.891-2.092,8.402s-0.51,3.732-0.791,6.662c-0.281,2.931-0.51,4.963-0.686,6.1
		c-0.176,1.138-0.492,2.555-0.949,4.254c-0.457,1.7-0.738,2.848-0.844,3.445s-0.188,1.349-0.246,2.25
		c-0.059,0.902-0.135,1.705-0.229,2.408c-0.094,0.703-0.246,1.43-0.457,2.18c-0.492,1.64-1.477,2.461-2.953,2.461l-1.617-1.09
		c0-5.836-0.557-11.789-1.67-17.859c-1.113-6.069-2.203-11.167-3.27-15.293c-1.067-4.125-1.788-6.737-2.162-7.84
		c-0.844-2.602-1.266-4.219-1.266-4.852s0.181-1.112,0.545-1.441c0.363-0.328,0.785-0.492,1.266-0.492
		c0.48,0,0.919,0.199,1.318,0.598c0.398,0.399,0.715,0.962,0.949,1.688c0.234,0.727,0.422,1.401,0.562,2.021
		c0.141,0.621,0.275,1.336,0.404,2.145c0.128,0.809,0.216,1.318,0.264,1.529c2.438,11.109,4.359,21.563,5.766,31.359
		c0.375-1.898,0.814-5.015,1.318-9.352c0.504-4.336,1.441-10.084,2.812-17.244c1.371-7.159,2.197-11.549,2.479-13.166H156.174z"/>
	<path fill="#E3DED2" d="M170.729,464.401l2.848-0.176c1.828,0,2.742,0.586,2.742,1.758c0,0.727-0.316,1.253-0.949,1.582
		c-0.633,0.328-1.348,0.492-2.145,0.492h-6.785c-0.61,0-1.131-0.211-1.564-0.633c-0.434-0.422-0.668-0.961-0.703-1.617
		c-0.035-0.655,0.012-1.477,0.141-2.461c0.128-0.984,0.193-1.77,0.193-2.355l-0.352-9.211l0.492-21.023l-0.387-6.082
		c0-3.397,1.007-5.098,3.023-5.098c0.562,0,1.09,0.176,1.582,0.527c0.188,0.023,0.638,0.065,1.354,0.123
		c0.715,0.059,1.341,0.136,1.881,0.229c0.539,0.094,1.125,0.224,1.758,0.387c1.359,0.375,2.039,1.02,2.039,1.934
		c0,0.984-0.703,1.735-2.109,2.25c-2.203-0.75-4.02-1.207-5.449-1.371c0.07,1.032,0.105,2.062,0.105,3.094l-0.316,10.336
		c0,0.048,0.07,0.422,0.211,1.125l2.566-0.105c2.32,0,3.48,0.656,3.48,1.969c0,0.703-0.206,1.324-0.615,1.863
		c-0.41,0.54-0.99,0.809-1.74,0.809c-0.75,0-1.406-0.211-1.969-0.633h-1.828c0.141,1.828,0.211,3.563,0.211,5.203l-0.316,13.043
		C168.127,463.053,168.994,464.401,170.729,464.401z"/>
	<path fill="#E3DED2" d="M196.639,423.76l-0.281,17.965c0.844,0.234,2.109,0.352,3.797,0.352h2.742v-1.512
		c0-2.202-0.164-5.514-0.492-9.932c-0.329-4.417-0.492-7.729-0.492-9.932c0-0.539,0.205-0.989,0.615-1.354
		c0.41-0.363,0.773-0.545,1.09-0.545s0.592-0.018,0.826-0.053c0.234-0.035,0.427-0.047,0.58-0.035
		c0.152,0.013,0.322,0.065,0.51,0.158c0.352,0.164,0.527,0.703,0.527,1.617c0,5.04,0.223,12.586,0.668,22.641
		c0.445,10.055,0.668,17.602,0.668,22.641c0,0.422-0.182,0.751-0.545,0.984c-0.364,0.234-0.826,0.352-1.389,0.352
		s-1.09-0.146-1.582-0.439c-0.492-0.293-0.75-0.686-0.773-1.178c-0.258-4.781-0.387-10.664-0.387-17.648v-0.281l-0.035-2.074
		l-0.035-0.668v-0.07c-0.375,0.094-0.914,0.141-1.617,0.141l-4.465-0.668l-0.211,7.945v0.316l0.598,11.848
		c0,0.703-0.17,1.313-0.51,1.828c-0.34,0.516-0.838,0.773-1.494,0.773c-0.961,0-1.623-0.873-1.986-2.619
		c-0.364-1.745-0.545-4.131-0.545-7.154l0.211-10.969l0.035-4.113l0.141-4.219l-0.492-16.242c0-0.562,0.199-1.06,0.598-1.494
		c0.398-0.434,0.879-0.65,1.441-0.65C195.877,419.471,196.639,420.901,196.639,423.76z"/>
	<path fill="#E3DED2" d="M221.143,464.401l2.848-0.176c1.828,0,2.742,0.586,2.742,1.758c0,0.727-0.316,1.253-0.949,1.582
		c-0.633,0.328-1.348,0.492-2.145,0.492h-6.785c-0.61,0-1.131-0.211-1.564-0.633c-0.434-0.422-0.668-0.961-0.703-1.617
		c-0.035-0.655,0.012-1.477,0.141-2.461c0.128-0.984,0.193-1.77,0.193-2.355l-0.352-9.211l0.492-21.023l-0.387-6.082
		c0-3.397,1.007-5.098,3.023-5.098c0.562,0,1.09,0.176,1.582,0.527c0.188,0.023,0.638,0.065,1.354,0.123
		c0.715,0.059,1.341,0.136,1.881,0.229c0.539,0.094,1.125,0.224,1.758,0.387c1.359,0.375,2.039,1.02,2.039,1.934
		c0,0.984-0.703,1.735-2.109,2.25c-2.203-0.75-4.02-1.207-5.449-1.371c0.07,1.032,0.105,2.062,0.105,3.094l-0.316,10.336
		c0,0.048,0.07,0.422,0.211,1.125l2.566-0.105c2.32,0,3.48,0.656,3.48,1.969c0,0.703-0.206,1.324-0.615,1.863
		c-0.41,0.54-0.99,0.809-1.74,0.809c-0.75,0-1.406-0.211-1.969-0.633h-1.828c0.141,1.828,0.211,3.563,0.211,5.203l-0.316,13.043
		C218.542,463.053,219.408,464.401,221.143,464.401z"/>
	<path fill="#E3DED2" d="M249.268,455.471l-0.387,1.441c0,0.586,0.211,2.017,0.633,4.289c0.422,2.273,0.633,3.762,0.633,4.465v0.07
		c0,1.078-0.364,1.758-1.09,2.039c-1.008,0-1.793-0.164-2.355-0.492s-0.844-1.154-0.844-2.479c0-1.323-0.352-4.048-1.055-8.174
		l-2.215-0.211h-2.391c-0.54-0.233-1.489-0.352-2.848-0.352c0,0.048-0.03,0.357-0.088,0.932c-0.059,0.575-0.105,1.037-0.141,1.389
		s-0.094,0.874-0.176,1.564c-0.083,0.691-0.17,1.278-0.264,1.758c-0.094,0.48-0.211,1.043-0.352,1.688
		c-0.141,0.646-0.299,1.184-0.475,1.617c-0.176,0.435-0.369,0.85-0.58,1.248c-0.422,0.821-0.938,1.23-1.547,1.23
		c-0.61,0-1.155-0.182-1.635-0.545c-0.48-0.363-0.721-0.826-0.721-1.389c1.266-4.852,2.35-9.937,3.252-15.258
		c0.902-5.32,1.441-8.478,1.617-9.475c0.176-0.996,0.585-2.918,1.23-5.766c0.645-2.848,1.031-4.751,1.16-5.713
		c0.128-0.961,0.251-2.202,0.369-3.727c0.211-3.327,0.645-5.472,1.301-6.434h2.426c1.64,0,2.461,0.492,2.461,1.477
		c0,9.259,0.902,18.457,2.707,27.598c0.093,0.54,0.269,1.289,0.527,2.25C248.987,452.601,249.268,454.253,249.268,455.471z
		 M244.346,453.924c-0.141-0.703-0.211-1.84-0.211-3.41c0-1.569-0.1-3.475-0.299-5.713c-0.199-2.237-0.487-4.834-0.861-7.787
		c-0.375-2.953-0.633-5.085-0.773-6.398c-0.281,1.359-0.832,3.634-1.652,6.82c-1.665,6.633-2.52,11.742-2.566,15.328
		C238.803,453.304,240.924,453.691,244.346,453.924z"/>
	<path fill="#E3DED2" d="M259.92,445.803c-0.329,1.336-0.492,2.572-0.492,3.709c0,1.138,0.146,3.563,0.439,7.277
		c0.293,3.715,0.439,6.112,0.439,7.189c0,1.078-0.193,1.898-0.58,2.461s-0.826,0.844-1.318,0.844c-0.703,0-1.148-0.479-1.336-1.441
		c0.047-1.78,0.07-3.967,0.07-6.557c0-2.589-0.206-8.279-0.615-17.068c-0.41-8.789-0.615-15.351-0.615-19.688
		c0-2.272,0.796-3.41,2.391-3.41c2.508,0,4.617,0.656,6.328,1.969c1.71,1.313,2.566,3.188,2.566,5.625
		c0,3.282-0.258,5.836-0.773,7.664c-0.516,1.828-1.489,4.113-2.918,6.855c0.258,1.148,0.715,3.445,1.371,6.891
		c1.383,7.453,2.941,12.832,4.676,16.137c0.492,0.938,0.738,1.67,0.738,2.197s-0.146,0.972-0.439,1.336
		c-0.293,0.363-0.686,0.545-1.178,0.545c-1.57,0-3.012-2.613-4.324-7.84c-0.562-2.272-1.067-4.57-1.512-6.891
		c-1.266-6.351-2.074-9.926-2.426-10.723C260.413,443.496,260.249,444.467,259.92,445.803z M259.815,421.792l-0.246,1.02
		c0,1.969,0.047,4.812,0.141,8.525c0.093,3.715,0.141,6.416,0.141,8.104c1.125-0.585,2.033-2.114,2.725-4.588
		c0.691-2.473,1.037-4.364,1.037-5.678c0-1.312-0.035-2.279-0.105-2.9c-0.07-0.62-0.223-1.306-0.457-2.057
		C262.604,422.648,261.525,421.839,259.815,421.792z"/>
	<path fill="#E3DED2" d="M291.807,438.702l-0.141,3.621v3.938c0,4.759-0.211,7.969-0.633,9.633c-0.422,1.665-0.85,3.036-1.283,4.113
		c-0.434,1.078-0.955,2.039-1.564,2.883c-1.406,1.898-3.188,3.445-5.344,4.641h-4.922c-1.219,0-1.828-3.141-1.828-9.422
		l0.211-22.676c0-4.195-0.083-8.133-0.246-11.812c-0.399-0.469-0.598-1.024-0.598-1.67c0-0.645,0.269-1.207,0.809-1.688
		c0.539-0.479,1.189-0.721,1.951-0.721c0.761,0,1.412,0.422,1.951,1.266c0.352,0.141,0.873,0.27,1.564,0.387
		c0.691,0.118,1.201,0.259,1.529,0.422c2.672,1.243,4.764,3.44,6.275,6.592C291.051,431.36,291.807,434.858,291.807,438.702z
		 M280.03,430.37l0.809,31.781v1.723h1.301c2.508-3.046,4.125-5.836,4.852-8.367c0.68-2.367,1.02-5.672,1.02-9.914
		c0-14.484-2.484-22.055-7.453-22.711C280.206,424.78,280.03,427.276,280.03,430.37z"/>
	<path fill="#E3DED2" d="M325.416,455.471l-0.387,1.441c0,0.586,0.211,2.017,0.633,4.289c0.422,2.273,0.633,3.762,0.633,4.465v0.07
		c0,1.078-0.363,1.758-1.09,2.039c-1.008,0-1.793-0.164-2.355-0.492s-0.844-1.154-0.844-2.479c0-1.323-0.352-4.048-1.055-8.174
		l-2.215-0.211h-2.391c-0.539-0.233-1.488-0.352-2.848-0.352c0,0.048-0.029,0.357-0.088,0.932c-0.059,0.575-0.105,1.037-0.141,1.389
		s-0.094,0.874-0.176,1.564c-0.082,0.691-0.17,1.278-0.264,1.758c-0.094,0.48-0.211,1.043-0.352,1.688
		c-0.141,0.646-0.299,1.184-0.475,1.617c-0.176,0.435-0.369,0.85-0.58,1.248c-0.422,0.821-0.938,1.23-1.547,1.23
		s-1.154-0.182-1.635-0.545s-0.721-0.826-0.721-1.389c1.266-4.852,2.35-9.937,3.252-15.258c0.902-5.32,1.441-8.478,1.617-9.475
		c0.176-0.996,0.586-2.918,1.23-5.766s1.031-4.751,1.16-5.713c0.129-0.961,0.252-2.202,0.369-3.727
		c0.211-3.327,0.645-5.472,1.301-6.434h2.426c1.641,0,2.461,0.492,2.461,1.477c0,9.259,0.902,18.457,2.707,27.598
		c0.094,0.54,0.27,1.289,0.527,2.25C325.135,452.601,325.416,454.253,325.416,455.471z M320.494,453.924
		c-0.141-0.703-0.211-1.84-0.211-3.41c0-1.569-0.1-3.475-0.299-5.713c-0.199-2.237-0.486-4.834-0.861-7.787
		s-0.633-5.085-0.773-6.398c-0.281,1.359-0.832,3.634-1.652,6.82c-1.664,6.633-2.52,11.742-2.566,15.328
		C314.951,453.304,317.072,453.691,320.494,453.924z"/>
	<path fill="#E3DED2" d="M332.904,448.686l0.316-22.816c0-1.664-0.023-2.905-0.07-3.727v-0.668c0-1.991,0.68-2.988,2.039-2.988
		c1.078,0,2.532,0.305,4.36,0.914c1.828,0.61,2.742,1.324,2.742,2.145c0,1.078,0.357,2.654,1.072,4.729s1.072,3.639,1.072,4.693
		c0,3.258-0.234,5.607-0.703,7.049s-1.207,2.878-2.215,4.307c1.383,1.336,2.285,3.019,2.707,5.045
		c0.422,2.027,0.633,4.066,0.633,6.117c0,2.052-0.117,3.709-0.352,4.975s-0.621,2.474-1.16,3.621
		c-0.539,1.148-1.195,2.145-1.969,2.988c-1.711,1.828-4.02,2.742-6.927,2.742c-1.031,0-1.676-0.445-1.934-1.336
		c-0.211-0.655-0.316-1.477-0.316-2.461L332.904,448.686z M336.736,458.53c-0.305,0.516-0.457,1.313-0.457,2.391v3.234
		c1.548-0.374,2.72-1.33,3.517-2.865c0.797-1.534,1.195-2.958,1.195-4.271c0-1.312-0.018-2.36-0.053-3.146
		c-0.035-0.785-0.135-1.74-0.299-2.865s-0.387-2.109-0.668-2.953c-0.68-2.039-1.734-3.222-3.165-3.551
		c-0.188,2.766-0.281,5.648-0.281,8.648C336.525,456.152,336.596,457.945,336.736,458.53z M336.736,421.827v18.457
		c2.415-0.07,3.622-2.988,3.622-8.754c0-1.523-0.176-3.105-0.527-4.746C339.128,423.62,338.097,421.967,336.736,421.827z"/>
	<path fill="#E3DED2" d="M368.097,447.737c0,13.805-2.824,20.707-8.473,20.707c-5.203,0-8.121-6.539-8.754-19.617
		c-0.047-1.242-0.07-2.483-0.07-3.727l-0.035-4.395v-1.406c0-10.147,1.488-16.418,4.465-18.809c0.727-0.585,1.535-0.901,2.426-0.949
		c0.68,0.234,1.512,0.452,2.496,0.65c0.984,0.199,1.711,0.404,2.18,0.615c0.867,0.399,1.805,1.437,2.812,3.111
		c1.008,1.676,1.752,3.915,2.232,6.715c0.48,2.801,0.721,5.607,0.721,8.42V447.737z M354.737,430.792l0.105,4.219l-0.035,6.891
		c0,0.586,0.012,1.278,0.035,2.074c0.023,0.797,0.053,1.846,0.088,3.146s0.105,2.59,0.211,3.867
		c0.105,1.278,0.229,2.625,0.369,4.043c0.141,1.419,0.328,2.73,0.562,3.938c0.234,1.208,0.492,2.303,0.773,3.287
		c0.633,2.133,1.465,3.199,2.496,3.199c1.383,0,2.438-1.301,3.164-3.902c1.078-3.867,1.617-8.625,1.617-14.273l0.105-7.418
		c0-5.203-0.229-8.706-0.686-10.512c-0.457-1.805-0.885-3.164-1.283-4.078c-0.797-1.851-2.004-2.777-3.621-2.777
		c-0.047,0-0.094,0-0.141,0C355.991,422.495,354.737,425.26,354.737,430.792z"/>
	<path fill="#E3DED2" d="M392.003,435.01l0.07,1.23c-0.352,1.688-0.58,4.588-0.686,8.701s-0.311,7.431-0.615,9.949
		c-0.305,2.52-0.715,4.734-1.23,6.645c-0.516,1.911-1.342,3.498-2.479,4.764s-2.402,1.898-3.797,1.898s-2.537-0.252-3.428-0.756
		s-1.617-1.23-2.18-2.18s-1.031-1.969-1.406-3.059s-0.656-2.35-0.844-3.779c-0.328-2.508-0.492-5.155-0.492-7.945l0.387-18.984
		c0-4.148-0.293-7.581-0.879-10.301v-1.723c1.148,0,2.057,0.445,2.725,1.336c0.668,0.892,1.002,1.887,1.002,2.988v34.84
		c0,1.852,0.463,3.546,1.389,5.08c0.926,1.535,2.291,2.303,4.096,2.303c2.039,0,3.398-5.929,4.078-17.789v-0.316l0.035-0.457
		c0.609-10.828,0.914-19.594,0.914-26.297l-0.035-1.195c0-0.562,0.129-0.984,0.387-1.266s0.75-0.422,1.477-0.422
		s1.266,0.199,1.617,0.598c0.352,0.399,0.557,0.804,0.615,1.213c0.059,0.41,0.088,0.967,0.088,1.67l-0.492,7.242L392.003,435.01z"/>
	<path fill="#E3DED2" d="M405.925,460.428l0.141-2.461c-0.188-0.609-0.574-6.029-1.16-16.26s-0.902-16.471-0.949-18.721
		c-2.766-0.07-4.477-0.321-5.133-0.756c-0.656-0.434-0.984-0.884-0.984-1.354c0-0.469,0.258-0.849,0.773-1.143
		c0.516-0.293,1.02-0.439,1.512-0.439l9.773,0.668l1.16-0.035c1.5,0,2.25,0.575,2.25,1.723c0,0.586-0.246,1.061-0.738,1.424
		c-0.492,0.364-1.043,0.545-1.652,0.545l-3.305-0.492l-0.141,0.738c0,4.548,0.398,11.355,1.195,20.426s1.195,15.891,1.195,20.461
		c0,0.586-0.217,1.09-0.65,1.512s-0.943,0.633-1.529,0.633h-1.617L405.925,460.428z"/>
	<path fill="#E3DED2" d="M429.339,432.584l0.211-7.875c0-2.227-0.105-3.826-0.316-4.799c-0.211-0.972-0.475-1.898-0.791-2.777
		s-0.475-1.547-0.475-2.004s0.094-0.838,0.281-1.143c0.188-0.304,0.469-0.545,0.844-0.721s0.738-0.316,1.09-0.422
		s0.797-0.181,1.336-0.229c0.891-0.047,1.535-0.07,1.934-0.07h0.703c1.969,0,4.066,1.055,6.293,3.164
		c2.695,2.555,4.336,5.251,4.922,8.086c0.352,1.665,0.586,3.516,0.703,5.555s0.199,3.398,0.246,4.078
		c0.141,1.547,0.328,2.602,0.562,3.164v3.34c-0.258,0.445-0.387,1.173-0.387,2.18c0,3.634-0.832,7.606-2.496,11.918
		c-1.664,4.312-3.727,7.594-6.188,9.844c-1.828,1.665-3.064,2.649-3.709,2.953s-1.277,0.457-1.898,0.457s-1.295-0.205-2.021-0.615
		c-0.727-0.409-1.09-1.024-1.09-1.846c1.055-1.102,1.582-3.925,1.582-8.473c0-2.672-0.223-6.645-0.668-11.918
		S429.339,435.209,429.339,432.584z M434.12,456.209v6.891c3.727-2.624,6.34-7.511,7.84-14.66c0.75-3.656,1.125-7.44,1.125-11.355
		c0-13.477-3.328-20.215-9.984-20.215v0.07c0,4.453,0.164,11.045,0.492,19.775C433.921,445.447,434.097,451.944,434.12,456.209z"/>
	<path fill="#E3DED2" d="M470.12,455.471l-0.387,1.441c0,0.586,0.211,2.017,0.633,4.289c0.422,2.273,0.633,3.762,0.633,4.465v0.07
		c0,1.078-0.363,1.758-1.09,2.039c-1.008,0-1.793-0.164-2.355-0.492s-0.844-1.154-0.844-2.479c0-1.323-0.352-4.048-1.055-8.174
		l-2.215-0.211h-2.391c-0.539-0.233-1.488-0.352-2.848-0.352c0,0.048-0.029,0.357-0.088,0.932c-0.059,0.575-0.105,1.037-0.141,1.389
		s-0.094,0.874-0.176,1.564c-0.082,0.691-0.17,1.278-0.264,1.758c-0.094,0.48-0.211,1.043-0.352,1.688
		c-0.141,0.646-0.299,1.184-0.475,1.617c-0.176,0.435-0.369,0.85-0.58,1.248c-0.422,0.821-0.938,1.23-1.547,1.23
		s-1.154-0.182-1.635-0.545s-0.721-0.826-0.721-1.389c1.266-4.852,2.35-9.937,3.252-15.258c0.902-5.32,1.441-8.478,1.617-9.475
		c0.176-0.996,0.586-2.918,1.23-5.766s1.031-4.751,1.16-5.713c0.129-0.961,0.252-2.202,0.369-3.727
		c0.211-3.327,0.645-5.472,1.301-6.434h2.426c1.641,0,2.461,0.492,2.461,1.477c0,9.259,0.902,18.457,2.707,27.598
		c0.094,0.54,0.27,1.289,0.527,2.25C469.839,452.601,470.12,454.253,470.12,455.471z M465.198,453.924
		c-0.141-0.703-0.211-1.84-0.211-3.41c0-1.569-0.1-3.475-0.299-5.713c-0.199-2.237-0.486-4.834-0.861-7.787
		s-0.633-5.085-0.773-6.398c-0.281,1.359-0.832,3.634-1.652,6.82c-1.664,6.633-2.52,11.742-2.566,15.328
		C459.655,453.304,461.776,453.691,465.198,453.924z"/>
	<path fill="#E3DED2" d="M481.124,438.702l0.422,18.633v8.156c0,0.633-0.164,1.166-0.492,1.6s-0.785,0.65-1.371,0.65
		c-1.57,0-2.355-1.464-2.355-4.395l-0.141-25.383l0.422-13.43c0-3.234,0.879-4.852,2.637-4.852c1.055,0,1.816,0.809,2.285,2.426
		c0.656,3.094,1.799,7.541,3.428,13.342s2.748,10.213,3.357,13.236c0.445,1.477,1.02,3.662,1.723,6.557
		c0.703,2.896,1.254,5.068,1.652,6.521c0.188-10.406,0.281-23.015,0.281-37.828l-0.105-1.934c0-0.655,0.123-1.178,0.369-1.564
		s0.662-0.58,1.248-0.58s1.066,0.141,1.441,0.422c0.75,0.562,1.125,1.359,1.125,2.391c0,6.587-0.188,15.047-0.562,25.383
		s-0.938,16.793-1.688,19.371c-0.094,0.022-0.293,0.088-0.598,0.193s-0.527,0.17-0.668,0.193c-1.336,0.304-2.18,0.246-2.531-0.176
		s-0.604-0.984-0.756-1.688s-0.328-1.389-0.527-2.057s-0.943-3.861-2.232-9.58c-3.445-15.117-5.566-23.906-6.363-26.367V438.702z"/>
	<path fill="#E3DED2" d="M520.78,447.737c0,13.805-2.824,20.707-8.473,20.707c-5.203,0-8.121-6.539-8.754-19.617
		c-0.047-1.242-0.07-2.483-0.07-3.727l-0.035-4.395v-1.406c0-10.147,1.488-16.418,4.465-18.809c0.727-0.585,1.535-0.901,2.426-0.949
		c0.68,0.234,1.512,0.452,2.496,0.65c0.984,0.199,1.711,0.404,2.18,0.615c0.867,0.399,1.805,1.437,2.812,3.111
		c1.008,1.676,1.752,3.915,2.232,6.715c0.48,2.801,0.721,5.607,0.721,8.42V447.737z M507.421,430.792l0.105,4.219l-0.035,6.891
		c0,0.586,0.012,1.278,0.035,2.074c0.023,0.797,0.053,1.846,0.088,3.146s0.105,2.59,0.211,3.867
		c0.105,1.278,0.229,2.625,0.369,4.043c0.141,1.419,0.328,2.73,0.562,3.938c0.234,1.208,0.492,2.303,0.773,3.287
		c0.633,2.133,1.465,3.199,2.496,3.199c1.383,0,2.438-1.301,3.164-3.902c1.078-3.867,1.617-8.625,1.617-14.273l0.105-7.418
		c0-5.203-0.229-8.706-0.686-10.512c-0.457-1.805-0.885-3.164-1.283-4.078c-0.797-1.851-2.004-2.777-3.621-2.777
		c-0.047,0-0.094,0-0.141,0C508.675,422.495,507.421,425.26,507.421,430.792z"/>
	<path fill="#E3DED2" d="M531.679,438.702l0.422,18.633v8.156c0,0.633-0.164,1.166-0.492,1.6s-0.785,0.65-1.371,0.65
		c-1.57,0-2.355-1.464-2.355-4.395l-0.141-25.383l0.422-13.43c0-3.234,0.879-4.852,2.637-4.852c1.055,0,1.816,0.809,2.285,2.426
		c0.656,3.094,1.799,7.541,3.428,13.342s2.748,10.213,3.357,13.236c0.445,1.477,1.02,3.662,1.723,6.557
		c0.703,2.896,1.254,5.068,1.652,6.521c0.188-10.406,0.281-23.015,0.281-37.828l-0.105-1.934c0-0.655,0.123-1.178,0.369-1.564
		s0.662-0.58,1.248-0.58s1.066,0.141,1.441,0.422c0.75,0.562,1.125,1.359,1.125,2.391c0,6.587-0.188,15.047-0.562,25.383
		s-0.938,16.793-1.688,19.371c-0.094,0.022-0.293,0.088-0.598,0.193s-0.527,0.17-0.668,0.193c-1.336,0.304-2.18,0.246-2.531-0.176
		s-0.604-0.984-0.756-1.688s-0.328-1.389-0.527-2.057s-0.943-3.861-2.232-9.58c-3.445-15.117-5.566-23.906-6.363-26.367V438.702z"/>
	<path fill="#E3DED2" d="M561.456,464.401l2.848-0.176c1.828,0,2.742,0.586,2.742,1.758c0,0.727-0.316,1.253-0.949,1.582
		c-0.633,0.328-1.348,0.492-2.145,0.492h-6.785c-0.609,0-1.131-0.211-1.564-0.633s-0.668-0.961-0.703-1.617
		c-0.035-0.655,0.012-1.477,0.141-2.461s0.193-1.77,0.193-2.355l-0.352-9.211l0.492-21.023l-0.387-6.082
		c0-3.397,1.008-5.098,3.023-5.098c0.562,0,1.09,0.176,1.582,0.527c0.188,0.023,0.639,0.065,1.354,0.123
		c0.715,0.059,1.342,0.136,1.881,0.229c0.539,0.094,1.125,0.224,1.758,0.387c1.359,0.375,2.039,1.02,2.039,1.934
		c0,0.984-0.703,1.735-2.109,2.25c-2.203-0.75-4.02-1.207-5.449-1.371c0.07,1.032,0.105,2.062,0.105,3.094l-0.316,10.336
		c0,0.048,0.07,0.422,0.211,1.125l2.566-0.105c2.32,0,3.48,0.656,3.48,1.969c0,0.703-0.205,1.324-0.615,1.863
		c-0.41,0.54-0.99,0.809-1.74,0.809s-1.406-0.211-1.969-0.633h-1.828c0.141,1.828,0.211,3.563,0.211,5.203l-0.316,13.043
		C558.854,463.053,559.722,464.401,561.456,464.401z"/>
	<path fill="#E3DED2" d="M11.032,535.085l0.316-22.816c0-1.664-0.023-2.905-0.07-3.727v-0.668c0-1.991,0.68-2.988,2.039-2.988
		c1.078,0,2.531,0.305,4.359,0.914c1.828,0.61,2.742,1.324,2.742,2.145c0,1.078,0.357,2.654,1.072,4.729
		c0.715,2.074,1.072,3.639,1.072,4.693c0,3.258-0.234,5.607-0.703,7.049c-0.469,1.441-1.208,2.878-2.215,4.307
		c1.383,1.336,2.285,3.019,2.707,5.045c0.422,2.027,0.633,4.066,0.633,6.117c0,2.052-0.118,3.709-0.352,4.975
		c-0.234,1.266-0.621,2.474-1.16,3.621c-0.54,1.148-1.195,2.145-1.969,2.988c-1.711,1.828-4.02,2.742-6.926,2.742
		c-1.032,0-1.676-0.445-1.934-1.336c-0.211-0.655-0.316-1.477-0.316-2.461L11.032,535.085z M14.864,544.929
		c-0.305,0.516-0.457,1.313-0.457,2.391v3.234c1.547-0.374,2.719-1.33,3.516-2.865c0.796-1.534,1.195-2.958,1.195-4.271
		c0-1.312-0.018-2.36-0.053-3.146c-0.035-0.785-0.135-1.74-0.299-2.865c-0.164-1.125-0.387-2.109-0.668-2.953
		c-0.68-2.039-1.735-3.222-3.164-3.551c-0.188,2.766-0.281,5.648-0.281,8.648C14.653,542.551,14.723,544.344,14.864,544.929z
		 M14.864,508.226v18.457c2.414-0.07,3.621-2.988,3.621-8.754c0-1.523-0.176-3.105-0.527-4.746
		C17.254,510.019,16.223,508.367,14.864,508.226z"/>
	<path fill="#E3DED2" d="M46.61,521.41l0.07,1.23c-0.352,1.688-0.58,4.588-0.686,8.701s-0.311,7.431-0.615,9.949
		c-0.305,2.52-0.715,4.734-1.23,6.645c-0.516,1.911-1.342,3.498-2.479,4.764c-1.137,1.266-2.403,1.898-3.797,1.898
		c-1.395,0-2.537-0.252-3.428-0.756c-0.891-0.504-1.617-1.23-2.18-2.18s-1.032-1.969-1.406-3.059
		c-0.375-1.09-0.656-2.35-0.844-3.779c-0.329-2.508-0.492-5.155-0.492-7.945l0.387-18.984c0-4.148-0.293-7.581-0.879-10.301v-1.723
		c1.148,0,2.057,0.445,2.725,1.336c0.668,0.892,1.002,1.887,1.002,2.988v34.84c0,1.852,0.462,3.546,1.389,5.08
		c0.926,1.535,2.291,2.303,4.096,2.303c2.039,0,3.398-5.929,4.078-17.789v-0.316l0.035-0.457
		c0.609-10.828,0.914-19.594,0.914-26.297l-0.035-1.195c0-0.562,0.128-0.984,0.387-1.266c0.258-0.281,0.75-0.422,1.477-0.422
		c0.726,0,1.266,0.199,1.617,0.598c0.352,0.399,0.557,0.804,0.615,1.213c0.058,0.41,0.088,0.967,0.088,1.67l-0.492,7.242
		L46.61,521.41z"/>
	<path fill="#E3DED2" d="M60.532,546.828l0.141-2.461c-0.188-0.609-0.575-6.029-1.16-16.26c-0.586-10.23-0.902-16.471-0.949-18.721
		c-2.766-0.07-4.477-0.321-5.133-0.756c-0.656-0.434-0.984-0.884-0.984-1.354c0-0.469,0.258-0.849,0.773-1.143
		c0.515-0.293,1.02-0.439,1.512-0.439l9.773,0.668l1.16-0.035c1.5,0,2.25,0.575,2.25,1.723c0,0.586-0.246,1.061-0.738,1.424
		c-0.492,0.364-1.043,0.545-1.652,0.545l-3.305-0.492l-0.141,0.738c0,4.548,0.398,11.355,1.195,20.426
		c0.796,9.07,1.195,15.891,1.195,20.461c0,0.586-0.217,1.09-0.65,1.512c-0.434,0.422-0.944,0.633-1.529,0.633h-1.617L60.532,546.828
		z"/>
	<path fill="#E3DED2" d="M93.649,549.675c0,2.344-0.316,3.81-0.949,4.395c-0.329,0.281-0.838,0.422-1.529,0.422
		c-0.691,0-1.271-0.527-1.74-1.582c0.539-1.055,0.809-5.12,0.809-12.199c0-1.336-0.094-3.217-0.281-5.643
		c-0.188-2.426-0.293-4.061-0.316-4.904c-0.938-1.617-2.385-5.338-4.342-11.162c-1.957-5.823-2.936-9.416-2.936-10.775v-0.387
		l1.617-1.195c1.477,0.048,3.234,3.762,5.273,11.145c0.891,3.234,1.336,4.864,1.336,4.887c0.188-0.515,0.562-2.308,1.125-5.379
		c1.429-7.781,2.93-11.672,4.5-11.672c0.445,0,0.849,0.141,1.213,0.422c0.363,0.281,0.545,0.646,0.545,1.09
		c0,2.953-0.721,6.404-2.162,10.354c-1.441,3.95-2.162,7.448-2.162,10.494V549.675z"/>
	<path fill="#E3DED2" d="M120.754,534.136c0,13.805-2.825,20.707-8.473,20.707c-5.203,0-8.121-6.539-8.754-19.617
		c-0.047-1.242-0.07-2.483-0.07-3.727l-0.035-4.395v-1.406c0-10.147,1.488-16.418,4.465-18.809c0.726-0.585,1.535-0.901,2.426-0.949
		c0.68,0.234,1.512,0.452,2.496,0.65c0.984,0.199,1.71,0.404,2.18,0.615c0.867,0.399,1.805,1.437,2.812,3.111
		c1.007,1.676,1.752,3.915,2.232,6.715c0.48,2.801,0.721,5.607,0.721,8.42V534.136z M107.395,517.191l0.105,4.219l-0.035,6.891
		c0,0.586,0.012,1.278,0.035,2.074c0.023,0.797,0.053,1.846,0.088,3.146s0.105,2.59,0.211,3.867
		c0.105,1.278,0.229,2.625,0.369,4.043c0.141,1.419,0.328,2.73,0.562,3.938c0.234,1.208,0.492,2.303,0.773,3.287
		c0.633,2.133,1.464,3.199,2.496,3.199c1.383,0,2.438-1.301,3.164-3.902c1.078-3.867,1.617-8.625,1.617-14.273l0.105-7.418
		c0-5.203-0.229-8.706-0.686-10.512c-0.457-1.805-0.885-3.164-1.283-4.078c-0.797-1.851-2.004-2.777-3.621-2.777
		c-0.047,0-0.094,0-0.141,0C108.648,508.894,107.395,511.66,107.395,517.191z"/>
	<path fill="#E3DED2" d="M144.661,521.41l0.07,1.23c-0.352,1.688-0.58,4.588-0.686,8.701s-0.311,7.431-0.615,9.949
		c-0.305,2.52-0.715,4.734-1.23,6.645c-0.516,1.911-1.342,3.498-2.479,4.764c-1.137,1.266-2.403,1.898-3.797,1.898
		c-1.395,0-2.537-0.252-3.428-0.756c-0.891-0.504-1.617-1.23-2.18-2.18s-1.032-1.969-1.406-3.059
		c-0.375-1.09-0.656-2.35-0.844-3.779c-0.329-2.508-0.492-5.155-0.492-7.945l0.387-18.984c0-4.148-0.293-7.581-0.879-10.301v-1.723
		c1.148,0,2.057,0.445,2.725,1.336c0.668,0.892,1.002,1.887,1.002,2.988v34.84c0,1.852,0.462,3.546,1.389,5.08
		c0.926,1.535,2.291,2.303,4.096,2.303c2.039,0,3.398-5.929,4.078-17.789v-0.316l0.035-0.457
		c0.609-10.828,0.914-19.594,0.914-26.297l-0.035-1.195c0-0.562,0.128-0.984,0.387-1.266c0.258-0.281,0.75-0.422,1.477-0.422
		c0.726,0,1.266,0.199,1.617,0.598c0.352,0.399,0.557,0.804,0.615,1.213c0.058,0.41,0.088,0.967,0.088,1.67l-0.492,7.242
		L144.661,521.41z"/>
	<path fill="#E3DED2" d="M184.844,511.566c-0.352,2.32-0.551,4.043-0.598,5.168v5.273c0,9.821-0.621,17.661-1.863,23.52
		c-0.234,1.103-0.352,2.133-0.352,3.094c0,4.875-0.879,7.312-2.637,7.312c-0.867,0-1.43-0.621-1.688-1.863
		c-0.094-0.445-0.141-1.218-0.141-2.32c0-1.102-0.293-3.316-0.879-6.645c-0.234-1.429-0.434-2.883-0.598-4.359
		c-0.164-1.477-0.422-4.605-0.773-9.387s-0.703-8.438-1.055-10.969c-0.141,1.595-0.211,3.493-0.211,5.695
		c0,2.203-0.457,6.211-1.371,12.023c-0.422,2.812-0.68,4.576-0.773,5.291c-0.094,0.716-0.193,1.799-0.299,3.252
		c-0.105,1.454-0.381,3.152-0.826,5.098c-0.469,2.18-1.219,3.27-2.25,3.27c-1.43,0-2.414-2.051-2.953-6.152
		c-0.234-1.828-0.417-3.608-0.545-5.344c-0.129-1.734-0.223-3.463-0.281-5.186c-0.059-1.723-0.129-2.912-0.211-3.568
		c-0.083-0.655-0.329-2.314-0.738-4.975c-0.41-2.659-0.656-4.547-0.738-5.66c-0.083-1.112-0.158-2.536-0.229-4.271
		c-0.07-1.734-0.17-3.639-0.299-5.713c-0.129-2.074-0.639-4.107-1.529-6.1c0.398-0.844,1.09-1.266,2.074-1.266
		c1.547,0,2.32,1.74,2.32,5.221s0.504,8.789,1.512,15.926c1.007,7.137,1.57,12.346,1.688,15.627c0.07-0.469,0.234-1.559,0.492-3.27
		c0.258-1.71,0.434-2.888,0.527-3.533c0.093-0.645,0.234-1.705,0.422-3.182c0.188-1.477,0.316-2.666,0.387-3.568
		c0.07-0.901,0.141-1.963,0.211-3.182c0.07-1.218,0.105-2.479,0.105-3.779s0.141-3.415,0.422-6.346
		c0.281-2.93,0.445-4.839,0.492-5.73h1.934c0.539,0,0.996,0.153,1.371,0.457c0.375,0.305,0.562,0.738,0.562,1.301v0.598
		c1.195,4.548,2.156,11.238,2.883,20.074c0.328,4.031,0.633,7.137,0.914,9.316c0.796-6.702,1.195-14.637,1.195-23.801
		c0-1.218,0.181-3.023,0.545-5.414c0.363-2.391,0.545-4.195,0.545-5.414c-0.164-0.422-0.246-0.831-0.246-1.23
		c0-1.172,0.673-1.758,2.021-1.758c1.348,0,2.021,0.562,2.021,1.688C185.383,507.652,185.196,509.246,184.844,511.566z"/>
	<path fill="#E3DED2" d="M208.575,534.136c0,13.805-2.825,20.707-8.473,20.707c-5.203,0-8.121-6.539-8.754-19.617
		c-0.047-1.242-0.07-2.483-0.07-3.727l-0.035-4.395v-1.406c0-10.147,1.488-16.418,4.465-18.809c0.726-0.585,1.535-0.901,2.426-0.949
		c0.68,0.234,1.512,0.452,2.496,0.65c0.984,0.199,1.71,0.404,2.18,0.615c0.867,0.399,1.805,1.437,2.812,3.111
		c1.007,1.676,1.752,3.915,2.232,6.715c0.48,2.801,0.721,5.607,0.721,8.42V534.136z M195.215,517.191l0.105,4.219l-0.035,6.891
		c0,0.586,0.012,1.278,0.035,2.074c0.023,0.797,0.053,1.846,0.088,3.146s0.105,2.59,0.211,3.867
		c0.105,1.278,0.229,2.625,0.369,4.043c0.141,1.419,0.328,2.73,0.562,3.938c0.234,1.208,0.492,2.303,0.773,3.287
		c0.633,2.133,1.464,3.199,2.496,3.199c1.383,0,2.438-1.301,3.164-3.902c1.078-3.867,1.617-8.625,1.617-14.273l0.105-7.418
		c0-5.203-0.229-8.706-0.686-10.512c-0.457-1.805-0.885-3.164-1.283-4.078c-0.797-1.851-2.004-2.777-3.621-2.777
		c-0.047,0-0.094,0-0.141,0C196.469,508.894,195.215,511.66,195.215,517.191z"/>
	<path fill="#E3DED2" d="M219.473,525.101l0.422,18.633v8.156c0,0.633-0.164,1.166-0.492,1.6c-0.329,0.434-0.786,0.65-1.371,0.65
		c-1.57,0-2.355-1.464-2.355-4.395l-0.141-25.383l0.422-13.43c0-3.234,0.879-4.852,2.637-4.852c1.055,0,1.816,0.809,2.285,2.426
		c0.656,3.094,1.798,7.541,3.428,13.342c1.629,5.801,2.748,10.213,3.357,13.236c0.445,1.477,1.02,3.662,1.723,6.557
		c0.703,2.896,1.253,5.068,1.652,6.521c0.188-10.406,0.281-23.015,0.281-37.828l-0.105-1.934c0-0.655,0.123-1.178,0.369-1.564
		s0.662-0.58,1.248-0.58c0.585,0,1.066,0.141,1.441,0.422c0.75,0.562,1.125,1.359,1.125,2.391c0,6.587-0.188,15.047-0.562,25.383
		c-0.375,10.336-0.938,16.793-1.688,19.371c-0.094,0.023-0.293,0.088-0.598,0.193c-0.305,0.105-0.527,0.17-0.668,0.193
		c-1.336,0.305-2.18,0.246-2.531-0.176s-0.604-0.984-0.756-1.688c-0.153-0.703-0.329-1.389-0.527-2.057
		c-0.199-0.668-0.944-3.861-2.232-9.58c-3.445-15.117-5.567-23.906-6.363-26.367V525.101z"/>
	<path fill="#E3DED2" d="M258.461,525.101l-0.141,3.621v3.938c0,4.759-0.211,7.969-0.633,9.633c-0.422,1.665-0.85,3.036-1.283,4.113
		c-0.434,1.078-0.955,2.039-1.564,2.883c-1.406,1.898-3.188,3.445-5.344,4.641h-4.922c-1.219,0-1.828-3.141-1.828-9.422
		l0.211-22.676c0-4.195-0.083-8.133-0.246-11.812c-0.399-0.469-0.598-1.024-0.598-1.67c0-0.645,0.269-1.207,0.809-1.688
		c0.539-0.479,1.189-0.721,1.951-0.721c0.761,0,1.412,0.422,1.951,1.266c0.352,0.141,0.873,0.27,1.564,0.387
		c0.691,0.118,1.201,0.259,1.529,0.422c2.672,1.243,4.764,3.44,6.275,6.592C257.706,517.759,258.461,521.257,258.461,525.101z
		 M246.684,516.769l0.809,31.781v1.723h1.301c2.508-3.046,4.125-5.836,4.852-8.367c0.68-2.367,1.02-5.672,1.02-9.914
		c0-14.484-2.484-22.055-7.453-22.711C246.86,511.179,246.684,513.675,246.684,516.769z"/>
	<path fill="#E3DED2" d="M271.926,550.8l2.848-0.176c1.828,0,2.742,0.586,2.742,1.758c0,0.727-0.316,1.254-0.949,1.582
		s-1.348,0.492-2.145,0.492h-6.785c-0.61,0-1.131-0.211-1.564-0.633c-0.434-0.422-0.668-0.961-0.703-1.617
		c-0.035-0.655,0.012-1.477,0.141-2.461c0.128-0.984,0.193-1.77,0.193-2.355l-0.352-9.211l0.492-21.023l-0.387-6.082
		c0-3.397,1.007-5.098,3.023-5.098c0.562,0,1.09,0.176,1.582,0.527c0.188,0.023,0.638,0.065,1.354,0.123
		c0.715,0.059,1.341,0.136,1.881,0.229c0.539,0.094,1.125,0.224,1.758,0.387c1.359,0.375,2.039,1.02,2.039,1.934
		c0,0.984-0.703,1.735-2.109,2.25c-2.203-0.75-4.02-1.207-5.449-1.371c0.07,1.032,0.105,2.062,0.105,3.094l-0.316,10.336
		c0,0.048,0.07,0.422,0.211,1.125l2.566-0.105c2.32,0,3.48,0.656,3.48,1.969c0,0.703-0.206,1.324-0.615,1.863
		c-0.41,0.54-0.99,0.809-1.74,0.809c-0.75,0-1.406-0.211-1.969-0.633h-1.828c0.141,1.828,0.211,3.563,0.211,5.203l-0.316,13.043
		C269.325,549.453,270.191,550.8,271.926,550.8z"/>
	<path fill="#E3DED2" d="M287.008,532.203c-0.329,1.336-0.492,2.572-0.492,3.709c0,1.138,0.146,3.563,0.439,7.277
		c0.293,3.715,0.439,6.112,0.439,7.189c0,1.078-0.193,1.898-0.58,2.461s-0.826,0.844-1.318,0.844c-0.703,0-1.148-0.479-1.336-1.441
		c0.047-1.78,0.07-3.967,0.07-6.557c0-2.589-0.206-8.279-0.615-17.068c-0.41-8.789-0.615-15.351-0.615-19.688
		c0-2.272,0.796-3.41,2.391-3.41c2.508,0,4.617,0.656,6.328,1.969c1.71,1.313,2.566,3.188,2.566,5.625
		c0,3.282-0.258,5.836-0.773,7.664c-0.516,1.828-1.489,4.113-2.918,6.855c0.258,1.148,0.715,3.445,1.371,6.891
		c1.383,7.453,2.941,12.832,4.676,16.137c0.492,0.938,0.738,1.67,0.738,2.197s-0.146,0.973-0.439,1.336
		c-0.293,0.363-0.686,0.545-1.178,0.545c-1.57,0-3.012-2.613-4.324-7.84c-0.562-2.272-1.067-4.57-1.512-6.891
		c-1.266-6.351-2.074-9.926-2.426-10.723C287.5,529.895,287.336,530.867,287.008,532.203z M286.903,508.191l-0.246,1.02
		c0,1.969,0.047,4.812,0.141,8.525c0.093,3.715,0.141,6.416,0.141,8.104c1.125-0.585,2.033-2.114,2.725-4.588
		c0.691-2.473,1.037-4.364,1.037-5.678c0-1.312-0.035-2.279-0.105-2.9c-0.07-0.62-0.223-1.306-0.457-2.057
		C289.692,509.047,288.613,508.239,286.903,508.191z"/>
	<path fill="#E3DED2" d="M317.418,510.16l-0.281,17.965c0.844,0.234,2.109,0.352,3.797,0.352h2.742v-1.512
		c0-2.202-0.164-5.514-0.492-9.932c-0.328-4.417-0.492-7.729-0.492-9.932c0-0.539,0.205-0.989,0.615-1.354
		c0.41-0.363,0.773-0.545,1.09-0.545s0.592-0.018,0.826-0.053s0.428-0.047,0.58-0.035c0.152,0.013,0.322,0.065,0.51,0.158
		c0.352,0.164,0.527,0.703,0.527,1.617c0,5.04,0.223,12.586,0.668,22.641s0.668,17.602,0.668,22.641
		c0,0.422-0.182,0.751-0.545,0.984c-0.363,0.234-0.826,0.352-1.389,0.352s-1.09-0.146-1.582-0.439
		c-0.492-0.293-0.75-0.686-0.773-1.178c-0.258-4.781-0.387-10.664-0.387-17.648v-0.281l-0.035-2.074l-0.035-0.668v-0.07
		c-0.375,0.094-0.914,0.141-1.617,0.141l-4.465-0.668l-0.211,7.945v0.316l0.598,11.848c0,0.703-0.17,1.313-0.51,1.828
		c-0.34,0.516-0.838,0.773-1.494,0.773c-0.961,0-1.623-0.873-1.986-2.619c-0.363-1.745-0.545-4.131-0.545-7.154l0.211-10.969
		l0.035-4.113l0.141-4.219l-0.492-16.242c0-0.562,0.199-1.06,0.598-1.494c0.398-0.434,0.879-0.65,1.441-0.65
		C316.656,505.871,317.418,507.3,317.418,510.16z"/>
	<path fill="#E3DED2" d="M351.802,534.136c0,13.805-2.824,20.707-8.473,20.707c-5.203,0-8.122-6.539-8.755-19.617
		c-0.047-1.242-0.07-2.483-0.07-3.727l-0.035-4.395v-1.406c0-10.147,1.488-16.418,4.466-18.809c0.727-0.585,1.535-0.901,2.426-0.949
		c0.68,0.234,1.512,0.452,2.496,0.65c0.984,0.199,1.711,0.404,2.18,0.615c0.867,0.399,1.805,1.437,2.812,3.111
		c1.008,1.676,1.752,3.915,2.232,6.715c0.48,2.801,0.721,5.607,0.721,8.42V534.136z M338.442,517.191l0.105,4.219l-0.035,6.891
		c0,0.586,0.012,1.278,0.035,2.074c0.023,0.797,0.053,1.846,0.088,3.146s0.105,2.59,0.211,3.867
		c0.105,1.278,0.229,2.625,0.369,4.043c0.141,1.419,0.328,2.73,0.562,3.938c0.234,1.208,0.492,2.303,0.773,3.287
		c0.633,2.133,1.465,3.199,2.496,3.199c1.383,0,2.438-1.301,3.164-3.902c1.078-3.867,1.617-8.625,1.617-14.273l0.105-7.418
		c0-5.203-0.229-8.706-0.686-10.512c-0.457-1.805-0.885-3.164-1.283-4.078c-0.797-1.851-2.004-2.777-3.621-2.777
		c-0.047,0-0.094,0-0.141,0C339.696,508.894,338.442,511.66,338.442,517.191z"/>
	<path fill="#E3DED2" d="M381.157,511.566c-0.352,2.32-0.551,4.043-0.598,5.168v5.273c0,9.821-0.621,17.661-1.863,23.52
		c-0.234,1.103-0.352,2.133-0.352,3.094c0,4.875-0.879,7.312-2.637,7.312c-0.867,0-1.43-0.621-1.688-1.863
		c-0.094-0.445-0.141-1.218-0.141-2.32c0-1.102-0.293-3.316-0.879-6.645c-0.234-1.429-0.434-2.883-0.598-4.359
		s-0.422-4.605-0.773-9.387s-0.703-8.438-1.055-10.969c-0.141,1.595-0.211,3.493-0.211,5.695c0,2.203-0.457,6.211-1.371,12.023
		c-0.422,2.812-0.68,4.576-0.773,5.291c-0.094,0.716-0.193,1.799-0.299,3.252c-0.105,1.454-0.381,3.152-0.826,5.098
		c-0.469,2.18-1.219,3.27-2.25,3.27c-1.43,0-2.414-2.051-2.953-6.152c-0.234-1.828-0.416-3.608-0.545-5.344
		c-0.129-1.734-0.223-3.463-0.281-5.186s-0.129-2.912-0.211-3.568c-0.082-0.655-0.328-2.314-0.738-4.975
		c-0.41-2.659-0.656-4.547-0.738-5.66c-0.082-1.112-0.158-2.536-0.229-4.271c-0.07-1.734-0.17-3.639-0.299-5.713
		s-0.639-4.107-1.529-6.1c0.398-0.844,1.09-1.266,2.074-1.266c1.547,0,2.32,1.74,2.32,5.221s0.504,8.789,1.512,15.926
		s1.57,12.346,1.688,15.627c0.07-0.469,0.234-1.559,0.492-3.27c0.258-1.71,0.434-2.888,0.527-3.533
		c0.094-0.645,0.234-1.705,0.422-3.182s0.316-2.666,0.387-3.568c0.07-0.901,0.141-1.963,0.211-3.182
		c0.07-1.218,0.105-2.479,0.105-3.779s0.141-3.415,0.422-6.346c0.281-2.93,0.445-4.839,0.492-5.73h1.934
		c0.539,0,0.996,0.153,1.371,0.457c0.375,0.305,0.562,0.738,0.562,1.301v0.598c1.195,4.548,2.156,11.238,2.883,20.074
		c0.328,4.031,0.633,7.137,0.914,9.316c0.797-6.702,1.195-14.637,1.195-23.801c0-1.218,0.182-3.023,0.545-5.414
		s0.545-4.195,0.545-5.414c-0.164-0.422-0.246-0.831-0.246-1.23c0-1.172,0.674-1.758,2.021-1.758s2.021,0.562,2.021,1.688
		C381.696,507.652,381.509,509.246,381.157,511.566z"/>
	<path fill="#E3DED2" d="M407.595,552.699l-2.707,0.035l-3.129,0.141c-1.336,0-2.227-0.434-2.672-1.301
		c0-0.703,0.088-1.248,0.264-1.635s0.545-0.58,1.107-0.58h2.039l0.141-0.949l-0.492-15.293l0.387-16.031
		c0-2.694-0.117-5.25-0.352-7.664c-1.008,0-1.939,0-2.795,0s-1.482-0.135-1.881-0.404c-0.398-0.269-0.598-0.778-0.598-1.529
		c0-1.125,1.301-1.675,3.902-1.652h0.246c6.164,0,9.246,0.821,9.246,2.461c0,0.259-0.141,0.703-0.422,1.336h-3.691
		c0.188,1.758,0.281,3.82,0.281,6.188l-0.387,13.746l0.527,15.293v2.145c0,0.422-0.082,1.067-0.246,1.934h3.059
		c1.969,0,2.953,0.598,2.953,1.793c0,0.54-0.17,0.997-0.51,1.371c-0.34,0.375-0.721,0.562-1.143,0.562L407.595,552.699z"/>
	<path fill="#E3DED2" d="M424.224,546.828l0.141-2.461c-0.188-0.609-0.574-6.029-1.16-16.26s-0.902-16.471-0.949-18.721
		c-2.766-0.07-4.477-0.321-5.133-0.756c-0.656-0.434-0.984-0.884-0.984-1.354c0-0.469,0.258-0.849,0.773-1.143
		c0.516-0.293,1.02-0.439,1.512-0.439l9.773,0.668l1.16-0.035c1.5,0,2.25,0.575,2.25,1.723c0,0.586-0.246,1.061-0.738,1.424
		c-0.492,0.364-1.043,0.545-1.652,0.545l-3.305-0.492l-0.141,0.738c0,4.548,0.398,11.355,1.195,20.426s1.195,15.891,1.195,20.461
		c0,0.586-0.217,1.09-0.65,1.512s-0.943,0.633-1.529,0.633h-1.617L424.224,546.828z"/>
	<path fill="#E3DED2" d="M456.567,552.699l-2.707,0.035l-3.129,0.141c-1.336,0-2.227-0.434-2.672-1.301
		c0-0.703,0.088-1.248,0.264-1.635s0.545-0.58,1.107-0.58h2.039l0.141-0.949l-0.492-15.293l0.387-16.031
		c0-2.694-0.117-5.25-0.352-7.664c-1.008,0-1.939,0-2.795,0s-1.482-0.135-1.881-0.404c-0.398-0.269-0.598-0.778-0.598-1.529
		c0-1.125,1.301-1.675,3.902-1.652h0.246c6.164,0,9.246,0.821,9.246,2.461c0,0.259-0.141,0.703-0.422,1.336h-3.691
		c0.188,1.758,0.281,3.82,0.281,6.188l-0.387,13.746l0.527,15.293v2.145c0,0.422-0.082,1.067-0.246,1.934h3.059
		c1.969,0,2.953,0.598,2.953,1.793c0,0.54-0.17,0.997-0.51,1.371c-0.34,0.375-0.721,0.562-1.143,0.562L456.567,552.699z"/>
	<path fill="#E3DED2" d="M466.024,550.484l3.797,0.527c0.914,0,1.711-0.398,2.391-1.195c0.68-0.796,1.184-1.793,1.512-2.988
		c0.633-2.297,0.949-4.329,0.949-6.1c0-1.77-0.293-3.521-0.879-5.256c-0.586-1.734-1.301-3.345-2.145-4.834
		c-0.844-1.488-1.699-3.006-2.566-4.553c-2.016-3.633-3.023-7.219-3.023-10.758c0-2.156,0.363-4.065,1.09-5.73
		c1.359-3.094,3.164-4.641,5.414-4.641c0.844,0,1.646,0.27,2.408,0.809c0.762,0.54,1.143,1.125,1.143,1.758
		c0,1.103-0.586,1.652-1.758,1.652c-0.516,0-1.02-0.141-1.512-0.422c-1.523,0.07-2.555,1.771-3.094,5.098
		c-0.117,0.727-0.176,1.577-0.176,2.549c0,0.973,0.211,2.175,0.633,3.604c0.422,1.43,0.955,2.702,1.6,3.814
		c0.645,1.113,1.336,2.344,2.074,3.691c0.738,1.349,1.436,2.654,2.092,3.92c1.477,2.931,2.215,6.281,2.215,10.055
		c0,3.001-0.598,5.778-1.793,8.332c-0.633,1.313-1.529,2.386-2.689,3.217c-1.16,0.832-2.502,1.26-4.025,1.283v0.176
		c-0.891-0.117-1.699-0.416-2.426-0.896c-0.727-0.479-1.137-1.107-1.23-1.881V550.484z"/>
	<path fill="#E3DED2" d="M503.712,552.699l-2.707,0.035l-3.129,0.141c-1.336,0-2.227-0.434-2.672-1.301
		c0-0.703,0.088-1.248,0.264-1.635s0.545-0.58,1.107-0.58h2.039l0.141-0.949l-0.492-15.293l0.387-16.031
		c0-2.694-0.117-5.25-0.352-7.664c-1.008,0-1.939,0-2.795,0s-1.482-0.135-1.881-0.404c-0.398-0.269-0.598-0.778-0.598-1.529
		c0-1.125,1.301-1.675,3.902-1.652h0.246c6.164,0,9.246,0.821,9.246,2.461c0,0.259-0.141,0.703-0.422,1.336h-3.691
		c0.188,1.758,0.281,3.82,0.281,6.188l-0.387,13.746l0.527,15.293v2.145c0,0.422-0.082,1.067-0.246,1.934h3.059
		c1.969,0,2.953,0.598,2.953,1.793c0,0.54-0.17,0.997-0.51,1.371c-0.34,0.375-0.721,0.562-1.143,0.562L503.712,552.699z"/>
	<path fill="#E3DED2" d="M517.95,525.101l0.422,18.633v8.156c0,0.633-0.164,1.166-0.492,1.6s-0.785,0.65-1.371,0.65
		c-1.57,0-2.355-1.464-2.355-4.395l-0.141-25.383l0.422-13.43c0-3.234,0.879-4.852,2.637-4.852c1.055,0,1.816,0.809,2.285,2.426
		c0.656,3.094,1.799,7.541,3.428,13.342s2.748,10.213,3.357,13.236c0.445,1.477,1.02,3.662,1.723,6.557
		c0.703,2.896,1.254,5.068,1.652,6.521c0.188-10.406,0.281-23.015,0.281-37.828l-0.105-1.934c0-0.655,0.123-1.178,0.369-1.564
		s0.662-0.58,1.248-0.58s1.066,0.141,1.441,0.422c0.75,0.562,1.125,1.359,1.125,2.391c0,6.587-0.188,15.047-0.562,25.383
		s-0.938,16.793-1.688,19.371c-0.094,0.023-0.293,0.088-0.598,0.193s-0.527,0.17-0.668,0.193c-1.336,0.305-2.18,0.246-2.531-0.176
		s-0.604-0.984-0.756-1.688s-0.328-1.389-0.527-2.057s-0.943-3.861-2.232-9.58c-3.445-15.117-5.566-23.906-6.363-26.367V525.101z"/>
	<path fill="#E3DED2" d="M540.204,550.484l3.797,0.527c0.914,0,1.711-0.398,2.391-1.195c0.68-0.796,1.184-1.793,1.512-2.988
		c0.633-2.297,0.949-4.329,0.949-6.1c0-1.77-0.293-3.521-0.879-5.256c-0.586-1.734-1.301-3.345-2.145-4.834
		c-0.844-1.488-1.699-3.006-2.566-4.553c-2.016-3.633-3.023-7.219-3.023-10.758c0-2.156,0.363-4.065,1.09-5.73
		c1.359-3.094,3.164-4.641,5.414-4.641c0.844,0,1.646,0.27,2.408,0.809c0.762,0.54,1.143,1.125,1.143,1.758
		c0,1.103-0.586,1.652-1.758,1.652c-0.516,0-1.02-0.141-1.512-0.422c-1.523,0.07-2.555,1.771-3.094,5.098
		c-0.117,0.727-0.176,1.577-0.176,2.549c0,0.973,0.211,2.175,0.633,3.604c0.422,1.43,0.955,2.702,1.6,3.814
		c0.645,1.113,1.336,2.344,2.074,3.691c0.738,1.349,1.436,2.654,2.092,3.92c1.477,2.931,2.215,6.281,2.215,10.055
		c0,3.001-0.598,5.778-1.793,8.332c-0.633,1.313-1.529,2.386-2.689,3.217c-1.16,0.832-2.502,1.26-4.025,1.283v0.176
		c-0.891-0.117-1.699-0.416-2.426-0.896c-0.727-0.479-1.137-1.107-1.23-1.881V550.484z"/>
	<path fill="#E3DED2" d="M567.696,552.699l-2.707,0.035l-3.129,0.141c-1.336,0-2.227-0.434-2.672-1.301
		c0-0.703,0.088-1.248,0.264-1.635s0.545-0.58,1.107-0.58h2.039l0.141-0.949l-0.492-15.293l0.387-16.031
		c0-2.694-0.117-5.25-0.352-7.664c-1.008,0-1.939,0-2.795,0s-1.482-0.135-1.881-0.404c-0.398-0.269-0.598-0.778-0.598-1.529
		c0-1.125,1.301-1.675,3.902-1.652h0.246c6.164,0,9.246,0.821,9.246,2.461c0,0.259-0.141,0.703-0.422,1.336h-3.691
		c0.188,1.758,0.281,3.82,0.281,6.188l-0.387,13.746l0.527,15.293v2.145c0,0.422-0.082,1.067-0.246,1.934h3.059
		c1.969,0,2.953,0.598,2.953,1.793c0,0.54-0.17,0.997-0.51,1.371c-0.34,0.375-0.721,0.562-1.143,0.562L567.696,552.699z"/>
	<path fill="#E3DED2" d="M593.888,525.101l-0.141,3.621v3.938c0,4.759-0.211,7.969-0.633,9.633c-0.422,1.665-0.85,3.036-1.283,4.113
		c-0.434,1.078-0.955,2.039-1.564,2.883c-1.406,1.898-3.188,3.445-5.344,4.641h-4.922c-1.219,0-1.828-3.141-1.828-9.422
		l0.211-22.676c0-4.195-0.082-8.133-0.246-11.812c-0.398-0.469-0.598-1.024-0.598-1.67c0-0.645,0.27-1.207,0.809-1.688
		c0.539-0.479,1.189-0.721,1.951-0.721s1.412,0.422,1.951,1.266c0.352,0.141,0.873,0.27,1.564,0.387
		c0.691,0.118,1.201,0.259,1.529,0.422c2.672,1.243,4.764,3.44,6.275,6.592C593.132,517.759,593.888,521.257,593.888,525.101z
		 M582.11,516.769l0.809,31.781v1.723h1.301c2.508-3.046,4.125-5.836,4.852-8.367c0.68-2.367,1.02-5.672,1.02-9.914
		c0-14.484-2.484-22.055-7.453-22.711C582.286,511.179,582.11,513.675,582.11,516.769z"/>
	<path fill="#E3DED2" d="M607.353,550.8l2.848-0.176c1.828,0,2.742,0.586,2.742,1.758c0,0.727-0.316,1.254-0.949,1.582
		s-1.348,0.492-2.145,0.492h-6.785c-0.609,0-1.131-0.211-1.564-0.633s-0.668-0.961-0.703-1.617
		c-0.035-0.655,0.012-1.477,0.141-2.461s0.193-1.77,0.193-2.355l-0.352-9.211l0.492-21.023l-0.387-6.082
		c0-3.397,1.008-5.098,3.023-5.098c0.562,0,1.09,0.176,1.582,0.527c0.188,0.023,0.639,0.065,1.354,0.123
		c0.715,0.059,1.342,0.136,1.881,0.229c0.539,0.094,1.125,0.224,1.758,0.387c1.359,0.375,2.039,1.02,2.039,1.934
		c0,0.984-0.703,1.735-2.109,2.25c-2.203-0.75-4.02-1.207-5.449-1.371c0.07,1.032,0.105,2.062,0.105,3.094l-0.316,10.336
		c0,0.048,0.07,0.422,0.211,1.125l2.566-0.105c2.32,0,3.48,0.656,3.48,1.969c0,0.703-0.205,1.324-0.615,1.863
		c-0.41,0.54-0.99,0.809-1.74,0.809s-1.406-0.211-1.969-0.633h-1.828c0.141,1.828,0.211,3.563,0.211,5.203l-0.316,13.043
		C604.751,549.453,605.618,550.8,607.353,550.8z"/>
</g>
<g>
	<g>
		<path fill="#E3DED2" d="M625.338,507.582c-6.315-6.88,0.624-13.733,8.501-11.521c6.713,1.885,5.582,11.527,4.636,16.566
			c-1.951,10.386-7.821,19.994-8.971,30.492c-0.211,1.922,2.792,1.901,3,0c0.854-7.79,4.871-15.438,7.136-22.889
			c1.942-6.394,4.381-15.199,1.097-21.587c-3.143-6.113-9.974-7.281-15.922-4.594c-7.103,3.209-6.074,10.777-1.598,15.653
			C624.527,511.13,626.644,509.003,625.338,507.582L625.338,507.582z"/>
	</g>
</g>
<g>
	<g>
		<path fill="#E3DED2" d="M630.164,555.549c1.935,0,1.935-3,0-3S628.229,555.549,630.164,555.549L630.164,555.549z"/>
	</g>
</g>
<g>
	<circle fill="#3F5E8E" cx="321.175" cy="176.83" r="176.829"/>
	<path fill-rule="evenodd" clip-rule="evenodd" fill="#36547F" d="M429.799,267.532c-6.51-9.478-7.66-5.437-13.734-14.633
		c-4.252-6.439-2.365-15.317,4.791-22.546c0,2.6,0,4.68,0,6.759c0.377,0.264,0.756,0.528,1.133,0.791
		c2.203-2.388,4.406-4.773,6.607-7.163c13.1-14.207,25.682-28.913,31.771-47.615c2.605-7.998,3.422-16.676,4.279-25.123
		c1.045-10.325-4.381-17.705-12.318-23.645c-1.551-1.159-3.301-2.841-3.729-4.584c-6.586-26.875-26.896-37.951-51.131-43.922
		c-10.953-2.697-22.324-3.696-33.506-5.465c-0.195,0.487-0.391,0.974-0.586,1.461c4.006,2.833,8.008,5.666,13.057,9.236
		c-11.975,0-22.604,0-33.232,0c-0.102,0.532-0.203,1.063-0.305,1.594c3.494,1.375,6.992,2.751,11.9,4.683
		c-16.131,3.846-31.002,7.426-41.449,21.171c3.258,0.267,5.584,0.457,8.562,0.7c-1.654,3.335-3.512,6.051-4.383,9.054
		c-1.518,5.231-3.262,10.616-3.383,15.973c-0.16,7.06-3.037,12.04-8.504,15.814c-3.754,2.594-7.783,4.787-11.659,7.209
		c-4.64,2.898-5.52,5.704-1.863,9.683c3.18,3.461,3.538,6.372,0.906,9.948c-3.332,4.533,0.802,6.348,3.608,9.132
		c-4.615,2.271-3.884,4.755-1.74,8.878c1.554,2.989,0.604,7.779-0.353,11.477c-2.465,9.505-1.348,12.283,8.137,15.234
		c3.977,1.239,8.176,1.801,12.299,2.535c6.457,1.154,11.596,4.354,13.898,10.539c2.436,6.539,4.812,13.279,5.807,20.137
		c1.047,7.208-2.152,11.125-9.137,13.951c-3.521,1.428-7.129,2.659-10.742,3.837c-19.897,6.479-34.926,18.257-42.231,38.529
		c-0.256,0.711-0.629,1.388-1.007,2.046c-0.179,0.316-0.494,0.555-0.752,0.824c-54.538-13.407-109.382-66.457-116.926-138.307
		c-8.685-82.71,42.946-150.472,112.231-172.12c80.071-25.019,162.688,18.491,188.844,89.256
		C480.309,171.432,474.871,223.237,429.799,267.532z M237.254,145.862c0.335-0.125,0.669-0.251,1.003-0.375
		c-1.086-9.374-2.068-18.762-3.318-28.113c-0.387-2.893,0.151-4.512,3.066-5.687c4.844-1.95,9.483-4.408,15.298-7.169
		c-5.153-1.943-8.927-3.974-12.94-4.736c-6.285-1.195-7.092-4.835-6.203-10.199c1.064-6.423,1.734-12.911,2.576-19.371
		c-5.824,5.596-10.52,11.492-14.876,17.628c-2.017,2.84-3.714,3.709-6.964,1.75c-3.399-2.05-7.206-3.422-12.169-5.705
		c2.395,4.913,3.632,8.628,5.81,11.671c4.438,6.205,3.328,11.698-0.43,17.731c-3.308,5.313-5.773,11.148-8.611,16.754
		c0.294,0.178,0.588,0.356,0.883,0.535c5.889-3.753,11.777-7.504,17.898-11.406C224.781,128.318,231.017,137.089,237.254,145.862z"
		/>
	<path fill-rule="evenodd" clip-rule="evenodd" fill="#4D6E96" d="M428.014,276.576c-6.51-9.477-12.875-18.48-18.949-27.676
		c-4.252-6.439-2.365-15.318,4.791-22.547c0,2.6,0,4.68,0,6.76c0.377,0.264,0.756,0.527,1.133,0.791
		c2.203-2.389,4.406-4.773,6.607-7.164c13.1-14.207,25.682-28.912,31.771-47.615c2.605-7.998,3.422-16.676,4.279-25.123
		c1.045-10.325-4.381-17.705-12.318-23.645c-1.551-1.159-3.301-2.841-3.729-4.585c-6.586-26.875-26.896-37.951-51.131-43.922
		c-10.953-2.697-22.324-3.696-33.506-5.465c-0.195,0.487-0.391,0.974-0.586,1.461c4.006,2.833,8.008,5.666,13.057,9.236
		c-11.975,0-22.604,0-33.232,0c-0.102,0.531-0.201,1.062-0.305,1.594c3.496,1.375,6.994,2.751,11.9,4.683
		c-16.129,3.847-31,7.426-41.449,21.171c3.258,0.268,5.584,0.457,8.564,0.7c-1.656,3.335-3.514,6.052-4.385,9.054
		c-1.518,5.231-3.262,10.617-3.383,15.973c-0.16,7.061-3.037,12.041-8.504,15.814c-3.754,2.595-7.784,4.788-11.659,7.209
		c-4.64,2.898-5.52,5.705-1.863,9.684c3.18,3.461,3.538,6.371,0.906,9.947c-3.332,4.533,0.802,6.348,3.608,9.133
		c-4.615,2.271-3.884,4.754-1.74,8.877c1.554,2.99,0.604,7.779-0.353,11.477c-2.465,9.506-1.348,12.283,8.137,15.234
		c3.977,1.24,8.176,1.801,12.299,2.535c6.457,1.154,11.596,4.355,13.9,10.539c2.436,6.539,4.811,13.279,5.807,20.137
		c1.047,7.209-2.154,11.125-9.139,13.951c-3.521,1.428-7.129,2.66-10.742,3.838c-19.897,6.479-34.926,18.256-42.231,38.529
		c-0.256,0.711-0.629,1.387-1.007,2.045c-0.179,0.316-0.494,0.555-0.752,0.824c-54.538-13.406-109.382-66.457-116.926-138.307
		c-8.685-82.71,42.946-150.472,112.231-172.12c80.071-25.019,159.975,13.062,195.315,79.719
		C489.33,155.144,473.086,232.281,428.014,276.576z M230.254,141.862c0.335-0.126,0.669-0.252,1.003-0.375
		c-1.086-9.374-2.068-18.762-3.318-28.113c-0.387-2.893,0.151-4.512,3.066-5.686c4.844-1.95,9.483-4.408,15.298-7.17
		c-5.153-1.943-8.927-3.973-12.94-4.735c-6.285-1.194-7.092-4.835-6.203-10.199c1.064-6.423,1.734-12.911,2.576-19.371
		c-5.824,5.596-10.52,11.492-14.876,17.628c-2.017,2.84-3.714,3.71-6.964,1.75c-3.399-2.051-7.206-3.422-12.169-5.705
		c2.395,4.912,3.632,8.628,5.81,11.672c4.438,6.204,3.328,11.697-0.43,17.73c-3.308,5.314-5.773,11.148-8.611,16.755
		c0.294,0.178,0.588,0.356,0.883,0.535c5.889-3.753,11.777-7.505,17.898-11.406C217.781,124.318,224.017,133.089,230.254,141.862z"
		/>
</g>
</svg>
