<?xml version="1.0" encoding="utf-8"?>
<!-- Generator: Adobe Illustrator 16.0.0, SVG Export Plug-In . SVG Version: 6.00 Build 0)  -->
<!DOCTYPE svg PUBLIC "-//W3C//DTD SVG 1.1//EN" "http://www.w3.org/Graphics/SVG/1.1/DTD/svg11.dtd">
<svg version="1.1" id="Layer_1" xmlns="http://www.w3.org/2000/svg" xmlns:xlink="http://www.w3.org/1999/xlink" x="0px" y="0px"
	 width="632.021px" height="754.723px" viewBox="0 0 632.021 754.723" enable-background="new 0 0 632.021 754.723"
	 xml:space="preserve">
<g>
	<path fill="#E3DED2" d="M55.109,460.672l-0.035,3.586v1.617c0,0.633-0.211,1.143-0.633,1.529c-0.422,0.386-0.896,0.58-1.424,0.58
		c-0.528,0-0.973-0.17-1.336-0.511c-0.364-0.34-0.545-0.756-0.545-1.248l0.352-13.922c0-1.405-0.229-3.483-0.686-6.239
		c-0.457-2.755-0.686-4.97-0.686-6.646s-0.287-3.715-0.861-6.117c-0.575-2.401-1.213-4.563-1.916-6.485
		c-1.852-5.017-2.777-9.316-2.777-12.902c0-0.773,0.761-1.16,2.285-1.16c0.352,0,0.715,0.144,1.09,0.422
		c0.375,0.281,0.574,0.601,0.598,0.949c0.469,5.533,1.664,11.404,3.586,17.613c0.093-0.422,0.205-1.424,0.334-3.006
		c0.128-1.582,0.281-3.203,0.457-4.869c0.176-1.664,0.404-3.353,0.686-5.062c0.633-3.867,1.587-5.801,2.865-5.801
		c1.277,0,1.916,0.26,1.916,0.773c0,2.694-0.575,6.715-1.723,12.059c-1.148,5.344-1.723,9.4-1.723,12.164l0.211,2.496v1.09
		L55.109,460.672z"/>
	<path fill="#E3DED2" d="M81.09,447.737c0,13.805-2.825,20.707-8.473,20.707c-5.203,0-8.121-6.539-8.754-19.617
		c-0.047-1.242-0.07-2.484-0.07-3.729l-0.035-4.395v-1.406c0-10.146,1.488-16.418,4.465-18.809c0.726-0.584,1.535-0.9,2.426-0.949
		c0.68,0.234,1.512,0.453,2.496,0.65c0.984,0.198,1.71,0.403,2.18,0.614c0.867,0.398,1.805,1.438,2.812,3.111
		c1.007,1.676,1.752,3.914,2.232,6.715s0.721,5.607,0.721,8.42V447.737L81.09,447.737z M67.73,430.792l0.105,4.219l-0.035,6.892
		c0,0.586,0.012,1.276,0.035,2.073c0.023,0.798,0.053,1.847,0.088,3.146c0.035,1.299,0.105,2.59,0.211,3.867
		c0.105,1.276,0.229,2.625,0.369,4.043c0.141,1.418,0.328,2.729,0.562,3.938c0.234,1.207,0.492,2.304,0.773,3.287
		c0.633,2.133,1.464,3.199,2.496,3.199c1.383,0,2.438-1.301,3.164-3.902c1.078-3.867,1.617-8.625,1.617-14.272l0.105-7.418
		c0-5.203-0.229-8.705-0.686-10.513c-0.457-1.805-0.885-3.164-1.283-4.077c-0.797-1.853-2.004-2.777-3.621-2.777
		c-0.047,0-0.094,0-0.141,0C68.984,422.495,67.73,425.258,67.73,430.792z"/>
	<path fill="#E3DED2" d="M104.996,435.008l0.07,1.23c-0.352,1.688-0.58,4.588-0.686,8.701c-0.106,4.112-0.311,7.432-0.615,9.948
		c-0.305,2.521-0.715,4.734-1.23,6.646c-0.516,1.912-1.342,3.498-2.479,4.764c-1.137,1.269-2.403,1.898-3.797,1.898
		c-1.395,0-2.537-0.252-3.428-0.756c-0.891-0.505-1.617-1.23-2.18-2.181c-0.563-0.951-1.032-1.969-1.406-3.059
		c-0.375-1.09-0.656-2.353-0.844-3.779c-0.329-2.508-0.492-5.156-0.492-7.945l0.387-18.983c0-4.148-0.293-7.58-0.879-10.301v-1.724
		c1.148,0,2.057,0.445,2.725,1.336c0.668,0.894,1.002,1.888,1.002,2.988v34.84c0,1.853,0.462,3.545,1.389,5.08
		c0.926,1.535,2.291,2.303,4.096,2.303c2.039,0,3.398-5.93,4.078-17.789v-0.315l0.035-0.457c0.609-10.828,0.914-19.594,0.914-26.297
		l-0.035-1.195c0-0.561,0.128-0.984,0.387-1.266c0.258-0.281,0.75-0.422,1.477-0.422c0.726,0,1.266,0.198,1.617,0.598
		c0.352,0.4,0.557,0.805,0.615,1.213c0.058,0.41,0.088,0.967,0.088,1.67l-0.492,7.242L104.996,435.008z"/>
	<path fill="#E3DED2" d="M121.062,414.901l-0.141,0.489c0,1.104-0.299,2.414-0.896,3.939c-0.598,1.522-1.424,2.877-2.479,4.061
		c-1.055,1.185-2.098,1.775-3.129,1.775h-2.144v-2.496c0.188-0.188,0.656-0.586,1.406-1.195c1.57-1.241,2.438-2.309,2.602-3.198
		c-1.383-1.009-2.074-2.074-2.074-3.199s0.369-1.98,1.107-2.566c0.738-0.584,1.547-0.879,2.426-0.879
		c0.879,0,1.564,0.271,2.057,0.812c0.492,0.539,0.914,1.286,1.266,2.25L121.062,414.901L121.062,414.901z"/>
	<path fill="#E3DED2" d="M145.847,418.663c1.102,0,1.652,0.313,1.652,0.949c0,2.692-0.575,6.088-1.723,10.178
		s-1.846,6.891-2.092,8.402c-0.246,1.51-0.51,3.729-0.791,6.659c-0.281,2.933-0.51,4.966-0.686,6.103
		c-0.176,1.137-0.492,2.555-0.949,4.254s-0.738,2.848-0.844,3.445c-0.106,0.596-0.188,1.348-0.246,2.25
		c-0.059,0.899-0.135,1.705-0.229,2.405c-0.094,0.703-0.246,1.433-0.457,2.183c-0.492,1.639-1.477,2.461-2.953,2.461l-1.617-1.09
		c0-5.836-0.557-11.789-1.67-17.859c-1.113-6.07-2.203-11.168-3.27-15.293c-1.067-4.125-1.788-6.738-2.162-7.84
		c-0.844-2.604-1.266-4.219-1.266-4.854c0-0.633,0.181-1.11,0.545-1.438c0.363-0.328,0.785-0.492,1.266-0.492
		c0.48,0,0.919,0.199,1.318,0.598c0.398,0.398,0.715,0.961,0.949,1.688c0.234,0.727,0.422,1.4,0.562,2.021
		c0.141,0.621,0.275,1.336,0.404,2.146c0.128,0.809,0.216,1.318,0.264,1.529c2.438,11.108,4.359,21.562,5.766,31.358
		c0.375-1.897,0.814-5.016,1.318-9.352s1.441-10.084,2.812-17.244s2.197-11.549,2.479-13.166H145.847L145.847,418.663z"/>
	<path fill="#E3DED2" d="M160.402,464.401l2.848-0.179c1.828,0,2.742,0.586,2.742,1.761c0,0.727-0.316,1.252-0.949,1.582
		c-0.633,0.325-1.348,0.489-2.145,0.489h-6.785c-0.61,0-1.131-0.211-1.564-0.633c-0.434-0.422-0.668-0.961-0.703-1.617
		c-0.035-0.653,0.012-1.477,0.141-2.461c0.128-0.981,0.193-1.77,0.193-2.354l-0.352-9.211l0.492-21.023l-0.387-6.082
		c0-3.396,1.007-5.098,3.023-5.098c0.562,0,1.09,0.176,1.582,0.524c0.188,0.023,0.638,0.066,1.354,0.123
		c0.715,0.062,1.341,0.138,1.881,0.23c0.539,0.094,1.125,0.223,1.758,0.387c1.359,0.375,2.039,1.021,2.039,1.935
		c0,0.983-0.703,1.733-2.109,2.25c-2.203-0.75-4.02-1.207-5.449-1.371c0.07,1.03,0.105,2.062,0.105,3.094l-0.316,10.336
		c0,0.049,0.07,0.422,0.211,1.125l2.566-0.105c2.32,0,3.48,0.656,3.48,1.972c0,0.703-0.206,1.324-0.615,1.86
		c-0.41,0.541-0.99,0.812-1.74,0.812s-1.406-0.211-1.969-0.633h-1.828c0.141,1.828,0.211,3.562,0.211,5.203l-0.316,13.043
		C157.8,463.051,158.667,464.401,160.402,464.401z"/>
	<path fill="#E3DED2" d="M186.312,423.758l-0.281,17.965c0.844,0.234,2.109,0.354,3.797,0.354h2.742v-1.512
		c0-2.203-0.164-5.517-0.492-9.935c-0.329-4.416-0.492-7.729-0.492-9.932c0-0.539,0.205-0.988,0.615-1.354
		c0.41-0.362,0.773-0.545,1.09-0.545s0.592-0.018,0.826-0.053c0.234-0.035,0.427-0.047,0.58-0.035
		c0.152,0.012,0.322,0.064,0.51,0.158c0.352,0.164,0.527,0.703,0.527,1.617c0,5.039,0.223,12.586,0.668,22.641
		c0.445,10.055,0.668,17.602,0.668,22.641c0,0.423-0.182,0.75-0.545,0.984c-0.364,0.234-0.826,0.352-1.389,0.352
		c-0.563,0-1.09-0.146-1.582-0.438c-0.492-0.293-0.75-0.687-0.773-1.178c-0.258-4.781-0.387-10.664-0.387-17.648v-0.281
		l-0.035-2.071l-0.035-0.668v-0.07c-0.375,0.094-0.914,0.141-1.617,0.141l-4.465-0.668l-0.211,7.945v0.313l0.598,11.851
		c0,0.703-0.17,1.312-0.51,1.828c-0.34,0.516-0.838,0.771-1.494,0.771c-0.961,0-1.623-0.873-1.986-2.619
		c-0.364-1.743-0.545-4.131-0.545-7.151l0.211-10.972l0.035-4.11l0.141-4.219l-0.492-16.242c0-0.562,0.199-1.062,0.598-1.494
		c0.398-0.437,0.879-0.65,1.441-0.65C185.55,419.469,186.312,420.901,186.312,423.758z"/>
	<path fill="#E3DED2" d="M210.816,464.401l2.848-0.179c1.828,0,2.742,0.586,2.742,1.761c0,0.727-0.316,1.252-0.949,1.582
		c-0.633,0.325-1.348,0.489-2.145,0.489h-6.785c-0.61,0-1.131-0.211-1.564-0.633c-0.434-0.422-0.668-0.961-0.703-1.617
		c-0.035-0.653,0.012-1.477,0.141-2.461c0.128-0.981,0.193-1.77,0.193-2.354l-0.352-9.211l0.492-21.023l-0.387-6.082
		c0-3.396,1.007-5.098,3.023-5.098c0.562,0,1.09,0.176,1.582,0.524c0.188,0.023,0.638,0.066,1.354,0.123
		c0.715,0.062,1.341,0.138,1.881,0.23c0.539,0.094,1.125,0.223,1.758,0.387c1.359,0.375,2.039,1.021,2.039,1.935
		c0,0.983-0.703,1.733-2.109,2.25c-2.203-0.75-4.02-1.207-5.449-1.371c0.07,1.03,0.105,2.062,0.105,3.094l-0.316,10.336
		c0,0.049,0.07,0.422,0.211,1.125l2.566-0.105c2.32,0,3.48,0.656,3.48,1.972c0,0.703-0.206,1.324-0.615,1.86
		c-0.41,0.541-0.99,0.812-1.74,0.812s-1.406-0.211-1.969-0.633h-1.828c0.141,1.828,0.211,3.562,0.211,5.203l-0.316,13.043
		C208.215,463.051,209.081,464.401,210.816,464.401z"/>
	<path fill="#E3DED2" d="M238.94,455.469l-0.387,1.441c0,0.586,0.211,2.018,0.633,4.289c0.422,2.272,0.633,3.762,0.633,4.465v0.07
		c0,1.078-0.363,1.758-1.09,2.039c-1.008,0-1.793-0.164-2.354-0.492s-0.845-1.154-0.845-2.479c0-1.321-0.352-4.049-1.055-8.174
		l-2.215-0.211h-2.391c-0.54-0.234-1.489-0.352-2.848-0.352c0,0.047-0.03,0.354-0.088,0.932c-0.059,0.574-0.105,1.037-0.141,1.389
		c-0.036,0.353-0.094,0.873-0.176,1.564c-0.083,0.688-0.17,1.276-0.264,1.758c-0.094,0.48-0.211,1.043-0.352,1.688
		s-0.299,1.184-0.475,1.616c-0.176,0.437-0.369,0.851-0.58,1.248c-0.422,0.82-0.938,1.23-1.547,1.23
		c-0.61,0-1.155-0.185-1.635-0.545c-0.48-0.363-0.721-0.826-0.721-1.392c1.266-4.852,2.35-9.936,3.252-15.258
		c0.902-5.318,1.441-8.477,1.617-9.475c0.176-0.996,0.585-2.918,1.229-5.767c0.646-2.848,1.031-4.752,1.16-5.713
		c0.128-0.961,0.251-2.203,0.369-3.727c0.211-3.328,0.645-5.474,1.301-6.437h2.426c1.641,0,2.461,0.492,2.461,1.479
		c0,9.258,0.902,18.457,2.707,27.598c0.094,0.539,0.27,1.289,0.527,2.25C238.659,452.6,238.94,454.252,238.94,455.469z
		 M234.019,453.922c-0.141-0.703-0.211-1.84-0.211-3.41c0-1.567-0.1-3.475-0.299-5.713c-0.199-2.236-0.486-4.834-0.861-7.787
		s-0.633-5.084-0.772-6.396c-0.281,1.356-0.832,3.633-1.652,6.817c-1.665,6.636-2.52,11.742-2.566,15.328
		C228.476,453.303,230.597,453.69,234.019,453.922z"/>
	<path fill="#E3DED2" d="M249.593,445.801c-0.329,1.336-0.492,2.572-0.492,3.709c0,1.14,0.146,3.564,0.439,7.277
		c0.293,3.715,0.439,6.113,0.439,7.188c0,1.078-0.193,1.898-0.58,2.462c-0.388,0.562-0.826,0.844-1.318,0.844
		c-0.703,0-1.148-0.479-1.336-1.441c0.047-1.779,0.07-3.967,0.07-6.557c0-2.588-0.207-8.279-0.615-17.068
		c-0.41-8.789-0.615-15.35-0.615-19.688c0-2.271,0.796-3.41,2.391-3.41c2.508,0,4.617,0.656,6.328,1.969
		c1.71,1.314,2.566,3.189,2.566,5.625c0,3.283-0.258,5.836-0.773,7.664c-0.515,1.828-1.488,4.113-2.918,6.855
		c0.258,1.147,0.715,3.444,1.371,6.891c1.383,7.453,2.941,12.832,4.676,16.137c0.492,0.939,0.738,1.67,0.738,2.197
		s-0.146,0.973-0.439,1.336s-0.686,0.545-1.178,0.545c-1.57,0-3.012-2.613-4.324-7.84c-0.562-2.271-1.066-4.57-1.512-6.891
		c-1.266-6.353-2.074-9.927-2.426-10.724C250.086,443.495,249.922,444.465,249.593,445.801z M249.487,421.792l-0.246,1.02
		c0,1.97,0.048,4.812,0.142,8.525c0.093,3.715,0.142,6.416,0.142,8.104c1.125-0.584,2.032-2.113,2.725-4.589
		c0.691-2.473,1.037-4.362,1.037-5.678c0-1.312-0.035-2.279-0.105-2.899c-0.07-0.619-0.223-1.308-0.457-2.058
		C252.276,422.647,251.198,421.838,249.487,421.792z"/>
	<path fill="#E3DED2" d="M281.479,438.702l-0.141,3.621v3.938c0,4.758-0.211,7.97-0.633,9.633c-0.422,1.664-0.85,3.035-1.283,4.113
		c-0.433,1.078-0.955,2.039-1.564,2.883c-1.405,1.898-3.188,3.445-5.344,4.642h-4.922c-1.219,0-1.828-3.142-1.828-9.422
		l0.211-22.677c0-4.194-0.082-8.133-0.246-11.812c-0.398-0.469-0.598-1.023-0.598-1.67c0-0.646,0.27-1.207,0.809-1.688
		c0.539-0.479,1.189-0.721,1.951-0.721c0.762,0,1.412,0.422,1.951,1.266c0.352,0.142,0.873,0.271,1.564,0.388
		c0.69,0.116,1.201,0.26,1.529,0.422c2.672,1.244,4.764,3.438,6.274,6.592C280.724,431.36,281.479,434.858,281.479,438.702z
		 M269.702,430.37l0.81,31.781v1.723h1.302c2.508-3.047,4.125-5.836,4.852-8.367c0.68-2.367,1.02-5.672,1.02-9.914
		c0-14.483-2.484-22.055-7.453-22.711C269.879,424.78,269.702,427.276,269.702,430.37z"/>
	<path fill="#E3DED2" d="M315.089,455.469l-0.387,1.441c0,0.586,0.211,2.018,0.633,4.289c0.422,2.272,0.633,3.762,0.633,4.465v0.07
		c0,1.078-0.362,1.758-1.09,2.039c-1.008,0-1.793-0.164-2.354-0.492c-0.562-0.328-0.845-1.154-0.845-2.479
		c0-1.321-0.352-4.049-1.055-8.174l-2.215-0.211h-2.392c-0.539-0.234-1.488-0.352-2.849-0.352c0,0.047-0.029,0.354-0.088,0.932
		c-0.06,0.574-0.104,1.037-0.142,1.389c-0.035,0.353-0.094,0.873-0.176,1.564c-0.082,0.688-0.17,1.276-0.264,1.758
		c-0.094,0.481-0.211,1.043-0.352,1.688c-0.142,0.646-0.3,1.184-0.476,1.616c-0.176,0.437-0.369,0.851-0.58,1.248
		c-0.422,0.82-0.938,1.23-1.547,1.23s-1.153-0.185-1.635-0.545c-0.481-0.363-0.722-0.826-0.722-1.392
		c1.267-4.852,2.351-9.936,3.252-15.258c0.902-5.318,1.441-8.477,1.617-9.475c0.176-0.996,0.586-2.918,1.23-5.767
		c0.644-2.848,1.031-4.752,1.16-5.713c0.129-0.961,0.252-2.203,0.369-3.727c0.211-3.328,0.645-5.474,1.301-6.437h2.426
		c1.641,0,2.461,0.492,2.461,1.479c0,9.258,0.902,18.457,2.707,27.598c0.094,0.539,0.271,1.289,0.527,2.25
		C314.808,452.6,315.089,454.252,315.089,455.469z M310.167,453.922c-0.141-0.703-0.211-1.84-0.211-3.41
		c0-1.567-0.1-3.475-0.299-5.713c-0.199-2.236-0.486-4.834-0.861-7.787s-0.633-5.084-0.772-6.396
		c-0.281,1.356-0.832,3.633-1.652,6.817c-1.663,6.636-2.52,11.742-2.565,15.328C304.624,453.303,306.745,453.69,310.167,453.922z"/>
	<path fill="#E3DED2" d="M322.577,448.684l0.315-22.813c0-1.664-0.022-2.906-0.069-3.729v-0.668c0-1.989,0.68-2.985,2.039-2.985
		c1.078,0,2.53,0.305,4.358,0.914c1.828,0.608,2.742,1.321,2.742,2.145c0,1.078,0.357,2.654,1.072,4.729
		c0.715,2.074,1.072,3.639,1.072,4.692c0,3.258-0.234,5.607-0.703,7.049c-0.47,1.442-1.207,2.877-2.215,4.308
		c1.383,1.336,2.282,3.02,2.707,5.045c0.422,2.027,0.633,4.065,0.633,6.117c0,2.053-0.117,3.709-0.354,4.975
		c-0.233,1.266-0.621,2.475-1.16,3.621c-0.537,1.148-1.192,2.145-1.969,2.988c-1.711,1.828-4.02,2.742-6.926,2.742
		c-1.031,0-1.676-0.445-1.935-1.337c-0.211-0.653-0.315-1.477-0.315-2.461L322.577,448.684z M326.409,458.53
		c-0.306,0.516-0.457,1.312-0.457,2.391v3.234c1.547-0.375,2.719-1.33,3.516-2.865s1.195-2.959,1.195-4.271
		c0-1.312-0.019-2.358-0.053-3.146c-0.035-0.785-0.136-1.74-0.3-2.865s-0.387-2.106-0.668-2.953
		c-0.68-2.039-1.733-3.221-3.164-3.551c-0.188,2.766-0.28,5.648-0.28,8.648S326.268,457.944,326.409,458.53z M326.409,421.827
		v18.457c2.414-0.07,3.621-2.988,3.621-8.754c0-1.523-0.177-3.105-0.527-4.746C328.799,423.62,327.77,421.965,326.409,421.827z"/>
	<path fill="#E3DED2" d="M357.77,447.737c0,13.805-2.823,20.707-8.475,20.707c-5.203,0-8.121-6.539-8.754-19.617
		c-0.047-1.242-0.07-2.484-0.07-3.729l-0.033-4.395v-1.406c0-10.146,1.486-16.418,4.466-18.809c0.727-0.584,1.534-0.9,2.426-0.949
		c0.68,0.234,1.512,0.453,2.496,0.65c0.981,0.198,1.711,0.403,2.18,0.614c0.867,0.398,1.805,1.438,2.812,3.111
		c1.008,1.676,1.752,3.914,2.229,6.715c0.48,2.801,0.723,5.607,0.723,8.42V447.737z M344.409,430.792l0.104,4.219l-0.035,6.892
		c0,0.586,0.013,1.276,0.035,2.073c0.023,0.798,0.054,1.847,0.088,3.146c0.035,1.299,0.105,2.59,0.212,3.867
		c0.105,1.276,0.229,2.625,0.368,4.043c0.141,1.418,0.328,2.729,0.562,3.938c0.234,1.207,0.492,2.304,0.772,3.287
		c0.634,2.133,1.466,3.199,2.494,3.199c1.386,0,2.439-1.301,3.164-3.902c1.078-3.867,1.617-8.625,1.617-14.272l0.105-7.418
		c0-5.203-0.229-8.705-0.687-10.513c-0.457-1.805-0.885-3.164-1.283-4.077c-0.797-1.853-2.004-2.777-3.621-2.777
		c-0.047,0-0.094,0-0.141,0C345.663,422.495,344.409,425.258,344.409,430.792z"/>
	<path fill="#E3DED2" d="M381.674,435.008l0.07,1.23c-0.353,1.688-0.58,4.588-0.687,8.701c-0.105,4.112-0.311,7.432-0.614,9.948
		c-0.306,2.521-0.715,4.734-1.23,6.646c-0.516,1.912-1.342,3.498-2.479,4.764c-1.138,1.269-2.402,1.898-3.797,1.898
		c-1.396,0-2.537-0.252-3.429-0.756c-0.891-0.505-1.617-1.23-2.18-2.181c-0.562-0.951-1.031-1.969-1.406-3.059
		s-0.656-2.353-0.844-3.779c-0.328-2.508-0.492-5.156-0.492-7.945l0.387-18.983c0-4.148-0.293-7.58-0.879-10.301v-1.724
		c1.148,0,2.058,0.445,2.726,1.336c0.668,0.894,1.002,1.888,1.002,2.988v34.84c0,1.853,0.463,3.545,1.389,5.08
		s2.291,2.303,4.098,2.303c2.037,0,3.396-5.93,4.076-17.789v-0.315l0.035-0.457c0.609-10.828,0.914-19.594,0.914-26.297
		l-0.035-1.195c0-0.561,0.129-0.984,0.39-1.266c0.258-0.281,0.75-0.422,1.477-0.422s1.266,0.198,1.617,0.598
		c0.352,0.4,0.557,0.805,0.615,1.213c0.059,0.41,0.088,0.967,0.088,1.67l-0.492,7.242L381.674,435.008z"/>
	<path fill="#E3DED2" d="M395.596,460.426l0.144-2.461c-0.189-0.606-0.574-6.027-1.16-16.26c-0.586-10.23-0.902-16.471-0.949-18.721
		c-2.766-0.07-4.477-0.32-5.133-0.757c-0.656-0.434-0.984-0.885-0.984-1.354s0.259-0.85,0.773-1.144
		c0.515-0.293,1.02-0.438,1.512-0.438l9.773,0.668l1.157-0.035c1.5,0,2.25,0.574,2.25,1.724c0,0.586-0.243,1.061-0.735,1.424
		c-0.492,0.362-1.043,0.545-1.652,0.545l-3.305-0.492l-0.144,0.738c0,4.549,0.398,11.354,1.195,20.426
		c0.797,9.072,1.195,15.891,1.195,20.461c0,0.586-0.217,1.09-0.65,1.512c-0.432,0.422-0.94,0.633-1.528,0.633h-1.615
		L395.596,460.426z"/>
	<path fill="#E3DED2" d="M419.01,432.583l0.211-7.875c0-2.227-0.104-3.826-0.313-4.799c-0.211-0.972-0.478-1.898-0.791-2.777
		c-0.316-0.879-0.478-1.547-0.478-2.004s0.097-0.838,0.281-1.143c0.189-0.306,0.469-0.545,0.844-0.722
		c0.375-0.176,0.738-0.315,1.091-0.422c0.354-0.104,0.799-0.182,1.336-0.229c0.893-0.047,1.534-0.07,1.936-0.07h0.703
		c1.969,0,4.063,1.055,6.293,3.164c2.693,2.555,4.336,5.25,4.922,8.086c0.353,1.664,0.586,3.516,0.703,5.555
		s0.199,3.398,0.246,4.078c0.141,1.547,0.328,2.603,0.561,3.164v3.34c-0.258,0.445-0.387,1.172-0.387,2.181
		c0,3.635-0.832,7.604-2.496,11.918c-1.664,4.312-3.727,7.594-6.188,9.844c-1.828,1.666-3.064,2.647-3.709,2.953
		c-0.646,0.305-1.277,0.457-1.898,0.457s-1.295-0.205-2.021-0.615c-0.728-0.408-1.091-1.023-1.091-1.846
		c1.058-1.103,1.582-3.927,1.582-8.474c0-2.672-0.223-6.645-0.668-11.918C419.235,439.157,419.01,435.208,419.01,432.583z
		 M423.792,456.208v6.891c3.727-2.623,6.34-7.51,7.84-14.657c0.75-3.656,1.125-7.441,1.125-11.355
		c0-13.477-3.328-20.215-9.983-20.215v0.07c0,4.45,0.163,11.045,0.491,19.772C423.592,445.446,423.768,451.944,423.792,456.208z"/>
	<path fill="#E3DED2" d="M459.792,455.469l-0.387,1.441c0,0.586,0.211,2.018,0.633,4.289c0.422,2.272,0.633,3.762,0.633,4.465v0.07
		c0,1.078-0.363,1.758-1.09,2.039c-1.008,0-1.793-0.164-2.355-0.492c-0.561-0.328-0.844-1.154-0.844-2.479
		c0-1.321-0.352-4.049-1.055-8.174l-2.215-0.211h-2.392c-0.539-0.234-1.487-0.352-2.848-0.352c0,0.047-0.029,0.354-0.088,0.932
		c-0.062,0.574-0.105,1.037-0.144,1.389c-0.034,0.353-0.094,0.873-0.176,1.564c-0.082,0.688-0.17,1.276-0.264,1.758
		s-0.211,1.043-0.353,1.688c-0.141,0.646-0.299,1.184-0.475,1.616c-0.176,0.437-0.369,0.851-0.58,1.248
		c-0.422,0.82-0.938,1.23-1.547,1.23s-1.154-0.185-1.635-0.545c-0.482-0.363-0.724-0.826-0.724-1.392
		c1.269-4.852,2.353-9.936,3.252-15.258c0.902-5.318,1.441-8.477,1.617-9.475c0.177-0.996,0.586-2.918,1.23-5.767
		c0.644-2.848,1.03-4.752,1.16-5.713c0.129-0.961,0.252-2.203,0.368-3.727c0.211-3.328,0.646-5.474,1.302-6.437h2.426
		c1.641,0,2.461,0.492,2.461,1.479c0,9.258,0.902,18.457,2.707,27.598c0.094,0.539,0.27,1.289,0.527,2.25
		C459.51,452.6,459.792,454.252,459.792,455.469z M454.87,453.922c-0.142-0.703-0.211-1.84-0.211-3.41
		c0-1.567-0.101-3.475-0.299-5.713c-0.199-2.236-0.486-4.834-0.861-7.787s-0.633-5.084-0.773-6.396
		c-0.278,1.356-0.832,3.633-1.649,6.817c-1.664,6.636-2.521,11.742-2.566,15.328C449.327,453.303,451.448,453.69,454.87,453.922z"/>
	<path fill="#E3DED2" d="M470.795,438.702l0.422,18.633v8.156c0,0.633-0.164,1.166-0.492,1.6c-0.328,0.435-0.784,0.65-1.371,0.65
		c-1.567,0-2.354-1.465-2.354-4.396l-0.141-25.383l0.422-13.43c0-3.234,0.879-4.853,2.637-4.853c1.055,0,1.816,0.81,2.285,2.427
		c0.656,3.094,1.799,7.541,3.428,13.342s2.748,10.213,3.357,13.235c0.442,1.478,1.02,3.662,1.723,6.558s1.254,5.067,1.652,6.521
		c0.188-10.405,0.278-23.016,0.278-37.828L482.54,422c0-0.656,0.123-1.178,0.369-1.564c0.246-0.386,0.662-0.579,1.248-0.579
		s1.063,0.141,1.438,0.422c0.75,0.562,1.125,1.358,1.125,2.391c0,6.588-0.188,15.047-0.561,25.383
		c-0.375,10.336-0.939,16.793-1.689,19.371c-0.094,0.023-0.293,0.088-0.598,0.193c-0.305,0.104-0.527,0.17-0.668,0.192
		c-1.336,0.306-2.18,0.246-2.531-0.176c-0.35-0.422-0.604-0.983-0.756-1.688c-0.152-0.705-0.328-1.392-0.527-2.06
		c-0.198-0.668-0.94-3.858-2.229-9.58c-3.445-15.114-5.566-23.903-6.363-26.364v10.76L470.795,438.702L470.795,438.702z"/>
	<path fill="#E3DED2" d="M510.452,447.737c0,13.805-2.824,20.707-8.474,20.707c-5.202,0-8.12-6.539-8.754-19.617
		c-0.047-1.242-0.069-2.484-0.069-3.729l-0.035-4.395v-1.406c0-10.146,1.488-16.418,4.465-18.809c0.728-0.584,1.535-0.9,2.426-0.949
		c0.681,0.234,1.513,0.453,2.496,0.65c0.984,0.198,1.711,0.403,2.181,0.614c0.866,0.398,1.807,1.438,2.812,3.111
		c1.008,1.676,1.752,3.914,2.231,6.715c0.48,2.801,0.722,5.607,0.722,8.42V447.737L510.452,447.737z M497.092,430.792l0.105,4.219
		l-0.035,6.892c0,0.586,0.012,1.276,0.035,2.073c0.022,0.798,0.053,1.847,0.088,3.146c0.035,1.299,0.104,2.59,0.211,3.867
		c0.105,1.276,0.229,2.625,0.369,4.043c0.14,1.418,0.328,2.729,0.562,3.938c0.234,1.207,0.492,2.304,0.773,3.287
		c0.633,2.133,1.465,3.199,2.496,3.199c1.383,0,2.438-1.301,3.164-3.902c1.075-3.867,1.614-8.625,1.614-14.272l0.105-7.418
		c0-5.203-0.229-8.705-0.686-10.513c-0.457-1.805-0.886-3.164-1.283-4.077c-0.797-1.853-2.004-2.777-3.621-2.777
		c-0.047,0-0.094,0-0.142,0C498.346,422.495,497.092,425.258,497.092,430.792z"/>
	<path fill="#E3DED2" d="M521.35,438.702l0.422,18.633v8.156c0,0.633-0.161,1.166-0.489,1.6c-0.328,0.435-0.785,0.65-1.371,0.65
		c-1.57,0-2.355-1.465-2.355-4.396l-0.141-25.383l0.422-13.43c0-3.234,0.879-4.853,2.637-4.853c1.056,0,1.816,0.81,2.285,2.427
		c0.656,3.094,1.799,7.541,3.429,13.342c1.629,5.801,2.747,10.213,3.356,13.235c0.445,1.478,1.021,3.662,1.723,6.558
		c0.703,2.896,1.255,5.067,1.652,6.521c0.188-10.405,0.281-23.016,0.281-37.828L533.094,422c0-0.656,0.123-1.178,0.369-1.564
		c0.246-0.386,0.662-0.579,1.248-0.579s1.066,0.141,1.441,0.422c0.75,0.562,1.125,1.358,1.125,2.391
		c0,6.588-0.189,15.047-0.562,25.383c-0.375,10.336-0.938,16.793-1.688,19.371c-0.097,0.023-0.293,0.088-0.601,0.193
		c-0.305,0.104-0.524,0.17-0.668,0.192c-1.336,0.306-2.18,0.246-2.531-0.176c-0.35-0.422-0.604-0.983-0.756-1.688
		c-0.149-0.705-0.328-1.392-0.524-2.06c-0.199-0.668-0.943-3.858-2.232-9.58c-3.445-15.114-5.565-23.903-6.363-26.364v10.76
		L521.35,438.702L521.35,438.702z"/>
	<path fill="#E3DED2" d="M551.127,464.401l2.848-0.179c1.828,0,2.742,0.586,2.742,1.761c0,0.727-0.313,1.252-0.949,1.582
		c-0.633,0.325-1.348,0.489-2.145,0.489h-6.785c-0.608,0-1.131-0.211-1.562-0.633c-0.435-0.422-0.67-0.961-0.703-1.617
		c-0.035-0.653,0.012-1.477,0.141-2.461c0.129-0.981,0.193-1.77,0.193-2.354l-0.354-9.211l0.492-21.023l-0.387-6.082
		c0-3.396,1.008-5.098,3.022-5.098c0.562,0,1.091,0.176,1.582,0.524c0.188,0.023,0.64,0.066,1.354,0.123
		c0.715,0.062,1.342,0.138,1.881,0.23s1.125,0.223,1.758,0.387c1.359,0.375,2.039,1.021,2.039,1.935c0,0.983-0.703,1.733-2.109,2.25
		c-2.202-0.75-4.02-1.207-5.446-1.371c0.067,1.03,0.104,2.062,0.104,3.094l-0.313,10.336c0,0.049,0.067,0.422,0.211,1.125
		l2.563-0.105c2.32,0,3.48,0.656,3.48,1.972c0,0.703-0.205,1.324-0.615,1.86c-0.41,0.541-0.99,0.812-1.74,0.812
		s-1.405-0.211-1.969-0.633h-1.828c0.142,1.828,0.211,3.562,0.211,5.203l-0.313,13.043
		C548.526,463.051,549.393,464.401,551.127,464.401z"/>
	<path fill="#E3DED2" d="M0.705,535.084l0.316-22.816c0-1.664-0.023-2.903-0.07-3.727v-0.668c0-1.992,0.68-2.988,2.039-2.988
		c1.078,0,2.531,0.306,4.359,0.914c1.828,0.609,2.742,1.324,2.742,2.146c0,1.078,0.357,2.653,1.072,4.729
		c0.715,2.074,1.072,3.639,1.072,4.693c0,3.258-0.234,5.606-0.703,7.049c-0.469,1.44-1.208,2.879-2.215,4.307
		c1.383,1.336,2.285,3.021,2.707,5.045c0.422,2.027,0.633,4.066,0.633,6.117c0,2.053-0.118,3.709-0.352,4.978
		c-0.234,1.266-0.621,2.473-1.16,3.619c-0.54,1.147-1.195,2.146-1.969,2.987c-1.711,1.828-4.02,2.742-6.926,2.742
		c-1.032,0-1.676-0.445-1.934-1.336C0.105,552.219,0,551.396,0,550.413L0.705,535.084z M4.537,544.928
		c-0.305,0.517-0.457,1.312-0.457,2.392v3.233c1.547-0.375,2.719-1.33,3.516-2.865c0.796-1.532,1.195-2.956,1.195-4.271
		c0-1.311-0.018-2.359-0.053-3.146c-0.035-0.785-0.135-1.739-0.299-2.864s-0.387-2.109-0.668-2.953
		c-0.68-2.039-1.735-3.224-3.164-3.551c-0.188,2.766-0.281,5.646-0.281,8.646S4.396,544.342,4.537,544.928z M4.537,508.225v18.457
		c2.414-0.069,3.621-2.987,3.621-8.754c0-1.522-0.176-3.104-0.527-4.746C6.927,510.018,5.896,508.366,4.537,508.225z"/>
	<path fill="#E3DED2" d="M36.283,521.409l0.07,1.229c-0.352,1.688-0.58,4.588-0.686,8.701s-0.311,7.43-0.615,9.949
		c-0.305,2.52-0.715,4.731-1.23,6.645c-0.516,1.91-1.342,3.498-2.479,4.765c-1.137,1.266-2.403,1.897-3.797,1.897
		c-1.395,0-2.537-0.252-3.428-0.756c-0.891-0.504-1.617-1.229-2.18-2.18c-0.563-0.951-1.032-1.969-1.406-3.062
		c-0.375-1.09-0.656-2.35-0.844-3.776c-0.329-2.51-0.492-5.156-0.492-7.945l0.387-18.984c0-4.147-0.293-7.582-0.879-10.301v-1.723
		c1.148,0,2.057,0.443,2.725,1.336c0.668,0.891,1.002,1.887,1.002,2.988v34.84c0,1.852,0.462,3.545,1.389,5.08
		c0.926,1.533,2.291,2.303,4.096,2.303c2.039,0,3.398-5.93,4.078-17.789v-0.316l0.035-0.456c0.609-10.828,0.914-19.595,0.914-26.298
		l-0.035-1.194c0-0.562,0.128-0.984,0.387-1.267c0.258-0.28,0.75-0.422,1.477-0.422c0.726,0,1.266,0.199,1.617,0.599
		c0.352,0.397,0.557,0.805,0.615,1.213c0.058,0.41,0.088,0.967,0.088,1.67l-0.492,7.242L36.283,521.409z"/>
	<path fill="#E3DED2" d="M50.205,546.827l0.141-2.461c-0.188-0.609-0.575-6.029-1.16-16.26c-0.586-10.23-0.902-16.472-0.949-18.722
		c-2.766-0.069-4.477-0.319-5.133-0.756c-0.656-0.434-0.984-0.885-0.984-1.354c0-0.472,0.258-0.851,0.773-1.146
		c0.515-0.293,1.02-0.438,1.512-0.438l9.773,0.668l1.16-0.035c1.5,0,2.25,0.574,2.25,1.723c0,0.586-0.246,1.062-0.738,1.424
		c-0.492,0.363-1.043,0.545-1.652,0.545l-3.305-0.491l-0.141,0.737c0,4.548,0.398,11.355,1.195,20.427
		c0.796,9.069,1.195,15.891,1.195,20.461c0,0.586-0.217,1.09-0.65,1.512c-0.434,0.422-0.944,0.633-1.529,0.633h-1.617
		L50.205,546.827z"/>
	<path fill="#E3DED2" d="M83.322,549.674c0,2.344-0.316,3.812-0.949,4.396c-0.329,0.28-0.838,0.422-1.529,0.422
		c-0.691,0-1.271-0.527-1.74-1.582c0.539-1.055,0.809-5.119,0.809-12.199c0-1.336-0.094-3.217-0.281-5.643
		c-0.188-2.427-0.293-4.062-0.316-4.904c-0.938-1.617-2.385-5.338-4.342-11.162c-1.957-5.822-2.936-9.416-2.936-10.772v-0.39
		l1.617-1.192c1.477,0.047,3.234,3.762,5.273,11.145c0.891,3.234,1.336,4.863,1.336,4.887c0.188-0.516,0.562-2.309,1.125-5.379
		c1.429-7.781,2.93-11.672,4.5-11.672c0.445,0,0.849,0.141,1.213,0.422c0.363,0.281,0.545,0.646,0.545,1.09
		c0,2.953-0.721,6.404-2.162,10.354c-1.441,3.951-2.162,7.449-2.162,10.494L83.322,549.674L83.322,549.674z"/>
	<path fill="#E3DED2" d="M110.427,534.135c0,13.806-2.825,20.707-8.473,20.707c-5.203,0-8.121-6.539-8.754-19.617
		c-0.047-1.241-0.07-2.481-0.07-3.727l-0.035-4.396v-1.403c0-10.148,1.488-16.418,4.465-18.812c0.726-0.584,1.535-0.899,2.426-0.946
		c0.68,0.231,1.512,0.45,2.496,0.647c0.984,0.199,1.71,0.404,2.18,0.615c0.867,0.398,1.805,1.438,2.812,3.111
		c1.007,1.676,1.752,3.914,2.232,6.715s0.721,5.606,0.721,8.42V534.135z M97.068,517.19l0.105,4.219l-0.035,6.891
		c0,0.586,0.012,1.279,0.035,2.074c0.023,0.797,0.053,1.846,0.088,3.146c0.035,1.302,0.105,2.591,0.211,3.867
		c0.105,1.277,0.229,2.625,0.369,4.043c0.141,1.418,0.328,2.73,0.562,3.938c0.234,1.209,0.492,2.303,0.773,3.287
		c0.633,2.133,1.464,3.198,2.496,3.198c1.383,0,2.438-1.301,3.164-3.901c1.078-3.867,1.617-8.625,1.617-14.273l0.105-7.418
		c0-5.203-0.229-8.705-0.686-10.512c-0.457-1.805-0.885-3.164-1.283-4.078c-0.797-1.85-2.004-2.777-3.621-2.777
		c-0.047,0-0.094,0-0.141,0C98.321,508.893,97.068,511.659,97.068,517.19z"/>
	<path fill="#E3DED2" d="M134.334,521.409l0.07,1.229c-0.352,1.688-0.58,4.588-0.686,8.701c-0.106,4.113-0.311,7.43-0.615,9.949
		c-0.305,2.52-0.715,4.731-1.23,6.645c-0.516,1.91-1.342,3.498-2.479,4.765c-1.137,1.266-2.403,1.897-3.797,1.897
		c-1.395,0-2.537-0.252-3.428-0.756s-1.617-1.229-2.18-2.18c-0.563-0.951-1.032-1.969-1.406-3.062
		c-0.375-1.09-0.656-2.35-0.844-3.776c-0.329-2.51-0.492-5.156-0.492-7.945l0.387-18.984c0-4.147-0.293-7.582-0.879-10.301v-1.723
		c1.148,0,2.057,0.443,2.725,1.336c0.668,0.891,1.002,1.887,1.002,2.988v34.84c0,1.852,0.462,3.545,1.389,5.08
		c0.926,1.533,2.291,2.303,4.096,2.303c2.039,0,3.398-5.93,4.078-17.789v-0.316l0.035-0.456c0.609-10.828,0.914-19.595,0.914-26.298
		l-0.035-1.194c0-0.562,0.128-0.984,0.387-1.267c0.258-0.28,0.75-0.422,1.477-0.422c0.726,0,1.266,0.199,1.617,0.599
		c0.352,0.397,0.557,0.805,0.615,1.213c0.058,0.41,0.088,0.967,0.088,1.67l-0.492,7.242L134.334,521.409z"/>
	<path fill="#E3DED2" d="M174.517,511.565c-0.352,2.319-0.551,4.043-0.598,5.168v5.272c0,9.82-0.621,17.66-1.863,23.521
		c-0.234,1.104-0.352,2.133-0.352,3.094c0,4.875-0.879,7.312-2.637,7.312c-0.867,0-1.43-0.62-1.688-1.862
		c-0.094-0.445-0.141-1.22-0.141-2.32s-0.293-3.315-0.879-6.645c-0.234-1.431-0.434-2.884-0.598-4.359
		c-0.164-1.476-0.422-4.605-0.773-9.387c-0.351-4.782-0.703-8.438-1.055-10.97c-0.141,1.597-0.211,3.492-0.211,5.695
		s-0.457,6.211-1.371,12.023c-0.422,2.811-0.68,4.573-0.773,5.291c-0.094,0.715-0.193,1.799-0.299,3.252
		c-0.105,1.453-0.381,3.149-0.826,5.098c-0.469,2.18-1.219,3.271-2.25,3.271c-1.43,0-2.414-2.052-2.953-6.152
		c-0.234-1.828-0.417-3.607-0.545-5.344c-0.129-1.734-0.223-3.463-0.281-5.187c-0.059-1.723-0.129-2.912-0.211-3.567
		c-0.083-0.654-0.329-2.314-0.738-4.976c-0.41-2.66-0.656-4.547-0.738-5.66c-0.083-1.11-0.158-2.534-0.229-4.271
		c-0.07-1.734-0.17-3.639-0.299-5.713s-0.639-4.107-1.529-6.101c0.398-0.844,1.09-1.266,2.074-1.266c1.547,0,2.32,1.74,2.32,5.221
		c0,3.481,0.504,8.789,1.512,15.927c1.007,7.137,1.57,12.346,1.688,15.627c0.07-0.47,0.234-1.56,0.492-3.271
		c0.258-1.711,0.434-2.889,0.527-3.533s0.234-1.705,0.422-3.182c0.188-1.479,0.316-2.666,0.387-3.568
		c0.07-0.899,0.141-1.963,0.211-3.182s0.105-2.48,0.105-3.779c0-1.301,0.141-3.416,0.422-6.346c0.281-2.93,0.445-4.84,0.492-5.73
		h1.934c0.539,0,0.996,0.152,1.371,0.457c0.375,0.306,0.562,0.738,0.562,1.302v0.598c1.195,4.549,2.156,11.238,2.883,20.074
		c0.328,4.03,0.633,7.137,0.914,9.315c0.796-6.703,1.195-14.637,1.195-23.801c0-1.219,0.181-3.023,0.545-5.414
		c0.363-2.391,0.545-4.195,0.545-5.414c-0.164-0.422-0.246-0.832-0.246-1.229c0-1.172,0.673-1.759,2.021-1.759
		c1.348,0,2.021,0.562,2.021,1.688C175.056,507.651,174.869,509.245,174.517,511.565z"/>
	<path fill="#E3DED2" d="M198.248,534.135c0,13.806-2.825,20.707-8.473,20.707c-5.203,0-8.121-6.539-8.754-19.617
		c-0.047-1.241-0.07-2.481-0.07-3.727l-0.035-4.396v-1.403c0-10.148,1.488-16.418,4.465-18.812c0.726-0.584,1.535-0.899,2.426-0.946
		c0.68,0.231,1.512,0.45,2.496,0.647c0.984,0.199,1.71,0.404,2.18,0.615c0.867,0.398,1.805,1.438,2.812,3.111
		c1.007,1.676,1.752,3.914,2.232,6.715s0.721,5.606,0.721,8.42V534.135L198.248,534.135z M184.888,517.19l0.105,4.219l-0.035,6.891
		c0,0.586,0.012,1.279,0.035,2.074c0.023,0.797,0.053,1.846,0.088,3.146c0.035,1.302,0.105,2.591,0.211,3.867
		c0.105,1.277,0.229,2.625,0.369,4.043c0.141,1.418,0.328,2.73,0.562,3.938c0.234,1.209,0.492,2.303,0.773,3.287
		c0.633,2.133,1.464,3.198,2.496,3.198c1.383,0,2.438-1.301,3.164-3.901c1.078-3.867,1.617-8.625,1.617-14.273l0.105-7.418
		c0-5.203-0.229-8.705-0.686-10.512c-0.457-1.805-0.885-3.164-1.283-4.078c-0.797-1.85-2.004-2.777-3.621-2.777
		c-0.047,0-0.094,0-0.141,0C186.142,508.893,184.888,511.659,184.888,517.19z"/>
	<path fill="#E3DED2" d="M209.146,525.1l0.422,18.634v8.155c0,0.633-0.164,1.166-0.492,1.601c-0.329,0.434-0.786,0.649-1.371,0.649
		c-1.57,0-2.355-1.465-2.355-4.395l-0.141-25.383l0.422-13.433c0-3.231,0.879-4.852,2.637-4.852c1.055,0,1.816,0.809,2.285,2.426
		c0.656,3.094,1.798,7.541,3.428,13.342c1.629,5.804,2.748,10.213,3.357,13.236c0.445,1.477,1.02,3.662,1.723,6.557
		c0.703,2.896,1.253,5.068,1.652,6.521c0.188-10.406,0.281-23.015,0.281-37.828l-0.105-1.934c0-0.654,0.123-1.179,0.369-1.564
		c0.246-0.385,0.662-0.58,1.248-0.58c0.585,0,1.066,0.144,1.441,0.422c0.75,0.562,1.125,1.359,1.125,2.394
		c0,6.586-0.188,15.047-0.562,25.383c-0.375,10.336-0.938,16.793-1.688,19.371c-0.094,0.021-0.293,0.088-0.598,0.19
		c-0.305,0.105-0.527,0.17-0.668,0.193c-1.336,0.305-2.18,0.246-2.531-0.176s-0.604-0.984-0.756-1.688
		c-0.153-0.703-0.329-1.389-0.527-2.057c-0.199-0.668-0.944-3.861-2.232-9.58c-3.445-15.117-5.567-23.906-6.363-26.367
		L209.146,525.1L209.146,525.1z"/>
	<path fill="#E3DED2" d="M248.134,525.1l-0.141,3.621v3.938c0,4.76-0.211,7.969-0.633,9.633c-0.422,1.666-0.851,3.037-1.283,4.113
		c-0.434,1.077-0.955,2.039-1.564,2.883c-1.406,1.897-3.188,3.444-5.344,4.641h-4.922c-1.219,0-1.828-3.141-1.828-9.422
		l0.211-22.676c0-4.195-0.083-8.133-0.246-11.812c-0.398-0.469-0.598-1.022-0.598-1.67c0-0.645,0.269-1.207,0.809-1.688
		c0.539-0.479,1.189-0.722,1.951-0.722c0.761,0,1.412,0.423,1.951,1.267c0.352,0.141,0.873,0.27,1.564,0.387
		c0.69,0.119,1.2,0.26,1.528,0.422c2.672,1.244,4.765,3.441,6.274,6.592C247.379,517.758,248.134,521.256,248.134,525.1z
		 M236.356,516.768l0.81,31.781v1.724h1.301c2.508-3.048,4.125-5.837,4.853-8.367c0.68-2.367,1.02-5.672,1.02-9.914
		c0-14.484-2.484-22.056-7.453-22.711C236.532,511.178,236.356,513.674,236.356,516.768z"/>
	<path fill="#E3DED2" d="M261.599,550.799l2.848-0.176c1.828,0,2.742,0.586,2.742,1.758c0,0.728-0.315,1.254-0.949,1.582
		c-0.633,0.328-1.348,0.492-2.145,0.492h-6.785c-0.609,0-1.131-0.211-1.563-0.633c-0.435-0.422-0.669-0.961-0.703-1.617
		c-0.035-0.656,0.012-1.479,0.141-2.461c0.128-0.984,0.193-1.771,0.193-2.355l-0.353-9.211l0.492-21.022l-0.387-6.082
		c0-3.396,1.007-5.099,3.023-5.099c0.562,0,1.09,0.177,1.582,0.527c0.188,0.023,0.638,0.064,1.354,0.123
		c0.715,0.059,1.341,0.135,1.881,0.229c0.539,0.095,1.125,0.226,1.758,0.388c1.359,0.375,2.039,1.02,2.039,1.934
		c0,0.984-0.703,1.736-2.109,2.25c-2.202-0.75-4.02-1.207-5.448-1.371c0.069,1.033,0.104,2.062,0.104,3.095l-0.315,10.338
		c0,0.047,0.069,0.422,0.211,1.125l2.565-0.105c2.32,0,3.48,0.656,3.48,1.969c0,0.703-0.206,1.324-0.615,1.863
		c-0.41,0.539-0.99,0.809-1.74,0.809s-1.405-0.211-1.969-0.633h-1.828c0.142,1.828,0.211,3.562,0.211,5.203l-0.315,13.043
		C258.998,549.452,259.864,550.799,261.599,550.799z"/>
	<path fill="#E3DED2" d="M276.681,532.202c-0.328,1.336-0.492,2.572-0.492,3.709c0,1.139,0.146,3.562,0.439,7.276
		c0.293,3.716,0.439,6.111,0.439,7.189s-0.193,1.898-0.58,2.461c-0.388,0.562-0.826,0.844-1.318,0.844
		c-0.703,0-1.148-0.479-1.336-1.44c0.047-1.779,0.07-3.967,0.07-6.558c0-2.59-0.207-8.278-0.615-17.067
		c-0.41-8.789-0.615-15.353-0.615-19.688c0-2.271,0.796-3.41,2.391-3.41c2.508,0,4.617,0.656,6.328,1.97
		c1.711,1.312,2.566,3.188,2.566,5.625c0,3.28-0.258,5.836-0.773,7.664s-1.488,4.112-2.918,6.854
		c0.258,1.148,0.715,3.445,1.371,6.892c1.383,7.452,2.941,12.831,4.676,16.137c0.492,0.938,0.738,1.67,0.738,2.197
		c0,0.526-0.146,0.973-0.439,1.336c-0.293,0.362-0.686,0.545-1.178,0.545c-1.57,0-3.012-2.613-4.324-7.84
		c-0.562-2.271-1.066-4.57-1.512-6.892c-1.266-6.352-2.074-9.926-2.426-10.723C277.173,529.893,277.009,530.866,276.681,532.202z
		 M276.575,508.19l-0.245,1.02c0,1.969,0.047,4.812,0.141,8.525c0.093,3.715,0.142,6.416,0.142,8.104
		c1.125-0.584,2.033-2.113,2.725-4.588c0.691-2.473,1.037-4.363,1.037-5.678c0-1.312-0.035-2.279-0.105-2.9
		c-0.07-0.619-0.223-1.305-0.457-2.057C279.364,509.045,278.286,508.239,276.575,508.19z"/>
	<path fill="#E3DED2" d="M307.091,510.159l-0.281,17.965c0.845,0.234,2.109,0.352,3.798,0.352h2.741v-1.512
		c0-2.201-0.164-5.514-0.491-9.932c-0.328-4.416-0.492-7.729-0.492-9.933c0-0.539,0.205-0.987,0.615-1.354
		c0.409-0.363,0.772-0.545,1.09-0.545c0.316,0,0.592-0.021,0.825-0.056c0.234-0.032,0.429-0.047,0.58-0.032
		c0.152,0.012,0.322,0.063,0.511,0.155c0.352,0.164,0.526,0.703,0.526,1.617c0,5.041,0.224,12.586,0.667,22.644
		c0.445,10.055,0.668,17.602,0.668,22.641c0,0.422-0.182,0.75-0.545,0.984c-0.363,0.231-0.826,0.352-1.388,0.352
		c-0.564,0-1.09-0.146-1.582-0.438c-0.492-0.294-0.75-0.687-0.773-1.179c-0.258-4.78-0.387-10.664-0.387-17.647v-0.281l-0.035-2.074
		l-0.035-0.668v-0.069c-0.375,0.096-0.914,0.143-1.616,0.143l-4.466-0.668l-0.211,7.943v0.315l0.599,11.848
		c0,0.703-0.17,1.314-0.511,1.828c-0.34,0.519-0.838,0.773-1.494,0.773c-0.961,0-1.623-0.873-1.985-2.619
		c-0.363-1.744-0.546-4.131-0.546-7.154l0.212-10.969l0.034-4.113l0.142-4.219l-0.492-16.242c0-0.561,0.199-1.059,0.599-1.494
		c0.397-0.434,0.879-0.647,1.44-0.647C306.329,505.87,307.091,507.299,307.091,510.159z"/>
	<path fill="#E3DED2" d="M341.473,534.135c0,13.806-2.821,20.707-8.473,20.707c-5.203,0-8.121-6.539-8.754-19.617
		c-0.047-1.241-0.07-2.481-0.07-3.727l-0.035-4.396v-1.403c0-10.148,1.488-16.418,4.468-18.812c0.727-0.584,1.534-0.899,2.426-0.946
		c0.68,0.231,1.512,0.45,2.496,0.647c0.981,0.199,1.711,0.404,2.18,0.615c0.867,0.398,1.805,1.438,2.812,3.111
		c1.008,1.676,1.752,3.914,2.229,6.715c0.48,2.801,0.721,5.606,0.721,8.42V534.135L341.473,534.135z M328.114,517.19l0.104,4.219
		l-0.035,6.891c0,0.586,0.013,1.279,0.035,2.074c0.023,0.797,0.054,1.846,0.088,3.146c0.035,1.301,0.105,2.591,0.211,3.867
		c0.106,1.277,0.229,2.625,0.369,4.043c0.141,1.418,0.328,2.73,0.562,3.938c0.233,1.209,0.492,2.303,0.771,3.287
		c0.636,2.133,1.468,3.198,2.496,3.198c1.385,0,2.439-1.301,3.164-3.901c1.078-3.867,1.617-8.625,1.617-14.273l0.104-7.418
		c0-5.203-0.229-8.705-0.686-10.512c-0.457-1.805-0.885-3.164-1.283-4.078c-0.797-1.85-2.004-2.777-3.621-2.777
		c-0.047,0-0.094,0-0.141,0C329.368,508.893,328.114,511.659,328.114,517.19z"/>
	<path fill="#E3DED2" d="M370.829,511.565c-0.353,2.319-0.551,4.043-0.598,5.168v5.272c0,9.82-0.621,17.66-1.863,23.521
		c-0.234,1.104-0.353,2.133-0.353,3.094c0,4.875-0.879,7.312-2.637,7.312c-0.867,0-1.43-0.62-1.688-1.862
		c-0.097-0.445-0.144-1.22-0.144-2.32s-0.293-3.315-0.879-6.645c-0.231-1.431-0.434-2.884-0.598-4.359s-0.422-4.605-0.773-9.387
		c-0.35-4.781-0.703-8.438-1.055-10.97c-0.142,1.597-0.211,3.492-0.211,5.695s-0.457,6.211-1.371,12.023
		c-0.422,2.811-0.68,4.573-0.771,5.291c-0.096,0.715-0.192,1.799-0.301,3.252c-0.104,1.453-0.381,3.149-0.824,5.098
		c-0.471,2.18-1.221,3.271-2.25,3.271c-1.432,0-2.414-2.052-2.952-6.152c-0.234-1.828-0.416-3.607-0.546-5.344
		c-0.131-1.734-0.225-3.463-0.28-5.187c-0.06-1.723-0.129-2.912-0.211-3.567c-0.082-0.654-0.328-2.314-0.738-4.976
		s-0.656-4.547-0.738-5.66c-0.082-1.11-0.158-2.534-0.229-4.271c-0.07-1.734-0.17-3.639-0.299-5.713
		c-0.13-2.074-0.642-4.107-1.529-6.101c0.396-0.844,1.09-1.266,2.074-1.266c1.547,0,2.317,1.74,2.317,5.221
		c0,3.481,0.504,8.789,1.515,15.927c1.008,7.137,1.567,12.346,1.688,15.627c0.07-0.47,0.234-1.56,0.492-3.271
		s0.434-2.889,0.527-3.533c0.093-0.644,0.231-1.705,0.422-3.182c0.188-1.479,0.313-2.666,0.387-3.568
		c0.07-0.899,0.141-1.963,0.211-3.182s0.105-2.48,0.105-3.779c0-1.301,0.141-3.416,0.422-6.346c0.28-2.93,0.442-4.84,0.491-5.73
		h1.935c0.539,0,0.996,0.152,1.371,0.457c0.375,0.306,0.561,0.738,0.561,1.302v0.598c1.195,4.549,2.156,11.238,2.885,20.074
		c0.326,4.03,0.634,7.137,0.914,9.315c0.798-6.703,1.193-14.637,1.193-23.801c0-1.219,0.184-3.023,0.545-5.414
		c0.363-2.391,0.545-4.195,0.545-5.414c-0.164-0.422-0.246-0.832-0.246-1.229c0-1.172,0.677-1.759,2.021-1.759
		c1.348,0,2.021,0.562,2.021,1.688C371.368,507.651,371.18,509.245,370.829,511.565z"/>
	<path fill="#E3DED2" d="M397.266,552.698l-2.707,0.035l-3.129,0.141c-1.336,0-2.227-0.435-2.672-1.301
		c0-0.703,0.088-1.248,0.265-1.636c0.178-0.387,0.547-0.58,1.106-0.58h2.039l0.141-0.948l-0.489-15.293l0.387-16.031
		c0-2.693-0.117-5.25-0.354-7.664c-1.008,0-1.938,0-2.795,0c-0.854,0-1.479-0.135-1.881-0.404c-0.396-0.268-0.598-0.776-0.598-1.526
		c0-1.125,1.301-1.677,3.902-1.652h0.245c6.164,0,9.246,0.82,9.246,2.461c0,0.258-0.141,0.703-0.422,1.336h-3.69
		c0.188,1.758,0.28,3.82,0.28,6.188l-0.387,13.745l0.527,15.294v2.145c0,0.422-0.082,1.068-0.246,1.935h3.059
		c1.969,0,2.953,0.6,2.953,1.795c0,0.539-0.17,0.995-0.51,1.368c-0.34,0.375-0.724,0.562-1.146,0.562L397.266,552.698z"/>
	<path fill="#E3DED2" d="M413.895,546.827l0.144-2.461c-0.189-0.609-0.574-6.029-1.16-16.26
		c-0.586-10.231-0.902-16.472-0.949-18.722c-2.766-0.069-4.477-0.319-5.133-0.756c-0.656-0.434-0.984-0.885-0.984-1.354
		c0-0.472,0.259-0.851,0.773-1.146c0.516-0.293,1.021-0.438,1.512-0.438l9.773,0.668l1.16-0.035c1.5,0,2.25,0.574,2.25,1.723
		c0,0.586-0.246,1.062-0.738,1.424c-0.492,0.363-1.043,0.545-1.652,0.545l-3.305-0.491l-0.141,0.737
		c0,4.548,0.396,11.355,1.192,20.427c0.797,9.07,1.195,15.891,1.195,20.461c0,0.586-0.217,1.09-0.65,1.512
		c-0.432,0.422-0.94,0.633-1.526,0.633h-1.617L413.895,546.827z"/>
	<path fill="#E3DED2" d="M446.239,552.698l-2.707,0.035l-3.129,0.141c-1.336,0-2.228-0.435-2.672-1.301
		c0-0.703,0.088-1.248,0.264-1.636c0.176-0.387,0.545-0.58,1.106-0.58h2.039l0.142-0.948l-0.492-15.293l0.387-16.031
		c0-2.693-0.117-5.25-0.352-7.664c-1.008,0-1.939,0-2.795,0c-0.856,0-1.482-0.135-1.881-0.404c-0.398-0.268-0.599-0.776-0.599-1.526
		c0-1.125,1.301-1.677,3.902-1.652h0.246c6.164,0,9.246,0.82,9.246,2.461c0,0.258-0.144,0.703-0.424,1.336h-3.689
		c0.188,1.758,0.281,3.82,0.281,6.188l-0.39,13.745l0.527,15.294v2.145c0,0.422-0.082,1.068-0.246,1.935h3.06
		c1.971,0,2.952,0.6,2.952,1.795c0,0.539-0.17,0.995-0.51,1.368c-0.34,0.375-0.721,0.562-1.143,0.562L446.239,552.698z"/>
	<path fill="#E3DED2" d="M455.696,550.483l3.797,0.526c0.914,0,1.711-0.397,2.391-1.195c0.681-0.797,1.187-1.793,1.513-2.987
		c0.635-2.297,0.948-4.328,0.948-6.101c0-1.77-0.293-3.521-0.879-5.256c-0.586-1.734-1.301-3.346-2.145-4.834
		c-0.845-1.487-1.699-3.006-2.566-4.553c-2.016-3.633-3.022-7.219-3.022-10.758c0-2.156,0.362-4.066,1.092-5.73
		c1.356-3.094,3.164-4.641,5.414-4.641c0.844,0,1.645,0.27,2.406,0.809c0.764,0.539,1.145,1.125,1.145,1.759
		c0,1.104-0.586,1.651-1.758,1.651c-0.519,0-1.021-0.141-1.515-0.422c-1.521,0.07-2.555,1.771-3.094,5.098
		c-0.117,0.728-0.176,1.576-0.176,2.55c0,0.973,0.211,2.176,0.633,3.604c0.422,1.43,0.955,2.703,1.601,3.814
		c0.646,1.112,1.336,2.344,2.073,3.69c0.738,1.351,1.438,2.654,2.093,3.92c1.479,2.933,2.217,6.281,2.217,10.056
		c0,3.002-0.601,5.776-1.793,8.332c-0.635,1.312-1.529,2.387-2.689,3.217c-1.16,0.832-2.502,1.26-4.024,1.283v0.176
		c-0.892-0.117-1.699-0.416-2.427-0.896c-0.727-0.479-1.137-1.104-1.229-1.881v-1.229L455.696,550.483L455.696,550.483z"/>
	<path fill="#E3DED2" d="M493.383,552.698l-2.707,0.035l-3.129,0.141c-1.336,0-2.227-0.435-2.672-1.301
		c0-0.703,0.088-1.248,0.264-1.636c0.179-0.387,0.545-0.58,1.107-0.58h2.039l0.141-0.948l-0.492-15.293l0.39-16.031
		c0-2.693-0.117-5.25-0.354-7.664c-1.008,0-1.938,0-2.795,0c-0.854,0-1.479-0.135-1.881-0.404c-0.398-0.268-0.598-0.776-0.598-1.526
		c0-1.125,1.301-1.677,3.901-1.652h0.246c6.164,0,9.246,0.82,9.246,2.461c0,0.258-0.141,0.703-0.422,1.336h-3.691
		c0.188,1.758,0.281,3.82,0.281,6.188l-0.387,13.745l0.524,15.294v2.145c0,0.422-0.079,1.068-0.243,1.935h3.059
		c1.969,0,2.953,0.6,2.953,1.795c0,0.539-0.17,0.995-0.51,1.368c-0.343,0.375-0.724,0.562-1.146,0.562L493.383,552.698z"/>
	<path fill="#E3DED2" d="M507.622,525.1l0.422,18.634v8.155c0,0.633-0.164,1.166-0.492,1.601c-0.328,0.434-0.785,0.649-1.371,0.649
		c-1.567,0-2.354-1.465-2.354-4.395l-0.144-25.383l0.425-13.433c0-3.231,0.879-4.852,2.637-4.852c1.055,0,1.813,0.809,2.285,2.426
		c0.653,3.094,1.799,7.541,3.428,13.342c1.629,5.804,2.748,10.213,3.354,13.236c0.445,1.477,1.021,3.662,1.726,6.557
		c0.703,2.896,1.254,5.068,1.649,6.521c0.189-10.406,0.281-23.015,0.281-37.828l-0.104-1.934c0-0.654,0.123-1.179,0.369-1.564
		c0.246-0.385,0.659-0.58,1.248-0.58c0.586,0,1.063,0.144,1.438,0.422c0.75,0.562,1.125,1.359,1.125,2.394
		c0,6.586-0.188,15.047-0.561,25.383c-0.375,10.336-0.939,16.793-1.689,19.371c-0.094,0.021-0.293,0.088-0.598,0.19
		c-0.306,0.105-0.527,0.17-0.668,0.193c-1.336,0.305-2.181,0.246-2.531-0.176s-0.604-0.984-0.756-1.688
		c-0.152-0.705-0.328-1.389-0.527-2.057s-0.94-3.861-2.229-9.58c-3.445-15.117-5.566-23.906-6.363-26.367v10.76h-0.001V525.1z"/>
	<path fill="#E3DED2" d="M529.875,550.483l3.797,0.526c0.914,0,1.711-0.397,2.391-1.195c0.683-0.797,1.187-1.793,1.515-2.987
		c0.633-2.297,0.947-4.328,0.947-6.101c0-1.77-0.294-3.521-0.88-5.256c-0.586-1.734-1.301-3.346-2.145-4.834
		c-0.844-1.487-1.699-3.006-2.566-4.553c-2.016-3.633-3.021-7.219-3.021-10.758c0-2.156,0.361-4.066,1.09-5.73
		c1.359-3.094,3.164-4.641,5.414-4.641c0.844,0,1.646,0.27,2.408,0.809c0.762,0.539,1.143,1.125,1.143,1.759
		c0,1.104-0.586,1.651-1.758,1.651c-0.516,0-1.021-0.141-1.512-0.422c-1.523,0.07-2.558,1.771-3.097,5.098
		c-0.114,0.728-0.176,1.576-0.176,2.55c0,0.973,0.211,2.176,0.633,3.604c0.422,1.43,0.955,2.703,1.603,3.814
		c0.645,1.112,1.336,2.344,2.072,3.69c0.737,1.351,1.438,2.654,2.094,3.92c1.477,2.933,2.215,6.281,2.215,10.056
		c0,3.002-0.6,5.776-1.793,8.332c-0.633,1.312-1.529,2.387-2.689,3.217c-1.159,0.832-2.502,1.26-4.024,1.283v0.176
		c-0.892-0.117-1.699-0.416-2.426-0.896c-0.728-0.479-1.138-1.104-1.23-1.881v-1.229L529.875,550.483L529.875,550.483z"/>
	<path fill="#E3DED2" d="M557.368,552.698l-2.707,0.035l-3.129,0.141c-1.336,0-2.228-0.435-2.672-1.301
		c0-0.703,0.088-1.248,0.264-1.636c0.176-0.387,0.545-0.58,1.106-0.58h2.039l0.142-0.948l-0.492-15.293l0.387-16.031
		c0-2.693-0.116-5.25-0.352-7.664c-1.008,0-1.939,0-2.795,0c-0.856,0-1.482-0.135-1.881-0.404c-0.398-0.268-0.599-0.776-0.599-1.526
		c0-1.125,1.302-1.677,3.902-1.652h0.246c6.164,0,9.246,0.82,9.246,2.461c0,0.258-0.144,0.703-0.424,1.336h-3.689
		c0.188,1.758,0.281,3.82,0.281,6.188l-0.39,13.745l0.527,15.294v2.145c0,0.422-0.082,1.068-0.246,1.935h3.062
		c1.969,0,2.95,0.6,2.95,1.795c0,0.539-0.17,0.995-0.51,1.368c-0.34,0.375-0.721,0.562-1.143,0.562L557.368,552.698z"/>
	<path fill="#E3DED2" d="M583.559,525.1l-0.141,3.621v3.938c0,4.76-0.211,7.969-0.633,9.633c-0.422,1.666-0.85,3.037-1.283,4.113
		c-0.434,1.077-0.955,2.039-1.564,2.883c-1.403,1.897-3.188,3.444-5.344,4.641h-4.922c-1.219,0-1.828-3.141-1.828-9.422
		l0.211-22.676c0-4.195-0.082-8.133-0.246-11.812c-0.396-0.469-0.598-1.022-0.598-1.67c0-0.645,0.271-1.207,0.809-1.688
		c0.539-0.479,1.189-0.722,1.951-0.722c0.763,0,1.412,0.423,1.951,1.267c0.353,0.141,0.873,0.27,1.564,0.387
		c0.69,0.119,1.201,0.26,1.528,0.422c2.673,1.244,4.765,3.441,6.275,6.592C582.803,517.758,583.559,521.256,583.559,525.1z
		 M571.782,516.768l0.809,31.781v1.724h1.301c2.511-3.048,4.125-5.837,4.854-8.367c0.68-2.367,1.02-5.672,1.02-9.914
		c0-14.484-2.483-22.056-7.452-22.711C571.958,511.178,571.782,513.674,571.782,516.768z"/>
	<path fill="#E3DED2" d="M597.026,550.799l2.848-0.176c1.828,0,2.742,0.586,2.742,1.758c0,0.728-0.316,1.254-0.949,1.582
		s-1.348,0.492-2.146,0.492h-6.783c-0.609,0-1.131-0.211-1.564-0.633c-0.433-0.422-0.668-0.961-0.703-1.617s0.013-1.479,0.142-2.461
		c0.129-0.984,0.192-1.771,0.192-2.355l-0.352-9.211l0.492-21.022l-0.39-6.082c0-3.396,1.009-5.099,3.023-5.099
		c0.562,0,1.09,0.177,1.582,0.527c0.188,0.023,0.639,0.064,1.354,0.123c0.716,0.059,1.343,0.135,1.882,0.229
		c0.538,0.095,1.125,0.226,1.76,0.388c1.356,0.375,2.039,1.02,2.039,1.934c0,0.984-0.703,1.736-2.109,2.25
		c-2.203-0.75-4.021-1.207-5.449-1.371c0.07,1.033,0.105,2.062,0.105,3.095l-0.316,10.338c0,0.047,0.07,0.422,0.211,1.125
		l2.566-0.105c2.318,0,3.479,0.656,3.479,1.969c0,0.703-0.205,1.324-0.614,1.863c-0.408,0.539-0.988,0.809-1.738,0.809
		s-1.406-0.211-1.971-0.633h-1.826c0.141,1.828,0.211,3.562,0.211,5.203l-0.316,13.043
		C594.422,549.452,595.29,550.799,597.026,550.799z"/>
</g>
<g>
	<g>
		<path fill="#E3DED2" d="M615.01,507.581c-6.313-6.879,0.623-13.732,8.5-11.521c6.713,1.888,5.582,11.527,4.638,16.566
			c-1.951,10.387-7.82,19.994-8.972,30.492c-0.211,1.922,2.791,1.899,3,0c0.854-7.789,4.871-15.438,7.135-22.89
			c1.943-6.395,4.382-15.198,1.099-21.588c-3.144-6.11-9.976-7.278-15.922-4.594c-7.104,3.209-6.074,10.777-1.599,15.654
			C614.2,511.129,616.315,509.002,615.01,507.581L615.01,507.581z"/>
	</g>
</g>
<g>
	<g>
		<path fill="#E3DED2" d="M619.836,555.547c1.934,0,1.934-3,0-3C617.901,552.547,617.901,555.547,619.836,555.547L619.836,555.547z"
			/>
	</g>
</g>
<g>
	<circle fill="#3F5E8E" cx="310.848" cy="176.829" r="176.829"/>
	<path fill="#36547F" d="M419.471,267.531c-6.51-9.479-7.66-5.438-13.733-14.633c-4.252-6.439-2.365-15.317,4.791-22.546
		c0,2.6,0,4.68,0,6.759c0.377,0.264,0.756,0.528,1.133,0.791c2.203-2.388,4.406-4.773,6.606-7.163
		c13.101-14.207,25.683-28.913,31.771-47.615c2.604-7.998,3.422-16.676,4.279-25.123c1.045-10.325-4.384-17.705-12.318-23.645
		c-1.551-1.159-3.301-2.841-3.73-4.584c-6.586-26.875-26.895-37.951-51.131-43.922c-10.951-2.697-22.321-3.696-33.506-5.465
		c-0.193,0.487-0.391,0.974-0.586,1.461c4.006,2.833,8.008,5.666,13.059,9.236c-11.977,0-22.604,0-33.231,0
		c-0.103,0.532-0.203,1.063-0.305,1.594c3.493,1.375,6.991,2.751,11.897,4.683c-16.131,3.846-31.001,7.426-41.447,21.171
		c3.258,0.267,5.583,0.457,8.561,0.7c-1.653,3.335-3.512,6.051-4.383,9.054c-1.518,5.231-3.262,10.616-3.383,15.973
		c-0.16,7.06-3.037,12.04-8.504,15.814c-3.754,2.594-7.783,4.787-11.658,7.209c-4.641,2.897-5.521,5.704-1.863,9.683
		c3.18,3.461,3.537,6.372,0.906,9.948c-3.332,4.533,0.802,6.348,3.607,9.132c-4.615,2.271-3.884,4.755-1.74,8.878
		c1.555,2.989,0.604,7.779-0.353,11.477c-2.465,9.505-1.349,12.283,8.137,15.234c3.978,1.239,8.177,1.801,12.3,2.535
		c6.457,1.154,11.596,4.354,13.896,10.539c2.438,6.539,4.812,13.279,5.809,20.137c1.048,7.208-2.151,11.125-9.138,13.951
		c-3.52,1.428-7.128,2.659-10.741,3.837c-19.897,6.479-34.926,18.257-42.231,38.529c-0.256,0.711-0.629,1.388-1.006,2.046
		c-0.18,0.316-0.494,0.555-0.752,0.824c-54.539-13.407-109.382-66.457-116.927-138.307c-8.685-82.71,42.946-150.472,112.231-172.12
		c80.07-25.019,162.687,18.491,188.843,89.256C469.98,171.431,464.543,223.236,419.471,267.531z M226.927,145.861
		c0.335-0.125,0.669-0.251,1.003-0.375c-1.086-9.374-2.068-18.762-3.318-28.113c-0.387-2.893,0.151-4.512,3.066-5.687
		c4.845-1.95,9.483-4.408,15.298-7.169c-5.152-1.943-8.927-3.974-12.939-4.736c-6.285-1.195-7.092-4.835-6.203-10.199
		c1.064-6.423,1.734-12.911,2.576-19.371c-5.824,5.596-10.52,11.492-14.876,17.628c-2.017,2.84-3.714,3.709-6.964,1.75
		c-3.399-2.05-7.206-3.422-12.169-5.705c2.395,4.913,3.632,8.628,5.81,11.671c4.438,6.205,3.328,11.698-0.43,17.731
		c-3.308,5.313-5.773,11.148-8.611,16.754c0.294,0.178,0.588,0.356,0.883,0.535c5.889-3.753,11.777-7.504,17.898-11.406
		C214.454,128.317,220.69,137.088,226.927,145.861z"/>
	<path fill="#4D6E96" d="M417.686,276.575c-6.51-9.477-12.875-18.48-18.948-27.676c-4.252-6.439-2.365-15.318,4.791-22.547
		c0,2.6,0,4.68,0,6.76c0.377,0.264,0.756,0.527,1.133,0.791c2.203-2.389,4.406-4.773,6.606-7.164
		c13.101-14.207,25.683-28.912,31.771-47.615c2.604-7.998,3.422-16.676,4.279-25.123c1.045-10.325-4.384-17.705-12.318-23.645
		c-1.551-1.159-3.301-2.841-3.73-4.585c-6.586-26.875-26.895-37.951-51.131-43.922c-10.951-2.697-22.321-3.696-33.506-5.465
		c-0.193,0.487-0.391,0.974-0.586,1.461c4.006,2.833,8.008,5.666,13.059,9.236c-11.977,0-22.604,0-33.231,0
		c-0.103,0.531-0.201,1.062-0.305,1.594c3.495,1.375,6.993,2.751,11.897,4.683c-16.129,3.847-30.999,7.426-41.447,21.171
		c3.258,0.268,5.584,0.457,8.563,0.7c-1.656,3.335-3.515,6.052-4.386,9.054c-1.518,5.231-3.262,10.617-3.383,15.973
		c-0.16,7.061-3.037,12.041-8.504,15.814c-3.754,2.595-7.783,4.788-11.658,7.209c-4.641,2.898-5.521,5.705-1.863,9.684
		c3.18,3.461,3.537,6.371,0.906,9.947c-3.332,4.533,0.802,6.348,3.607,9.133c-4.615,2.271-3.884,4.754-1.74,8.877
		c1.555,2.99,0.604,7.779-0.353,11.477c-2.466,9.506-1.349,12.283,8.137,15.234c3.978,1.24,8.177,1.801,12.3,2.535
		c6.457,1.154,11.596,4.355,13.898,10.539c2.438,6.539,4.812,13.279,5.808,20.137c1.048,7.209-2.153,11.125-9.139,13.951
		c-3.521,1.429-7.129,2.66-10.742,3.838c-19.897,6.479-34.926,18.257-42.231,38.529c-0.256,0.711-0.629,1.387-1.006,2.045
		c-0.18,0.316-0.494,0.555-0.752,0.824c-54.539-13.406-109.383-66.457-116.927-138.307C127.87,99.012,179.501,31.25,248.786,9.602
		C328.856-15.417,408.76,22.664,444.1,89.321C479.002,155.143,462.758,232.28,417.686,276.575z M219.927,141.861
		c0.335-0.126,0.669-0.252,1.003-0.375c-1.086-9.374-2.068-18.762-3.318-28.113c-0.387-2.893,0.151-4.512,3.066-5.686
		c4.844-1.95,9.483-4.408,15.298-7.17c-5.152-1.943-8.927-3.973-12.94-4.735c-6.285-1.194-7.092-4.835-6.203-10.199
		c1.064-6.423,1.734-12.911,2.576-19.371c-5.824,5.596-10.52,11.492-14.876,17.628c-2.017,2.84-3.714,3.71-6.964,1.75
		c-3.399-2.051-7.206-3.422-12.169-5.705c2.395,4.912,3.632,8.628,5.81,11.672c4.438,6.204,3.328,11.697-0.43,17.73
		c-3.308,5.314-5.773,11.148-8.611,16.755c0.294,0.178,0.588,0.356,0.883,0.535c5.889-3.753,11.777-7.505,17.898-11.406
		C207.454,124.317,213.69,133.088,219.927,141.861z"/>
</g>
<g>
	<path fill="#E3DED2" d="M525.936,35.611l15.115-11.013c7.185,3.365,11.862,7.747,14.038,13.147c2.175,5.4,2.081,10.884-0.28,16.453
		c-1.523,3.592-3.872,7.088-7.042,10.486s-8.95,7.901-17.342,13.509c-9.756,6.567-15.441,11.759-17.061,15.575
		c-0.248,0.584-0.504,1.563-0.769,2.934c-2.467-2.688-3.949-5.29-4.444-7.805c-0.499-2.516-0.054-5.412,1.338-8.691
		c1.333-3.143,3.053-5.725,5.161-7.745c2.107-2.02,6.535-5.333,13.287-9.939c6.473-4.459,10.565-8.71,12.279-12.751
		c1.182-2.784,1.249-5.363,0.207-7.739s-3.008-4.177-5.896-5.402C532.363,35.711,529.499,35.372,525.936,35.611z M515.299,118.096
		c-0.977,2.303-2.606,3.887-4.894,4.755c-2.285,0.868-4.625,0.794-7.018-0.22c-2.256-0.957-3.825-2.529-4.711-4.714
		c-0.884-2.185-0.847-4.406,0.11-6.663c0.996-2.348,2.632-4.009,4.911-4.987c2.276-0.978,4.546-0.988,6.804-0.03
		c2.347,0.995,3.981,2.634,4.904,4.916C516.33,113.435,516.294,115.749,515.299,118.096z"/>
</g>
<circle fill="#E0DAD1" stroke="#D8D3CB" stroke-miterlimit="10" cx="284.052" cy="745.083" r="9.141"/>
<circle fill="#C6BEAF" stroke="#C4BCAD" stroke-miterlimit="10" cx="317.011" cy="744.582" r="9.141"/>
<circle fill="#C6BEAF" stroke="#C4BCAD" stroke-miterlimit="10" cx="348.104" cy="744.582" r="9.141"/>
</svg>
