<?xml version="1.0" encoding="utf-8"?>
<!-- Generator: Adobe Illustrator 16.0.0, SVG Export Plug-In . SVG Version: 6.00 Build 0)  -->
<!DOCTYPE svg PUBLIC "-//W3C//DTD SVG 1.1//EN" "http://www.w3.org/Graphics/SVG/1.1/DTD/svg11.dtd">
<svg version="1.1" id="Layer_2" xmlns="http://www.w3.org/2000/svg" xmlns:xlink="http://www.w3.org/1999/xlink" x="0px" y="0px"
	 width="623px" height="686.844px" viewBox="0 0 623 686.844" enable-background="new 0 0 623 686.844" xml:space="preserve">
<g>
	<g>
		<path fill="#FF9381" d="M238.594,240.436c0.033,6.611,0.75,13.252,0.421,19.858c-0.336,6.747-4.074,11.01-9.656,14.434
			c-14.926,9.154-32.906,8.346-49.761,7.43c-14.733-0.801-29.928-2.694-44.509,0.497c-14.128,3.091-23.425,13.599-29.784,26.021
			c-0.879,1.718,1.709,3.236,2.591,1.514c3.969-7.753,8.884-14.943,16.24-19.825c6.049-4.014,13.332-5.486,20.449-6.097
			c16.676-1.431,33.469,1.339,50.157,1.373c14.628,0.029,30.354-2.195,41.651-12.372c8.819-7.944,5.253-22.479,5.202-32.833
			C241.584,238.502,238.584,238.501,238.594,240.436L238.594,240.436z"/>
	</g>
</g>
<g>
	<g>
		<path fill="#FF9381" d="M291.091,234.437c2.106,37.898,1.252,75.865,1.076,113.798c-0.085,18.479,0.274,36.946,0.455,55.422
			c0.147,15.011,1.333,30.757,9.173,43.944c0.987,1.661,3.582,0.153,2.591-1.514c-8.13-13.678-8.695-30.042-8.788-45.537
			c-0.108-18.103-0.505-36.194-0.421-54.302c0.172-37.273,0.984-74.573-1.085-111.812
			C293.984,232.513,290.983,232.503,291.091,234.437L291.091,234.437z"/>
	</g>
</g>
<path fill="none" stroke="#E3DED2" stroke-width="3" stroke-linecap="round" stroke-linejoin="round" stroke-miterlimit="10" d="
	M302.84,450.884"/>
<path fill="none" stroke="#E3DED2" stroke-width="3" stroke-linecap="round" stroke-linejoin="round" stroke-miterlimit="10" d="
	M466.5,686.844"/>
<path fill="#E3DED2" d="M279.601,412.733c0-0.001,3.392,70.141,36.093,101.358c3.262-10.979,12.818-49.07-5.194-107.285"/>
<path fill="#FF9381" d="M279.601,412.733c0.138,5.123,1.879,25.76,4.301,32.058c4.563-0.887-21.605-10.593-23.443-34.013"/>
<path fill="#FF9381" d="M310.5,406.807c1.899,4.754,6.715,24.72,6.99,31.465c1.982-8.442,19.957-11.174,9.79-40.943"/>
<path fill="#FF9381" d="M315.693,514.092c-3.925-3.225-13.021-15.097-17.142-24.35c-4.322-9.697,25.593-20.325,22.829-6.98
	C320.032,489.288,318.494,507.481,315.693,514.092z"/>
<path fill="#FF9381" d="M299.571,458.053c2.67-3.271,7.32-3.427,10.394-0.344c3.072,3.085,3.396,8.234,0.727,11.503
	c-2.671,3.273-7.326,3.426-10.395,0.343C297.225,466.471,296.9,461.32,299.571,458.053z"/>
<path fill="#78A5CE" d="M412,192.391c0,22.527-6.801,22.453-15.09,22.453H188.011c-8.29,0-15.011,0.074-15.011-22.453v-39.423
	c0-22.527,6.721-22.124,15.011-22.124H396.91c8.289,0,15.09-0.403,15.09,22.124V192.391z"/>
<g>
	<path fill="#E3DED2" d="M228.226,167.306h-4.898v-9.41l-4.418,5.449h-0.387l-4.43-5.449v9.41h-4.758v-16.242h4.441l4.992,6.094
		l5.016-6.094h4.441V167.306z"/>
	<path fill="#E3DED2" d="M250.163,167.306h-5.016l-1.324-3.293h-7.055l-1.348,3.293h-5.016l7.184-16.242h5.414L250.163,167.306z
		 M242.698,161.189l-2.379-5.93l-2.402,5.93H242.698z"/>
	<path fill="#E3DED2" d="M265.491,155.013h-5.953v12.293h-4.887v-12.293h-5.953v-3.949h16.793V155.013z"/>
	<path fill="#E3DED2" d="M281.522,166.087c-0.672,0.352-1.359,0.633-2.062,0.844s-1.412,0.361-2.127,0.451s-1.455,0.135-2.221,0.135
		c-1.414,0-2.682-0.195-3.803-0.586s-2.094-0.967-2.918-1.729s-1.441-1.652-1.852-2.672s-0.615-2.139-0.615-3.357
		c0-1.398,0.242-2.623,0.727-3.674s1.162-1.924,2.033-2.619s1.863-1.209,2.977-1.541s2.287-0.498,3.521-0.498
		c1.844,0,3.934,0.41,6.27,1.23v4.312c-0.805-0.5-1.6-0.916-2.385-1.248s-1.709-0.498-2.771-0.498c-0.945,0-1.828,0.188-2.648,0.562
		s-1.48,0.91-1.98,1.605s-0.75,1.508-0.75,2.438c0,0.82,0.219,1.572,0.656,2.256s1.045,1.227,1.822,1.629s1.654,0.604,2.631,0.604
		c0.789,0,1.535-0.096,2.238-0.287s1.295-0.404,1.775-0.639s0.975-0.512,1.482-0.832V166.087z"/>
	<path fill="#E3DED2" d="M301.972,167.306h-4.887v-6.34h-7.371v6.34h-4.898v-16.242h4.898v5.965h7.371v-5.965h4.887V167.306z"/>
	<path fill="#E3DED2" d="M339.483,151.064l-7.031,16.453h-2.836l-4.219-9.574l-4.324,9.574h-2.859l-6.891-16.453h5.074l3.375,9
		l3.867-9h3.504l3.797,9l3.527-9H339.483z"/>
	<path fill="#E3DED2" d="M346.655,167.306h-4.898v-16.242h4.898V167.306z"/>
	<path fill="#E3DED2" d="M366.331,155.013h-5.953v12.293h-4.887v-12.293h-5.953v-3.949h16.793V155.013z"/>
	<path fill="#E3DED2" d="M386.347,167.306h-4.887v-6.34h-7.371v6.34h-4.898v-16.242h4.898v5.965h7.371v-5.965h4.887V167.306z"/>
	<path fill="#E3DED2" d="M241.397,188.278c0,1.664-0.303,3-0.908,4.008s-1.318,1.824-2.139,2.449
		c-1.164,0.914-2.793,1.371-4.887,1.371h-8.766v-16.242h6.75c1.016,0,1.885,0.053,2.607,0.158s1.373,0.254,1.951,0.445
		s1.07,0.406,1.477,0.645s0.77,0.494,1.09,0.768c0.555,0.453,1.041,0.988,1.459,1.605s0.75,1.332,0.996,2.145
		S241.397,187.325,241.397,188.278z M236.417,188.067c0-1.32-0.252-2.35-0.756-3.088s-1.109-1.232-1.816-1.482
		s-1.428-0.375-2.162-0.375h-2.086v9.621h2.086c1.281,0,2.391-0.305,3.328-0.914S236.417,189.966,236.417,188.067z"/>
	<path fill="#E3DED2" d="M261.226,196.106h-5.016l-1.324-3.293h-7.055l-1.348,3.293h-5.016l7.184-16.242h5.414L261.226,196.106z
		 M253.761,189.989l-2.379-5.93l-2.402,5.93H253.761z"/>
	<path fill="#E3DED2" d="M281.019,196.106h-4.359l-8.426-9.047v9.047h-4.852v-16.242h4.348l8.402,9v-9h4.887V196.106z"/>
	<path fill="#E3DED2" d="M302.476,187.974c0,1.516-0.35,2.91-1.049,4.184s-1.74,2.285-3.123,3.035s-3.066,1.125-5.051,1.125
		c-2.008,0-3.707-0.391-5.098-1.172s-2.424-1.809-3.1-3.082s-1.014-2.637-1.014-4.09c0-1.461,0.336-2.826,1.008-4.096
		s1.705-2.293,3.1-3.07s3.096-1.166,5.104-1.166c1.5,0,2.838,0.223,4.014,0.668s2.143,1.049,2.9,1.811s1.332,1.648,1.723,2.66
		S302.476,186.856,302.476,187.974z M297.483,187.974c0-0.609-0.09-1.166-0.27-1.67s-0.451-0.941-0.814-1.312
		s-0.807-0.66-1.33-0.867s-1.129-0.311-1.816-0.311c-1.312,0-2.344,0.383-3.094,1.148s-1.125,1.77-1.125,3.012
		s0.377,2.248,1.131,3.018s1.783,1.154,3.088,1.154c0.898,0,1.664-0.178,2.297-0.533s1.113-0.848,1.441-1.477
		S297.483,188.786,297.483,187.974z"/>
	<path fill="#E3DED2" d="M322.819,196.106h-4.359l-8.426-9.047v9.047h-4.852v-16.242h4.348l8.402,9v-9h4.887V196.106z"/>
	<path fill="#E3DED2" d="M339.144,196.106h-12.246v-16.242h12.047v3.258h-7.148v2.977h6.82v3.27h-6.82v3.469h7.348V196.106z"/>
	<path fill="#E3DED2" d="M358.151,196.106h-5.262l-1.277-2.883c-0.469-1.055-0.891-1.826-1.266-2.314s-0.74-0.801-1.096-0.938
		s-0.814-0.205-1.377-0.205h-0.551v6.34h-4.898v-16.242h8.332c1.344,0,2.445,0.273,3.305,0.82s1.479,1.211,1.857,1.992
		s0.568,1.523,0.568,2.227c0,0.82-0.158,1.514-0.475,2.08s-0.65,0.979-1.002,1.236s-0.746,0.504-1.184,0.738
		c0.523,0.305,0.955,0.666,1.295,1.084s0.803,1.264,1.389,2.537L358.151,196.106z M351.495,184.997c0-0.75-0.246-1.273-0.738-1.57
		s-1.293-0.445-2.402-0.445h-1.031v3.914h1.055c1.195,0,2.014-0.131,2.455-0.393S351.495,185.739,351.495,184.997z"/>
	<path fill="#E3DED2" d="M371.733,191.384c0,1.016-0.26,1.895-0.779,2.637s-1.244,1.311-2.174,1.705s-1.996,0.592-3.199,0.592
		c-0.336,0-0.748-0.021-1.236-0.064s-1.137-0.162-1.945-0.357s-1.65-0.484-2.525-0.867v-3.984c0.82,0.508,1.627,0.93,2.42,1.266
		s1.643,0.504,2.549,0.504c0.836,0,1.377-0.139,1.623-0.416s0.369-0.537,0.369-0.779c0-0.438-0.211-0.807-0.633-1.107
		s-1.035-0.611-1.84-0.932c-0.891-0.375-1.672-0.783-2.344-1.225s-1.221-0.994-1.646-1.658s-0.639-1.449-0.639-2.355
		c0-0.875,0.215-1.666,0.645-2.373s1.086-1.271,1.969-1.693s1.961-0.633,3.234-0.633c0.906,0,1.744,0.088,2.514,0.264
		s1.404,0.373,1.904,0.592s0.844,0.391,1.031,0.516v3.809c-0.664-0.477-1.404-0.902-2.221-1.277s-1.689-0.562-2.619-0.562
		c-0.609,0-1.051,0.117-1.324,0.352s-0.41,0.523-0.41,0.867c0,0.32,0.137,0.598,0.41,0.832s0.762,0.52,1.465,0.855
		c1.25,0.586,2.25,1.113,3,1.582s1.338,1.01,1.764,1.623S371.733,190.47,371.733,191.384z"/>
</g>
<path fill="#FF9381" d="M191,461.844c0,12-5.373,12-12,12H12c-6.627,0-12,0-12-12v-21c0-12,5.373-12,12-12h167c6.627,0,12,0,12,12
	V461.844z"/>
<g>
	<path fill="#E3DED2" d="M46.395,450.596c0,1.664-0.303,3-0.908,4.008s-1.318,1.824-2.139,2.449
		c-1.164,0.914-2.793,1.371-4.887,1.371h-8.766v-16.242h6.75c1.016,0,1.885,0.053,2.607,0.158s1.373,0.254,1.951,0.445
		s1.07,0.406,1.477,0.645s0.77,0.494,1.09,0.768c0.555,0.453,1.041,0.988,1.459,1.605s0.75,1.332,0.996,2.145
		S46.395,449.643,46.395,450.596z M41.415,450.385c0-1.32-0.252-2.35-0.756-3.088s-1.109-1.232-1.816-1.482
		s-1.428-0.375-2.162-0.375h-2.086v9.621h2.086c1.281,0,2.391-0.305,3.328-0.914S41.415,452.283,41.415,450.385z"/>
	<path fill="#E3DED2" d="M54.34,458.424h-4.898v-16.242h4.898V458.424z"/>
	<path fill="#E3DED2" d="M69.797,453.701c0,1.016-0.26,1.895-0.779,2.637s-1.244,1.311-2.174,1.705s-1.996,0.592-3.199,0.592
		c-0.336,0-0.748-0.021-1.236-0.064s-1.137-0.162-1.945-0.357s-1.65-0.484-2.525-0.867v-3.984c0.82,0.508,1.627,0.93,2.42,1.266
		s1.643,0.504,2.549,0.504c0.836,0,1.377-0.139,1.623-0.416s0.369-0.537,0.369-0.779c0-0.438-0.211-0.807-0.633-1.107
		s-1.035-0.611-1.84-0.932c-0.891-0.375-1.672-0.783-2.344-1.225s-1.221-0.994-1.646-1.658s-0.639-1.449-0.639-2.355
		c0-0.875,0.215-1.666,0.645-2.373s1.086-1.271,1.969-1.693s1.961-0.633,3.234-0.633c0.906,0,1.744,0.088,2.514,0.264
		s1.404,0.373,1.904,0.592s0.844,0.391,1.031,0.516v3.809c-0.664-0.477-1.404-0.902-2.221-1.277s-1.689-0.562-2.619-0.562
		c-0.609,0-1.051,0.117-1.324,0.352s-0.41,0.523-0.41,0.867c0,0.32,0.137,0.598,0.41,0.832s0.762,0.52,1.465,0.855
		c1.25,0.586,2.25,1.113,3,1.582s1.338,1.01,1.764,1.623S69.797,452.787,69.797,453.701z"/>
	<path fill="#E3DED2" d="M87.668,457.205c-0.672,0.352-1.359,0.633-2.062,0.844s-1.412,0.361-2.127,0.451s-1.455,0.135-2.221,0.135
		c-1.414,0-2.682-0.195-3.803-0.586s-2.094-0.967-2.918-1.729s-1.441-1.652-1.852-2.672s-0.615-2.139-0.615-3.357
		c0-1.398,0.242-2.623,0.727-3.674s1.162-1.924,2.033-2.619s1.863-1.209,2.977-1.541s2.287-0.498,3.521-0.498
		c1.844,0,3.934,0.41,6.27,1.23v4.312c-0.805-0.5-1.6-0.916-2.385-1.248s-1.709-0.498-2.771-0.498c-0.945,0-1.828,0.188-2.648,0.562
		s-1.48,0.91-1.98,1.605s-0.75,1.508-0.75,2.438c0,0.82,0.219,1.572,0.656,2.256s1.045,1.227,1.822,1.629s1.654,0.604,2.631,0.604
		c0.789,0,1.535-0.096,2.238-0.287s1.295-0.404,1.775-0.639s0.975-0.512,1.482-0.832V457.205z"/>
	<path fill="#E3DED2" d="M108,450.291c0,1.516-0.35,2.91-1.049,4.184s-1.74,2.285-3.123,3.035s-3.066,1.125-5.051,1.125
		c-2.008,0-3.707-0.391-5.098-1.172s-2.424-1.809-3.1-3.082s-1.014-2.637-1.014-4.09c0-1.461,0.336-2.826,1.008-4.096
		s1.705-2.293,3.1-3.07s3.096-1.166,5.104-1.166c1.5,0,2.838,0.223,4.014,0.668s2.143,1.049,2.9,1.811s1.332,1.648,1.723,2.66
		S108,449.174,108,450.291z M103.008,450.291c0-0.609-0.09-1.166-0.27-1.67s-0.451-0.941-0.814-1.312s-0.807-0.66-1.33-0.867
		s-1.129-0.311-1.816-0.311c-1.312,0-2.344,0.383-3.094,1.148s-1.125,1.77-1.125,3.012s0.377,2.248,1.131,3.018
		s1.783,1.154,3.088,1.154c0.898,0,1.664-0.178,2.297-0.533s1.113-0.848,1.441-1.477S103.008,451.104,103.008,450.291z"/>
	<path fill="#E3DED2" d="M126.575,442.182l-7.324,16.453h-3.234l-7.184-16.453h5.098l3.715,9.375l3.82-9.375H126.575z"/>
	<path fill="#E3DED2" d="M141.047,458.424h-12.246v-16.242h12.047v3.258H133.7v2.977h6.82v3.27h-6.82v3.469h7.348V458.424z"/>
	<path fill="#E3DED2" d="M160.055,458.424h-5.262l-1.277-2.883c-0.469-1.055-0.891-1.826-1.266-2.314s-0.74-0.801-1.096-0.938
		s-0.814-0.205-1.377-0.205h-0.551v6.34h-4.898v-16.242h8.332c1.344,0,2.445,0.273,3.305,0.82s1.479,1.211,1.857,1.992
		s0.568,1.523,0.568,2.227c0,0.82-0.158,1.514-0.475,2.08s-0.65,0.979-1.002,1.236s-0.746,0.504-1.184,0.738
		c0.523,0.305,0.955,0.666,1.295,1.084s0.803,1.264,1.389,2.537L160.055,458.424z M153.399,447.314c0-0.75-0.246-1.273-0.738-1.57
		s-1.293-0.445-2.402-0.445h-1.031v3.914h1.055c1.195,0,2.014-0.131,2.455-0.393S153.399,448.057,153.399,447.314z"/>
</g>
<path fill="#FF9381" d="M404,576.844c0,12-5.373,12-12,12H225c-6.627,0-12,0-12-12v-21c0-12,5.373-12,12-12h167c6.627,0,12,0,12,12
	V576.844z"/>
<g>
	<path fill="#E3DED2" d="M274.395,565.596c0,1.664-0.303,3-0.908,4.008s-1.318,1.824-2.139,2.449
		c-1.164,0.914-2.793,1.371-4.887,1.371h-8.766v-16.242h6.75c1.016,0,1.885,0.053,2.607,0.158s1.373,0.254,1.951,0.445
		s1.07,0.406,1.477,0.645s0.77,0.494,1.09,0.768c0.555,0.453,1.041,0.988,1.459,1.605s0.75,1.332,0.996,2.145
		S274.395,564.643,274.395,565.596z M269.415,565.385c0-1.32-0.252-2.35-0.756-3.088s-1.109-1.232-1.816-1.482
		s-1.428-0.375-2.162-0.375h-2.086v9.621h2.086c1.281,0,2.391-0.305,3.328-0.914S269.415,567.283,269.415,565.385z"/>
	<path fill="#E3DED2" d="M282.34,573.424h-4.898v-16.242h4.898V573.424z"/>
	<path fill="#E3DED2" d="M297.797,568.701c0,1.016-0.26,1.895-0.779,2.637s-1.244,1.311-2.174,1.705s-1.996,0.592-3.199,0.592
		c-0.336,0-0.748-0.021-1.236-0.064s-1.137-0.162-1.945-0.357s-1.65-0.484-2.525-0.867v-3.984c0.82,0.508,1.627,0.93,2.42,1.266
		s1.643,0.504,2.549,0.504c0.836,0,1.377-0.139,1.623-0.416s0.369-0.537,0.369-0.779c0-0.438-0.211-0.807-0.633-1.107
		s-1.035-0.611-1.84-0.932c-0.891-0.375-1.672-0.783-2.344-1.225s-1.221-0.994-1.646-1.658s-0.639-1.449-0.639-2.355
		c0-0.875,0.215-1.666,0.645-2.373s1.086-1.271,1.969-1.693s1.961-0.633,3.234-0.633c0.906,0,1.744,0.088,2.514,0.264
		s1.404,0.373,1.904,0.592s0.844,0.391,1.031,0.516v3.809c-0.664-0.477-1.404-0.902-2.221-1.277s-1.689-0.562-2.619-0.562
		c-0.609,0-1.051,0.117-1.324,0.352s-0.41,0.523-0.41,0.867c0,0.32,0.137,0.598,0.41,0.832s0.762,0.52,1.465,0.855
		c1.25,0.586,2.25,1.113,3,1.582s1.338,1.01,1.764,1.623S297.797,567.787,297.797,568.701z"/>
	<path fill="#E3DED2" d="M315.668,572.205c-0.672,0.352-1.359,0.633-2.062,0.844s-1.412,0.361-2.127,0.451s-1.455,0.135-2.221,0.135
		c-1.414,0-2.682-0.195-3.803-0.586s-2.094-0.967-2.918-1.729s-1.441-1.652-1.852-2.672s-0.615-2.139-0.615-3.357
		c0-1.398,0.242-2.623,0.727-3.674s1.162-1.924,2.033-2.619s1.863-1.209,2.977-1.541s2.287-0.498,3.521-0.498
		c1.844,0,3.934,0.41,6.27,1.23v4.312c-0.805-0.5-1.6-0.916-2.385-1.248s-1.709-0.498-2.771-0.498c-0.945,0-1.828,0.188-2.648,0.562
		s-1.48,0.91-1.98,1.605s-0.75,1.508-0.75,2.438c0,0.82,0.219,1.572,0.656,2.256s1.045,1.227,1.822,1.629s1.654,0.604,2.631,0.604
		c0.789,0,1.535-0.096,2.238-0.287s1.295-0.404,1.775-0.639s0.975-0.512,1.482-0.832V572.205z"/>
	<path fill="#E3DED2" d="M335.883,566.146c0,1.391-0.26,2.576-0.779,3.557s-1.207,1.756-2.062,2.326s-1.777,0.98-2.766,1.23
		s-1.975,0.375-2.959,0.375c-1.375,0-2.713-0.234-4.014-0.703s-2.389-1.266-3.264-2.391s-1.312-2.59-1.312-4.395v-8.965h4.886v7.699
		c0,1.07,0.154,1.955,0.463,2.654s0.738,1.211,1.289,1.535s1.201,0.486,1.951,0.486c0.719,0,1.355-0.16,1.91-0.48
		s0.986-0.828,1.295-1.523s0.463-1.578,0.463-2.648v-7.723h4.898V566.146z"/>
	<path fill="#E3DED2" d="M351.082,568.701c0,1.016-0.26,1.895-0.779,2.637s-1.244,1.311-2.174,1.705s-1.996,0.592-3.199,0.592
		c-0.336,0-0.748-0.021-1.236-0.064s-1.137-0.162-1.945-0.357s-1.65-0.484-2.525-0.867v-3.984c0.82,0.508,1.627,0.93,2.42,1.266
		s1.643,0.504,2.549,0.504c0.836,0,1.377-0.139,1.623-0.416s0.369-0.537,0.369-0.779c0-0.438-0.211-0.807-0.633-1.107
		s-1.035-0.611-1.84-0.932c-0.891-0.375-1.672-0.783-2.344-1.225s-1.221-0.994-1.646-1.658s-0.639-1.449-0.639-2.355
		c0-0.875,0.215-1.666,0.645-2.373s1.086-1.271,1.969-1.693s1.961-0.633,3.234-0.633c0.906,0,1.744,0.088,2.514,0.264
		s1.404,0.373,1.904,0.592s0.844,0.391,1.031,0.516v3.809c-0.664-0.477-1.404-0.902-2.221-1.277s-1.689-0.562-2.619-0.562
		c-0.609,0-1.051,0.117-1.324,0.352s-0.41,0.523-0.41,0.867c0,0.32,0.137,0.598,0.41,0.832s0.762,0.52,1.465,0.855
		c1.25,0.586,2.25,1.113,3,1.582s1.338,1.01,1.764,1.623S351.082,567.787,351.082,568.701z"/>
	<path fill="#E3DED2" d="M365.766,568.701c0,1.016-0.26,1.895-0.779,2.637s-1.244,1.311-2.174,1.705s-1.996,0.592-3.199,0.592
		c-0.336,0-0.748-0.021-1.236-0.064s-1.137-0.162-1.945-0.357s-1.65-0.484-2.525-0.867v-3.984c0.82,0.508,1.627,0.93,2.42,1.266
		s1.643,0.504,2.549,0.504c0.836,0,1.377-0.139,1.623-0.416s0.369-0.537,0.369-0.779c0-0.438-0.211-0.807-0.633-1.107
		s-1.035-0.611-1.84-0.932c-0.891-0.375-1.672-0.783-2.344-1.225s-1.221-0.994-1.646-1.658s-0.639-1.449-0.639-2.355
		c0-0.875,0.215-1.666,0.645-2.373s1.086-1.271,1.969-1.693s1.961-0.633,3.234-0.633c0.906,0,1.744,0.088,2.514,0.264
		s1.404,0.373,1.904,0.592s0.844,0.391,1.031,0.516v3.809c-0.664-0.477-1.404-0.902-2.221-1.277s-1.689-0.562-2.619-0.562
		c-0.609,0-1.051,0.117-1.324,0.352s-0.41,0.523-0.41,0.867c0,0.32,0.137,0.598,0.41,0.832s0.762,0.52,1.465,0.855
		c1.25,0.586,2.25,1.113,3,1.582s1.338,1.01,1.764,1.623S365.766,567.787,365.766,568.701z"/>
</g>
<path fill="#FF9381" d="M623,453.976c0,12.41-4.908,11.868-11.729,11.868H439.353c-6.821,0-12.353,0.542-12.353-11.868v-21.718
	c0-12.41,5.531-12.414,12.353-12.414h171.918c6.821,0,11.729,0.004,11.729,12.414V453.976z"/>
<g>
	<g>
		<path fill="#E3DED2" d="M468.377,439.943h-5.953v12.293h-4.887v-12.293h-5.953v-3.949h16.793V439.943z"/>
		<path fill="#E3DED2" d="M487.01,452.236h-5.016l-1.324-3.293h-7.055l-1.348,3.293h-5.016l7.184-16.242h5.414L487.01,452.236z
			 M479.545,446.119l-2.379-5.93l-2.402,5.93H479.545z"/>
		<path fill="#E3DED2" d="M506.252,452.236h-5.977l-6.211-7.605v7.605h-4.898v-16.242h4.898v7.266l5.883-7.266h5.32l-6.047,7.605
			L506.252,452.236z"/>
		<path fill="#E3DED2" d="M520.631,452.236h-12.246v-16.242h12.047v3.258h-7.148v2.977h6.82v3.27h-6.82v3.469h7.348V452.236z"/>
		<path fill="#E3DED2" d="M548.416,444.104c0,1.516-0.35,2.91-1.049,4.184s-1.74,2.285-3.123,3.035s-3.066,1.125-5.051,1.125
			c-2.008,0-3.707-0.391-5.098-1.172s-2.424-1.809-3.1-3.082s-1.014-2.637-1.014-4.09c0-1.461,0.336-2.826,1.008-4.096
			s1.705-2.293,3.1-3.07s3.096-1.166,5.104-1.166c1.5,0,2.838,0.223,4.014,0.668s2.143,1.049,2.9,1.811s1.332,1.648,1.723,2.66
			S548.416,442.986,548.416,444.104z M543.424,444.104c0-0.609-0.09-1.166-0.27-1.67s-0.451-0.941-0.814-1.312
			s-0.807-0.66-1.33-0.867s-1.129-0.311-1.816-0.311c-1.312,0-2.344,0.383-3.094,1.148s-1.125,1.77-1.125,3.012
			s0.377,2.248,1.131,3.018s1.783,1.154,3.088,1.154c0.898,0,1.664-0.178,2.297-0.533s1.113-0.848,1.441-1.477
			S543.424,444.916,543.424,444.104z"/>
		<path fill="#E3DED2" d="M563.1,445.662h-6.738v6.574h-4.898v-16.242H563.1v3.258h-6.738v3.141h6.738V445.662z"/>
		<path fill="#E3DED2" d="M578.029,445.662h-6.738v6.574h-4.898v-16.242h11.637v3.258h-6.738v3.141h6.738V445.662z"/>
		<path fill="#E3DED2" d="M585.424,439.369c0,0.617-0.084,1.387-0.252,2.309s-0.381,1.832-0.639,2.73s-0.48,1.531-0.668,1.898
			c-0.109,0.211-0.227,0.359-0.352,0.445s-0.32,0.129-0.586,0.129c-0.258,0-0.447-0.041-0.568-0.123s-0.244-0.232-0.369-0.451
			c-0.211-0.422-0.443-1.064-0.697-1.928s-0.469-1.752-0.645-2.666s-0.264-1.695-0.264-2.344c0-1.234,0.266-2.143,0.797-2.725
			s1.113-0.873,1.746-0.873s1.207,0.289,1.723,0.867S585.424,438.127,585.424,439.369z M585.424,449.928
			c0,0.703-0.24,1.299-0.721,1.787s-1.072,0.732-1.775,0.732c-0.43,0-0.844-0.111-1.242-0.334s-0.715-0.531-0.949-0.926
			s-0.352-0.814-0.352-1.26c0-0.453,0.115-0.873,0.346-1.26s0.541-0.693,0.932-0.92s0.812-0.34,1.266-0.34
			c0.438,0,0.854,0.113,1.248,0.34s0.701,0.531,0.92,0.914S585.424,449.467,585.424,449.928z"/>
	</g>
</g>
<g>
	<path fill="#E3DED2" d="M189.847,71.484l-4.512,0.469c-2.657,0-3.984-1.132-3.984-3.398c0-1.953,2.48-3.223,7.441-3.809
		c0.976-0.117,2.06-0.176,3.252-0.176c1.191,0,2.216,0.625,3.076,1.875c0.859,1.25,1.289,2.92,1.289,5.01
		c0,2.09,0.4,5.499,1.201,10.225c0.8,4.727,1.201,7.91,1.201,9.551c0,2.93-0.996,4.395-2.988,4.395s-3.321-0.84-3.984-2.52v-0.117
		c-0.469,0.234-1.309,0.703-2.52,1.406c-2.383,1.328-4.502,1.992-6.357,1.992c-1.856,0-3.691-0.372-5.508-1.113
		c-1.816-0.743-3.379-1.69-4.688-2.842c-1.309-1.152-2.481-2.646-3.516-4.482c-1.036-1.835-1.895-3.652-2.578-5.449
		c-0.684-1.796-1.27-3.906-1.758-6.328c-0.489-2.421-0.85-4.589-1.084-6.504c-0.234-1.914-0.43-4.14-0.586-6.68
		c-0.196-3.125-0.293-6.933-0.293-11.426l-0.059-8.848c0-18.789,2.656-31.23,7.969-37.324C173.948,1.797,177.953,0,182.875,0
		c3.203,0,4.805,1.133,4.805,3.398c0,0.86-0.303,1.543-0.908,2.051c-0.606,0.508-1.318,0.762-2.139,0.762l-3.281-0.586
		c-2.891,0-5.176,1.816-6.855,5.449c-1.719,3.75-2.833,7.452-3.34,11.104c-0.508,3.653-0.879,6.573-1.113,8.76
		c-0.234,2.188-0.391,4.629-0.469,7.324c-0.157,3.79-0.234,7.579-0.234,11.367l-0.059,7.441c0,7.852,0.332,13.35,0.996,16.494
		c0.664,3.145,1.337,5.674,2.021,7.588c0.683,1.915,1.494,3.516,2.432,4.805c2.187,2.852,4.99,4.277,8.408,4.277
		c3.417,0,6.259-1.679,8.525-5.039C191.546,78.008,190.94,73.438,189.847,71.484z"/>
	<path fill="#E3DED2" d="M234.73,90.527c0,2.618-0.958,3.926-2.871,3.926c-1.485,0-2.93-1.075-4.336-3.223v-0.41
		c-0.196-3.203-1.182-7.597-2.959-13.184c-1.778-5.585-2.881-9.355-3.311-11.309c-0.43-1.953-1.124-5.634-2.08-11.045
		c-0.958-5.41-1.787-9.541-2.49-12.393v47.285c0,2.54-1.309,3.809-3.926,3.809c-0.938,0-1.739-0.322-2.402-0.967
		c-0.665-0.645-0.996-1.436-0.996-2.373v-0.938l0.82-70.371V4.57c0-0.938,0.195-1.601,0.586-1.992
		c0.39-0.39,1.523-0.586,3.398-0.586s3.789,0.615,5.742,1.846c1.953,1.23,3.516,2.823,4.688,4.775
		c2.421,4.024,3.633,8.458,3.633,13.301c0,3.907-0.977,8.379-2.93,13.418c-0.234,0.547-0.703,1.699-1.406,3.457
		s-1.113,2.793-1.23,3.105c0.039,3.125,0.557,7.022,1.553,11.689c0.996,4.668,1.923,8.438,2.783,11.309
		c0.859,2.871,2.294,7.354,4.307,13.447c2.011,6.094,3.154,9.571,3.428,10.43V90.527z M216.332,7.5l-0.645,24.492
		c0,2.461,0.039,4.297,0.117,5.508c1.328-1.289,2.617-2.832,3.867-4.629l1.758-10.371c0-4.14-0.547-7.617-1.641-10.43
		C218.694,9.258,217.542,7.734,216.332,7.5z"/>
	<path fill="#E3DED2" d="M267.308,3.633c1.562,11.211,3.203,25.801,4.922,43.77c1.718,17.969,2.578,31.875,2.578,41.719
		c0,2.695-1.309,4.043-3.926,4.043c-2.618,0-3.926-1.035-3.926-3.105V74.414c-1.133-0.781-3.155-1.445-6.064-1.992
		c-2.911-0.546-5.499-0.898-7.764-1.055c-0.977,1.641-1.729,4.991-2.256,10.049c-0.527,5.059-1.377,8.545-2.549,10.459
		c-3.867,0-5.997-0.8-6.387-2.402c1.796-2.617,5.449-19.296,10.957-50.039c2.148-12.148,3.437-19.199,3.867-21.152
		c2.148-10.312,4.472-15.469,6.973-15.469c1.484,0,2.675,0.352,3.574,1.055V3.633z M266.839,67.031
		c-0.117-1.445-0.508-5.761-1.172-12.949c-1.758-18.359-2.637-28.623-2.637-30.791s0.019-3.349,0.059-3.545
		c-0.469,0.547-1.592,6.211-3.369,16.992c-1.778,10.781-2.783,16.641-3.018,17.578s-0.606,2.227-1.113,3.867
		c-1.055,3.398-1.622,6.016-1.699,7.852c3.32,0.899,6.074,1.348,8.262,1.348C264.339,67.383,265.902,67.266,266.839,67.031z"/>
	<path fill="#E3DED2" d="M312.601,1.289h2.52c-0.547,5.196-1.973,16.543-4.277,34.043c-2.305,17.5-3.682,28.945-4.131,34.336
		c-0.45,5.391-0.684,9.063-0.703,11.016c-0.02,1.954-0.069,3.662-0.146,5.127c-0.079,1.465-0.234,2.959-0.469,4.482
		c-0.508,3.281-1.699,4.922-3.574,4.922c-1.133,0-2.071-0.43-2.812-1.289c-1.836-7.617-4.57-22.861-8.203-45.732
		c-3.633-22.871-6.192-37.607-7.676-44.209c0.469-1.562,1.641-2.344,3.516-2.344c0.898,0,1.513,0.205,1.846,0.615
		c0.332,0.41,0.576,0.732,0.732,0.967c0.156,0.234,0.293,0.577,0.41,1.025c0.117,0.45,0.205,0.801,0.264,1.055
		c0.059,0.254,0.117,0.635,0.176,1.143c0.059,0.508,0.283,1.944,0.674,4.307c0.39,2.364,1.269,8.135,2.637,17.314
		c2.89,19.922,5.391,35.02,7.5,45.293c0.507-4.531,1.484-11.738,2.93-21.621c2.93-20.508,4.395-36.523,4.395-48.047
		C309.456,2.09,310.921,1.289,312.601,1.289z"/>
	<path fill="#E3DED2" d="M336.859,86.484l2.461-0.059c3.241,0,4.863,0.665,4.863,1.992c0.312,1.329,0.165,2.276-0.439,2.842
		c-0.606,0.567-1.456,0.85-2.549,0.85h-15.059c-2.306,0-3.457-0.917-3.457-2.754c0-1.835,1.21-2.754,3.633-2.754l3.691,0.059
		c0.39,0,0.586-1.992,0.586-5.977s-0.372-12.138-1.113-24.463c-0.743-12.324-1.113-21.572-1.113-27.744l0.234-12.246
		c0-2.578-0.099-4.805-0.293-6.68c-1.055,0.352-1.992,0.527-2.812,0.527c-1.875,0-2.812-0.957-2.812-2.871
		c0-0.976,0.604-1.826,1.816-2.549c1.21-0.722,2.714-1.24,4.512-1.553c3.358-0.586,5.849-0.879,7.471-0.879
		c1.62,0,2.783,0.322,3.486,0.967s1.055,1.406,1.055,2.285s-0.264,1.641-0.791,2.285s-1.201,0.967-2.021,0.967l-2.109-0.059
		c-0.782,0-1.358,0.167-1.729,0.498c-0.372,0.333-0.557,0.987-0.557,1.963c0,7.813,0.507,19.512,1.523,35.098
		c1.015,15.586,1.523,27.286,1.523,35.098V86.484z"/>
	<path fill="#E3DED2" d="M368.031,23.555l-0.234,15.469c0,7.305,0.624,13.438,1.875,18.398v0.059c-0.548,2.54-0.82,5.586-0.82,9.141
		l0.996,21.562c0,3.907-1.153,5.859-3.457,5.859c-1.329,0-2.306-0.625-2.93-1.875c-0.626-1.25-0.938-2.637-0.938-4.16l0.938-19.16
		c0-4.14-0.274-10.371-0.82-18.691c-0.548-8.32-0.82-14.55-0.82-18.691l0.176-10.488c0-5.742-0.372-9.472-1.113-11.191l-6.504,0.645
		c-1.017,0-1.925-0.302-2.725-0.908c-0.802-0.605-1.201-1.386-1.201-2.344c0-0.957,0.956-1.777,2.871-2.461
		c1.913-0.683,4.257-1.181,7.031-1.494c4.805-0.546,8.848-0.82,12.129-0.82c0.976,0,1.864,0.322,2.666,0.967
		c0.8,0.645,1.201,1.456,1.201,2.432c0,0.977-0.352,1.749-1.055,2.314c-0.703,0.567-1.563,0.85-2.578,0.85l-4.277-0.234
		c-0.548,0-0.958,0.02-1.23,0.059C367.757,13.399,368.031,18.321,368.031,23.555z"/>
	<path fill="#E3DED2" d="M400.199,82.5l-0.059,5.977v2.695c0,1.055-0.352,1.904-1.055,2.549s-1.494,0.967-2.373,0.967
		s-1.622-0.284-2.227-0.85c-0.606-0.567-0.908-1.26-0.908-2.08l0.586-23.203c0-2.344-0.381-5.81-1.143-10.4
		c-0.762-4.589-1.143-8.281-1.143-11.074c0-2.792-0.479-6.191-1.436-10.195c-0.958-4.003-2.021-7.607-3.193-10.811
		c-3.087-8.359-4.629-15.527-4.629-21.504c0-1.289,1.269-1.934,3.809-1.934c0.586,0,1.19,0.234,1.816,0.703
		c0.624,0.469,0.956,0.996,0.996,1.582c0.78,9.219,2.772,19.004,5.977,29.355c0.155-0.703,0.341-2.373,0.557-5.01
		c0.214-2.637,0.469-5.341,0.762-8.115c0.293-2.773,0.674-5.585,1.143-8.438c1.055-6.445,2.646-9.668,4.775-9.668
		c2.128,0,3.193,0.43,3.193,1.289c0,4.493-0.958,11.191-2.871,20.098c-1.915,8.906-2.871,15.665-2.871,20.273l0.352,4.16v1.816
		L400.199,82.5z"/>
</g>
<path fill="none" stroke="#E3DED2" stroke-width="3" stroke-linecap="round" stroke-linejoin="round" stroke-miterlimit="10" d="
	M512.142,345.079"/>
<path fill="#E3DED2" d="M485.405,309.292c0.001-0.001,9.997,69.506,45.498,97.499c2.211-11.238,8.13-50.061-15.296-106.315"/>
<path fill="#FF9381" d="M485.405,309.292c0.62,5.086,4.304,25.467,7.308,31.508c4.459-1.313-22.508-8.507-26.55-31.649"/>
<path fill="#FF9381" d="M515.607,300.476c2.339,4.554,9.019,23.976,9.928,30.664c1.178-8.592,18.813-13.007,5.882-41.684"/>
<path fill="#FF9381" d="M530.903,406.791c-4.212-2.839-14.387-13.8-19.362-22.622c-5.219-9.247,23.56-22.651,22.067-9.104
	C532.883,381.688,533.068,399.947,530.903,406.791z"/>
<path fill="#FF9381" d="M509.564,352.523c2.35-3.509,6.965-4.102,10.314-1.322c3.35,2.78,4.157,7.877,1.809,11.383
	c-2.349,3.511-6.969,4.102-10.314,1.322C508.022,361.126,507.214,356.029,509.564,352.523z"/>
<path fill="none" stroke="#E3DED2" stroke-width="3" stroke-linecap="round" stroke-linejoin="round" stroke-miterlimit="10" d="
	M102.075,346.857"/>
<path fill="#E3DED2" d="M94.011,302.919c0.001,0-21.909,66.717-2.53,107.563c6.972-9.088,29.515-41.244,33.506-102.051"/>
<path fill="#FF9381" d="M94.011,302.919c-1.703,4.834-7.454,24.73-7.445,31.477c4.579,0.803-16.389-17.617-9.734-40.146"/>
<path fill="#FF9381" d="M124.987,308.432c0.073,5.119-2.567,25.486-4.722,31.884c4.87-7.176,22.633-3.3,23.781-34.737"/>
<path fill="#FF9381" d="M93.48,410.482c-2.513-4.415-6.762-18.754-7.303-28.868c-0.569-10.602,31.168-9.832,23.816,1.643
	C106.4,388.869,98.459,405.311,93.48,410.482z"/>
<path fill="#FF9381" d="M96.459,352.384c3.663-2.101,8.062-0.583,9.83,3.395c1.766,3.979,0.227,8.904-3.434,11.003
	c-3.664,2.103-8.065,0.58-9.83-3.396C91.258,359.406,92.796,354.48,96.459,352.384z"/>
<g>
	<g>
		<path fill="#FF9381" d="M326.606,235.937c-0.707,14.258-0.202,30.375,8.101,42.624c5.867,8.655,15.357,12.798,25.435,14.151
			c12.245,1.644,24.935-0.507,36.969-2.721c13.803-2.539,27.456-5.844,41.328-8.01c12.06-1.882,24.776-3.036,36.768-0.134
			c11.9,2.88,20.687,10.781,25.718,21.83c0.801,1.758,3.386,0.232,2.59-1.515c-4.861-10.675-13.103-18.53-24.264-22.276
			c-11.579-3.886-24.434-3.073-36.349-1.546c-26.276,3.368-52.688,13.467-79.423,11.701c-9.975-0.659-19.698-4.202-25.806-12.464
			c-8.557-11.578-8.747-27.922-8.066-41.64C329.702,234.002,326.702,234.011,326.606,235.937L326.606,235.937z"/>
	</g>
</g>
</svg>
