<?xml version="1.0" encoding="utf-8"?>
<!-- Generator: Adobe Illustrator 16.0.0, SVG Export Plug-In . SVG Version: 6.00 Build 0)  -->
<!DOCTYPE svg PUBLIC "-//W3C//DTD SVG 1.1//EN" "http://www.w3.org/Graphics/SVG/1.1/DTD/svg11.dtd">
<svg version="1.1" id="Layer_2" xmlns="http://www.w3.org/2000/svg" xmlns:xlink="http://www.w3.org/1999/xlink" x="0px" y="0px"
	 width="945.684px" height="565.345px" viewBox="0 0 945.684 565.345" enable-background="new 0 0 945.684 565.345"
	 xml:space="preserve">
<path fill="none" stroke="#78A5CE" stroke-width="3" stroke-miterlimit="10" d="M65.097,453.539c0,0,263.416-801.218,530.489-79.268
	c20.731,79.269,143.896,179.3,258.537,106.097"/>
<circle fill="#658CB4" cx="69.367" cy="454.15" r="23.78"/>
<circle fill="#658CB4" cx="381.367" cy="80.15" r="23.78"/>
<circle fill="#658CB4" cx="759.367" cy="506.15" r="23.78"/>
<g>
	<path fill="#78A5CE" d="M439.09,51.368c0,1.445-0.115,2.672-0.346,3.68s-0.748,1.85-1.553,2.525s-2.004,1.014-3.598,1.014
		c-0.586,0-1.172-0.055-1.758-0.164l-0.738-3.914c0.617-0.016,1.121-0.051,1.512-0.105s0.707-0.178,0.949-0.369
		s0.414-0.486,0.516-0.885c0.078-0.312,0.117-1.207,0.117-2.684V37.141h4.898V51.368z"/>
	<path fill="#78A5CE" d="M460.688,53.383h-5.016l-1.324-3.293h-7.055l-1.348,3.293h-5.016l7.184-16.242h5.414L460.688,53.383z
		 M453.223,47.266l-2.379-5.93l-2.402,5.93H453.223z"/>
	<path fill="#78A5CE" d="M477.82,52.235c-0.352,0.133-0.652,0.242-0.902,0.328s-0.49,0.164-0.721,0.234s-0.564,0.16-1.002,0.27
		c-0.742,0.172-1.482,0.303-2.221,0.393s-1.518,0.135-2.338,0.135c-1.648,0-3.172-0.301-4.57-0.902s-2.518-1.535-3.357-2.801
		s-1.26-2.82-1.26-4.664c0-1.188,0.217-2.354,0.65-3.498s1.096-2.061,1.986-2.748c0.734-0.57,1.479-1.006,2.232-1.307
		s1.49-0.502,2.209-0.604s1.512-0.152,2.379-0.152c1.43,0,2.609,0.107,3.539,0.322s1.949,0.498,3.059,0.85v3.844
		c-0.734-0.43-1.512-0.789-2.332-1.078s-1.844-0.434-3.07-0.434c-1.414,0-2.545,0.268-3.393,0.803s-1.438,1.174-1.77,1.916
		s-0.498,1.461-0.498,2.156c0,0.82,0.191,1.576,0.574,2.268s0.961,1.246,1.734,1.664s1.707,0.627,2.801,0.627
		c0.625,0,1.289-0.082,1.992-0.246V47.7h-2.203v-3.27h6.48V52.235z"/>
	<path fill="#78A5CE" d="M498.598,46.106c0,1.391-0.26,2.576-0.779,3.557s-1.207,1.756-2.062,2.326s-1.777,0.98-2.766,1.23
		s-1.975,0.375-2.959,0.375c-1.375,0-2.713-0.234-4.014-0.703s-2.389-1.266-3.264-2.391s-1.312-2.59-1.312-4.395v-8.965h4.887v7.699
		c0,1.07,0.154,1.955,0.463,2.654s0.738,1.211,1.289,1.535s1.201,0.486,1.951,0.486c0.719,0,1.355-0.16,1.91-0.48
		s0.986-0.828,1.295-1.523s0.463-1.578,0.463-2.648v-7.723h4.898V46.106z"/>
	<path fill="#78A5CE" d="M519.246,53.383h-5.016l-1.324-3.293h-7.055l-1.348,3.293h-5.016l7.184-16.242h5.414L519.246,53.383z
		 M511.781,47.266l-2.379-5.93L507,47.266H511.781z"/>
	<path fill="#78A5CE" d="M537.129,53.383h-5.262L530.59,50.5c-0.469-1.055-0.891-1.826-1.266-2.314s-0.74-0.801-1.096-0.938
		s-0.814-0.205-1.377-0.205h-0.551v6.34h-4.898V37.141h8.332c1.344,0,2.445,0.273,3.305,0.82s1.479,1.211,1.857,1.992
		s0.568,1.523,0.568,2.227c0,0.82-0.158,1.514-0.475,2.08s-0.65,0.979-1.002,1.236s-0.746,0.504-1.184,0.738
		c0.523,0.305,0.955,0.666,1.295,1.084s0.803,1.264,1.389,2.537L537.129,53.383z M530.473,42.274c0-0.75-0.246-1.273-0.738-1.57
		s-1.293-0.445-2.402-0.445h-1.031v3.914h1.055c1.195,0,2.014-0.131,2.455-0.393S530.473,43.016,530.473,42.274z"/>
	<path fill="#78A5CE" d="M454.547,82.664c-0.609,1.242-1.447,2.248-2.514,3.018s-2.248,1.318-3.545,1.646s-2.672,0.492-4.125,0.492
		c-2.211,0-4.234-0.359-6.07-1.078c-1.023-0.406-1.916-0.943-2.678-1.611s-1.385-1.434-1.869-2.297s-0.84-1.754-1.066-2.672
		s-0.34-1.861-0.34-2.83c0-1.445,0.24-2.859,0.721-4.242s1.209-2.629,2.186-3.738s2.215-1.992,3.715-2.648s3.23-0.984,5.191-0.984
		c2.031,0,3.787,0.396,5.268,1.189s2.609,1.861,3.387,3.205s1.166,2.816,1.166,4.418c0,1.422-0.33,2.775-0.99,4.061
		s-1.57,2.32-2.73,3.105s-2.451,1.178-3.873,1.178c-0.703,0-1.203-0.111-1.5-0.334s-0.516-0.549-0.656-0.979
		c-0.367,0.344-0.793,0.648-1.277,0.914s-1.105,0.398-1.863,0.398c-0.844,0-1.598-0.197-2.262-0.592s-1.186-0.965-1.564-1.711
		s-0.568-1.623-0.568-2.631c0-1.102,0.246-2.238,0.738-3.41s1.207-2.154,2.145-2.947s2.039-1.189,3.305-1.189
		c1.398,0,2.426,0.523,3.082,1.57l0.258-1.277h3.047l-1.723,8.262c-0.117,0.57-0.176,0.914-0.176,1.031
		c0,0.367,0.152,0.551,0.457,0.551c0.414,0,0.947-0.273,1.6-0.82s1.221-1.283,1.705-2.209s0.727-1.951,0.727-3.076
		c0-0.711-0.127-1.441-0.381-2.191s-0.678-1.461-1.271-2.133s-1.396-1.219-2.408-1.641s-2.24-0.633-3.686-0.633
		c-1.906,0-3.504,0.334-4.793,1.002s-2.283,1.51-2.982,2.525s-1.186,2.057-1.459,3.123s-0.41,2.061-0.41,2.982
		c0,1.008,0.17,1.994,0.51,2.959s0.883,1.848,1.629,2.648s1.752,1.441,3.018,1.922s2.785,0.721,4.559,0.721
		c1.617,0,2.969-0.174,4.055-0.521s1.91-0.742,2.473-1.184s1.027-0.889,1.395-1.342H454.547z M445.16,75.152
		c0-0.289-0.041-0.629-0.123-1.02s-0.27-0.766-0.562-1.125s-0.729-0.539-1.307-0.539c-0.742,0-1.369,0.303-1.881,0.908
		s-0.887,1.346-1.125,2.221s-0.357,1.703-0.357,2.484c0,0.906,0.191,1.58,0.574,2.021s0.832,0.662,1.348,0.662
		c0.602,0,1.125-0.201,1.57-0.604s0.807-0.914,1.084-1.535s0.477-1.234,0.598-1.84S445.16,75.637,445.16,75.152z"/>
	<path fill="#78A5CE" d="M481.711,82.184h-5.016l-1.324-3.293h-7.055l-1.348,3.293h-5.016l7.184-16.242h5.414L481.711,82.184z
		 M474.246,76.066l-2.379-5.93l-2.402,5.93H474.246z"/>
	<path fill="#78A5CE" d="M493.664,70.898l-1.559,4.23c-0.641-0.609-1.289-0.914-1.945-0.914c-0.594,0-1.107,0.201-1.541,0.604
		s-0.85,1.146-1.248,2.232v5.133h-4.219v-11.93h4.219v2.883c0.266-0.711,0.734-1.404,1.406-2.08s1.461-1.014,2.367-1.014
		c0.477,0,0.893,0.07,1.248,0.211S493.172,70.609,493.664,70.898z"/>
	<path fill="#78A5CE" d="M506.32,72.797h-2.086c0.734,0.641,1.102,1.426,1.102,2.355c0,0.492-0.104,0.965-0.311,1.418
		s-0.512,0.855-0.914,1.207s-0.898,0.639-1.488,0.861s-1.264,0.357-2.021,0.404c-0.977,0.039-1.465,0.301-1.465,0.785
		c0,0.188,0.062,0.324,0.188,0.41s0.322,0.15,0.592,0.193s0.725,0.092,1.365,0.146c0.727,0.062,1.402,0.172,2.027,0.328
		s1.207,0.484,1.746,0.984s0.809,1.215,0.809,2.145c0,0.742-0.201,1.398-0.604,1.969s-1.053,1.016-1.951,1.336
		s-2.086,0.48-3.562,0.48c-2.125,0-3.686-0.285-4.682-0.855s-1.494-1.332-1.494-2.285c0-0.258,0.064-0.555,0.193-0.891
		s0.402-0.66,0.82-0.973s1.025-0.523,1.822-0.633c-0.281-0.102-0.523-0.299-0.727-0.592s-0.305-0.6-0.305-0.92
		c0-0.414,0.143-0.824,0.428-1.23s0.748-0.668,1.389-0.785c-0.891-0.234-1.66-0.676-2.309-1.324s-0.973-1.488-0.973-2.52
		c0-0.781,0.15-1.465,0.451-2.051s0.717-1.062,1.248-1.43s1.148-0.639,1.852-0.814s1.473-0.264,2.309-0.264h6.551V72.797z
		 M502.5,84.41c0-0.523-0.279-0.861-0.838-1.014s-1.135-0.229-1.729-0.229c-0.977,0-1.682,0.104-2.115,0.311s-0.65,0.537-0.65,0.99
		c0,0.891,0.898,1.336,2.695,1.336c0.805,0,1.445-0.115,1.922-0.346S502.5,84.879,502.5,84.41z M501.656,74.812
		c0-0.602-0.205-1.084-0.615-1.447s-0.869-0.545-1.377-0.545c-0.648,0-1.158,0.219-1.529,0.656s-0.557,0.898-0.557,1.383
		c0,0.336,0.08,0.648,0.24,0.938s0.387,0.521,0.68,0.697s0.643,0.264,1.049,0.264c0.609,0,1.113-0.191,1.512-0.574
		S501.656,75.344,501.656,74.812z"/>
	<path fill="#78A5CE" d="M520.066,77.238h-8.402c0.164,0.727,0.566,1.32,1.207,1.781s1.367,0.691,2.18,0.691
		c1.422,0,2.992-0.398,4.711-1.195v2.613c-0.617,0.32-1.365,0.611-2.244,0.873s-1.998,0.393-3.357,0.393
		c-1.469,0-2.719-0.273-3.75-0.82s-1.803-1.289-2.314-2.227s-0.768-2-0.768-3.188c0-1.172,0.256-2.221,0.768-3.146
		s1.283-1.652,2.314-2.18s2.281-0.791,3.75-0.791c0.969,0,1.904,0.209,2.807,0.627s1.645,1.102,2.227,2.051s0.873,2.174,0.873,3.674
		V77.238z M516.105,75.152c0-0.766-0.189-1.377-0.568-1.834s-0.924-0.686-1.635-0.686c-0.703,0-1.271,0.232-1.705,0.697
		s-0.65,1.072-0.65,1.822H516.105z"/>
	<path fill="#78A5CE" d="M534.879,82.184h-4.219V75.75c0-0.656-0.107-1.229-0.322-1.717s-0.686-0.732-1.412-0.732
		c-0.344,0-0.646,0.064-0.908,0.193s-0.496,0.295-0.703,0.498s-0.381,0.398-0.521,0.586s-0.285,0.387-0.434,0.598v7.008h-4.219
		v-11.93h4.219v1.711c0.664-0.711,1.33-1.209,1.998-1.494s1.412-0.428,2.232-0.428c2.859,0,4.289,1.711,4.289,5.133V82.184z"/>
	<path fill="#78A5CE" d="M546.82,81.492c-0.438,0.211-1.041,0.414-1.811,0.609s-1.506,0.293-2.209,0.293
		c-3.039,0-4.559-1.484-4.559-4.453v-4.758h-1.91v-0.738l5.66-5.766h0.48v3.574h4.031v2.93h-4.031v3.82
		c0,0.445,0.027,0.805,0.082,1.078s0.209,0.502,0.463,0.686s0.639,0.275,1.154,0.275c0.672,0,1.555-0.281,2.648-0.844V81.492z"/>
	<path fill="#78A5CE" d="M553.113,82.184h-4.23v-11.93h4.23V82.184z M552.773,67.5c0,0.492-0.176,0.91-0.527,1.254
		s-0.77,0.516-1.254,0.516c-0.328,0-0.627-0.078-0.896-0.234s-0.482-0.369-0.639-0.639s-0.234-0.568-0.234-0.896
		c0-0.484,0.172-0.902,0.516-1.254s0.762-0.527,1.254-0.527c0.484,0,0.902,0.176,1.254,0.527S552.773,67.016,552.773,67.5z"/>
	<path fill="#78A5CE" d="M568.758,82.184h-4.219V75.75c0-0.656-0.107-1.229-0.322-1.717s-0.686-0.732-1.412-0.732
		c-0.344,0-0.646,0.064-0.908,0.193s-0.496,0.295-0.703,0.498s-0.381,0.398-0.521,0.586s-0.285,0.387-0.434,0.598v7.008h-4.219
		v-11.93h4.219v1.711c0.664-0.711,1.33-1.209,1.998-1.494s1.412-0.428,2.232-0.428c2.859,0,4.289,1.711,4.289,5.133V82.184z"/>
	<path fill="#78A5CE" d="M583.664,81.586c-0.617,0.242-1.188,0.438-1.711,0.586s-1.152,0.223-1.887,0.223
		c-0.695,0-1.18-0.123-1.453-0.369s-0.469-0.545-0.586-0.896c-0.453,0.367-0.957,0.67-1.512,0.908s-1.281,0.357-2.18,0.357
		c-0.867,0-1.568-0.15-2.104-0.451s-0.91-0.68-1.125-1.137s-0.322-0.928-0.322-1.412c0-0.734,0.186-1.342,0.557-1.822
		s0.869-0.873,1.494-1.178s1.453-0.621,2.484-0.949c0.586-0.188,1.029-0.33,1.33-0.428s0.525-0.174,0.674-0.229
		s0.305-0.125,0.469-0.211c0-0.578-0.117-1.031-0.352-1.359s-0.742-0.492-1.523-0.492c-0.922,0-1.777,0.203-2.566,0.609
		s-1.512,0.93-2.168,1.57v-3.234c0.523-0.375,1.09-0.682,1.699-0.92s1.246-0.416,1.91-0.533s1.336-0.176,2.016-0.176
		c1.727,0,3.025,0.334,3.896,1.002s1.307,1.588,1.307,2.76v4.605c0,0.438,0.041,0.764,0.123,0.979s0.232,0.322,0.451,0.322
		c0.266,0,0.625-0.113,1.078-0.34V81.586z M577.793,79.301v-2.824c-1,0.406-1.73,0.771-2.191,1.096s-0.691,0.764-0.691,1.318
		c0,0.398,0.115,0.703,0.346,0.914s0.498,0.316,0.803,0.316c0.289,0,0.576-0.08,0.861-0.24S577.496,79.527,577.793,79.301z"/>
</g>
<g>
	<path fill="#78A5CE" d="M136.365,373.763c0,1.664-0.303,3-0.908,4.008s-1.318,1.824-2.139,2.449
		c-1.164,0.914-2.793,1.371-4.887,1.371h-8.766v-16.242h6.75c1.016,0,1.885,0.053,2.607,0.158s1.373,0.254,1.951,0.445
		s1.07,0.406,1.477,0.645s0.77,0.494,1.09,0.768c0.555,0.453,1.041,0.988,1.459,1.605s0.75,1.332,0.996,2.145
		S136.365,372.81,136.365,373.763z M131.385,373.552c0-1.32-0.252-2.35-0.756-3.088s-1.109-1.232-1.816-1.482
		s-1.428-0.375-2.162-0.375h-2.086v9.621h2.086c1.281,0,2.391-0.305,3.328-0.914S131.385,375.451,131.385,373.552z"/>
	<path fill="#78A5CE" d="M156.193,381.591h-5.016l-1.324-3.293h-7.055l-1.348,3.293h-5.016l7.184-16.242h5.414L156.193,381.591z
		 M148.729,375.474l-2.379-5.93l-2.402,5.93H148.729z"/>
	<path fill="#78A5CE" d="M175.986,381.591h-4.359l-8.426-9.047v9.047h-4.852v-16.242h4.348l8.402,9v-9h4.887V381.591z"/>
	<path fill="#78A5CE" d="M197.443,373.458c0,1.516-0.35,2.91-1.049,4.184s-1.74,2.285-3.123,3.035s-3.066,1.125-5.051,1.125
		c-2.008,0-3.707-0.391-5.098-1.172s-2.424-1.809-3.1-3.082s-1.014-2.637-1.014-4.09c0-1.461,0.336-2.826,1.008-4.096
		s1.705-2.293,3.1-3.07s3.096-1.166,5.104-1.166c1.5,0,2.838,0.223,4.014,0.668s2.143,1.049,2.9,1.811s1.332,1.648,1.723,2.66
		S197.443,372.341,197.443,373.458z M192.451,373.458c0-0.609-0.09-1.166-0.27-1.67s-0.451-0.941-0.814-1.312
		s-0.807-0.66-1.33-0.867s-1.129-0.311-1.816-0.311c-1.312,0-2.344,0.383-3.094,1.148s-1.125,1.77-1.125,3.012
		s0.377,2.248,1.131,3.018s1.783,1.154,3.088,1.154c0.898,0,1.664-0.178,2.297-0.533s1.113-0.848,1.441-1.477
		S192.451,374.271,192.451,373.458z"/>
	<path fill="#78A5CE" d="M217.787,381.591h-4.359l-8.426-9.047v9.047h-4.852v-16.242h4.348l8.402,9v-9h4.887V381.591z"/>
	<path fill="#78A5CE" d="M234.111,381.591h-12.246v-16.242h12.047v3.258h-7.148v2.977h6.82v3.27h-6.82v3.469h7.348V381.591z"/>
	<path fill="#78A5CE" d="M136.365,402.563c0,1.664-0.303,3-0.908,4.008s-1.318,1.824-2.139,2.449
		c-1.164,0.914-2.793,1.371-4.887,1.371h-8.766v-16.242h6.75c1.016,0,1.885,0.053,2.607,0.158s1.373,0.254,1.951,0.445
		s1.07,0.406,1.477,0.645s0.77,0.494,1.09,0.768c0.555,0.453,1.041,0.988,1.459,1.605s0.75,1.332,0.996,2.145
		S136.365,401.61,136.365,402.563z M131.385,402.352c0-1.32-0.252-2.35-0.756-3.088s-1.109-1.232-1.816-1.482
		s-1.428-0.375-2.162-0.375h-2.086v9.621h2.086c1.281,0,2.391-0.305,3.328-0.914S131.385,404.25,131.385,402.352z"/>
	<path fill="#78A5CE" d="M150.932,405.446h-8.402c0.164,0.727,0.566,1.32,1.207,1.781s1.367,0.691,2.18,0.691
		c1.422,0,2.992-0.398,4.711-1.195v2.613c-0.617,0.32-1.365,0.611-2.244,0.873s-1.998,0.393-3.357,0.393
		c-1.469,0-2.719-0.273-3.75-0.82s-1.803-1.289-2.314-2.227s-0.768-2-0.768-3.188c0-1.172,0.256-2.221,0.768-3.146
		s1.283-1.652,2.314-2.18s2.281-0.791,3.75-0.791c0.969,0,1.904,0.209,2.807,0.627s1.645,1.102,2.227,2.051s0.873,2.174,0.873,3.674
		V405.446z M146.971,403.36c0-0.766-0.189-1.377-0.568-1.834s-0.924-0.686-1.635-0.686c-0.703,0-1.271,0.232-1.705,0.697
		s-0.65,1.072-0.65,1.822H146.971z"/>
	<path fill="#78A5CE" d="M174.264,410.391h-4.219v-6.363c0-0.844-0.139-1.475-0.416-1.893s-0.717-0.627-1.318-0.627
		c-0.586,0-1.066,0.178-1.441,0.533s-0.75,0.803-1.125,1.342v7.008h-4.219v-6.363c0-0.805-0.129-1.426-0.387-1.863
		s-0.715-0.656-1.371-0.656c-0.312,0-0.6,0.062-0.861,0.188s-0.475,0.266-0.639,0.422s-0.363,0.387-0.598,0.691
		s-0.383,0.496-0.445,0.574v7.008h-4.219v-11.93h4.219v1.711c0.633-0.672,1.277-1.16,1.934-1.465s1.414-0.457,2.273-0.457
		c0.406,0,0.793,0.037,1.16,0.111s0.729,0.201,1.084,0.381s0.678,0.426,0.967,0.738s0.52,0.676,0.691,1.09
		c0.68-0.766,1.385-1.344,2.115-1.734s1.572-0.586,2.525-0.586s1.752,0.191,2.396,0.574s1.121,0.936,1.43,1.658
		s0.463,1.6,0.463,2.631V410.391z"/>
	<path fill="#78A5CE" d="M189.146,409.793c-0.617,0.242-1.188,0.438-1.711,0.586s-1.152,0.223-1.887,0.223
		c-0.695,0-1.18-0.123-1.453-0.369s-0.469-0.545-0.586-0.896c-0.453,0.367-0.957,0.67-1.512,0.908s-1.281,0.357-2.18,0.357
		c-0.867,0-1.568-0.15-2.104-0.451s-0.91-0.68-1.125-1.137s-0.322-0.928-0.322-1.412c0-0.734,0.186-1.342,0.557-1.822
		s0.869-0.873,1.494-1.178s1.453-0.621,2.484-0.949c0.586-0.188,1.029-0.33,1.33-0.428s0.525-0.174,0.674-0.229
		s0.305-0.125,0.469-0.211c0-0.578-0.117-1.031-0.352-1.359s-0.742-0.492-1.523-0.492c-0.922,0-1.777,0.203-2.566,0.609
		s-1.512,0.93-2.168,1.57v-3.234c0.523-0.375,1.09-0.682,1.699-0.92s1.246-0.416,1.91-0.533s1.336-0.176,2.016-0.176
		c1.727,0,3.025,0.334,3.896,1.002s1.307,1.588,1.307,2.76v4.605c0,0.438,0.041,0.764,0.123,0.979s0.232,0.322,0.451,0.322
		c0.266,0,0.625-0.113,1.078-0.34V409.793z M183.275,407.508v-2.824c-1,0.406-1.73,0.771-2.191,1.096s-0.691,0.764-0.691,1.318
		c0,0.398,0.115,0.703,0.346,0.914s0.498,0.316,0.803,0.316c0.289,0,0.576-0.08,0.861-0.24S182.979,407.735,183.275,407.508z"/>
	<path fill="#78A5CE" d="M203.549,410.391h-4.219v-6.434c0-0.656-0.107-1.229-0.322-1.717s-0.686-0.732-1.412-0.732
		c-0.344,0-0.646,0.064-0.908,0.193s-0.496,0.295-0.703,0.498s-0.381,0.398-0.521,0.586s-0.285,0.387-0.434,0.598v7.008h-4.219
		v-11.93h4.219v1.711c0.664-0.711,1.33-1.209,1.998-1.494s1.412-0.428,2.232-0.428c2.859,0,4.289,1.711,4.289,5.133V410.391z"/>
	<path fill="#78A5CE" d="M218.701,410.391h-4.23v-1.078c-0.445,0.375-0.916,0.684-1.412,0.926s-1.182,0.363-2.057,0.363
		c-0.867,0-1.719-0.215-2.555-0.645s-1.523-1.1-2.062-2.01s-0.809-2.057-0.809-3.439c0-1.086,0.203-2.104,0.609-3.053
		s1.043-1.721,1.91-2.314s1.93-0.891,3.188-0.891c0.781,0,1.414,0.086,1.898,0.258s0.914,0.391,1.289,0.656v-5.016h4.23V410.391z
		 M214.471,406.594v-4.559c-0.492-0.273-0.877-0.469-1.154-0.586s-0.604-0.176-0.979-0.176c-0.664,0-1.217,0.281-1.658,0.844
		s-0.662,1.328-0.662,2.297c0,1.055,0.232,1.822,0.697,2.303s1.006,0.721,1.623,0.721c0.508,0,0.918-0.08,1.23-0.24
		S214.182,406.836,214.471,406.594z"/>
	<path fill="#78A5CE" d="M243.252,399.258c0,0.602-0.104,1.189-0.311,1.764s-0.541,1.109-1.002,1.605s-1.084,0.898-1.869,1.207
		s-1.709,0.463-2.771,0.463h-3.211v6.094h-4.898v-16.242h8.109c1.062,0,1.986,0.156,2.771,0.469s1.408,0.719,1.869,1.219
		s0.795,1.043,1.002,1.629S243.252,398.649,243.252,399.258z M238.26,399.282c0-0.773-0.229-1.303-0.686-1.588
		s-1.275-0.428-2.455-0.428h-1.031v3.914h1.055c0.812,0,1.438-0.051,1.875-0.152s0.754-0.289,0.949-0.562
		S238.26,399.797,238.26,399.282z"/>
	<path fill="#78A5CE" d="M249.721,410.391h-4.23v-16.242h4.23V410.391z"/>
	<path fill="#78A5CE" d="M265.002,409.793c-0.617,0.242-1.188,0.438-1.711,0.586s-1.152,0.223-1.887,0.223
		c-0.695,0-1.18-0.123-1.453-0.369s-0.469-0.545-0.586-0.896c-0.453,0.367-0.957,0.67-1.512,0.908s-1.281,0.357-2.18,0.357
		c-0.867,0-1.568-0.15-2.104-0.451s-0.91-0.68-1.125-1.137s-0.322-0.928-0.322-1.412c0-0.734,0.186-1.342,0.557-1.822
		s0.869-0.873,1.494-1.178s1.453-0.621,2.484-0.949c0.586-0.188,1.029-0.33,1.33-0.428s0.525-0.174,0.674-0.229
		s0.305-0.125,0.469-0.211c0-0.578-0.117-1.031-0.352-1.359s-0.742-0.492-1.523-0.492c-0.922,0-1.777,0.203-2.566,0.609
		s-1.512,0.93-2.168,1.57v-3.234c0.523-0.375,1.09-0.682,1.699-0.92s1.246-0.416,1.91-0.533s1.336-0.176,2.016-0.176
		c1.727,0,3.025,0.334,3.896,1.002s1.307,1.588,1.307,2.76v4.605c0,0.438,0.041,0.764,0.123,0.979s0.232,0.322,0.451,0.322
		c0.266,0,0.625-0.113,1.078-0.34V409.793z M259.131,407.508v-2.824c-1,0.406-1.73,0.771-2.191,1.096s-0.691,0.764-0.691,1.318
		c0,0.398,0.115,0.703,0.346,0.914s0.498,0.316,0.803,0.316c0.289,0,0.576-0.08,0.861-0.24S258.834,407.735,259.131,407.508z"/>
	<path fill="#78A5CE" d="M279.404,410.391h-4.219v-6.434c0-0.656-0.107-1.229-0.322-1.717s-0.686-0.732-1.412-0.732
		c-0.344,0-0.646,0.064-0.908,0.193s-0.496,0.295-0.703,0.498s-0.381,0.398-0.521,0.586s-0.285,0.387-0.434,0.598v7.008h-4.219
		v-11.93h4.219v1.711c0.664-0.711,1.33-1.209,1.998-1.494s1.412-0.428,2.232-0.428c2.859,0,4.289,1.711,4.289,5.133V410.391z"/>
	<path fill="#78A5CE" d="M294.674,410.391h-4.219v-6.434c0-0.656-0.107-1.229-0.322-1.717s-0.686-0.732-1.412-0.732
		c-0.344,0-0.646,0.064-0.908,0.193s-0.496,0.295-0.703,0.498s-0.381,0.398-0.521,0.586s-0.285,0.387-0.434,0.598v7.008h-4.219
		v-11.93h4.219v1.711c0.664-0.711,1.33-1.209,1.998-1.494s1.412-0.428,2.232-0.428c2.859,0,4.289,1.711,4.289,5.133V410.391z"/>
	<path fill="#78A5CE" d="M309.439,405.446h-8.402c0.164,0.727,0.566,1.32,1.207,1.781s1.367,0.691,2.18,0.691
		c1.422,0,2.992-0.398,4.711-1.195v2.613c-0.617,0.32-1.365,0.611-2.244,0.873s-1.998,0.393-3.357,0.393
		c-1.469,0-2.719-0.273-3.75-0.82s-1.803-1.289-2.314-2.227s-0.768-2-0.768-3.188c0-1.172,0.256-2.221,0.768-3.146
		s1.283-1.652,2.314-2.18s2.281-0.791,3.75-0.791c0.969,0,1.904,0.209,2.807,0.627s1.645,1.102,2.227,2.051s0.873,2.174,0.873,3.674
		V405.446z M305.479,403.36c0-0.766-0.189-1.377-0.568-1.834s-0.924-0.686-1.635-0.686c-0.703,0-1.271,0.232-1.705,0.697
		s-0.65,1.072-0.65,1.822H305.479z"/>
	<path fill="#78A5CE" d="M322.002,399.106l-1.559,4.23c-0.641-0.609-1.289-0.914-1.945-0.914c-0.594,0-1.107,0.201-1.541,0.604
		s-0.85,1.146-1.248,2.232v5.133h-4.219v-11.93h4.219v2.883c0.266-0.711,0.734-1.404,1.406-2.08s1.461-1.014,2.367-1.014
		c0.477,0,0.893,0.07,1.248,0.211S321.51,398.817,322.002,399.106z"/>
	<path fill="#78A5CE" d="M140.525,439.671c-0.609,1.242-1.447,2.248-2.514,3.018s-2.248,1.318-3.545,1.646s-2.672,0.492-4.125,0.492
		c-2.211,0-4.234-0.359-6.07-1.078c-1.023-0.406-1.916-0.943-2.678-1.611s-1.385-1.434-1.869-2.297s-0.84-1.754-1.066-2.672
		s-0.34-1.861-0.34-2.83c0-1.445,0.24-2.859,0.721-4.242s1.209-2.629,2.186-3.738s2.215-1.992,3.715-2.648s3.23-0.984,5.191-0.984
		c2.031,0,3.787,0.396,5.268,1.189s2.609,1.861,3.387,3.205s1.166,2.816,1.166,4.418c0,1.422-0.33,2.775-0.99,4.061
		s-1.57,2.32-2.73,3.105s-2.451,1.178-3.873,1.178c-0.703,0-1.203-0.111-1.5-0.334s-0.516-0.549-0.656-0.979
		c-0.367,0.344-0.793,0.648-1.277,0.914s-1.105,0.398-1.863,0.398c-0.844,0-1.598-0.197-2.262-0.592s-1.186-0.965-1.564-1.711
		s-0.568-1.623-0.568-2.631c0-1.102,0.246-2.238,0.738-3.41s1.207-2.154,2.145-2.947s2.039-1.189,3.305-1.189
		c1.398,0,2.426,0.523,3.082,1.57l0.258-1.277h3.047l-1.723,8.262c-0.117,0.57-0.176,0.914-0.176,1.031
		c0,0.367,0.152,0.551,0.457,0.551c0.414,0,0.947-0.273,1.6-0.82s1.221-1.283,1.705-2.209s0.727-1.951,0.727-3.076
		c0-0.711-0.127-1.441-0.381-2.191s-0.678-1.461-1.271-2.133s-1.396-1.219-2.408-1.641s-2.24-0.633-3.686-0.633
		c-1.906,0-3.504,0.334-4.793,1.002s-2.283,1.51-2.982,2.525s-1.186,2.057-1.459,3.123s-0.41,2.061-0.41,2.982
		c0,1.008,0.17,1.994,0.51,2.959s0.883,1.848,1.629,2.648s1.752,1.441,3.018,1.922s2.785,0.721,4.559,0.721
		c1.617,0,2.969-0.174,4.055-0.521s1.91-0.742,2.473-1.184s1.027-0.889,1.395-1.342H140.525z M131.139,432.16
		c0-0.289-0.041-0.629-0.123-1.02s-0.27-0.766-0.562-1.125s-0.729-0.539-1.307-0.539c-0.742,0-1.369,0.303-1.881,0.908
		s-0.887,1.346-1.125,2.221s-0.357,1.703-0.357,2.484c0,0.906,0.191,1.58,0.574,2.021s0.832,0.662,1.348,0.662
		c0.602,0,1.125-0.201,1.57-0.604s0.807-0.914,1.084-1.535s0.477-1.234,0.598-1.84S131.139,432.644,131.139,432.16z"/>
	<path fill="#78A5CE" d="M165.744,422.949l-7.324,16.453h-3.234l-7.184-16.453h5.098l3.715,9.375l3.82-9.375H165.744z"/>
	<path fill="#78A5CE" d="M179.08,433.214c0,1.188-0.258,2.246-0.773,3.176s-1.287,1.664-2.314,2.203s-2.279,0.809-3.756,0.809
		s-2.729-0.27-3.756-0.809s-1.797-1.273-2.309-2.203s-0.768-1.988-0.768-3.176c0-0.898,0.143-1.715,0.428-2.449
		s0.719-1.385,1.301-1.951s1.299-1.002,2.15-1.307s1.836-0.457,2.953-0.457c1.125,0,2.119,0.154,2.982,0.463s1.578,0.74,2.145,1.295
		s0.994,1.203,1.283,1.945S179.08,432.316,179.08,433.214z M174.639,433.214c0-0.945-0.205-1.686-0.615-2.221
		s-1.006-0.803-1.787-0.803c-0.773,0-1.365,0.268-1.775,0.803s-0.615,1.275-0.615,2.221c0,0.938,0.207,1.68,0.621,2.227
		s1.004,0.82,1.77,0.82c0.781,0,1.377-0.271,1.787-0.814S174.639,434.16,174.639,433.214z"/>
	<path fill="#78A5CE" d="M185.713,439.191h-4.23v-16.242h4.23V439.191z"/>
	<path fill="#78A5CE" d="M201.193,427.261l-5.426,11.93h-3.117l-5.309-11.93h4.535l2.473,6.246l2.742-6.246H201.193z"/>
	<path fill="#78A5CE" d="M207.053,439.191h-4.23v-11.93h4.23V439.191z M206.713,424.507c0,0.492-0.176,0.91-0.527,1.254
		s-0.77,0.516-1.254,0.516c-0.328,0-0.627-0.078-0.896-0.234s-0.482-0.369-0.639-0.639s-0.234-0.568-0.234-0.896
		c0-0.484,0.172-0.902,0.516-1.254s0.762-0.527,1.254-0.527c0.484,0,0.902,0.176,1.254,0.527S206.713,424.023,206.713,424.507z"/>
	<path fill="#78A5CE" d="M220.178,438.64c-0.352,0.133-0.723,0.256-1.113,0.369s-0.83,0.207-1.318,0.281s-1.021,0.111-1.6,0.111
		c-1.305,0-2.408-0.221-3.311-0.662s-1.598-0.996-2.086-1.664s-0.826-1.35-1.014-2.045s-0.281-1.309-0.281-1.84
		s0.096-1.145,0.287-1.84s0.525-1.367,1.002-2.016s1.166-1.191,2.068-1.629s2.014-0.656,3.334-0.656
		c0.883,0,1.602,0.062,2.156,0.188s1.117,0.293,1.688,0.504v3.316c-1.375-0.438-2.449-0.656-3.223-0.656
		c-0.75,0-1.416,0.227-1.998,0.68s-0.873,1.156-0.873,2.109c0,0.633,0.145,1.166,0.434,1.6s0.656,0.752,1.102,0.955
		s0.891,0.305,1.336,0.305c0.422,0,0.902-0.062,1.441-0.188s1.195-0.305,1.969-0.539V438.64z"/>
	<path fill="#78A5CE" d="M227.584,438.066c0,0.523-0.104,1.061-0.311,1.611s-0.527,1.068-0.961,1.553s-1.012,0.904-1.734,1.26
		s-1.561,0.6-2.514,0.732v-0.738c1.227-0.469,1.84-1.508,1.84-3.117v-0.246c-1.227-0.352-1.84-1.121-1.84-2.309
		c0-0.422,0.107-0.82,0.322-1.195s0.516-0.678,0.902-0.908s0.811-0.346,1.271-0.346c0.664,0,1.223,0.184,1.676,0.551
		s0.791,0.836,1.014,1.406S227.584,437.472,227.584,438.066z"/>
	<path fill="#78A5CE" d="M252.17,437.972c-0.672,0.352-1.359,0.633-2.062,0.844s-1.412,0.361-2.127,0.451s-1.455,0.135-2.221,0.135
		c-1.414,0-2.682-0.195-3.803-0.586s-2.094-0.967-2.918-1.729s-1.441-1.652-1.852-2.672s-0.615-2.139-0.615-3.357
		c0-1.398,0.242-2.623,0.727-3.674s1.162-1.924,2.033-2.619s1.863-1.209,2.977-1.541s2.287-0.498,3.521-0.498
		c1.844,0,3.934,0.41,6.27,1.23v4.312c-0.805-0.5-1.6-0.916-2.385-1.248s-1.709-0.498-2.771-0.498c-0.945,0-1.828,0.188-2.648,0.562
		s-1.48,0.91-1.98,1.605s-0.75,1.508-0.75,2.438c0,0.82,0.219,1.572,0.656,2.256s1.045,1.227,1.822,1.629s1.654,0.604,2.631,0.604
		c0.789,0,1.535-0.096,2.238-0.287s1.295-0.404,1.775-0.639s0.975-0.512,1.482-0.832V437.972z"/>
	<path fill="#78A5CE" d="M259.213,439.191h-4.23v-16.242h4.23V439.191z"/>
	<path fill="#78A5CE" d="M271.529,438.5c-0.438,0.211-1.041,0.414-1.811,0.609s-1.506,0.293-2.209,0.293
		c-3.039,0-4.559-1.484-4.559-4.453v-4.758h-1.91v-0.738l5.66-5.766h0.48v3.574h4.031v2.93h-4.031v3.82
		c0,0.445,0.027,0.805,0.082,1.078s0.209,0.502,0.463,0.686s0.639,0.275,1.154,0.275c0.672,0,1.555-0.281,2.648-0.844V438.5z"/>
	<path fill="#78A5CE" d="M281.748,435.113h-7.676v-3.914h7.676V435.113z"/>
	<path fill="#78A5CE" d="M297.475,432.617h-6.738v6.574h-4.898v-16.242h11.637v3.258h-6.738v3.141h6.738V432.617z"/>
	<path fill="#78A5CE" d="M311.971,434.246h-8.402c0.164,0.727,0.566,1.32,1.207,1.781s1.367,0.691,2.18,0.691
		c1.422,0,2.992-0.398,4.711-1.195v2.613c-0.617,0.32-1.365,0.611-2.244,0.873s-1.998,0.393-3.357,0.393
		c-1.469,0-2.719-0.273-3.75-0.82s-1.803-1.289-2.314-2.227s-0.768-2-0.768-3.188c0-1.172,0.256-2.221,0.768-3.146
		s1.283-1.652,2.314-2.18s2.281-0.791,3.75-0.791c0.969,0,1.904,0.209,2.807,0.627s1.645,1.102,2.227,2.051s0.873,2.174,0.873,3.674
		V434.246z M308.01,432.16c0-0.766-0.189-1.377-0.568-1.834s-0.924-0.686-1.635-0.686c-0.703,0-1.271,0.232-1.705,0.697
		s-0.65,1.072-0.65,1.822H308.01z"/>
	<path fill="#78A5CE" d="M324.533,427.906l-1.559,4.23c-0.641-0.609-1.289-0.914-1.945-0.914c-0.594,0-1.107,0.201-1.541,0.604
		s-0.85,1.146-1.248,2.232v5.133h-4.219v-11.93h4.219v2.883c0.266-0.711,0.734-1.404,1.406-2.08s1.461-1.014,2.367-1.014
		c0.477,0,0.893,0.07,1.248,0.211S324.041,427.617,324.533,427.906z"/>
	<path fill="#78A5CE" d="M336.369,427.906l-1.559,4.23c-0.641-0.609-1.289-0.914-1.945-0.914c-0.594,0-1.107,0.201-1.541,0.604
		s-0.85,1.146-1.248,2.232v5.133h-4.219v-11.93h4.219v2.883c0.266-0.711,0.734-1.404,1.406-2.08s1.461-1.014,2.367-1.014
		c0.477,0,0.893,0.07,1.248,0.211S335.877,427.617,336.369,427.906z"/>
	<path fill="#78A5CE" d="M349.752,438.593c-0.617,0.242-1.188,0.438-1.711,0.586s-1.152,0.223-1.887,0.223
		c-0.695,0-1.18-0.123-1.453-0.369s-0.469-0.545-0.586-0.896c-0.453,0.367-0.957,0.67-1.512,0.908s-1.281,0.357-2.18,0.357
		c-0.867,0-1.568-0.15-2.104-0.451s-0.91-0.68-1.125-1.137s-0.322-0.928-0.322-1.412c0-0.734,0.186-1.342,0.557-1.822
		s0.869-0.873,1.494-1.178s1.453-0.621,2.484-0.949c0.586-0.188,1.029-0.33,1.33-0.428s0.525-0.174,0.674-0.229
		s0.305-0.125,0.469-0.211c0-0.578-0.117-1.031-0.352-1.359s-0.742-0.492-1.523-0.492c-0.922,0-1.777,0.203-2.566,0.609
		s-1.512,0.93-2.168,1.57v-3.234c0.523-0.375,1.09-0.682,1.699-0.92s1.246-0.416,1.91-0.533s1.336-0.176,2.016-0.176
		c1.727,0,3.025,0.334,3.896,1.002s1.307,1.588,1.307,2.76v4.605c0,0.438,0.041,0.764,0.123,0.979s0.232,0.322,0.451,0.322
		c0.266,0,0.625-0.113,1.078-0.34V438.593z M343.881,436.308v-2.824c-1,0.406-1.73,0.771-2.191,1.096s-0.691,0.764-0.691,1.318
		c0,0.398,0.115,0.703,0.346,0.914s0.498,0.316,0.803,0.316c0.289,0,0.576-0.08,0.861-0.24S343.584,436.535,343.881,436.308z"/>
	<path fill="#78A5CE" d="M364.154,439.191h-4.219v-6.434c0-0.656-0.107-1.229-0.322-1.717s-0.686-0.732-1.412-0.732
		c-0.344,0-0.646,0.064-0.908,0.193s-0.496,0.295-0.703,0.498s-0.381,0.398-0.521,0.586s-0.285,0.387-0.434,0.598v7.008h-4.219
		v-11.93h4.219v1.711c0.664-0.711,1.33-1.209,1.998-1.494s1.412-0.428,2.232-0.428c2.859,0,4.289,1.711,4.289,5.133V439.191z"/>
	<path fill="#78A5CE" d="M379.307,439.191h-4.23v-1.078c-0.445,0.375-0.916,0.684-1.412,0.926s-1.182,0.363-2.057,0.363
		c-0.867,0-1.719-0.215-2.555-0.645s-1.523-1.1-2.062-2.01s-0.809-2.057-0.809-3.439c0-1.086,0.203-2.104,0.609-3.053
		s1.043-1.721,1.91-2.314s1.93-0.891,3.188-0.891c0.781,0,1.414,0.086,1.898,0.258s0.914,0.391,1.289,0.656v-5.016h4.23V439.191z
		 M375.076,435.394v-4.559c-0.492-0.273-0.877-0.469-1.154-0.586s-0.604-0.176-0.979-0.176c-0.664,0-1.217,0.281-1.658,0.844
		s-0.662,1.328-0.662,2.297c0,1.055,0.232,1.822,0.697,2.303s1.006,0.721,1.623,0.721c0.508,0,0.918-0.08,1.23-0.24
		S374.787,435.636,375.076,435.394z"/>
</g>
<g>
	<path fill="#78A5CE" d="M720.262,363.501c0,1.664-0.303,3-0.908,4.008s-1.318,1.824-2.139,2.449
		c-1.164,0.914-2.793,1.371-4.887,1.371h-8.766v-16.242h6.75c1.016,0,1.885,0.053,2.607,0.158s1.373,0.254,1.951,0.445
		s1.07,0.406,1.477,0.645s0.77,0.494,1.09,0.768c0.555,0.453,1.041,0.988,1.459,1.605s0.75,1.332,0.996,2.145
		S720.262,362.548,720.262,363.501z M715.281,363.291c0-1.32-0.252-2.35-0.756-3.088s-1.109-1.232-1.816-1.482
		s-1.428-0.375-2.162-0.375h-2.086v9.621h2.086c1.281,0,2.391-0.305,3.328-0.914S715.281,365.189,715.281,363.291z"/>
	<path fill="#78A5CE" d="M740.09,371.33h-5.016l-1.324-3.293h-7.055l-1.348,3.293h-5.016l7.184-16.242h5.414L740.09,371.33z
		 M732.625,365.212l-2.379-5.93l-2.402,5.93H732.625z"/>
	<path fill="#78A5CE" d="M759.883,371.33h-4.359l-8.426-9.047v9.047h-4.852v-16.242h4.348l8.402,9v-9h4.887V371.33z"/>
	<path fill="#78A5CE" d="M781.34,363.197c0,1.516-0.35,2.91-1.049,4.184s-1.74,2.285-3.123,3.035s-3.066,1.125-5.051,1.125
		c-2.008,0-3.707-0.391-5.098-1.172s-2.424-1.809-3.1-3.082s-1.014-2.637-1.014-4.09c0-1.461,0.336-2.826,1.008-4.096
		s1.705-2.293,3.1-3.07s3.096-1.166,5.104-1.166c1.5,0,2.838,0.223,4.014,0.668s2.143,1.049,2.9,1.811s1.332,1.648,1.723,2.66
		S781.34,362.08,781.34,363.197z M776.348,363.197c0-0.609-0.09-1.166-0.27-1.67s-0.451-0.941-0.814-1.312s-0.807-0.66-1.33-0.867
		s-1.129-0.311-1.816-0.311c-1.312,0-2.344,0.383-3.094,1.148s-1.125,1.77-1.125,3.012s0.377,2.248,1.131,3.018
		s1.783,1.154,3.088,1.154c0.898,0,1.664-0.178,2.297-0.533s1.113-0.848,1.441-1.477S776.348,364.009,776.348,363.197z"/>
	<path fill="#78A5CE" d="M801.684,371.33h-4.359l-8.426-9.047v9.047h-4.852v-16.242h4.348l8.402,9v-9h4.887V371.33z"/>
	<path fill="#78A5CE" d="M818.008,371.33h-12.246v-16.242h12.047v3.258h-7.148v2.977h6.82v3.27h-6.82v3.469h7.348V371.33z"/>
	<path fill="#78A5CE" d="M717.625,388.998c0,0.602-0.104,1.189-0.311,1.764s-0.541,1.109-1.002,1.605s-1.084,0.898-1.869,1.207
		s-1.709,0.463-2.771,0.463h-3.211v6.094h-4.898v-16.242h8.109c1.062,0,1.986,0.156,2.771,0.469s1.408,0.719,1.869,1.219
		s0.795,1.043,1.002,1.629S717.625,388.388,717.625,388.998z M712.633,389.021c0-0.773-0.229-1.303-0.686-1.588
		s-1.275-0.428-2.455-0.428h-1.031v3.914h1.055c0.812,0,1.438-0.051,1.875-0.152s0.754-0.289,0.949-0.562
		S712.633,389.537,712.633,389.021z"/>
	<path fill="#78A5CE" d="M730.141,388.845l-1.559,4.23c-0.641-0.609-1.289-0.914-1.945-0.914c-0.594,0-1.107,0.201-1.541,0.604
		s-0.85,1.146-1.248,2.232v5.133h-4.219v-11.93h4.219v2.883c0.266-0.711,0.734-1.404,1.406-2.08s1.461-1.014,2.367-1.014
		c0.477,0,0.893,0.07,1.248,0.211S729.648,388.556,730.141,388.845z"/>
	<path fill="#78A5CE" d="M743.629,394.154c0,1.188-0.258,2.246-0.773,3.176s-1.287,1.664-2.314,2.203s-2.279,0.809-3.756,0.809
		s-2.729-0.27-3.756-0.809s-1.797-1.273-2.309-2.203s-0.768-1.988-0.768-3.176c0-0.898,0.143-1.715,0.428-2.449
		s0.719-1.385,1.301-1.951s1.299-1.002,2.15-1.307s1.836-0.457,2.953-0.457c1.125,0,2.119,0.154,2.982,0.463s1.578,0.74,2.145,1.295
		s0.994,1.203,1.283,1.945S743.629,393.255,743.629,394.154z M739.188,394.154c0-0.945-0.205-1.686-0.615-2.221
		s-1.006-0.803-1.787-0.803c-0.773,0-1.365,0.268-1.775,0.803s-0.615,1.275-0.615,2.221c0,0.938,0.207,1.68,0.621,2.227
		s1.004,0.82,1.77,0.82c0.781,0,1.377-0.271,1.787-0.814S739.188,395.099,739.188,394.154z"/>
	<path fill="#78A5CE" d="M758.441,400.13h-4.23v-1.078c-0.445,0.375-0.916,0.684-1.412,0.926s-1.182,0.363-2.057,0.363
		c-0.867,0-1.719-0.215-2.555-0.645s-1.523-1.1-2.062-2.01s-0.809-2.057-0.809-3.439c0-1.086,0.203-2.104,0.609-3.053
		s1.043-1.721,1.91-2.314s1.93-0.891,3.188-0.891c0.781,0,1.414,0.086,1.898,0.258s0.914,0.391,1.289,0.656v-5.016h4.23V400.13z
		 M754.211,396.333v-4.559c-0.492-0.273-0.877-0.469-1.154-0.586s-0.604-0.176-0.979-0.176c-0.664,0-1.217,0.281-1.658,0.844
		s-0.662,1.328-0.662,2.297c0,1.055,0.232,1.822,0.697,2.303s1.006,0.721,1.623,0.721c0.508,0,0.918-0.08,1.23-0.24
		S753.922,396.576,754.211,396.333z"/>
	<path fill="#78A5CE" d="M773.676,400.13h-4.219v-1.699c-0.596,0.641-1.221,1.119-1.873,1.436c-0.654,0.316-1.439,0.475-2.357,0.475
		c-1.799,0-2.965-0.525-3.494-1.576s-0.795-2.236-0.795-3.557v-7.008h4.219v6.445c0,0.648,0.107,1.217,0.324,1.705
		c0.215,0.488,0.684,0.732,1.404,0.732c0.619,0,1.107-0.176,1.469-0.527c0.359-0.352,0.729-0.801,1.104-1.348v-7.008h4.219V400.13z"
		/>
	<path fill="#78A5CE" d="M786.602,399.58c-0.352,0.133-0.723,0.256-1.113,0.369s-0.83,0.207-1.318,0.281s-1.021,0.111-1.6,0.111
		c-1.305,0-2.408-0.221-3.311-0.662s-1.598-0.996-2.086-1.664s-0.826-1.35-1.014-2.045s-0.281-1.309-0.281-1.84
		s0.096-1.145,0.287-1.84s0.525-1.367,1.002-2.016s1.166-1.191,2.068-1.629s2.014-0.656,3.334-0.656
		c0.883,0,1.602,0.062,2.156,0.188s1.117,0.293,1.688,0.504v3.316c-1.375-0.438-2.449-0.656-3.223-0.656
		c-0.75,0-1.416,0.227-1.998,0.68s-0.873,1.156-0.873,2.109c0,0.633,0.145,1.166,0.434,1.6s0.656,0.752,1.102,0.955
		s0.891,0.305,1.336,0.305c0.422,0,0.902-0.062,1.441-0.188s1.195-0.305,1.969-0.539V399.58z"/>
	<path fill="#78A5CE" d="M798.062,399.439c-0.438,0.211-1.041,0.414-1.811,0.609s-1.506,0.293-2.209,0.293
		c-3.039,0-4.559-1.484-4.559-4.453v-4.758h-1.91v-0.738l5.66-5.766h0.48v3.574h4.031v2.93h-4.031v3.82
		c0,0.445,0.027,0.805,0.082,1.078s0.209,0.502,0.463,0.686s0.639,0.275,1.154,0.275c0.672,0,1.555-0.281,2.648-0.844V399.439z"/>
	<path fill="#78A5CE" d="M804.355,400.13h-4.23v-11.93h4.23V400.13z M804.016,385.447c0,0.492-0.176,0.91-0.527,1.254
		s-0.77,0.516-1.254,0.516c-0.328,0-0.627-0.078-0.896-0.234s-0.482-0.369-0.639-0.639s-0.234-0.568-0.234-0.896
		c0-0.484,0.172-0.902,0.516-1.254s0.762-0.527,1.254-0.527c0.484,0,0.902,0.176,1.254,0.527S804.016,384.962,804.016,385.447z"/>
	<path fill="#78A5CE" d="M820.434,394.154c0,1.188-0.258,2.246-0.773,3.176s-1.287,1.664-2.314,2.203s-2.279,0.809-3.756,0.809
		s-2.729-0.27-3.756-0.809s-1.797-1.273-2.309-2.203s-0.768-1.988-0.768-3.176c0-0.898,0.143-1.715,0.428-2.449
		s0.719-1.385,1.301-1.951s1.299-1.002,2.15-1.307s1.836-0.457,2.953-0.457c1.125,0,2.119,0.154,2.982,0.463s1.578,0.74,2.145,1.295
		s0.994,1.203,1.283,1.945S820.434,393.255,820.434,394.154z M815.992,394.154c0-0.945-0.205-1.686-0.615-2.221
		s-1.006-0.803-1.787-0.803c-0.773,0-1.365,0.268-1.775,0.803s-0.615,1.275-0.615,2.221c0,0.938,0.207,1.68,0.621,2.227
		s1.004,0.82,1.77,0.82c0.781,0,1.377-0.271,1.787-0.814S815.992,395.099,815.992,394.154z"/>
	<path fill="#78A5CE" d="M835.363,400.13h-4.219v-6.434c0-0.656-0.107-1.229-0.322-1.717s-0.686-0.732-1.412-0.732
		c-0.344,0-0.646,0.064-0.908,0.193s-0.496,0.295-0.703,0.498s-0.381,0.398-0.521,0.586s-0.285,0.387-0.434,0.598v7.008h-4.219
		v-11.93h4.219v1.711c0.664-0.711,1.33-1.209,1.998-1.494s1.412-0.428,2.232-0.428c2.859,0,4.289,1.711,4.289,5.133V400.13z"/>
	<path fill="#78A5CE" d="M859.773,388.998c0,0.602-0.104,1.189-0.311,1.764s-0.541,1.109-1.002,1.605s-1.084,0.898-1.869,1.207
		s-1.709,0.463-2.771,0.463h-3.211v6.094h-4.898v-16.242h8.109c1.062,0,1.986,0.156,2.771,0.469s1.408,0.719,1.869,1.219
		s0.795,1.043,1.002,1.629S859.773,388.388,859.773,388.998z M854.781,389.021c0-0.773-0.229-1.303-0.686-1.588
		s-1.275-0.428-2.455-0.428h-1.031v3.914h1.055c0.812,0,1.438-0.051,1.875-0.152s0.754-0.289,0.949-0.562
		S854.781,389.537,854.781,389.021z"/>
	<path fill="#78A5CE" d="M866.242,400.13h-4.23v-16.242h4.23V400.13z"/>
	<path fill="#78A5CE" d="M881.523,399.533c-0.617,0.242-1.188,0.438-1.711,0.586s-1.152,0.223-1.887,0.223
		c-0.695,0-1.18-0.123-1.453-0.369s-0.469-0.545-0.586-0.896c-0.453,0.367-0.957,0.67-1.512,0.908s-1.281,0.357-2.18,0.357
		c-0.867,0-1.568-0.15-2.104-0.451s-0.91-0.68-1.125-1.137s-0.322-0.928-0.322-1.412c0-0.734,0.186-1.342,0.557-1.822
		s0.869-0.873,1.494-1.178s1.453-0.621,2.484-0.949c0.586-0.188,1.029-0.33,1.33-0.428s0.525-0.174,0.674-0.229
		s0.305-0.125,0.469-0.211c0-0.578-0.117-1.031-0.352-1.359s-0.742-0.492-1.523-0.492c-0.922,0-1.777,0.203-2.566,0.609
		s-1.512,0.93-2.168,1.57v-3.234c0.523-0.375,1.09-0.682,1.699-0.92s1.246-0.416,1.91-0.533s1.336-0.176,2.016-0.176
		c1.727,0,3.025,0.334,3.896,1.002s1.307,1.588,1.307,2.76v4.605c0,0.438,0.041,0.764,0.123,0.979s0.232,0.322,0.451,0.322
		c0.266,0,0.625-0.113,1.078-0.34V399.533z M875.652,397.248v-2.824c-1,0.406-1.73,0.771-2.191,1.096s-0.691,0.764-0.691,1.318
		c0,0.398,0.115,0.703,0.346,0.914s0.498,0.316,0.803,0.316c0.289,0,0.576-0.08,0.861-0.24S875.355,397.474,875.652,397.248z"/>
	<path fill="#78A5CE" d="M895.926,400.13h-4.219v-6.434c0-0.656-0.107-1.229-0.322-1.717s-0.686-0.732-1.412-0.732
		c-0.344,0-0.646,0.064-0.908,0.193s-0.496,0.295-0.703,0.498s-0.381,0.398-0.521,0.586s-0.285,0.387-0.434,0.598v7.008h-4.219
		v-11.93h4.219v1.711c0.664-0.711,1.33-1.209,1.998-1.494s1.412-0.428,2.232-0.428c2.859,0,4.289,1.711,4.289,5.133V400.13z"/>
	<path fill="#78A5CE" d="M911.195,400.13h-4.219v-6.434c0-0.656-0.107-1.229-0.322-1.717s-0.686-0.732-1.412-0.732
		c-0.344,0-0.646,0.064-0.908,0.193s-0.496,0.295-0.703,0.498s-0.381,0.398-0.521,0.586s-0.285,0.387-0.434,0.598v7.008h-4.219
		v-11.93h4.219v1.711c0.664-0.711,1.33-1.209,1.998-1.494s1.412-0.428,2.232-0.428c2.859,0,4.289,1.711,4.289,5.133V400.13z"/>
	<path fill="#78A5CE" d="M925.961,395.185h-8.402c0.164,0.727,0.566,1.32,1.207,1.781s1.367,0.691,2.18,0.691
		c1.422,0,2.992-0.398,4.711-1.195v2.613c-0.617,0.32-1.365,0.611-2.244,0.873s-1.998,0.393-3.357,0.393
		c-1.469,0-2.719-0.273-3.75-0.82s-1.803-1.289-2.314-2.227s-0.768-2-0.768-3.188c0-1.172,0.256-2.221,0.768-3.146
		s1.283-1.652,2.314-2.18s2.281-0.791,3.75-0.791c0.969,0,1.904,0.209,2.807,0.627s1.645,1.102,2.227,2.051s0.873,2.174,0.873,3.674
		V395.185z M922,393.099c0-0.766-0.189-1.377-0.568-1.834s-0.924-0.686-1.635-0.686c-0.703,0-1.271,0.232-1.705,0.697
		s-0.65,1.072-0.65,1.822H922z"/>
	<path fill="#78A5CE" d="M938.523,388.845l-1.559,4.23c-0.641-0.609-1.289-0.914-1.945-0.914c-0.594,0-1.107,0.201-1.541,0.604
		s-0.85,1.146-1.248,2.232v5.133h-4.219v-11.93h4.219v2.883c0.266-0.711,0.734-1.404,1.406-2.08s1.461-1.014,2.367-1.014
		c0.477,0,0.893,0.07,1.248,0.211S938.031,388.556,938.523,388.845z"/>
	<path fill="#78A5CE" d="M724.422,429.411c-0.609,1.242-1.447,2.248-2.514,3.018s-2.248,1.318-3.545,1.646s-2.672,0.492-4.125,0.492
		c-2.211,0-4.234-0.359-6.07-1.078c-1.023-0.406-1.916-0.943-2.678-1.611s-1.385-1.434-1.869-2.297s-0.84-1.754-1.066-2.672
		s-0.34-1.861-0.34-2.83c0-1.445,0.24-2.859,0.721-4.242s1.209-2.629,2.186-3.738s2.215-1.992,3.715-2.648s3.23-0.984,5.191-0.984
		c2.031,0,3.787,0.396,5.268,1.189s2.609,1.861,3.387,3.205s1.166,2.816,1.166,4.418c0,1.422-0.33,2.775-0.99,4.061
		s-1.57,2.32-2.73,3.105s-2.451,1.178-3.873,1.178c-0.703,0-1.203-0.111-1.5-0.334s-0.516-0.549-0.656-0.979
		c-0.367,0.344-0.793,0.648-1.277,0.914s-1.105,0.398-1.863,0.398c-0.844,0-1.598-0.197-2.262-0.592s-1.186-0.965-1.564-1.711
		s-0.568-1.623-0.568-2.631c0-1.102,0.246-2.238,0.738-3.41s1.207-2.154,2.145-2.947s2.039-1.189,3.305-1.189
		c1.398,0,2.426,0.523,3.082,1.57l0.258-1.277h3.047l-1.723,8.262c-0.117,0.57-0.176,0.914-0.176,1.031
		c0,0.367,0.152,0.551,0.457,0.551c0.414,0,0.947-0.273,1.6-0.82s1.221-1.283,1.705-2.209s0.727-1.951,0.727-3.076
		c0-0.711-0.127-1.441-0.381-2.191s-0.678-1.461-1.271-2.133s-1.396-1.219-2.408-1.641s-2.24-0.633-3.686-0.633
		c-1.906,0-3.504,0.334-4.793,1.002s-2.283,1.51-2.982,2.525s-1.186,2.057-1.459,3.123s-0.41,2.061-0.41,2.982
		c0,1.008,0.17,1.994,0.51,2.959s0.883,1.848,1.629,2.648s1.752,1.441,3.018,1.922s2.785,0.721,4.559,0.721
		c1.617,0,2.969-0.174,4.055-0.521s1.91-0.742,2.473-1.184s1.027-0.889,1.395-1.342H724.422z M715.035,421.899
		c0-0.289-0.041-0.629-0.123-1.02s-0.27-0.766-0.562-1.125s-0.729-0.539-1.307-0.539c-0.742,0-1.369,0.303-1.881,0.908
		s-0.887,1.346-1.125,2.221s-0.357,1.703-0.357,2.484c0,0.906,0.191,1.58,0.574,2.021s0.832,0.662,1.348,0.662
		c0.602,0,1.125-0.201,1.57-0.604s0.807-0.914,1.084-1.535s0.477-1.234,0.598-1.84S715.035,422.383,715.035,421.899z"/>
	<path fill="#78A5CE" d="M748.586,424.325c0,1.398-0.479,2.516-1.436,3.352s-2.295,1.254-4.014,1.254h-9.387v-16.242h7.852
		c1.016,0,1.9,0.098,2.654,0.293s1.361,0.463,1.822,0.803s0.805,0.74,1.031,1.201s0.34,0.965,0.34,1.512
		c0,0.594-0.117,1.143-0.352,1.646s-0.525,0.918-0.873,1.242s-0.697,0.553-1.049,0.686c1.109,0.438,1.955,0.99,2.537,1.658
		S748.586,423.262,748.586,424.325z M742.867,417.364c0-0.781-0.258-1.301-0.773-1.559s-1.32-0.387-2.414-0.387h-1.031v3.891h1.055
		c1.117,0,1.924-0.129,2.42-0.387S742.867,418.145,742.867,417.364z M743.664,424.125c0-1.391-1.008-2.086-3.023-2.086h-1.992v4.16
		h1.992C742.656,426.2,743.664,425.508,743.664,424.125z"/>
	<path fill="#78A5CE" d="M764.207,422.954c0,1.188-0.258,2.246-0.773,3.176s-1.287,1.664-2.314,2.203s-2.279,0.809-3.756,0.809
		s-2.729-0.27-3.756-0.809s-1.797-1.273-2.309-2.203s-0.768-1.988-0.768-3.176c0-0.898,0.143-1.715,0.428-2.449
		s0.719-1.385,1.301-1.951s1.299-1.002,2.15-1.307s1.836-0.457,2.953-0.457c1.125,0,2.119,0.154,2.982,0.463s1.578,0.74,2.145,1.295
		s0.994,1.203,1.283,1.945S764.207,422.055,764.207,422.954z M759.766,422.954c0-0.945-0.205-1.686-0.615-2.221
		s-1.006-0.803-1.787-0.803c-0.773,0-1.365,0.268-1.775,0.803s-0.615,1.275-0.615,2.221c0,0.938,0.207,1.68,0.621,2.227
		s1.004,0.82,1.77,0.82c0.781,0,1.377-0.271,1.787-0.814S759.766,423.899,759.766,422.954z"/>
	<path fill="#78A5CE" d="M779.137,428.93h-4.219v-6.434c0-0.656-0.107-1.229-0.322-1.717s-0.686-0.732-1.412-0.732
		c-0.344,0-0.646,0.064-0.908,0.193s-0.496,0.295-0.703,0.498s-0.381,0.398-0.521,0.586s-0.285,0.387-0.434,0.598v7.008h-4.219V417
		h4.219v1.711c0.664-0.711,1.33-1.209,1.998-1.494s1.412-0.428,2.232-0.428c2.859,0,4.289,1.711,4.289,5.133V428.93z"/>
	<path fill="#78A5CE" d="M794.043,428.333c-0.617,0.242-1.188,0.438-1.711,0.586s-1.152,0.223-1.887,0.223
		c-0.695,0-1.18-0.123-1.453-0.369s-0.469-0.545-0.586-0.896c-0.453,0.367-0.957,0.67-1.512,0.908s-1.281,0.357-2.18,0.357
		c-0.867,0-1.568-0.15-2.104-0.451s-0.91-0.68-1.125-1.137s-0.322-0.928-0.322-1.412c0-0.734,0.186-1.342,0.557-1.822
		s0.869-0.873,1.494-1.178s1.453-0.621,2.484-0.949c0.586-0.188,1.029-0.33,1.33-0.428s0.525-0.174,0.674-0.229
		s0.305-0.125,0.469-0.211c0-0.578-0.117-1.031-0.352-1.359s-0.742-0.492-1.523-0.492c-0.922,0-1.777,0.203-2.566,0.609
		s-1.512,0.93-2.168,1.57v-3.234c0.523-0.375,1.09-0.682,1.699-0.92s1.246-0.416,1.91-0.533s1.336-0.176,2.016-0.176
		c1.727,0,3.025,0.334,3.896,1.002s1.307,1.588,1.307,2.76v4.605c0,0.438,0.041,0.764,0.123,0.979s0.232,0.322,0.451,0.322
		c0.266,0,0.625-0.113,1.078-0.34V428.333z M788.172,426.047v-2.824c-1,0.406-1.73,0.771-2.191,1.096s-0.691,0.764-0.691,1.318
		c0,0.398,0.115,0.703,0.346,0.914s0.498,0.316,0.803,0.316c0.289,0,0.576-0.08,0.861-0.24S787.875,426.274,788.172,426.047z"/>
	<path fill="#78A5CE" d="M803.699,415.711c-0.641-0.148-1.16-0.223-1.559-0.223c-0.453,0-0.807,0.148-1.061,0.445
		s-0.381,0.719-0.381,1.266v0.422h2.133v2.859h-2.133v8.449h-4.23v-8.449h-1.945v-2.859h1.945v-0.211
		c0-0.836,0.162-1.627,0.486-2.373s0.865-1.361,1.623-1.846s1.758-0.727,3-0.727c0.703,0,1.41,0.074,2.121,0.223V415.711z"/>
	<path fill="#78A5CE" d="M817.738,422.954c0,1.188-0.258,2.246-0.773,3.176s-1.287,1.664-2.314,2.203s-2.279,0.809-3.756,0.809
		s-2.729-0.27-3.756-0.809s-1.797-1.273-2.309-2.203s-0.768-1.988-0.768-3.176c0-0.898,0.143-1.715,0.428-2.449
		s0.719-1.385,1.301-1.951s1.299-1.002,2.15-1.307s1.836-0.457,2.953-0.457c1.125,0,2.119,0.154,2.982,0.463s1.578,0.74,2.145,1.295
		s0.994,1.203,1.283,1.945S817.738,422.055,817.738,422.954z M813.297,422.954c0-0.945-0.205-1.686-0.615-2.221
		s-1.006-0.803-1.787-0.803c-0.773,0-1.365,0.268-1.775,0.803s-0.615,1.275-0.615,2.221c0,0.938,0.207,1.68,0.621,2.227
		s1.004,0.82,1.77,0.82c0.781,0,1.377-0.271,1.787-0.814S813.297,423.899,813.297,422.954z"/>
	<path fill="#78A5CE" d="M832.668,428.93h-4.219v-6.434c0-0.656-0.107-1.229-0.322-1.717s-0.686-0.732-1.412-0.732
		c-0.344,0-0.646,0.064-0.908,0.193s-0.496,0.295-0.703,0.498s-0.381,0.398-0.521,0.586s-0.285,0.387-0.434,0.598v7.008h-4.219V417
		h4.219v1.711c0.664-0.711,1.33-1.209,1.998-1.494s1.412-0.428,2.232-0.428c2.859,0,4.289,1.711,4.289,5.133V428.93z"/>
	<path fill="#78A5CE" d="M844.609,428.239c-0.438,0.211-1.041,0.414-1.811,0.609s-1.506,0.293-2.209,0.293
		c-3.039,0-4.559-1.484-4.559-4.453v-4.758h-1.91v-0.738l5.66-5.766h0.48V417h4.031v2.93h-4.031v3.82
		c0,0.445,0.027,0.805,0.082,1.078s0.209,0.502,0.463,0.686s0.639,0.275,1.154,0.275c0.672,0,1.555-0.281,2.648-0.844V428.239z"/>
	<path fill="#78A5CE" d="M851.477,427.805c0,0.523-0.104,1.061-0.311,1.611s-0.527,1.068-0.961,1.553s-1.012,0.904-1.734,1.26
		s-1.561,0.6-2.514,0.732v-0.738c1.227-0.469,1.84-1.508,1.84-3.117v-0.246c-1.227-0.352-1.84-1.121-1.84-2.309
		c0-0.422,0.107-0.82,0.322-1.195s0.516-0.678,0.902-0.908s0.811-0.346,1.271-0.346c0.664,0,1.223,0.184,1.676,0.551
		s0.791,0.836,1.014,1.406S851.477,427.211,851.477,427.805z"/>
	<path fill="#78A5CE" d="M880.41,428.93h-4.898v-9.41l-4.418,5.449h-0.387l-4.43-5.449v9.41h-4.758v-16.242h4.441l4.992,6.094
		l5.016-6.094h4.441V428.93z"/>
	<path fill="#78A5CE" d="M896.055,423.985h-8.402c0.164,0.727,0.566,1.32,1.207,1.781s1.367,0.691,2.18,0.691
		c1.422,0,2.992-0.398,4.711-1.195v2.613c-0.617,0.32-1.365,0.611-2.244,0.873s-1.998,0.393-3.357,0.393
		c-1.469,0-2.719-0.273-3.75-0.82s-1.803-1.289-2.314-2.227s-0.768-2-0.768-3.188c0-1.172,0.256-2.221,0.768-3.146
		s1.283-1.652,2.314-2.18s2.281-0.791,3.75-0.791c0.969,0,1.904,0.209,2.807,0.627s1.645,1.102,2.227,2.051s0.873,2.174,0.873,3.674
		V423.985z M892.094,421.899c0-0.766-0.189-1.377-0.568-1.834s-0.924-0.686-1.635-0.686c-0.703,0-1.271,0.232-1.705,0.697
		s-0.65,1.072-0.65,1.822H892.094z"/>
	<path fill="#78A5CE" d="M911.418,428.93h-5.203l-2.309-3.387l-2.297,3.387h-4.617l4.617-5.859l-4.711-6.07h5.191l2.203,3.246
		L906.52,417h4.617l-4.512,5.66L911.418,428.93z"/>
	<path fill="#78A5CE" d="M917.336,428.93h-4.23V417h4.23V428.93z M916.996,414.247c0,0.492-0.176,0.91-0.527,1.254
		s-0.77,0.516-1.254,0.516c-0.328,0-0.627-0.078-0.896-0.234s-0.482-0.369-0.639-0.639s-0.234-0.568-0.234-0.896
		c0-0.484,0.172-0.902,0.516-1.254s0.762-0.527,1.254-0.527c0.484,0,0.902,0.176,1.254,0.527S916.996,413.762,916.996,414.247z"/>
	<path fill="#78A5CE" d="M930.461,428.379c-0.352,0.133-0.723,0.256-1.113,0.369s-0.83,0.207-1.318,0.281s-1.021,0.111-1.6,0.111
		c-1.305,0-2.408-0.221-3.311-0.662s-1.598-0.996-2.086-1.664s-0.826-1.35-1.014-2.045s-0.281-1.309-0.281-1.84
		s0.096-1.145,0.287-1.84s0.525-1.367,1.002-2.016s1.166-1.191,2.068-1.629s2.014-0.656,3.334-0.656
		c0.883,0,1.602,0.062,2.156,0.188s1.117,0.293,1.688,0.504v3.316c-1.375-0.438-2.449-0.656-3.223-0.656
		c-0.75,0-1.416,0.227-1.998,0.68s-0.873,1.156-0.873,2.109c0,0.633,0.145,1.166,0.434,1.6s0.656,0.752,1.102,0.955
		s0.891,0.305,1.336,0.305c0.422,0,0.902-0.062,1.441-0.188s1.195-0.305,1.969-0.539V428.379z"/>
	<path fill="#78A5CE" d="M945.684,422.954c0,1.188-0.258,2.246-0.773,3.176s-1.287,1.664-2.314,2.203s-2.279,0.809-3.756,0.809
		s-2.729-0.27-3.756-0.809s-1.797-1.273-2.309-2.203s-0.768-1.988-0.768-3.176c0-0.898,0.143-1.715,0.428-2.449
		s0.719-1.385,1.301-1.951s1.299-1.002,2.15-1.307s1.836-0.457,2.953-0.457c1.125,0,2.119,0.154,2.982,0.463s1.578,0.74,2.145,1.295
		s0.994,1.203,1.283,1.945S945.684,422.055,945.684,422.954z M941.242,422.954c0-0.945-0.205-1.686-0.615-2.221
		s-1.006-0.803-1.787-0.803c-0.773,0-1.365,0.268-1.775,0.803s-0.615,1.275-0.615,2.221c0,0.938,0.207,1.68,0.621,2.227
		s1.004,0.82,1.77,0.82c0.781,0,1.377-0.271,1.787-0.814S941.242,423.899,941.242,422.954z"/>
</g>
<line fill="none" stroke="#2C4A6A" stroke-width="3" stroke-miterlimit="10" x1="14" y1="551.234" x2="900" y2="551.234"/>
<line fill="none" stroke="#2C4A6A" stroke-width="3" stroke-miterlimit="10" x1="13.5" y1="551.734" x2="13.5" y2="9.734"/>
<polygon fill="#2C4A6A" points="0,18.734 27.958,18.734 13.979,0 "/>
<polygon fill="#2C4A6A" points="900,537.388 900,565.345 918.734,551.367 "/>
<rect x="13" y="255.734" opacity="0.2" fill="#2C4A6A" width="886" height="296"/>
<g>
	<path fill="#036564" d="M775.547,270.754c2.529,0,4.636,0.801,6.318,2.402c1.682,1.602,2.523,3.609,2.523,6.023
		s-0.849,4.412-2.547,5.994s-3.84,2.373-6.424,2.373c-2.467,0-4.522-0.791-6.166-2.373s-2.465-3.564-2.465-5.947
		c0-2.445,0.827-4.469,2.482-6.07S773.018,270.754,775.547,270.754z M775.641,272.981c-1.873,0-3.413,0.586-4.619,1.758
		s-1.809,2.668-1.809,4.488c0,1.766,0.604,3.234,1.814,4.406s2.725,1.758,4.543,1.758c1.826,0,3.351-0.598,4.572-1.793
		c1.221-1.195,1.832-2.684,1.832-4.465c0-1.734-0.611-3.193-1.832-4.377C778.921,273.573,777.42,272.981,775.641,272.981z"/>
	<path fill="#036564" d="M786.838,292.856v-16.277h3.734c1.911,0,3.399,0.477,4.465,1.43s1.598,2.285,1.598,3.996
		c0,1.617-0.501,2.945-1.504,3.984c-1.002,1.039-2.279,1.559-3.832,1.559c-0.687,0-1.446-0.152-2.281-0.457v5.766H786.838z
		 M790.526,278.571h-1.509v6.633c0.654,0.336,1.341,0.504,2.059,0.504c0.997,0,1.813-0.348,2.449-1.043s0.953-1.59,0.953-2.684
		c0-0.703-0.15-1.324-0.45-1.863s-0.709-0.932-1.228-1.178S791.523,278.571,790.526,278.571z"/>
	<path fill="#036564" d="M808.166,282.157h-7.582c0.055,1.031,0.4,1.852,1.037,2.461s1.459,0.914,2.467,0.914
		c1.406,0,2.703-0.438,3.891-1.312v2.086c-0.656,0.438-1.307,0.75-1.951,0.938s-1.4,0.281-2.268,0.281
		c-1.188,0-2.148-0.246-2.883-0.738s-1.322-1.154-1.764-1.986s-0.662-1.795-0.662-2.889c0-1.641,0.465-2.975,1.395-4.002
		s2.137-1.541,3.621-1.541c1.43,0,2.57,0.5,3.422,1.5s1.277,2.34,1.277,4.02V282.157z M800.631,280.879h5.426
		c-0.055-0.852-0.309-1.508-0.762-1.969s-1.062-0.691-1.828-0.691s-1.393,0.23-1.881,0.691S800.779,280.028,800.631,280.879z"/>
	<path fill="#036564" d="M812.76,276.579v2.473l0.117-0.188c1.031-1.664,2.062-2.496,3.094-2.496c0.805,0,1.645,0.406,2.52,1.219
		l-1.125,1.875c-0.742-0.703-1.43-1.055-2.062-1.055c-0.688,0-1.283,0.328-1.787,0.984s-0.756,1.434-0.756,2.332v5.637h-2.145
		v-10.781H812.76z"/>
	<path fill="#036564" d="M826.752,280.879v4.582c0,0.367,0.125,0.551,0.375,0.551c0.258,0,0.66-0.191,1.207-0.574v1.301
		c-0.484,0.312-0.873,0.525-1.166,0.639s-0.6,0.17-0.92,0.17c-0.914,0-1.453-0.359-1.617-1.078
		c-0.906,0.703-1.871,1.055-2.895,1.055c-0.75,0-1.375-0.248-1.875-0.744s-0.75-1.119-0.75-1.869c0-0.68,0.244-1.287,0.732-1.822
		s1.182-0.959,2.08-1.271l2.73-0.938v-0.574c0-1.297-0.648-1.945-1.945-1.945c-1.164,0-2.297,0.602-3.398,1.805v-2.332
		c0.828-0.977,2.02-1.465,3.574-1.465c1.164,0,2.098,0.305,2.801,0.914c0.234,0.195,0.445,0.455,0.633,0.779
		s0.307,0.648,0.357,0.973S826.752,279.973,826.752,280.879z M824.654,285.227v-3.199l-1.43,0.551
		c-0.727,0.289-1.24,0.58-1.541,0.873s-0.451,0.658-0.451,1.096c0,0.445,0.143,0.809,0.428,1.09s0.654,0.422,1.107,0.422
		C823.447,286.059,824.076,285.782,824.654,285.227z"/>
	<path fill="#036564" d="M828.709,278.29l4.008-3.938v2.227h3.41v1.922h-3.41v5.276c0,1.232,0.512,1.849,1.535,1.849
		c0.766,0,1.574-0.254,2.426-0.762v1.992c-0.82,0.461-1.715,0.691-2.684,0.691c-0.977,0-1.789-0.285-2.438-0.855
		c-0.203-0.172-0.371-0.365-0.504-0.58s-0.244-0.496-0.334-0.844s-0.135-1.01-0.135-1.986V278.5h-1.875V278.29z"/>
	<path fill="#036564" d="M839.314,272.043c0.352,0,0.652,0.121,0.902,0.363s0.375,0.539,0.375,0.891
		c0,0.344-0.125,0.641-0.375,0.891s-0.551,0.375-0.902,0.375c-0.328,0-0.617-0.127-0.867-0.381s-0.375-0.549-0.375-0.885
		c0-0.328,0.125-0.619,0.375-0.873S838.986,272.043,839.314,272.043z M838.26,276.579h2.133v10.781h-2.133V276.579z"/>
	<path fill="#036564" d="M848.631,276.555c1.641,0,3.004,0.529,4.09,1.588s1.629,2.389,1.629,3.99c0,1.555-0.551,2.846-1.652,3.873
		s-2.488,1.541-4.16,1.541c-1.617,0-2.969-0.521-4.055-1.564s-1.629-2.346-1.629-3.908c0-1.578,0.549-2.893,1.646-3.943
		S846.975,276.555,848.631,276.555z M848.514,278.477c-1.023,0-1.863,0.336-2.52,1.008s-0.984,1.527-0.984,2.566
		c0,1.031,0.336,1.873,1.008,2.525s1.535,0.979,2.59,0.979c1.047,0,1.904-0.33,2.572-0.99s1.002-1.506,1.002-2.537
		c0-1.023-0.348-1.871-1.043-2.543S849.568,278.477,848.514,278.477z"/>
	<path fill="#036564" d="M858.85,276.579v1.371c0.953-1.055,2.035-1.582,3.246-1.582c0.672,0,1.297,0.174,1.875,0.521
		s1.018,0.824,1.318,1.43s0.451,1.564,0.451,2.877v6.164h-2.133v-6.141c0-1.102-0.168-1.889-0.504-2.361s-0.898-0.709-1.688-0.709
		c-1.008,0-1.863,0.504-2.566,1.512v7.699h-2.18v-10.781H858.85z"/>
	<path fill="#036564" d="M868.189,286.586v-2.297c0.602,0.422,1.217,0.764,1.846,1.025s1.158,0.393,1.588,0.393
		c0.445,0,0.828-0.109,1.148-0.328s0.48-0.48,0.48-0.785c0-0.312-0.104-0.572-0.311-0.779s-0.654-0.506-1.342-0.896
		c-1.375-0.766-2.275-1.42-2.701-1.963s-0.639-1.135-0.639-1.775c0-0.828,0.322-1.504,0.967-2.027s1.475-0.785,2.49-0.785
		c1.055,0,2.137,0.297,3.246,0.891v2.109c-1.266-0.766-2.301-1.148-3.105-1.148c-0.414,0-0.748,0.088-1.002,0.264
		c-0.254,0.176-0.381,0.409-0.381,0.698c0,0.25,0.115,0.489,0.345,0.716c0.23,0.227,0.635,0.5,1.213,0.82l0.762,0.434
		c1.798,1.016,2.696,2.14,2.696,3.374c0,0.882-0.346,1.607-1.037,2.173c-0.691,0.566-1.58,0.849-2.666,0.849
		c-0.641,0-1.211-0.068-1.711-0.205S868.947,286.954,868.189,286.586z"/>
</g>
<g>
	<path fill="#036564" d="M568.392,204.755h2.344v16.371h-2.344V204.755z"/>
	<path fill="#036564" d="M576.208,210.345v1.371c0.953-1.055,2.035-1.582,3.246-1.582c0.672,0,1.297,0.174,1.875,0.521
		s1.018,0.824,1.318,1.43s0.451,1.564,0.451,2.877v6.164h-2.133v-6.141c0-1.102-0.168-1.889-0.504-2.361s-0.898-0.709-1.688-0.709
		c-1.008,0-1.863,0.504-2.566,1.512v7.699h-2.18v-10.781H576.208z"/>
	<path fill="#036564" d="M584.563,212.056l4.008-3.938v2.227h3.41v1.922h-3.41v5.276c0,1.232,0.512,1.849,1.535,1.849
		c0.766,0,1.574-0.254,2.426-0.762v1.992c-0.82,0.461-1.715,0.691-2.684,0.691c-0.977,0-1.789-0.285-2.438-0.855
		c-0.203-0.172-0.371-0.365-0.504-0.58s-0.244-0.496-0.334-0.844s-0.135-1.01-0.135-1.986v-4.781h-1.875V212.056z"/>
	<path fill="#036564" d="M603.255,215.923h-7.582c0.055,1.031,0.4,1.852,1.037,2.461s1.459,0.914,2.467,0.914
		c1.406,0,2.703-0.438,3.891-1.312v2.086c-0.656,0.438-1.307,0.75-1.951,0.938s-1.4,0.281-2.268,0.281
		c-1.188,0-2.148-0.246-2.883-0.738s-1.322-1.154-1.764-1.986s-0.662-1.795-0.662-2.889c0-1.641,0.465-2.975,1.395-4.002
		s2.137-1.541,3.621-1.541c1.43,0,2.57,0.5,3.422,1.5s1.277,2.34,1.277,4.02V215.923z M595.72,214.646h5.426
		c-0.055-0.852-0.309-1.508-0.762-1.969s-1.062-0.691-1.828-0.691s-1.393,0.23-1.881,0.691S595.868,213.794,595.72,214.646z"/>
	<path fill="#036564" d="M607.849,210.345v2.473l0.117-0.188c1.031-1.664,2.062-2.496,3.094-2.496c0.805,0,1.645,0.406,2.52,1.219
		l-1.125,1.875c-0.742-0.703-1.43-1.055-2.062-1.055c-0.688,0-1.283,0.328-1.787,0.984s-0.756,1.434-0.756,2.332v5.637h-2.145
		v-10.781H607.849z"/>
	<path fill="#036564" d="M617.2,210.345v1.371c0.953-1.055,2.035-1.582,3.246-1.582c0.672,0,1.297,0.174,1.875,0.521
		s1.018,0.824,1.318,1.43s0.451,1.564,0.451,2.877v6.164h-2.133v-6.141c0-1.102-0.168-1.889-0.504-2.361s-0.898-0.709-1.688-0.709
		c-1.008,0-1.863,0.504-2.566,1.512v7.699h-2.18v-10.781H617.2z"/>
	<path fill="#036564" d="M633.841,214.646v4.582c0,0.367,0.125,0.551,0.375,0.551c0.258,0,0.66-0.191,1.207-0.574v1.301
		c-0.484,0.312-0.873,0.525-1.166,0.639s-0.6,0.17-0.92,0.17c-0.914,0-1.453-0.359-1.617-1.078
		c-0.906,0.703-1.871,1.055-2.895,1.055c-0.75,0-1.375-0.248-1.875-0.744s-0.75-1.119-0.75-1.869c0-0.68,0.244-1.287,0.732-1.822
		s1.182-0.959,2.08-1.271l2.73-0.938v-0.574c0-1.297-0.648-1.945-1.945-1.945c-1.164,0-2.297,0.602-3.398,1.805v-2.332
		c0.828-0.977,2.02-1.465,3.574-1.465c1.164,0,2.098,0.305,2.801,0.914c0.234,0.195,0.445,0.455,0.633,0.779
		s0.307,0.648,0.357,0.973S633.841,213.74,633.841,214.646z M631.743,218.994v-3.199l-1.43,0.551
		c-0.727,0.289-1.24,0.58-1.541,0.873s-0.451,0.658-0.451,1.096c0,0.445,0.143,0.809,0.428,1.09s0.654,0.422,1.107,0.422
		C630.536,219.826,631.165,219.548,631.743,218.994z"/>
	<path fill="#036564" d="M635.798,212.056l4.008-3.938v2.227h3.41v1.922h-3.41v5.276c0,1.232,0.512,1.849,1.535,1.849
		c0.766,0,1.574-0.254,2.426-0.762v1.992c-0.82,0.461-1.715,0.691-2.684,0.691c-0.977,0-1.789-0.285-2.438-0.855
		c-0.203-0.172-0.371-0.365-0.504-0.58s-0.244-0.496-0.334-0.844s-0.135-1.01-0.135-1.986v-4.781h-1.875V212.056z"/>
	<path fill="#036564" d="M646.403,205.81c0.352,0,0.652,0.121,0.902,0.363s0.375,0.539,0.375,0.891c0,0.344-0.125,0.641-0.375,0.891
		s-0.551,0.375-0.902,0.375c-0.328,0-0.617-0.127-0.867-0.381s-0.375-0.549-0.375-0.885c0-0.328,0.125-0.619,0.375-0.873
		S646.075,205.81,646.403,205.81z M645.349,210.345h2.133v10.781h-2.133V210.345z"/>
	<path fill="#036564" d="M655.72,210.322c1.641,0,3.004,0.529,4.09,1.588s1.629,2.389,1.629,3.99c0,1.555-0.551,2.846-1.652,3.873
		s-2.488,1.541-4.16,1.541c-1.617,0-2.969-0.521-4.055-1.564s-1.629-2.346-1.629-3.908c0-1.578,0.549-2.893,1.646-3.943
		S654.063,210.322,655.72,210.322z M655.603,212.244c-1.023,0-1.863,0.336-2.52,1.008s-0.984,1.527-0.984,2.566
		c0,1.031,0.336,1.873,1.008,2.525s1.535,0.979,2.59,0.979c1.047,0,1.904-0.33,2.572-0.99s1.002-1.506,1.002-2.537
		c0-1.023-0.348-1.871-1.043-2.543S656.657,212.244,655.603,212.244z"/>
	<path fill="#036564" d="M665.938,210.345v1.371c0.953-1.055,2.035-1.582,3.246-1.582c0.672,0,1.297,0.174,1.875,0.521
		s1.018,0.824,1.318,1.43s0.451,1.564,0.451,2.877v6.164h-2.133v-6.141c0-1.102-0.168-1.889-0.504-2.361s-0.898-0.709-1.688-0.709
		c-1.008,0-1.863,0.504-2.566,1.512v7.699h-2.18v-10.781H665.938z"/>
	<path fill="#036564" d="M682.579,214.646v4.582c0,0.367,0.125,0.551,0.375,0.551c0.258,0,0.66-0.191,1.207-0.574v1.301
		c-0.484,0.312-0.873,0.525-1.166,0.639s-0.6,0.17-0.92,0.17c-0.914,0-1.453-0.359-1.617-1.078
		c-0.906,0.703-1.871,1.055-2.895,1.055c-0.75,0-1.375-0.248-1.875-0.744s-0.75-1.119-0.75-1.869c0-0.68,0.244-1.287,0.732-1.822
		s1.182-0.959,2.08-1.271l2.73-0.938v-0.574c0-1.297-0.648-1.945-1.945-1.945c-1.164,0-2.297,0.602-3.398,1.805v-2.332
		c0.828-0.977,2.02-1.465,3.574-1.465c1.164,0,2.098,0.305,2.801,0.914c0.234,0.195,0.445,0.455,0.633,0.779
		s0.307,0.648,0.357,0.973S682.579,213.74,682.579,214.646z M680.481,218.994v-3.199l-1.43,0.551
		c-0.727,0.289-1.24,0.58-1.541,0.873s-0.451,0.658-0.451,1.096c0,0.445,0.143,0.809,0.428,1.09s0.654,0.422,1.107,0.422
		C679.274,219.826,679.903,219.548,680.481,218.994z"/>
	<path fill="#036564" d="M686.095,204.755h2.133v16.371h-2.133V204.755z"/>
	<path fill="#036564" d="M707.165,215.923h-7.582c0.055,1.031,0.4,1.852,1.037,2.461s1.459,0.914,2.467,0.914
		c1.406,0,2.703-0.438,3.891-1.312v2.086c-0.656,0.438-1.307,0.75-1.951,0.938s-1.4,0.281-2.268,0.281
		c-1.188,0-2.148-0.246-2.883-0.738s-1.322-1.154-1.764-1.986s-0.662-1.795-0.662-2.889c0-1.641,0.465-2.975,1.395-4.002
		s2.137-1.541,3.621-1.541c1.43,0,2.57,0.5,3.422,1.5s1.277,2.34,1.277,4.02V215.923z M699.63,214.646h5.426
		c-0.055-0.852-0.309-1.508-0.762-1.969s-1.062-0.691-1.828-0.691s-1.393,0.23-1.881,0.691S699.778,213.794,699.63,214.646z"/>
	<path fill="#036564" d="M716.919,210.345h2.727l-4.437,5.313l4.753,5.468h-2.735l-3.385-3.867l-3.199,3.867h-2.681l4.539-5.463
		l-4.539-5.318h2.689l3.194,3.699L716.919,210.345z"/>
	<path fill="#036564" d="M729.56,218.607v2.109c-1.07,0.398-2.117,0.598-3.141,0.598c-1.688,0-3.033-0.5-4.037-1.5
		s-1.506-2.34-1.506-4.02c0-1.695,0.488-3.062,1.465-4.102s2.262-1.559,3.855-1.559c0.555,0,1.053,0.053,1.494,0.158
		s0.986,0.303,1.635,0.592v2.273c-1.078-0.688-2.078-1.031-3-1.031c-0.961,0-1.75,0.338-2.367,1.014s-0.926,1.537-0.926,2.584
		c0,1.102,0.334,1.977,1.002,2.625s1.568,0.973,2.701,0.973C727.556,219.322,728.497,219.083,729.56,218.607z"/>
	<path fill="#036564" d="M731.938,204.755h2.133v7.008c0.891-1.086,1.996-1.629,3.316-1.629c0.719,0,1.363,0.18,1.934,0.539
		s0.994,0.855,1.271,1.488s0.416,1.574,0.416,2.824v6.141h-2.133v-6.668c0-0.789-0.193-1.424-0.58-1.904s-0.896-0.721-1.529-0.721
		c-0.469,0-0.91,0.121-1.324,0.363s-0.871,0.645-1.371,1.207v7.723h-2.133V204.755z"/>
	<path fill="#036564" d="M750.759,214.646v4.582c0,0.367,0.125,0.551,0.375,0.551c0.258,0,0.66-0.191,1.207-0.574v1.301
		c-0.484,0.312-0.873,0.525-1.166,0.639s-0.6,0.17-0.92,0.17c-0.914,0-1.453-0.359-1.617-1.078
		c-0.906,0.703-1.871,1.055-2.895,1.055c-0.75,0-1.375-0.248-1.875-0.744s-0.75-1.119-0.75-1.869c0-0.68,0.244-1.287,0.732-1.822
		s1.182-0.959,2.08-1.271l2.73-0.938v-0.574c0-1.297-0.648-1.945-1.945-1.945c-1.164,0-2.297,0.602-3.398,1.805v-2.332
		c0.828-0.977,2.02-1.465,3.574-1.465c1.164,0,2.098,0.305,2.801,0.914c0.234,0.195,0.445,0.455,0.633,0.779
		s0.307,0.648,0.357,0.973S750.759,213.74,750.759,214.646z M748.661,218.994v-3.199l-1.43,0.551
		c-0.727,0.289-1.24,0.58-1.541,0.873s-0.451,0.658-0.451,1.096c0,0.445,0.143,0.809,0.428,1.09s0.654,0.422,1.107,0.422
		C747.454,219.826,748.083,219.548,748.661,218.994z"/>
	<path fill="#036564" d="M756.36,210.345v1.371c0.953-1.055,2.035-1.582,3.246-1.582c0.672,0,1.297,0.174,1.875,0.521
		s1.018,0.824,1.318,1.43s0.451,1.564,0.451,2.877v6.164h-2.133v-6.141c0-1.102-0.168-1.889-0.504-2.361s-0.898-0.709-1.688-0.709
		c-1.008,0-1.863,0.504-2.566,1.512v7.699h-2.18v-10.781H756.36z"/>
	<path fill="#036564" d="M765.677,214.072c0-1.148,0.42-2.057,1.26-2.725s1.986-1.002,3.439-1.002h4.441v1.664h-2.18
		c0.422,0.43,0.715,0.82,0.879,1.172s0.246,0.754,0.246,1.207c0,0.562-0.16,1.115-0.48,1.658s-0.732,0.959-1.236,1.248
		s-1.33,0.52-2.479,0.691c-0.805,0.117-1.207,0.395-1.207,0.832c0,0.25,0.15,0.455,0.451,0.615s0.846,0.326,1.635,0.498
		c1.32,0.289,2.17,0.516,2.549,0.68s0.721,0.398,1.025,0.703c0.516,0.516,0.773,1.164,0.773,1.945c0,1.023-0.455,1.84-1.365,2.449
		s-2.127,0.914-3.65,0.914c-1.539,0-2.768-0.307-3.686-0.92s-1.377-1.436-1.377-2.467c0-1.461,0.902-2.402,2.707-2.824
		c-0.719-0.461-1.078-0.918-1.078-1.371c0-0.344,0.154-0.656,0.463-0.938s0.725-0.488,1.248-0.621
		C766.47,216.779,765.677,215.642,765.677,214.072z M769.181,221.63c-0.719,0-1.307,0.152-1.764,0.457s-0.686,0.695-0.686,1.172
		c0,1.109,1,1.664,3,1.664c0.945,0,1.678-0.139,2.197-0.416s0.779-0.67,0.779-1.178c0-0.5-0.328-0.908-0.984-1.225
		S770.22,221.63,769.181,221.63z M769.685,212.197c-0.578,0-1.07,0.195-1.477,0.586s-0.609,0.859-0.609,1.406
		c0,0.555,0.199,1.014,0.598,1.377s0.902,0.545,1.512,0.545c0.602,0,1.104-0.186,1.506-0.557s0.604-0.834,0.604-1.389
		c0-0.562-0.203-1.031-0.609-1.406S770.294,212.197,769.685,212.197z"/>
	<path fill="#036564" d="M785.657,215.923h-7.582c0.055,1.031,0.4,1.852,1.037,2.461s1.459,0.914,2.467,0.914
		c1.406,0,2.703-0.438,3.891-1.312v2.086c-0.656,0.438-1.307,0.75-1.951,0.938s-1.4,0.281-2.268,0.281
		c-1.188,0-2.148-0.246-2.883-0.738s-1.322-1.154-1.764-1.986s-0.662-1.795-0.662-2.889c0-1.641,0.465-2.975,1.395-4.002
		s2.137-1.541,3.621-1.541c1.43,0,2.57,0.5,3.422,1.5s1.277,2.34,1.277,4.02V215.923z M778.122,214.646h5.426
		c-0.055-0.852-0.309-1.508-0.762-1.969s-1.062-0.691-1.828-0.691s-1.393,0.23-1.881,0.691S778.271,213.794,778.122,214.646z"/>
	<path fill="#036564" d="M794.493,226.623v-16.277h3.734c1.911,0,3.399,0.477,4.465,1.43s1.598,2.285,1.598,3.996
		c0,1.617-0.501,2.945-1.504,3.984c-1.002,1.039-2.279,1.559-3.832,1.559c-0.687,0-1.446-0.152-2.281-0.457v5.766H794.493z
		 M798.182,212.337h-1.509v6.633c0.654,0.336,1.341,0.504,2.059,0.504c0.997,0,1.813-0.348,2.449-1.043s0.953-1.59,0.953-2.684
		c0-0.703-0.15-1.324-0.45-1.863s-0.709-0.932-1.228-1.178S799.179,212.337,798.182,212.337z"/>
	<path fill="#036564" d="M808.919,210.345v2.473l0.117-0.188c1.031-1.664,2.062-2.496,3.094-2.496c0.805,0,1.645,0.406,2.52,1.219
		l-1.125,1.875c-0.742-0.703-1.43-1.055-2.062-1.055c-0.688,0-1.283,0.328-1.787,0.984s-0.756,1.434-0.756,2.332v5.637h-2.145
		v-10.781H808.919z"/>
	<path fill="#036564" d="M820.696,210.322c1.641,0,3.004,0.529,4.09,1.588s1.629,2.389,1.629,3.99c0,1.555-0.551,2.846-1.652,3.873
		s-2.488,1.541-4.16,1.541c-1.617,0-2.969-0.521-4.055-1.564s-1.629-2.346-1.629-3.908c0-1.578,0.549-2.893,1.646-3.943
		S819.04,210.322,820.696,210.322z M820.579,212.244c-1.023,0-1.863,0.336-2.52,1.008s-0.984,1.527-0.984,2.566
		c0,1.031,0.336,1.873,1.008,2.525s1.535,0.979,2.59,0.979c1.047,0,1.904-0.33,2.572-0.99s1.002-1.506,1.002-2.537
		c0-1.023-0.348-1.871-1.043-2.543S821.634,212.244,820.579,212.244z"/>
	<path fill="#036564" d="M828.231,214.072c0-1.148,0.42-2.057,1.26-2.725s1.986-1.002,3.439-1.002h4.441v1.664h-2.18
		c0.422,0.43,0.715,0.82,0.879,1.172s0.246,0.754,0.246,1.207c0,0.562-0.16,1.115-0.48,1.658s-0.732,0.959-1.236,1.248
		s-1.33,0.52-2.479,0.691c-0.805,0.117-1.207,0.395-1.207,0.832c0,0.25,0.15,0.455,0.451,0.615s0.846,0.326,1.635,0.498
		c1.32,0.289,2.17,0.516,2.549,0.68s0.721,0.398,1.025,0.703c0.516,0.516,0.773,1.164,0.773,1.945c0,1.023-0.455,1.84-1.365,2.449
		s-2.127,0.914-3.65,0.914c-1.539,0-2.768-0.307-3.686-0.92s-1.377-1.436-1.377-2.467c0-1.461,0.902-2.402,2.707-2.824
		c-0.719-0.461-1.078-0.918-1.078-1.371c0-0.344,0.154-0.656,0.463-0.938s0.725-0.488,1.248-0.621
		C829.024,216.779,828.231,215.642,828.231,214.072z M831.735,221.63c-0.719,0-1.307,0.152-1.764,0.457s-0.686,0.695-0.686,1.172
		c0,1.109,1,1.664,3,1.664c0.945,0,1.678-0.139,2.197-0.416s0.779-0.67,0.779-1.178c0-0.5-0.328-0.908-0.984-1.225
		S832.774,221.63,831.735,221.63z M832.239,212.197c-0.578,0-1.07,0.195-1.477,0.586s-0.609,0.859-0.609,1.406
		c0,0.555,0.199,1.014,0.598,1.377s0.902,0.545,1.512,0.545c0.602,0,1.104-0.186,1.506-0.557s0.604-0.834,0.604-1.389
		c0-0.562-0.203-1.031-0.609-1.406S832.849,212.197,832.239,212.197z"/>
	<path fill="#036564" d="M841.31,210.345v2.473l0.117-0.188c1.031-1.664,2.062-2.496,3.094-2.496c0.805,0,1.645,0.406,2.52,1.219
		l-1.125,1.875c-0.742-0.703-1.43-1.055-2.062-1.055c-0.688,0-1.283,0.328-1.787,0.984s-0.756,1.434-0.756,2.332v5.637h-2.145
		v-10.781H841.31z"/>
	<path fill="#036564" d="M855.302,214.646v4.582c0,0.367,0.125,0.551,0.375,0.551c0.258,0,0.66-0.191,1.207-0.574v1.301
		c-0.484,0.312-0.873,0.525-1.166,0.639s-0.6,0.17-0.92,0.17c-0.914,0-1.453-0.359-1.617-1.078
		c-0.906,0.703-1.871,1.055-2.895,1.055c-0.75,0-1.375-0.248-1.875-0.744s-0.75-1.119-0.75-1.869c0-0.68,0.244-1.287,0.732-1.822
		s1.182-0.959,2.08-1.271l2.73-0.938v-0.574c0-1.297-0.648-1.945-1.945-1.945c-1.164,0-2.297,0.602-3.398,1.805v-2.332
		c0.828-0.977,2.02-1.465,3.574-1.465c1.164,0,2.098,0.305,2.801,0.914c0.234,0.195,0.445,0.455,0.633,0.779
		s0.307,0.648,0.357,0.973S855.302,213.74,855.302,214.646z M853.204,218.994v-3.199l-1.43,0.551
		c-0.727,0.289-1.24,0.58-1.541,0.873s-0.451,0.658-0.451,1.096c0,0.445,0.143,0.809,0.428,1.09s0.654,0.422,1.107,0.422
		C851.997,219.826,852.626,219.548,853.204,218.994z"/>
	<path fill="#036564" d="M867.606,213.298v7.828h-2.145v-6c0-1.195-0.16-2.029-0.48-2.502s-0.879-0.709-1.676-0.709
		c-0.445,0-0.854,0.102-1.225,0.305s-0.795,0.562-1.271,1.078v7.828h-2.133v-10.781h2.133v1.418
		c1.086-1.086,2.148-1.629,3.188-1.629c1.367,0,2.426,0.648,3.176,1.945c1.141-1.312,2.332-1.969,3.574-1.969
		c1.047,0,1.908,0.383,2.584,1.148s1.014,1.934,1.014,3.504v6.363h-2.133v-6.387c0-0.898-0.184-1.586-0.551-2.062
		s-0.895-0.715-1.582-0.715C869.196,211.962,868.372,212.408,867.606,213.298z"/>
</g>
</svg>
