<?xml version="1.0" encoding="utf-8"?>
<!-- Generator: Adobe Illustrator 16.0.0, SVG Export Plug-In . SVG Version: 6.00 Build 0)  -->
<!DOCTYPE svg PUBLIC "-//W3C//DTD SVG 1.1//EN" "http://www.w3.org/Graphics/SVG/1.1/DTD/svg11.dtd">
<svg version="1.1" id="Layer_1" xmlns="http://www.w3.org/2000/svg" xmlns:xlink="http://www.w3.org/1999/xlink" x="0px" y="0px"
	 width="73.171px" height="724.5px" viewBox="0 0 73.171 724.5" enable-background="new 0 0 73.171 724.5" xml:space="preserve">
<line fill="none" stroke="#E3DED2" stroke-width="3" stroke-linecap="round" stroke-linejoin="round" stroke-miterlimit="10" x1="35.939" y1="724.5" x2="35.939" y2="65.5"/>
<circle fill="#00827E" cx="36.61" cy="644.061" r="22.561"/>
<circle fill="#00827E" cx="36.61" cy="503.061" r="22.561"/>
<circle fill="#EB5B5B" cx="36.586" cy="296.036" r="36.586"/>
<path fill="#E3DED2" d="M51.051,107.876c0,0.001,10.025-69.502-16.134-106.376c-5.293,10.158-21.927,45.732-15.328,106.312
	C29.676,115.026,41.921,115.279,51.051,107.876z"/>
<path fill="#FF9381" d="M52.932,75.588c-4.648,0,19.192,14.512,16.539,37.854c-2.462-4.113-14.174-9.919-18.42-5.565
	C51.891,102.822,54.11,82.23,52.932,75.588z"/>
<path fill="#FF9381" d="M18.716,75.592c-3.553,7.911-21.718,7.17-17.406,38.331c2.36-4.181,13.93-10.336,18.278-6.11
	C18.628,102.785,17.704,82.266,18.716,75.592z"/>
<path fill="#FF9381" d="M34.917,1.5c3.239,3.914,9.908,17.3,12.191,27.169c2.397,10.343-28.994,15.082-23.741,2.505
	C25.934,25.024,30.907,7.457,34.917,1.5z"/>
<path fill="#FF9381" d="M40.074,59.584c-3.244,2.704-7.84,1.971-10.269-1.641c-2.429-3.614-1.766-8.729,1.477-11.432
	c3.245-2.705,7.842-1.968,10.269,1.643C43.979,51.767,43.318,56.885,40.074,59.584z"/>
</svg>
