<svg version="1.1" xmlns="http://www.w3.org/2000/svg" xmlns:xlink="http://www.w3.org/1999/xlink" x="0px" y="0px"
     width="199.902px" height="69.824px">
  <g>
    <path  class="draw" fill="none" stroke="#E3DED2" stroke-width="2" stroke-miterlimit="10" d="M22.998,48.291l0.392,15.332
		c-3.451,3.451-6.854,5.176-10.205,5.176c-4.428,0-7.333-0.91-8.717-2.734C3.084,64.243,1.994,60.01,1.197,53.37
		C0.398,46.729,0,42.001,0,39.186s0.163-5.917,0.488-9.303c0.325-3.385,0.586-6.616,0.781-9.692
		c0.194-3.076,0.537-5.655,1.024-7.739C3.89,5.42,7.666,1.904,13.623,1.904c2.051,0,3.076,0.473,3.076,1.416
		c0,0.456-0.22,0.822-0.659,1.099c-0.438,0.277-0.887,0.415-1.343,0.415l-1.904-0.195c-2.246,0-4.004,1.433-5.272,4.297
		c-1.367,3.19-2.223,6.137-2.563,8.838c-0.342,2.702-0.594,4.851-0.757,6.445c-0.163,1.596-0.277,3.418-0.342,5.469
		C3.76,32.78,3.711,35.661,3.711,38.33c0,2.67,0.099,4.802,0.293,6.396c0.521,0.813,0.862,2.141,1.025,3.979
		c0.163,1.84,0.301,3.688,0.415,5.542s0.374,3.694,0.781,5.519c0.406,1.822,1.276,3.305,2.611,4.442
		c1.334,1.14,3.157,1.709,5.47,1.709c4.004,0,6.006-5.322,6.006-15.967v-7.324c-0.685-0.685-1.855-1.024-3.517-1.024l-1.903,0.098
		c-1.596,0-2.394-0.391-2.394-1.172c0-1.139,0.797-1.709,2.394-1.709c6.151,0,9.229,0.668,9.229,2.002L22.998,48.291z"></path>
    <path class="draw" fill="none" stroke="#E3DED2" stroke-width="2" stroke-miterlimit="10" d="M34.082,5.225c0-2.539,0.732-3.809,2.197-3.809
		c3.255,0,5.939,0.822,8.057,2.466c2.116,1.645,3.174,4.062,3.174,7.251v7.275c0,2.572-1.302,6.25-3.905,11.035
		c-0.879,1.596-1.318,2.466-1.318,2.612s1.261,5.419,3.784,15.82c2.521,10.4,3.849,15.764,3.979,16.089
		c0.131,0.326,0.456,1.011,0.978,2.052c0.521,1.041,0.781,1.938,0.781,2.686s-0.375,1.123-1.123,1.123l-1.466-0.488
		c-1.562-1.758-3.271-8.268-5.127-19.531c-1.791-10.871-3.319-16.309-4.59-16.309h-0.391c-1.465,0-2.197,0.473-2.197,1.416
		c0,3.646,0.211,9.709,0.635,18.188c0.424,8.48,0.781,13.226,1.074,14.233l-0.731,1.66h-1.466l-0.731-0.781
		C34.619,39.34,34.082,18.344,34.082,5.225z M36.914,6.592l0.392,24.219l0.194,0.195c1.271,0,2.409-0.659,3.418-1.978
		c1.009-1.318,1.774-2.921,2.295-4.81c1.074-3.906,1.611-6.868,1.611-8.887c0-2.018-0.065-3.54-0.195-4.565s-0.406-2.107-0.83-3.247
		c-0.879-2.344-2.782-3.516-5.713-3.516c-0.391,0-0.684,0.31-0.879,0.928C37.012,5.551,36.914,6.104,36.914,6.592z"></path>
    <path class="draw" fill="none" stroke="#E3DED2" stroke-width="2" stroke-miterlimit="10" d="M73.877,53.223L71.24,53.32
		c-0.944-0.391-1.986-0.586-3.125-0.586c-1.14,0-1.758,0.033-1.855,0.098s-0.162,0.18-0.194,0.342
		c-0.033,0.163-0.065,0.277-0.099,0.342l-0.194,2.002c-0.13,1.693-0.439,3.729-0.929,6.104c-0.911,4.655-1.871,6.981-2.881,6.981
		c-0.423,0-0.862-0.18-1.317-0.537c-0.456-0.356-0.685-0.748-0.685-1.172c0.847-2.506,1.726-6.299,2.638-11.377
		c0.91-5.078,1.48-8.242,1.709-9.496c0.228-1.254,0.65-3.785,1.27-7.594c0.618-3.809,1.025-6.313,1.221-7.52
		c0.195-1.204,0.725-3.809,1.587-7.812c0.862-4.004,1.384-6.624,1.562-7.861c0.179-1.236,0.382-2.913,0.61-5.029
		c0.553-5.208,0.992-8.105,1.317-8.691l1.367,0.098c0.813,0,1.416-0.195,1.807-0.586c0.424,0,0.83,0.139,1.222,0.415
		c0.391,0.277,0.586,0.644,0.586,1.099c0,3.19,0.407,9.359,1.221,18.506s1.457,15.062,1.929,17.749
		c0.473,2.687,1.018,5.322,1.637,7.91c0.617,2.588,0.928,4.565,0.928,5.933l-0.488,1.367c0,1.498,0.276,3.703,0.83,6.616
		c0.553,2.914,0.83,4.965,0.83,6.151c0,1.188-0.261,1.93-0.781,2.223c-1.367,0-2.206-0.195-2.515-0.586
		c-0.311-0.391-0.464-1.018-0.464-1.88s-0.058-1.921-0.171-3.175c-0.114-1.252-0.229-2.254-0.343-3.002
		c-0.113-0.748-0.31-1.93-0.586-3.541c-0.276-1.61-0.447-2.645-0.513-3.101C77.1,53.386,75.602,53.223,73.877,53.223z
		 M66.846,48.291c0,0.684,0.797,1.254,2.393,1.709c2.441,0.684,5.143,1.025,8.104,1.025h1.025c-0.423-1.303-0.635-2.799-0.635-4.492
		v-2.295c0-4.135-0.513-10.156-1.538-18.066c-1.025-7.91-1.571-13.802-1.635-17.676c-3.483,17.221-5.641,27.855-6.471,31.909
		C67.26,44.458,66.846,47.087,66.846,48.291z"></path>
    <path class="draw" fill="none" stroke="#E3DED2" stroke-width="2" stroke-miterlimit="10" d="M117.92,0c0.748,0.229,1.123,0.651,1.123,1.27
		s-0.082,1.416-0.244,2.393c-0.163,0.977-0.391,2.092-0.684,3.345c-0.293,1.254-0.513,2.23-0.659,2.93
		c-0.146,0.7-0.717,3.239-1.709,7.617c-0.993,4.379-1.669,7.739-2.025,10.083c-0.358,2.344-0.749,5.688-1.173,10.034
		s-0.731,7.235-0.928,8.667c-0.195,1.433-0.609,3.378-1.245,5.835c-0.635,2.458-1.018,4.045-1.146,4.762
		c-0.131,0.717-0.229,1.635-0.293,2.758c-0.065,1.123-0.163,2.183-0.293,3.175c-0.131,0.993-0.326,2.011-0.586,3.052
		c-0.521,2.278-1.562,3.418-3.125,3.418l-1.123-0.928c0-10.872-2.963-29.361-8.888-55.469c-0.098-0.455-0.375-1.497-0.83-3.125
		c-1.236-4.427-1.854-6.787-1.854-7.08s0.146-0.586,0.438-0.879s0.618-0.439,0.978-0.439c0.356,0,0.731,0.285,1.123,0.854
		c0.391,0.57,0.716,1.318,0.977,2.246c0.261,0.928,0.488,1.831,0.685,2.71c0.195,0.879,0.374,1.767,0.537,2.661
		c0.161,0.896,0.365,1.815,0.609,2.759s0.562,2.287,0.952,4.028c0.391,1.742,0.74,3.329,1.05,4.761
		c0.31,1.433,0.65,3.149,1.025,5.151c0.374,2.002,0.675,3.581,0.903,4.736c0.228,1.156,0.521,2.856,0.879,5.103
		c0.356,2.246,0.617,3.817,0.78,4.712c0.162,0.896,0.432,2.598,0.807,5.104c0.374,2.507,0.602,4.076,0.684,4.712
		c0.081,0.635,0.325,2.344,0.732,5.127c0.405,2.783,0.643,4.403,0.708,4.858c1.367-4.524,2.506-10.922,3.418-19.189
		c0.911-8.268,2.246-16.772,4.004-25.513c1.758-8.741,2.783-13.973,3.076-15.698L117.92,0z M103.223,14.111v0.195h-0.099
		C103.125,14.177,103.157,14.111,103.223,14.111z M106.006,61.23l-0.098,0.194l0.098,0.195V61.23z"></path>
    <path class="draw" fill="none" stroke="#E3DED2" stroke-width="2" stroke-miterlimit="10" d="M144.092,67.334l-3.319-0.342
		c-0.521,0-1.141,0.188-1.855,0.562c-0.717,0.375-1.57,0.562-2.562,0.562c-0.993,0-1.62-0.325-1.88-0.978l-1.66,0.098
		c-1.434,0-2.344-0.342-2.734-1.024c0-0.423,0.188-0.772,0.562-1.05c0.374-0.276,0.626-0.496,0.757-0.659h2.881l0.391-0.392
		l0.343-2.1l-0.732-21.875l0.488-23.34c0-4.524-0.163-8.382-0.488-11.572c-0.651-0.195-1.646-0.293-2.979-0.293l-2.393,0.195
		c-1.27,0-1.904-0.569-1.904-1.709c0-0.293,0.302-0.569,0.903-0.83c0.602-0.26,1.099-0.391,1.489-0.391
		c9.276,0,13.916,1.01,13.916,3.027c0,0.195-0.082,0.456-0.244,0.781L140.774,6.2c-0.521-0.391-1.481-0.586-2.881-0.586
		l-0.488,0.293c0.195,0.586,0.293,2.36,0.293,5.322l-0.293,23.779l0.684,21.924l-0.098,3.076c0,1.562,0.098,2.49,0.293,2.783
		l-0.098,0.244c0,0.65,0.731,0.977,2.196,0.977l2.931-0.098c1.984,0,2.979,0.473,2.979,1.416c0,0.586-0.212,1.066-0.635,1.439
		C145.23,67.146,144.71,67.334,144.092,67.334z"></path>
    <path class="draw" fill="none" stroke="#E3DED2" stroke-width="2" stroke-miterlimit="10" d="M170.654,5.42l-5.42-0.684l-0.488,0.586
		l0.195,0.391c-0.131,0.261-0.195,2.165-0.195,5.713c0,3.549,0.553,11.841,1.66,24.879c1.106,13.036,1.66,22.812,1.66,29.32
		c0,0.488-0.195,0.928-0.586,1.318c-0.392,0.39-0.83,0.586-1.318,0.586l-1.123-0.83l-0.195-7.275l0.195-3.516
		c0-0.911-0.131-1.709-0.391-2.393c0-5.664-0.399-13.916-1.196-24.757c-0.798-10.84-1.229-18.848-1.294-24.023
		c-5.241,0-8.041-0.635-8.398-1.904c0.294-0.748,0.929-1.123,1.904-1.123l13.574,0.928l1.807-0.098c1.204,0,1.808,0.424,1.808,1.27
		c0,0.456-0.244,0.839-0.732,1.147C171.631,5.266,171.143,5.42,170.654,5.42z"></path>
    <path class="draw" fill="none" stroke="#E3DED2" stroke-width="2" stroke-miterlimit="10" d="M193.896,46.533l0.098,15.869
		c0,4.817-0.7,7.227-2.1,7.227c-0.229,0-0.505-0.131-0.83-0.391c-0.326-0.262-0.537-0.506-0.635-0.732
		c0.649-1.627,0.977-7.454,0.977-17.48c0-1.952-0.122-4.735-0.366-8.35c-0.244-3.613-0.383-5.973-0.415-7.08l-0.635-1.27
		l0.293-1.221c-0.847-1.953-2.409-6.168-4.688-12.646c-3.32-9.277-5.015-14.664-5.078-16.162l1.366-1.074
		c0.65,0.098,1.628,2.222,2.931,6.372c1.302,4.15,2.579,8.31,3.833,12.476c1.253,4.167,2.14,6.315,2.661,6.445l0.391-1.807
		l-0.195-0.488c0.488-0.586,1.131-2.954,1.93-7.104c0.797-4.15,1.65-8.089,2.562-11.816c0.911-3.727,1.79-5.591,2.637-5.591
		s1.271,0.358,1.271,1.074c0,0.717-0.358,2.336-1.074,4.858c-0.717,2.523-1.384,4.826-2.002,6.909
		c-0.619,2.084-1.083,3.695-1.392,4.834c-0.311,1.14-0.659,2.572-1.051,4.297c-0.78,3.256-1.172,6.299-1.172,9.131
		c0.325,0.814,0.488,1.384,0.488,1.709l-0.586,2.88L193.896,46.533z"></path>
  </g>
</svg>
