<svg version="1.1" id="Layer_1" xmlns="http://www.w3.org/2000/svg" xmlns:xlink="http://www.w3.org/1999/xlink" x="0px" y="0px"
	 width="157.122px" height="117.522px">
<path fill="none" stroke="#E3DED2" stroke-width="2" stroke-miterlimit="10" d="M155.839,1.384
	c-5.011,18.224-52.622,57.583-86.084,67.344c-19.111-7.421-14.193-23.69-14.193-23.69S95.089-3.781,155.839,1.384z"/>
<path fill="none" stroke="#E3DED2" stroke-width="2" stroke-miterlimit="10" d="M52.398,63.723c0,0-54.702,12.964-51.24,37.3
	c8.655-8.45,22.119-11.461,22.119-11.461s-27.375,20.255-6.89,26.666c1.9-10.949,9.632-13.924,9.632-13.924
	s13.33-5.722,12.97,11.463c9.427-6.992,20.999-34.96,8.87-34.887C35.726,78.946,52.398,63.723,52.398,63.723z"/>
<path fill="none" stroke="#E3DED2" stroke-width="2" stroke-miterlimit="10" d="M107.874,52.002c0,0-1.001,26.661-23.03,36.815
	c2.104-4.643,0.068-19.217-6.319-20.975C83.454,65.903,102.779,56.772,107.874,52.002z"/>
<path fill="none" stroke="#E3DED2" stroke-width="2" stroke-miterlimit="10" d="M86.059,17.04c0,0-24.66-10.161-43.047,5.664
	c5.095,0.016,17.509,7.923,16.451,14.464C63.276,33.489,79.605,19.689,86.059,17.04z"/>
<path fill="none" stroke="#E3DED2" stroke-width="2" stroke-miterlimit="10" d="M155.839,1.384
	c-1.456,5.288-6.498,12.361-13.743,19.973c-7.594,7.978-22.348-17.814-8.154-19.564C140.881,0.94,148.192,0.73,155.839,1.384z"/>
<path fill="#E3DED2" d="M114.096,30.8c-4.337-1.683-6.486-6.561-4.803-10.898c1.688-4.337,6.566-6.485,10.898-4.801
	c4.337,1.689,6.486,6.564,4.801,10.898C123.31,30.335,118.428,32.484,114.096,30.8z"/>
</svg>
